<svg xmlns="http://www.w3.org/2000/svg" xmlns:xlink="http://www.w3.org/1999/xlink" width="95" zoomAndPan="magnify" viewBox="0 0 71.25 71.25" height="95" preserveAspectRatio="xMidYMid meet" version="1.0"><defs><g/><clipPath id="9629f598c6"><path d="M 0 0 L 70.507812 0 L 70.507812 70.507812 L 0 70.507812 Z M 0 0 " clip-rule="nonzero"/></clipPath><clipPath id="1df6fac922"><path d="M 35.253906 35.253906 L 59 35.253906 L 59 58 L 35.253906 58 Z M 35.253906 35.253906 " clip-rule="nonzero"/></clipPath><clipPath id="813b4d7529"><path d="M 48 50 L 64.941406 50 L 64.941406 64.941406 L 48 64.941406 Z M 48 50 " clip-rule="nonzero"/></clipPath></defs><g clip-path="url(#9629f598c6)"><path fill="#ffffff" d="M 0 0 L 70.507812 0 L 70.507812 70.507812 L 0 70.507812 Z M 0 0 " fill-opacity="1" fill-rule="nonzero"/><path fill="#b78fd6" d="M 0 0 L 70.507812 0 L 70.507812 70.507812 L 0 70.507812 Z M 0 0 " fill-opacity="1" fill-rule="nonzero"/></g><path fill="#f5974e" d="M 52.46875 50.691406 C 52.074219 50.691406 51.699219 50.765625 51.335938 50.914062 C 50.972656 51.066406 50.652344 51.28125 50.371094 51.558594 C 50.09375 51.835938 49.882812 52.15625 49.730469 52.519531 C 49.582031 52.882812 49.503906 53.261719 49.503906 53.652344 L 49.503906 57.210938 C 49.503906 57.601562 49.582031 57.980469 49.730469 58.34375 C 49.882812 58.707031 50.09375 59.027344 50.371094 59.304688 C 50.652344 59.582031 50.972656 59.796875 51.335938 59.949219 C 51.699219 60.097656 52.074219 60.175781 52.46875 60.175781 L 55.433594 60.175781 L 58.988281 63.730469 L 58.988281 60.175781 L 60.765625 60.175781 C 61.160156 60.175781 61.539062 60.097656 61.902344 59.949219 C 62.265625 59.796875 62.585938 59.582031 62.863281 59.304688 C 63.140625 59.027344 63.355469 58.707031 63.503906 58.34375 C 63.65625 57.980469 63.730469 57.601562 63.730469 57.210938 L 63.730469 53.652344 C 63.730469 53.261719 63.65625 52.882812 63.503906 52.519531 C 63.355469 52.15625 63.140625 51.835938 62.863281 51.558594 C 62.585938 51.28125 62.265625 51.066406 61.902344 50.914062 C 61.539062 50.765625 61.160156 50.691406 60.765625 50.691406 Z M 52.46875 50.691406 " fill-opacity="1" fill-rule="nonzero"/><path fill="#f5bb4e" d="M 60.765625 50.691406 L 52.46875 50.691406 C 52.074219 50.691406 51.699219 50.765625 51.335938 50.914062 C 50.972656 51.066406 50.652344 51.28125 50.371094 51.558594 C 50.09375 51.835938 49.882812 52.15625 49.730469 52.519531 C 49.582031 52.882812 49.503906 53.261719 49.503906 53.652344 L 49.503906 57.210938 C 49.503906 56.816406 49.582031 56.4375 49.730469 56.074219 C 49.882812 55.714844 50.09375 55.394531 50.371094 55.113281 C 50.652344 54.835938 50.972656 54.621094 51.335938 54.472656 C 51.699219 54.320312 52.074219 54.246094 52.46875 54.246094 L 60.765625 54.246094 C 61.160156 54.246094 61.539062 54.320312 61.902344 54.472656 C 62.265625 54.621094 62.585938 54.835938 62.863281 55.113281 C 63.140625 55.394531 63.355469 55.714844 63.503906 56.074219 C 63.65625 56.4375 63.730469 56.816406 63.730469 57.210938 L 63.730469 53.652344 C 63.730469 53.261719 63.65625 52.882812 63.503906 52.519531 C 63.355469 52.15625 63.140625 51.835938 62.863281 51.558594 C 62.585938 51.28125 62.265625 51.066406 61.902344 50.914062 C 61.539062 50.765625 61.160156 50.691406 60.765625 50.691406 Z M 60.765625 50.691406 " fill-opacity="1" fill-rule="nonzero"/><path fill="#f5bb4e" d="M 53.0625 36.464844 L 41.207031 36.464844 C 40.894531 36.464844 40.585938 36.496094 40.28125 36.554688 C 39.976562 36.617188 39.679688 36.707031 39.390625 36.824219 C 39.105469 36.945312 38.832031 37.089844 38.574219 37.265625 C 38.3125 37.4375 38.074219 37.632812 37.855469 37.855469 C 37.632812 38.074219 37.4375 38.3125 37.265625 38.574219 C 37.089844 38.832031 36.945312 39.105469 36.824219 39.390625 C 36.707031 39.679688 36.617188 39.976562 36.554688 40.28125 C 36.496094 40.585938 36.464844 40.894531 36.464844 41.207031 L 36.464844 47.132812 C 36.464844 47.445312 36.496094 47.753906 36.554688 48.058594 C 36.617188 48.363281 36.707031 48.660156 36.824219 48.949219 C 36.945312 49.234375 37.089844 49.507812 37.265625 49.769531 C 37.4375 50.027344 37.632812 50.265625 37.855469 50.488281 C 38.074219 50.707031 38.3125 50.902344 38.574219 51.078125 C 38.832031 51.25 39.105469 51.394531 39.390625 51.515625 C 39.679688 51.632812 39.976562 51.722656 40.28125 51.785156 C 40.585938 51.84375 40.894531 51.875 41.207031 51.875 L 42.390625 51.875 L 42.390625 56.617188 L 47.726562 51.875 L 53.0625 51.875 C 53.371094 51.875 53.679688 51.84375 53.984375 51.785156 C 54.292969 51.722656 54.589844 51.632812 54.875 51.515625 C 55.164062 51.394531 55.4375 51.25 55.695312 51.078125 C 55.953125 50.902344 56.195312 50.707031 56.414062 50.488281 C 56.632812 50.265625 56.832031 50.027344 57.003906 49.769531 C 57.175781 49.507812 57.324219 49.234375 57.441406 48.949219 C 57.5625 48.660156 57.652344 48.363281 57.710938 48.058594 C 57.773438 47.753906 57.804688 47.445312 57.804688 47.132812 L 57.804688 41.207031 C 57.804688 40.894531 57.773438 40.585938 57.710938 40.28125 C 57.652344 39.976562 57.5625 39.679688 57.441406 39.390625 C 57.324219 39.105469 57.175781 38.832031 57.003906 38.574219 C 56.832031 38.3125 56.632812 38.074219 56.414062 37.855469 C 56.195312 37.632812 55.953125 37.4375 55.695312 37.265625 C 55.4375 37.089844 55.164062 36.945312 54.875 36.824219 C 54.589844 36.707031 54.292969 36.617188 53.984375 36.554688 C 53.679688 36.496094 53.371094 36.464844 53.0625 36.464844 Z M 53.0625 36.464844 " fill-opacity="1" fill-rule="nonzero"/><path fill="#f5974e" d="M 53.0625 36.464844 L 41.207031 36.464844 C 40.894531 36.464844 40.585938 36.496094 40.28125 36.554688 C 39.976562 36.617188 39.679688 36.707031 39.390625 36.824219 C 39.105469 36.945312 38.832031 37.089844 38.574219 37.265625 C 38.3125 37.4375 38.074219 37.632812 37.855469 37.855469 C 37.632812 38.074219 37.4375 38.3125 37.265625 38.574219 C 37.089844 38.832031 36.945312 39.105469 36.824219 39.390625 C 36.707031 39.679688 36.617188 39.976562 36.554688 40.28125 C 36.496094 40.585938 36.464844 40.894531 36.464844 41.207031 L 36.464844 44.761719 C 36.464844 44.453125 36.496094 44.144531 36.554688 43.839844 C 36.617188 43.53125 36.707031 43.234375 36.824219 42.949219 C 36.945312 42.660156 37.089844 42.386719 37.265625 42.128906 C 37.4375 41.871094 37.632812 41.628906 37.855469 41.410156 C 38.074219 41.191406 38.3125 40.992188 38.574219 40.820312 C 38.832031 40.648438 39.105469 40.5 39.390625 40.382812 C 39.679688 40.261719 39.976562 40.171875 40.28125 40.113281 C 40.585938 40.050781 40.894531 40.019531 41.207031 40.019531 L 53.0625 40.019531 C 53.371094 40.019531 53.679688 40.050781 53.984375 40.113281 C 54.292969 40.171875 54.589844 40.261719 54.875 40.382812 C 55.164062 40.5 55.4375 40.648438 55.695312 40.820312 C 55.953125 40.992188 56.195312 41.191406 56.414062 41.410156 C 56.632812 41.628906 56.832031 41.871094 57.003906 42.128906 C 57.175781 42.386719 57.324219 42.660156 57.441406 42.949219 C 57.5625 43.234375 57.652344 43.53125 57.710938 43.839844 C 57.773438 44.144531 57.804688 44.453125 57.804688 44.761719 L 57.804688 41.207031 C 57.804688 40.894531 57.773438 40.585938 57.710938 40.28125 C 57.652344 39.976562 57.5625 39.679688 57.441406 39.390625 C 57.324219 39.105469 57.175781 38.832031 57.003906 38.574219 C 56.832031 38.3125 56.632812 38.074219 56.414062 37.855469 C 56.195312 37.632812 55.953125 37.4375 55.695312 37.265625 C 55.4375 37.089844 55.164062 36.945312 54.875 36.824219 C 54.589844 36.707031 54.292969 36.617188 53.984375 36.554688 C 53.679688 36.496094 53.371094 36.464844 53.0625 36.464844 Z M 53.0625 36.464844 " fill-opacity="1" fill-rule="nonzero"/><g clip-path="url(#1df6fac922)"><path stroke-linecap="round" transform="matrix(0.61849, 0, 0, 0.61849, 35.872396, 35.872398)" fill="none" stroke-linejoin="round" d="M 27.793688 0.957892 L 8.625264 0.957892 C 8.120001 0.957892 7.621054 1.008418 7.128422 1.103155 C 6.635791 1.204208 6.15579 1.349471 5.688422 1.538945 C 5.227369 1.734734 4.785264 1.968418 4.368422 2.252629 C 3.945264 2.530524 3.560001 2.846313 3.206316 3.206313 C 2.846316 3.559998 2.530527 3.945261 2.252632 4.368419 C 1.968422 4.785261 1.734737 5.227366 1.538948 5.688419 C 1.349474 6.155787 1.204211 6.635787 1.103158 7.128419 C 1.008422 7.621051 0.957895 8.119998 0.957895 8.625261 L 0.957895 18.206315 C 0.957895 18.711578 1.008422 19.210526 1.103158 19.703157 C 1.204211 20.195789 1.349474 20.675789 1.538948 21.143157 C 1.734737 21.60421 1.968422 22.046315 2.252632 22.469473 C 2.530527 22.886315 2.846316 23.271579 3.206316 23.631579 C 3.560001 23.985263 3.945264 24.301052 4.368422 24.585263 C 4.785264 24.863158 5.227369 25.096842 5.688422 25.292631 C 6.15579 25.482105 6.635791 25.627368 7.128422 25.728421 C 7.621054 25.823158 8.120001 25.873684 8.625264 25.873684 L 10.538949 25.873684 L 10.538949 33.541053 L 19.166318 25.873684 L 27.793688 25.873684 C 28.292635 25.873684 28.791582 25.823158 29.284214 25.728421 C 29.783161 25.627368 30.263161 25.482105 30.724214 25.292631 C 31.191583 25.096842 31.633688 24.863158 32.05053 24.585263 C 32.467372 24.301052 32.858951 23.985263 33.212635 23.631579 C 33.56632 23.271579 33.888425 22.886315 34.16632 22.469473 C 34.444215 22.046315 34.684215 21.60421 34.873688 21.143157 C 35.069478 20.675789 35.214741 20.195789 35.309478 19.703157 C 35.41053 19.210526 35.461057 18.711578 35.461057 18.206315 L 35.461057 8.625261 C 35.461057 8.119998 35.41053 7.621051 35.309478 7.128419 C 35.214741 6.635787 35.069478 6.155787 34.873688 5.688419 C 34.684215 5.227366 34.444215 4.785261 34.16632 4.368419 C 33.888425 3.945261 33.56632 3.559998 33.212635 3.206313 C 32.858951 2.846313 32.467372 2.530524 32.05053 2.252629 C 31.633688 1.968418 31.191583 1.734734 30.724214 1.538945 C 30.263161 1.349471 29.783161 1.204208 29.284214 1.103155 C 28.791582 1.008418 28.292635 0.957892 27.793688 0.957892 Z M 27.793688 0.957892 " stroke="#222126" stroke-width="2" stroke-opacity="1" stroke-miterlimit="4"/></g><g clip-path="url(#813b4d7529)"><path stroke-linecap="round" transform="matrix(0.61849, 0, 0, 0.61849, 35.872396, 35.872398)" fill="none" stroke-linejoin="round" d="M 22.040003 31.627369 L 22.040003 34.501053 C 22.040003 35.132632 22.166319 35.745264 22.406319 36.332633 C 22.652634 36.920001 22.993687 37.437896 23.442108 37.886317 C 23.896845 38.334738 24.41474 38.682107 25.002108 38.928422 C 25.589477 39.168422 26.195793 39.294738 26.833687 39.294738 L 31.627372 39.294738 L 37.374741 45.042107 L 37.374741 39.294738 L 40.248426 39.294738 C 40.88632 39.294738 41.498952 39.168422 42.086321 38.928422 C 42.673689 38.682107 43.191584 38.334738 43.640005 37.886317 C 44.088426 37.437896 44.435795 36.920001 44.675795 36.332633 C 44.92211 35.745264 45.04211 35.132632 45.04211 34.501053 L 45.04211 28.747369 C 45.04211 28.11579 44.92211 27.503158 44.675795 26.915789 C 44.435795 26.328421 44.088426 25.810526 43.640005 25.362105 C 43.191584 24.913684 42.673689 24.566316 42.086321 24.32 C 41.498952 24.08 40.88632 23.96 40.248426 23.96 L 39.294741 23.96 " stroke="#222126" stroke-width="2" stroke-opacity="1" stroke-miterlimit="4"/></g><g fill="#000000" fill-opacity="1"><g transform="translate(5.802398, 11.635778)"><g><path d="M 0.386719 0 L 1.640625 0 L 1.640625 -1.8125 L 5.769531 -1.8125 L 5.769531 -2.859375 L 1.640625 -2.859375 L 1.640625 -4.488281 L 6.246094 -4.488281 L 6.246094 -5.542969 L 0.386719 -5.542969 Z M 0.386719 0 "/></g></g></g><g fill="#000000" fill-opacity="1"><g transform="translate(12.555379, 11.635778)"><g><path d="M 0.308594 0 L 1.695312 0 L 2.367188 -1.226562 L 5.898438 -1.226562 L 6.570312 0 L 7.957031 0 L 4.941406 -5.542969 L 3.324219 -5.542969 Z M 2.851562 -2.191406 L 4.132812 -4.519531 L 5.414062 -2.191406 Z M 2.851562 -2.191406 "/></g></g></g><g fill="#000000" fill-opacity="1"><g transform="translate(21.018382, 11.635778)"><g><path d="M 6.753906 0.648438 L 7.640625 -0.238281 L 6.785156 -1.09375 C 7.117188 -1.535156 7.277344 -2.105469 7.277344 -2.777344 C 7.277344 -4.574219 6.222656 -5.621094 3.792969 -5.621094 C 1.355469 -5.621094 0.308594 -4.582031 0.308594 -2.777344 C 0.308594 -0.964844 1.355469 0.078125 3.792969 0.078125 C 4.632812 0.078125 5.296875 -0.046875 5.828125 -0.285156 Z M 3.792969 -0.972656 C 2.234375 -0.972656 1.558594 -1.496094 1.558594 -2.777344 C 1.558594 -4.054688 2.222656 -4.566406 3.792969 -4.566406 C 5.359375 -4.566406 6.023438 -4.046875 6.023438 -2.777344 C 6.023438 -1.503906 5.351562 -0.972656 3.792969 -0.972656 Z M 3.792969 -0.972656 "/></g></g></g><g fill="#000000" fill-opacity="1"><g transform="translate(29.243884, 11.635778)"><g/></g></g><g fill="#000000" fill-opacity="1"><g transform="translate(33.186422, 11.635778)"><g><path d="M 0.546875 -2.183594 L 6.878906 -2.183594 L 6.878906 -3.199219 L 0.546875 -3.199219 Z M 0.546875 -2.183594 "/></g></g></g><g fill="#000000" fill-opacity="1"><g transform="translate(5.802398, 22.191366)"><g><path d="M 1.28125 -4.25 L 1.28125 -2.703125 C 1.28125 -2.210938 1.550781 -1.96875 2.09375 -1.96875 C 2.363281 -1.96875 2.601562 -2.007812 2.8125 -2.09375 C 3.03125 -2.175781 3.253906 -2.285156 3.484375 -2.421875 L 3.484375 -4.25 L 4.1875 -4.25 L 4.1875 0 L 3.484375 0 L 3.484375 -1.890625 C 3.242188 -1.734375 3.007812 -1.613281 2.78125 -1.53125 C 2.550781 -1.445312 2.273438 -1.40625 1.953125 -1.40625 C 1.515625 -1.40625 1.175781 -1.515625 0.9375 -1.734375 C 0.707031 -1.960938 0.59375 -2.269531 0.59375 -2.65625 L 0.59375 -4.25 Z M 1.28125 -4.25 "/></g></g></g><g fill="#000000" fill-opacity="1"><g transform="translate(10.853279, 22.191366)"><g><path d="M 2.28125 -4.3125 C 2.800781 -4.3125 3.179688 -4.195312 3.421875 -3.96875 C 3.671875 -3.75 3.796875 -3.390625 3.796875 -2.890625 L 3.796875 0 L 3.296875 0 L 3.15625 -0.609375 L 3.125 -0.609375 C 2.945312 -0.367188 2.753906 -0.191406 2.546875 -0.078125 C 2.335938 0.0234375 2.054688 0.078125 1.703125 0.078125 C 1.316406 0.078125 0.992188 -0.0195312 0.734375 -0.21875 C 0.484375 -0.425781 0.359375 -0.75 0.359375 -1.1875 C 0.359375 -1.601562 0.523438 -1.925781 0.859375 -2.15625 C 1.191406 -2.382812 1.707031 -2.507812 2.40625 -2.53125 L 3.125 -2.5625 L 3.125 -2.8125 C 3.125 -3.164062 3.046875 -3.410156 2.890625 -3.546875 C 2.734375 -3.679688 2.515625 -3.75 2.234375 -3.75 C 2.015625 -3.75 1.804688 -3.71875 1.609375 -3.65625 C 1.410156 -3.59375 1.222656 -3.519531 1.046875 -3.4375 L 0.828125 -3.953125 C 1.015625 -4.054688 1.234375 -4.140625 1.484375 -4.203125 C 1.742188 -4.273438 2.007812 -4.3125 2.28125 -4.3125 Z M 3.109375 -2.078125 L 2.484375 -2.046875 C 1.953125 -2.023438 1.582031 -1.941406 1.375 -1.796875 C 1.175781 -1.648438 1.078125 -1.441406 1.078125 -1.171875 C 1.078125 -0.929688 1.148438 -0.753906 1.296875 -0.640625 C 1.441406 -0.535156 1.628906 -0.484375 1.859375 -0.484375 C 2.210938 -0.484375 2.507812 -0.582031 2.75 -0.78125 C 2.988281 -0.976562 3.109375 -1.28125 3.109375 -1.6875 Z M 3.109375 -2.078125 "/></g></g></g><g fill="#000000" fill-opacity="1"><g transform="translate(15.492487, 22.191366)"><g><path d="M 2.375 0.078125 C 2 0.078125 1.664062 0.00390625 1.375 -0.140625 C 1.082031 -0.296875 0.851562 -0.535156 0.6875 -0.859375 C 0.519531 -1.179688 0.4375 -1.59375 0.4375 -2.09375 C 0.4375 -2.625 0.519531 -3.050781 0.6875 -3.375 C 0.863281 -3.695312 1.101562 -3.9375 1.40625 -4.09375 C 1.707031 -4.25 2.046875 -4.328125 2.421875 -4.328125 C 2.628906 -4.328125 2.832031 -4.300781 3.03125 -4.25 C 3.238281 -4.207031 3.410156 -4.15625 3.546875 -4.09375 L 3.328125 -3.515625 C 3.203125 -3.566406 3.050781 -3.613281 2.875 -3.65625 C 2.707031 -3.695312 2.550781 -3.71875 2.40625 -3.71875 C 1.570312 -3.71875 1.15625 -3.179688 1.15625 -2.109375 C 1.15625 -1.597656 1.253906 -1.203125 1.453125 -0.921875 C 1.660156 -0.648438 1.96875 -0.515625 2.375 -0.515625 C 2.59375 -0.515625 2.789062 -0.539062 2.96875 -0.59375 C 3.15625 -0.644531 3.320312 -0.703125 3.46875 -0.765625 L 3.46875 -0.15625 C 3.320312 -0.0820312 3.160156 -0.0234375 2.984375 0.015625 C 2.816406 0.0546875 2.613281 0.078125 2.375 0.078125 Z M 2.375 0.078125 "/></g></g></g><g fill="#000000" fill-opacity="1"><g transform="translate(19.490443, 22.191366)"><g><path d="M 3.609375 -3.65625 L 2.21875 -3.65625 L 2.21875 0 L 1.53125 0 L 1.53125 -3.65625 L 0.15625 -3.65625 L 0.15625 -4.25 L 3.609375 -4.25 Z M 3.609375 -3.65625 "/></g></g></g><g fill="#000000" fill-opacity="1"><g transform="translate(23.456728, 22.191366)"><g><path d="M 0.671875 0 L 0.671875 -4.25 L 1.375 -4.25 L 1.375 -2.5 L 2.46875 -2.5 C 3.019531 -2.5 3.425781 -2.398438 3.6875 -2.203125 C 3.957031 -2.003906 4.09375 -1.703125 4.09375 -1.296875 C 4.09375 -0.898438 3.960938 -0.582031 3.703125 -0.34375 C 3.441406 -0.113281 3.019531 0 2.4375 0 Z M 4.796875 0 L 4.796875 -4.25 L 5.484375 -4.25 L 5.484375 0 Z M 1.375 -0.5625 L 2.375 -0.5625 C 2.675781 -0.5625 2.921875 -0.613281 3.109375 -0.71875 C 3.304688 -0.820312 3.40625 -1.003906 3.40625 -1.265625 C 3.40625 -1.515625 3.316406 -1.6875 3.140625 -1.78125 C 2.960938 -1.875 2.710938 -1.921875 2.390625 -1.921875 L 1.375 -1.921875 Z M 1.375 -0.5625 "/></g></g></g><g fill="#000000" fill-opacity="1"><g transform="translate(29.813869, 22.191366)"><g><path d="M 2.3125 -4.328125 C 2.675781 -4.328125 2.988281 -4.242188 3.25 -4.078125 C 3.507812 -3.921875 3.707031 -3.695312 3.84375 -3.40625 C 3.988281 -3.125 4.0625 -2.789062 4.0625 -2.40625 L 4.0625 -1.984375 L 1.15625 -1.984375 C 1.164062 -1.503906 1.285156 -1.140625 1.515625 -0.890625 C 1.753906 -0.640625 2.085938 -0.515625 2.515625 -0.515625 C 2.785156 -0.515625 3.023438 -0.539062 3.234375 -0.59375 C 3.441406 -0.644531 3.65625 -0.71875 3.875 -0.8125 L 3.875 -0.203125 C 3.65625 -0.109375 3.441406 -0.0390625 3.234375 0 C 3.023438 0.0507812 2.773438 0.078125 2.484375 0.078125 C 2.078125 0.078125 1.71875 0 1.40625 -0.15625 C 1.101562 -0.320312 0.863281 -0.566406 0.6875 -0.890625 C 0.519531 -1.210938 0.4375 -1.613281 0.4375 -2.09375 C 0.4375 -2.550781 0.515625 -2.945312 0.671875 -3.28125 C 0.828125 -3.613281 1.046875 -3.867188 1.328125 -4.046875 C 1.609375 -4.234375 1.9375 -4.328125 2.3125 -4.328125 Z M 2.3125 -3.75 C 1.976562 -3.75 1.710938 -3.640625 1.515625 -3.421875 C 1.328125 -3.210938 1.210938 -2.921875 1.171875 -2.546875 L 3.328125 -2.546875 C 3.328125 -2.898438 3.242188 -3.1875 3.078125 -3.40625 C 2.921875 -3.632812 2.664062 -3.75 2.3125 -3.75 Z M 2.3125 -3.75 "/></g></g></g><g fill="#000000" fill-opacity="1"><g transform="translate(34.479785, 22.191366)"><g/></g></g><g fill="#000000" fill-opacity="1"><g transform="translate(5.802398, 32.746953)"><g><path d="M 4.09375 -3.171875 C 4.09375 -2.910156 4.007812 -2.707031 3.84375 -2.5625 C 3.6875 -2.414062 3.484375 -2.3125 3.234375 -2.25 L 3.234375 -2.21875 C 3.492188 -2.1875 3.722656 -2.09375 3.921875 -1.9375 C 4.117188 -1.789062 4.21875 -1.5625 4.21875 -1.25 C 4.21875 -0.882812 4.082031 -0.582031 3.8125 -0.34375 C 3.550781 -0.113281 3.113281 0 2.5 0 L 0.671875 0 L 0.671875 -4.25 L 2.5 -4.25 C 2.800781 -4.25 3.070312 -4.210938 3.3125 -4.140625 C 3.550781 -4.078125 3.738281 -3.96875 3.875 -3.8125 C 4.019531 -3.65625 4.09375 -3.441406 4.09375 -3.171875 Z M 3.375 -3.09375 C 3.375 -3.289062 3.300781 -3.4375 3.15625 -3.53125 C 3.019531 -3.625 2.785156 -3.671875 2.453125 -3.671875 L 1.375 -3.671875 L 1.375 -2.5 L 2.328125 -2.5 C 3.023438 -2.5 3.375 -2.695312 3.375 -3.09375 Z M 3.5 -1.25 C 3.5 -1.488281 3.40625 -1.660156 3.21875 -1.765625 C 3.039062 -1.867188 2.769531 -1.921875 2.40625 -1.921875 L 1.375 -1.921875 L 1.375 -0.5625 L 2.421875 -0.5625 C 2.773438 -0.5625 3.039062 -0.613281 3.21875 -0.71875 C 3.40625 -0.820312 3.5 -1 3.5 -1.25 Z M 3.5 -1.25 "/></g></g></g><g fill="#000000" fill-opacity="1"><g transform="translate(10.560361, 32.746953)"><g><path d="M 4.359375 -2.125 C 4.359375 -1.425781 4.179688 -0.882812 3.828125 -0.5 C 3.472656 -0.113281 2.992188 0.078125 2.390625 0.078125 C 2.015625 0.078125 1.675781 -0.00390625 1.375 -0.171875 C 1.082031 -0.347656 0.851562 -0.597656 0.6875 -0.921875 C 0.519531 -1.253906 0.4375 -1.65625 0.4375 -2.125 C 0.4375 -2.832031 0.609375 -3.375 0.953125 -3.75 C 1.304688 -4.132812 1.789062 -4.328125 2.40625 -4.328125 C 2.789062 -4.328125 3.128906 -4.238281 3.421875 -4.0625 C 3.710938 -3.894531 3.941406 -3.648438 4.109375 -3.328125 C 4.273438 -3.003906 4.359375 -2.601562 4.359375 -2.125 Z M 1.15625 -2.125 C 1.15625 -1.625 1.253906 -1.226562 1.453125 -0.9375 C 1.648438 -0.644531 1.96875 -0.5 2.40625 -0.5 C 2.832031 -0.5 3.144531 -0.644531 3.34375 -0.9375 C 3.539062 -1.226562 3.640625 -1.625 3.640625 -2.125 C 3.640625 -2.632812 3.539062 -3.03125 3.34375 -3.3125 C 3.144531 -3.59375 2.828125 -3.734375 2.390625 -3.734375 C 1.960938 -3.734375 1.648438 -3.59375 1.453125 -3.3125 C 1.253906 -3.03125 1.15625 -2.632812 1.15625 -2.125 Z M 1.15625 -2.125 "/></g></g></g><g fill="#000000" fill-opacity="1"><g transform="translate(15.547913, 32.746953)"><g><path d="M 4.265625 -4.25 L 4.265625 0 L 3.5625 0 L 3.5625 -3.65625 L 1.375 -3.65625 L 1.375 0 L 0.671875 0 L 0.671875 -4.25 Z M 4.265625 -4.25 "/></g></g></g><g fill="#000000" fill-opacity="1"><g transform="translate(20.685881, 32.746953)"><g><path d="M 2.6875 -4.328125 C 3.21875 -4.328125 3.640625 -4.144531 3.953125 -3.78125 C 4.273438 -3.414062 4.4375 -2.863281 4.4375 -2.125 C 4.4375 -1.40625 4.273438 -0.859375 3.953125 -0.484375 C 3.640625 -0.109375 3.21875 0.078125 2.6875 0.078125 C 2.351562 0.078125 2.078125 0.0195312 1.859375 -0.09375 C 1.648438 -0.21875 1.488281 -0.363281 1.375 -0.53125 L 1.328125 -0.53125 C 1.328125 -0.445312 1.332031 -0.332031 1.34375 -0.1875 C 1.363281 -0.0507812 1.375 0.0625 1.375 0.15625 L 1.375 1.90625 L 0.671875 1.90625 L 0.671875 -4.25 L 1.25 -4.25 L 1.34375 -3.671875 L 1.375 -3.671875 C 1.5 -3.847656 1.660156 -4 1.859375 -4.125 C 2.066406 -4.257812 2.34375 -4.328125 2.6875 -4.328125 Z M 2.5625 -3.734375 C 2.132812 -3.734375 1.828125 -3.613281 1.640625 -3.375 C 1.460938 -3.132812 1.375 -2.765625 1.375 -2.265625 L 1.375 -2.125 C 1.375 -1.601562 1.457031 -1.203125 1.625 -0.921875 C 1.800781 -0.640625 2.117188 -0.5 2.578125 -0.5 C 2.835938 -0.5 3.050781 -0.566406 3.21875 -0.703125 C 3.382812 -0.847656 3.507812 -1.039062 3.59375 -1.28125 C 3.675781 -1.53125 3.71875 -1.816406 3.71875 -2.140625 C 3.71875 -2.628906 3.625 -3.015625 3.4375 -3.296875 C 3.25 -3.585938 2.957031 -3.734375 2.5625 -3.734375 Z M 2.5625 -3.734375 "/></g></g></g><g fill="#000000" fill-opacity="1"><g transform="translate(25.752596, 32.746953)"><g><path d="M 4.359375 -2.125 C 4.359375 -1.425781 4.179688 -0.882812 3.828125 -0.5 C 3.472656 -0.113281 2.992188 0.078125 2.390625 0.078125 C 2.015625 0.078125 1.675781 -0.00390625 1.375 -0.171875 C 1.082031 -0.347656 0.851562 -0.597656 0.6875 -0.921875 C 0.519531 -1.253906 0.4375 -1.65625 0.4375 -2.125 C 0.4375 -2.832031 0.609375 -3.375 0.953125 -3.75 C 1.304688 -4.132812 1.789062 -4.328125 2.40625 -4.328125 C 2.789062 -4.328125 3.128906 -4.238281 3.421875 -4.0625 C 3.710938 -3.894531 3.941406 -3.648438 4.109375 -3.328125 C 4.273438 -3.003906 4.359375 -2.601562 4.359375 -2.125 Z M 1.15625 -2.125 C 1.15625 -1.625 1.253906 -1.226562 1.453125 -0.9375 C 1.648438 -0.644531 1.96875 -0.5 2.40625 -0.5 C 2.832031 -0.5 3.144531 -0.644531 3.34375 -0.9375 C 3.539062 -1.226562 3.640625 -1.625 3.640625 -2.125 C 3.640625 -2.632812 3.539062 -3.03125 3.34375 -3.3125 C 3.144531 -3.59375 2.828125 -3.734375 2.390625 -3.734375 C 1.960938 -3.734375 1.648438 -3.59375 1.453125 -3.3125 C 1.253906 -3.03125 1.15625 -2.632812 1.15625 -2.125 Z M 1.15625 -2.125 "/></g></g></g><g fill="#000000" fill-opacity="1"><g transform="translate(30.740147, 32.746953)"><g><path d="M 2.375 0.078125 C 2 0.078125 1.664062 0.00390625 1.375 -0.140625 C 1.082031 -0.296875 0.851562 -0.535156 0.6875 -0.859375 C 0.519531 -1.179688 0.4375 -1.59375 0.4375 -2.09375 C 0.4375 -2.625 0.519531 -3.050781 0.6875 -3.375 C 0.863281 -3.695312 1.101562 -3.9375 1.40625 -4.09375 C 1.707031 -4.25 2.046875 -4.328125 2.421875 -4.328125 C 2.628906 -4.328125 2.832031 -4.300781 3.03125 -4.25 C 3.238281 -4.207031 3.410156 -4.15625 3.546875 -4.09375 L 3.328125 -3.515625 C 3.203125 -3.566406 3.050781 -3.613281 2.875 -3.65625 C 2.707031 -3.695312 2.550781 -3.71875 2.40625 -3.71875 C 1.570312 -3.71875 1.15625 -3.179688 1.15625 -2.109375 C 1.15625 -1.597656 1.253906 -1.203125 1.453125 -0.921875 C 1.660156 -0.648438 1.96875 -0.515625 2.375 -0.515625 C 2.59375 -0.515625 2.789062 -0.539062 2.96875 -0.59375 C 3.15625 -0.644531 3.320312 -0.703125 3.46875 -0.765625 L 3.46875 -0.15625 C 3.320312 -0.0820312 3.160156 -0.0234375 2.984375 0.015625 C 2.816406 0.0546875 2.613281 0.078125 2.375 0.078125 Z M 2.375 0.078125 "/></g></g></g><g fill="#000000" fill-opacity="1"><g transform="translate(34.738102, 32.746953)"><g><path d="M 0.671875 0 L 0.671875 -4.25 L 1.375 -4.25 L 1.375 -2.5 L 2.46875 -2.5 C 3.019531 -2.5 3.425781 -2.398438 3.6875 -2.203125 C 3.957031 -2.003906 4.09375 -1.703125 4.09375 -1.296875 C 4.09375 -0.898438 3.960938 -0.582031 3.703125 -0.34375 C 3.441406 -0.113281 3.019531 0 2.4375 0 Z M 4.796875 0 L 4.796875 -4.25 L 5.484375 -4.25 L 5.484375 0 Z M 1.375 -0.5625 L 2.375 -0.5625 C 2.675781 -0.5625 2.921875 -0.613281 3.109375 -0.71875 C 3.304688 -0.820312 3.40625 -1.003906 3.40625 -1.265625 C 3.40625 -1.515625 3.316406 -1.6875 3.140625 -1.78125 C 2.960938 -1.875 2.710938 -1.921875 2.390625 -1.921875 L 1.375 -1.921875 Z M 1.375 -0.5625 "/></g></g></g></svg>