<svg xmlns="http://www.w3.org/2000/svg" xmlns:xlink="http://www.w3.org/1999/xlink" width="95" zoomAndPan="magnify" viewBox="0 0 71.25 71.25" height="95" preserveAspectRatio="xMidYMid meet" version="1.0"><defs><g/><clipPath id="65371c5579"><path d="M 0 0 L 70.507812 0 L 70.507812 70.507812 L 0 70.507812 Z M 0 0 " clip-rule="nonzero"/></clipPath><clipPath id="66c1bb344d"><path d="M 48 35.253906 L 65 35.253906 L 65 59 L 48 59 Z M 48 35.253906 " clip-rule="nonzero"/></clipPath></defs><g clip-path="url(#65371c5579)"><path fill="#ffffff" d="M 0 0 L 70.507812 0 L 70.507812 70.507812 L 0 70.507812 Z M 0 0 " fill-opacity="1" fill-rule="nonzero"/><path fill="#545454" d="M 0 0 L 70.507812 0 L 70.507812 70.507812 L 0 70.507812 Z M 0 0 " fill-opacity="1" fill-rule="nonzero"/></g><path fill="#ff0000" d="M 56.441406 36.527344 C 56.929688 36.527344 57.417969 36.574219 57.898438 36.667969 C 58.378906 36.765625 58.847656 36.90625 59.300781 37.09375 C 59.753906 37.28125 60.183594 37.511719 60.589844 37.785156 C 60.996094 38.058594 61.375 38.367188 61.722656 38.714844 C 62.070312 39.058594 62.378906 39.4375 62.652344 39.84375 C 62.921875 40.253906 63.152344 40.683594 63.339844 41.136719 C 63.527344 41.589844 63.671875 42.054688 63.765625 42.535156 C 63.863281 43.019531 63.910156 43.503906 63.910156 43.992188 C 63.910156 47.160156 59.511719 53.894531 57.464844 56.859375 C 57.347656 57.027344 57.199219 57.160156 57.019531 57.253906 C 56.839844 57.347656 56.644531 57.398438 56.441406 57.398438 C 56.238281 57.398438 56.042969 57.347656 55.863281 57.253906 C 55.679688 57.160156 55.53125 57.027344 55.417969 56.859375 C 53.371094 53.894531 48.972656 47.160156 48.972656 43.992188 C 48.972656 43.503906 49.019531 43.019531 49.117188 42.535156 C 49.210938 42.054688 49.355469 41.589844 49.542969 41.136719 C 49.730469 40.683594 49.957031 40.253906 50.230469 39.84375 C 50.503906 39.4375 50.8125 39.058594 51.160156 38.714844 C 51.507812 38.367188 51.882812 38.058594 52.292969 37.785156 C 52.699219 37.511719 53.128906 37.28125 53.582031 37.09375 C 54.035156 36.90625 54.503906 36.765625 54.984375 36.667969 C 55.464844 36.574219 55.949219 36.527344 56.441406 36.527344 Z M 56.441406 36.527344 " fill-opacity="1" fill-rule="nonzero"/><path fill="#ff0000" d="M 56.441406 57.394531 C 56.003906 57.394531 55.664062 57.214844 55.417969 56.859375 C 53.371094 53.894531 48.972656 47.160156 48.972656 43.992188 C 48.972656 43.503906 49.019531 43.019531 49.117188 42.535156 C 49.210938 42.054688 49.355469 41.589844 49.542969 41.136719 C 49.730469 40.683594 49.957031 40.253906 50.230469 39.84375 C 50.503906 39.4375 50.8125 39.058594 51.160156 38.714844 C 51.507812 38.367188 51.882812 38.058594 52.292969 37.785156 C 52.699219 37.511719 53.128906 37.28125 53.582031 37.09375 C 54.035156 36.90625 54.503906 36.765625 54.984375 36.667969 C 55.464844 36.574219 55.949219 36.527344 56.441406 36.527344 Z M 56.441406 57.394531 " fill-opacity="1" fill-rule="nonzero"/><path stroke-linecap="round" transform="matrix(0.649414, 0, 0, 0.649414, 35.903319, 35.903321)" fill="none" stroke-linejoin="round" d="M 2.873687 29.70677 L 2.873687 45.039102 " stroke="#222126" stroke-width="2" stroke-opacity="1" stroke-miterlimit="4"/><path stroke-linecap="round" transform="matrix(0.649414, 0, 0, 0.649414, 35.903319, 35.903321)" fill-opacity="1" fill="#ff0000" fill-rule="nonzero" stroke-linejoin="round" d="M 31.62557 43.12632 C 31.62557 42.36241 31.481209 41.628575 31.186472 40.924816 C 30.89775 40.221057 30.482713 39.595493 29.941359 39.060154 C 29.400006 38.518801 28.780457 38.103763 28.076697 37.815041 C 27.372938 37.520304 26.639103 37.375943 25.875193 37.375943 L 18.687222 37.375943 C 18.687222 36.612034 18.542862 35.878199 18.248125 35.174439 C 17.959403 34.47068 17.544365 33.851131 17.003012 33.309778 C 16.461658 32.768424 15.842109 32.353386 15.13835 32.064665 C 14.43459 31.769928 13.700756 31.625567 12.936846 31.625567 L 2.873687 31.625567 L 2.873687 43.12632 Z M 31.62557 43.12632 " stroke="#222126" stroke-width="2" stroke-opacity="1" stroke-miterlimit="4"/><path stroke-linecap="round" transform="matrix(0.649414, 0, 0, 0.649414, 35.903319, 35.903321)" fill="none" stroke-linejoin="round" d="M 12.936846 37.375943 L 20.124817 37.375943 " stroke="#222126" stroke-width="2" stroke-opacity="1" stroke-miterlimit="4"/><g clip-path="url(#66c1bb344d)"><path stroke-linecap="round" transform="matrix(0.649414, 0, 0, 0.649414, 35.903319, 35.903321)" fill="none" stroke-linejoin="round" d="M 31.62557 0.960902 C 32.37745 0.960902 33.129329 1.033082 33.869179 1.177443 C 34.609029 1.327819 35.330833 1.54436 36.028578 1.833082 C 36.726322 2.121804 37.387977 2.476691 38.013541 2.897744 C 38.639104 3.318797 39.222563 3.793985 39.757902 4.329323 C 40.29324 4.858646 40.768428 5.442105 41.189481 6.067669 C 41.604518 6.699248 41.959406 7.360902 42.248127 8.058647 C 42.536849 8.756391 42.759406 9.472181 42.903767 10.212031 C 43.054143 10.957895 43.126323 11.70376 43.126323 12.45564 C 43.126323 17.333836 36.35339 27.703762 33.20151 32.269176 C 33.021059 32.527823 32.792487 32.732334 32.515796 32.876695 C 32.239104 33.021056 31.938352 33.099251 31.62557 33.099251 C 31.312788 33.099251 31.012036 33.021056 30.735344 32.876695 C 30.452637 32.732334 30.224066 32.527823 30.04963 32.269176 C 26.89775 27.703762 20.124817 17.333836 20.124817 12.45564 C 20.124817 11.70376 20.196997 10.957895 20.347373 10.212031 C 20.491734 9.472181 20.71429 8.756391 21.003012 8.058647 C 21.291734 7.360902 21.640606 6.699248 22.061659 6.067669 C 22.482712 5.442105 22.9579 4.858646 23.493238 4.329323 C 24.028576 3.793985 24.60602 3.318797 25.237599 2.897744 C 25.863163 2.476691 26.524817 2.121804 27.222562 1.833082 C 27.920306 1.54436 28.642111 1.327819 29.381961 1.177443 C 30.12181 1.033082 30.867675 0.960902 31.62557 0.960902 Z M 31.62557 0.960902 " stroke="#222126" stroke-width="2" stroke-opacity="1" stroke-miterlimit="4"/></g><path stroke-linecap="round" transform="matrix(0.649414, 0, 0, 0.649414, 35.903319, 35.903321)" fill-opacity="1" fill="#545454" fill-rule="nonzero" stroke-linejoin="round" d="M 27.79399 12.45564 C 27.79399 12.966918 27.890231 13.454136 28.082712 13.923309 C 28.275194 14.392482 28.5579 14.80752 28.912788 15.168422 C 29.27369 15.529324 29.688728 15.806016 30.157901 15.998497 C 30.627073 16.196994 31.114292 16.293234 31.62557 16.293234 C 32.130833 16.293234 32.624066 16.196994 33.093239 15.998497 C 33.562412 15.806016 33.97745 15.529324 34.338352 15.168422 C 34.693239 14.80752 34.969931 14.392482 35.168427 13.923309 C 35.360909 13.454136 35.457149 12.966918 35.457149 12.45564 C 35.457149 11.950377 35.360909 11.463158 35.168427 10.993985 C 34.969931 10.518797 34.693239 10.109775 34.338352 9.748873 C 33.97745 9.38797 33.562412 9.111278 33.093239 8.918797 C 32.624066 8.720301 32.130833 8.62406 31.62557 8.62406 C 31.114292 8.62406 30.627073 8.720301 30.157901 8.918797 C 29.688728 9.111278 29.27369 9.38797 28.912788 9.748873 C 28.5579 10.109775 28.275194 10.518797 28.082712 10.993985 C 27.890231 11.463158 27.79399 11.950377 27.79399 12.45564 " stroke="#222126" stroke-width="2" stroke-opacity="1" stroke-miterlimit="4"/><g fill="#ffffff" fill-opacity="1"><g transform="translate(5.729339, 12.893494)"><g><path d="M 3.546875 -5.671875 C 2.867188 -5.671875 2.335938 -5.441406 1.953125 -4.984375 C 1.566406 -4.535156 1.375 -3.921875 1.375 -3.140625 C 1.375 -2.359375 1.550781 -1.738281 1.90625 -1.28125 C 2.269531 -0.832031 2.8125 -0.609375 3.53125 -0.609375 C 3.800781 -0.609375 4.0625 -0.628906 4.3125 -0.671875 C 4.5625 -0.722656 4.804688 -0.785156 5.046875 -0.859375 L 5.046875 -0.171875 C 4.804688 -0.078125 4.5625 -0.0078125 4.3125 0.03125 C 4.0625 0.0703125 3.765625 0.09375 3.421875 0.09375 C 2.785156 0.09375 2.25 -0.0351562 1.8125 -0.296875 C 1.382812 -0.566406 1.0625 -0.941406 0.84375 -1.421875 C 0.632812 -1.910156 0.53125 -2.488281 0.53125 -3.15625 C 0.53125 -3.78125 0.644531 -4.332031 0.875 -4.8125 C 1.113281 -5.300781 1.457031 -5.679688 1.90625 -5.953125 C 2.363281 -6.234375 2.910156 -6.375 3.546875 -6.375 C 4.210938 -6.375 4.789062 -6.25 5.28125 -6 L 4.96875 -5.328125 C 4.78125 -5.421875 4.566406 -5.5 4.328125 -5.5625 C 4.085938 -5.632812 3.828125 -5.671875 3.546875 -5.671875 Z M 3.546875 -5.671875 "/></g></g></g><g fill="#ffffff" fill-opacity="1"><g transform="translate(11.50452, 12.893494)"><g><path d="M 2.53125 -4.796875 C 3.101562 -4.796875 3.523438 -4.664062 3.796875 -4.40625 C 4.078125 -4.15625 4.21875 -3.753906 4.21875 -3.203125 L 4.21875 0 L 3.65625 0 L 3.515625 -0.671875 L 3.46875 -0.671875 C 3.269531 -0.410156 3.054688 -0.21875 2.828125 -0.09375 C 2.597656 0.03125 2.285156 0.09375 1.890625 0.09375 C 1.460938 0.09375 1.109375 -0.0195312 0.828125 -0.25 C 0.546875 -0.476562 0.40625 -0.832031 0.40625 -1.3125 C 0.40625 -1.78125 0.585938 -2.140625 0.953125 -2.390625 C 1.328125 -2.648438 1.898438 -2.789062 2.671875 -2.8125 L 3.46875 -2.84375 L 3.46875 -3.125 C 3.46875 -3.519531 3.378906 -3.789062 3.203125 -3.9375 C 3.035156 -4.09375 2.796875 -4.171875 2.484375 -4.171875 C 2.242188 -4.171875 2.007812 -4.132812 1.78125 -4.0625 C 1.5625 -3.988281 1.351562 -3.90625 1.15625 -3.8125 L 0.921875 -4.390625 C 1.128906 -4.503906 1.375 -4.597656 1.65625 -4.671875 C 1.9375 -4.753906 2.226562 -4.796875 2.53125 -4.796875 Z M 3.453125 -2.3125 L 2.765625 -2.28125 C 2.171875 -2.257812 1.757812 -2.164062 1.53125 -2 C 1.3125 -1.832031 1.203125 -1.597656 1.203125 -1.296875 C 1.203125 -1.035156 1.28125 -0.84375 1.4375 -0.71875 C 1.601562 -0.59375 1.8125 -0.53125 2.0625 -0.53125 C 2.457031 -0.53125 2.785156 -0.640625 3.046875 -0.859375 C 3.316406 -1.085938 3.453125 -1.425781 3.453125 -1.875 Z M 3.453125 -2.3125 "/></g></g></g><g fill="#ffffff" fill-opacity="1"><g transform="translate(16.655584, 12.893494)"><g><path d="M 5.8125 -4.71875 L 5.8125 0 L 5.109375 0 L 5.109375 -3.015625 C 5.109375 -3.128906 5.113281 -3.253906 5.125 -3.390625 C 5.132812 -3.523438 5.144531 -3.660156 5.15625 -3.796875 L 5.125 -3.796875 L 3.59375 0 L 2.9375 0 L 1.4375 -3.796875 L 1.421875 -3.796875 C 1.429688 -3.523438 1.4375 -3.253906 1.4375 -2.984375 L 1.4375 0 L 0.75 0 L 0.75 -4.71875 L 1.78125 -4.71875 L 3.265625 -0.921875 L 4.78125 -4.71875 Z M 5.8125 -4.71875 "/></g></g></g><g fill="#ffffff" fill-opacity="1"><g transform="translate(23.43284, 12.893494)"><g><path d="M 4.84375 -2.359375 C 4.84375 -1.585938 4.644531 -0.984375 4.25 -0.546875 C 3.851562 -0.117188 3.316406 0.09375 2.640625 0.09375 C 2.222656 0.09375 1.851562 0 1.53125 -0.1875 C 1.207031 -0.382812 0.953125 -0.664062 0.765625 -1.03125 C 0.578125 -1.394531 0.484375 -1.835938 0.484375 -2.359375 C 0.484375 -3.140625 0.675781 -3.738281 1.0625 -4.15625 C 1.457031 -4.582031 1.992188 -4.796875 2.671875 -4.796875 C 3.097656 -4.796875 3.472656 -4.703125 3.796875 -4.515625 C 4.128906 -4.328125 4.382812 -4.050781 4.5625 -3.6875 C 4.75 -3.332031 4.84375 -2.890625 4.84375 -2.359375 Z M 1.28125 -2.359375 C 1.28125 -1.804688 1.390625 -1.363281 1.609375 -1.03125 C 1.828125 -0.707031 2.179688 -0.546875 2.671875 -0.546875 C 3.140625 -0.546875 3.484375 -0.707031 3.703125 -1.03125 C 3.929688 -1.363281 4.046875 -1.804688 4.046875 -2.359375 C 4.046875 -2.921875 3.929688 -3.359375 3.703125 -3.671875 C 3.484375 -3.992188 3.132812 -4.15625 2.65625 -4.15625 C 2.175781 -4.15625 1.828125 -3.992188 1.609375 -3.671875 C 1.390625 -3.359375 1.28125 -2.921875 1.28125 -2.359375 Z M 1.28125 -2.359375 "/></g></g></g><g fill="#ffffff" fill-opacity="1"><g transform="translate(28.970682, 12.893494)"><g><path d="M 4.546875 -3.53125 C 4.546875 -3.238281 4.457031 -3.007812 4.28125 -2.84375 C 4.101562 -2.675781 3.875 -2.5625 3.59375 -2.5 L 3.59375 -2.46875 C 3.882812 -2.425781 4.140625 -2.320312 4.359375 -2.15625 C 4.578125 -1.988281 4.6875 -1.726562 4.6875 -1.375 C 4.6875 -0.976562 4.535156 -0.648438 4.234375 -0.390625 C 3.941406 -0.128906 3.457031 0 2.78125 0 L 0.75 0 L 0.75 -4.71875 L 2.765625 -4.71875 C 3.097656 -4.71875 3.398438 -4.679688 3.671875 -4.609375 C 3.941406 -4.535156 4.15625 -4.410156 4.3125 -4.234375 C 4.46875 -4.054688 4.546875 -3.820312 4.546875 -3.53125 Z M 3.75 -3.4375 C 3.75 -3.65625 3.664062 -3.816406 3.5 -3.921875 C 3.34375 -4.023438 3.085938 -4.078125 2.734375 -4.078125 L 1.515625 -4.078125 L 1.515625 -2.78125 L 2.59375 -2.78125 C 3.363281 -2.78125 3.75 -3 3.75 -3.4375 Z M 3.890625 -1.375 C 3.890625 -1.644531 3.785156 -1.835938 3.578125 -1.953125 C 3.367188 -2.078125 3.066406 -2.140625 2.671875 -2.140625 L 1.515625 -2.140625 L 1.515625 -0.625 L 2.6875 -0.625 C 3.070312 -0.625 3.367188 -0.679688 3.578125 -0.796875 C 3.785156 -0.910156 3.890625 -1.101562 3.890625 -1.375 Z M 3.890625 -1.375 "/></g></g></g><g fill="#ffffff" fill-opacity="1"><g transform="translate(34.253603, 12.893494)"><g><path d="M 0.75 0 L 0.75 -4.71875 L 1.515625 -4.71875 L 1.515625 -2.78125 L 2.75 -2.78125 C 3.351562 -2.78125 3.800781 -2.664062 4.09375 -2.4375 C 4.394531 -2.21875 4.546875 -1.882812 4.546875 -1.4375 C 4.546875 -1 4.398438 -0.648438 4.109375 -0.390625 C 3.816406 -0.128906 3.347656 0 2.703125 0 Z M 5.328125 0 L 5.328125 -4.71875 L 6.09375 -4.71875 L 6.09375 0 Z M 1.515625 -0.625 L 2.640625 -0.625 C 2.972656 -0.625 3.242188 -0.679688 3.453125 -0.796875 C 3.671875 -0.910156 3.78125 -1.113281 3.78125 -1.40625 C 3.78125 -1.6875 3.679688 -1.878906 3.484375 -1.984375 C 3.285156 -2.085938 3.003906 -2.140625 2.640625 -2.140625 L 1.515625 -2.140625 Z M 1.515625 -0.625 "/></g></g></g><g fill="#ffffff" fill-opacity="1"><g transform="translate(41.312145, 12.893494)"><g><path d="M 4.546875 -3.53125 C 4.546875 -3.238281 4.457031 -3.007812 4.28125 -2.84375 C 4.101562 -2.675781 3.875 -2.5625 3.59375 -2.5 L 3.59375 -2.46875 C 3.882812 -2.425781 4.140625 -2.320312 4.359375 -2.15625 C 4.578125 -1.988281 4.6875 -1.726562 4.6875 -1.375 C 4.6875 -0.976562 4.535156 -0.648438 4.234375 -0.390625 C 3.941406 -0.128906 3.457031 0 2.78125 0 L 0.75 0 L 0.75 -4.71875 L 2.765625 -4.71875 C 3.097656 -4.71875 3.398438 -4.679688 3.671875 -4.609375 C 3.941406 -4.535156 4.15625 -4.410156 4.3125 -4.234375 C 4.46875 -4.054688 4.546875 -3.820312 4.546875 -3.53125 Z M 3.75 -3.4375 C 3.75 -3.65625 3.664062 -3.816406 3.5 -3.921875 C 3.34375 -4.023438 3.085938 -4.078125 2.734375 -4.078125 L 1.515625 -4.078125 L 1.515625 -2.78125 L 2.59375 -2.78125 C 3.363281 -2.78125 3.75 -3 3.75 -3.4375 Z M 3.890625 -1.375 C 3.890625 -1.644531 3.785156 -1.835938 3.578125 -1.953125 C 3.367188 -2.078125 3.066406 -2.140625 2.671875 -2.140625 L 1.515625 -2.140625 L 1.515625 -0.625 L 2.6875 -0.625 C 3.070312 -0.625 3.367188 -0.679688 3.578125 -0.796875 C 3.785156 -0.910156 3.890625 -1.101562 3.890625 -1.375 Z M 3.890625 -1.375 "/></g></g></g><g fill="#ffffff" fill-opacity="1"><g transform="translate(46.595067, 12.893494)"><g><path d="M 4.84375 -2.359375 C 4.84375 -1.585938 4.644531 -0.984375 4.25 -0.546875 C 3.851562 -0.117188 3.316406 0.09375 2.640625 0.09375 C 2.222656 0.09375 1.851562 0 1.53125 -0.1875 C 1.207031 -0.382812 0.953125 -0.664062 0.765625 -1.03125 C 0.578125 -1.394531 0.484375 -1.835938 0.484375 -2.359375 C 0.484375 -3.140625 0.675781 -3.738281 1.0625 -4.15625 C 1.457031 -4.582031 1.992188 -4.796875 2.671875 -4.796875 C 3.097656 -4.796875 3.472656 -4.703125 3.796875 -4.515625 C 4.128906 -4.328125 4.382812 -4.050781 4.5625 -3.6875 C 4.75 -3.332031 4.84375 -2.890625 4.84375 -2.359375 Z M 1.28125 -2.359375 C 1.28125 -1.804688 1.390625 -1.363281 1.609375 -1.03125 C 1.828125 -0.707031 2.179688 -0.546875 2.671875 -0.546875 C 3.140625 -0.546875 3.484375 -0.707031 3.703125 -1.03125 C 3.929688 -1.363281 4.046875 -1.804688 4.046875 -2.359375 C 4.046875 -2.921875 3.929688 -3.359375 3.703125 -3.671875 C 3.484375 -3.992188 3.132812 -4.15625 2.65625 -4.15625 C 2.175781 -4.15625 1.828125 -3.992188 1.609375 -3.671875 C 1.390625 -3.359375 1.28125 -2.921875 1.28125 -2.359375 Z M 1.28125 -2.359375 "/></g></g></g><g fill="#ffffff" fill-opacity="1"><g transform="translate(52.132908, 12.893494)"><g><path d="M 1.984375 -4.796875 C 2.523438 -4.796875 2.953125 -4.6875 3.265625 -4.46875 C 3.585938 -4.257812 3.75 -3.957031 3.75 -3.5625 C 3.75 -3.269531 3.664062 -3.039062 3.5 -2.875 C 3.34375 -2.707031 3.132812 -2.585938 2.875 -2.515625 L 2.875 -2.484375 C 3.0625 -2.429688 3.234375 -2.359375 3.390625 -2.265625 C 3.546875 -2.171875 3.671875 -2.046875 3.765625 -1.890625 C 3.867188 -1.734375 3.921875 -1.535156 3.921875 -1.296875 C 3.921875 -0.910156 3.753906 -0.582031 3.421875 -0.3125 C 3.097656 -0.0390625 2.59375 0.09375 1.90625 0.09375 C 1.5625 0.09375 1.25 0.0625 0.96875 0 C 0.695312 -0.0507812 0.472656 -0.125 0.296875 -0.21875 L 0.296875 -0.921875 C 0.492188 -0.828125 0.726562 -0.738281 1 -0.65625 C 1.269531 -0.582031 1.566406 -0.546875 1.890625 -0.546875 C 2.242188 -0.546875 2.539062 -0.601562 2.78125 -0.71875 C 3.03125 -0.84375 3.15625 -1.050781 3.15625 -1.34375 C 3.15625 -1.875 2.703125 -2.140625 1.796875 -2.140625 L 1.171875 -2.140625 L 1.171875 -2.765625 L 1.6875 -2.765625 C 2.082031 -2.765625 2.398438 -2.816406 2.640625 -2.921875 C 2.890625 -3.035156 3.015625 -3.226562 3.015625 -3.5 C 3.015625 -3.71875 2.921875 -3.878906 2.734375 -3.984375 C 2.554688 -4.097656 2.289062 -4.15625 1.9375 -4.15625 C 1.6875 -4.15625 1.460938 -4.128906 1.265625 -4.078125 C 1.066406 -4.035156 0.847656 -3.960938 0.609375 -3.859375 L 0.34375 -4.484375 C 0.832031 -4.691406 1.378906 -4.796875 1.984375 -4.796875 Z M 1.984375 -4.796875 "/></g></g></g><g fill="#ffffff" fill-opacity="1"><g transform="translate(56.661912, 12.893494)"><g/></g></g><g fill="#ffffff" fill-opacity="1"><g transform="translate(5.729339, 24.613708)"><g><path d="M 1.484375 -4.71875 L 1.484375 -1.84375 C 1.484375 -1.757812 1.476562 -1.648438 1.46875 -1.515625 C 1.457031 -1.378906 1.445312 -1.238281 1.4375 -1.09375 C 1.4375 -0.945312 1.429688 -0.835938 1.421875 -0.765625 L 3.953125 -4.71875 L 4.90625 -4.71875 L 4.90625 0 L 4.171875 0 L 4.171875 -2.78125 C 4.171875 -2.875 4.171875 -2.992188 4.171875 -3.140625 C 4.179688 -3.296875 4.1875 -3.445312 4.1875 -3.59375 C 4.195312 -3.75 4.207031 -3.863281 4.21875 -3.9375 L 1.703125 0 L 0.75 0 L 0.75 -4.71875 Z M 1.484375 -4.71875 "/></g></g></g><g fill="#ffffff" fill-opacity="1"><g transform="translate(11.601203, 24.613708)"><g><path d="M 1.984375 -4.796875 C 2.523438 -4.796875 2.953125 -4.6875 3.265625 -4.46875 C 3.585938 -4.257812 3.75 -3.957031 3.75 -3.5625 C 3.75 -3.269531 3.664062 -3.039062 3.5 -2.875 C 3.34375 -2.707031 3.132812 -2.585938 2.875 -2.515625 L 2.875 -2.484375 C 3.0625 -2.429688 3.234375 -2.359375 3.390625 -2.265625 C 3.546875 -2.171875 3.671875 -2.046875 3.765625 -1.890625 C 3.867188 -1.734375 3.921875 -1.535156 3.921875 -1.296875 C 3.921875 -0.910156 3.753906 -0.582031 3.421875 -0.3125 C 3.097656 -0.0390625 2.59375 0.09375 1.90625 0.09375 C 1.5625 0.09375 1.25 0.0625 0.96875 0 C 0.695312 -0.0507812 0.472656 -0.125 0.296875 -0.21875 L 0.296875 -0.921875 C 0.492188 -0.828125 0.726562 -0.738281 1 -0.65625 C 1.269531 -0.582031 1.566406 -0.546875 1.890625 -0.546875 C 2.242188 -0.546875 2.539062 -0.601562 2.78125 -0.71875 C 3.03125 -0.84375 3.15625 -1.050781 3.15625 -1.34375 C 3.15625 -1.875 2.703125 -2.140625 1.796875 -2.140625 L 1.171875 -2.140625 L 1.171875 -2.765625 L 1.6875 -2.765625 C 2.082031 -2.765625 2.398438 -2.816406 2.640625 -2.921875 C 2.890625 -3.035156 3.015625 -3.226562 3.015625 -3.5 C 3.015625 -3.71875 2.921875 -3.878906 2.734375 -3.984375 C 2.554688 -4.097656 2.289062 -4.15625 1.9375 -4.15625 C 1.6875 -4.15625 1.460938 -4.128906 1.265625 -4.078125 C 1.066406 -4.035156 0.847656 -3.960938 0.609375 -3.859375 L 0.34375 -4.484375 C 0.832031 -4.691406 1.378906 -4.796875 1.984375 -4.796875 Z M 1.984375 -4.796875 "/></g></g></g><g fill="#ffffff" fill-opacity="1"><g transform="translate(16.128162, 24.613708)"><g/></g></g><g fill="#ffffff" fill-opacity="1"><g transform="translate(20.505693, 24.613708)"><g><path d="M 3.625 0 L 1.5625 -5.5 L 1.515625 -5.5 C 1.535156 -5.320312 1.550781 -5.078125 1.5625 -4.765625 C 1.570312 -4.460938 1.578125 -4.144531 1.578125 -3.8125 L 1.578125 0 L 0.859375 0 L 0.859375 -6.28125 L 2.015625 -6.28125 L 3.953125 -1.140625 L 4 -1.140625 L 5.96875 -6.28125 L 7.125 -6.28125 L 7.125 0 L 6.34375 0 L 6.34375 -3.859375 C 6.34375 -4.160156 6.347656 -4.460938 6.359375 -4.765625 C 6.378906 -5.066406 6.394531 -5.3125 6.40625 -5.5 L 6.375 -5.5 L 4.28125 0 Z M 3.625 0 "/></g></g></g><g fill="#ffffff" fill-opacity="1"><g transform="translate(28.69818, 24.613708)"><g><path d="M 3.546875 -5.671875 C 2.867188 -5.671875 2.335938 -5.441406 1.953125 -4.984375 C 1.566406 -4.535156 1.375 -3.921875 1.375 -3.140625 C 1.375 -2.359375 1.550781 -1.738281 1.90625 -1.28125 C 2.269531 -0.832031 2.8125 -0.609375 3.53125 -0.609375 C 3.800781 -0.609375 4.0625 -0.628906 4.3125 -0.671875 C 4.5625 -0.722656 4.804688 -0.785156 5.046875 -0.859375 L 5.046875 -0.171875 C 4.804688 -0.078125 4.5625 -0.0078125 4.3125 0.03125 C 4.0625 0.0703125 3.765625 0.09375 3.421875 0.09375 C 2.785156 0.09375 2.25 -0.0351562 1.8125 -0.296875 C 1.382812 -0.566406 1.0625 -0.941406 0.84375 -1.421875 C 0.632812 -1.910156 0.53125 -2.488281 0.53125 -3.15625 C 0.53125 -3.78125 0.644531 -4.332031 0.875 -4.8125 C 1.113281 -5.300781 1.457031 -5.679688 1.90625 -5.953125 C 2.363281 -6.234375 2.910156 -6.375 3.546875 -6.375 C 4.210938 -6.375 4.789062 -6.25 5.28125 -6 L 4.96875 -5.328125 C 4.78125 -5.421875 4.566406 -5.5 4.328125 -5.5625 C 4.085938 -5.632812 3.828125 -5.671875 3.546875 -5.671875 Z M 3.546875 -5.671875 "/></g></g></g><g fill="#ffffff" fill-opacity="1"><g transform="translate(34.47336, 24.613708)"><g><path d="M 5.4375 0 L 4.484375 0 L 1.640625 -3.1875 L 1.640625 0 L 0.859375 0 L 0.859375 -6.28125 L 1.640625 -6.28125 L 1.640625 -3.234375 L 4.421875 -6.28125 L 5.3125 -6.28125 L 2.59375 -3.234375 Z M 5.4375 0 "/></g></g></g></svg>