<svg xmlns="http://www.w3.org/2000/svg" xmlns:xlink="http://www.w3.org/1999/xlink" width="95" zoomAndPan="magnify" viewBox="0 0 71.25 71.25" height="95" preserveAspectRatio="xMidYMid meet" version="1.0"><defs><g/><clipPath id="ac4fff4fd2"><path d="M 0 0 L 70.507812 0 L 70.507812 70.507812 L 0 70.507812 Z M 0 0 " clip-rule="nonzero"/></clipPath></defs><g clip-path="url(#ac4fff4fd2)"><path fill="#ffffff" d="M 0 0 L 70.507812 0 L 70.507812 70.507812 L 0 70.507812 Z M 0 0 " fill-opacity="1" fill-rule="nonzero"/><path fill="#ffffff" d="M 0 0 L 70.507812 0 L 70.507812 70.507812 L 0 70.507812 Z M 0 0 " fill-opacity="1" fill-rule="nonzero"/></g><path fill="#ffffff" d="M 16.851562 55.289062 L 31.105469 55.289062 C 31.253906 55.289062 31.394531 55.320312 31.527344 55.375 C 31.660156 55.429688 31.78125 55.507812 31.882812 55.613281 C 31.984375 55.714844 32.066406 55.832031 32.121094 55.96875 C 32.175781 56.101562 32.203125 56.242188 32.203125 56.386719 L 32.203125 62.964844 C 32.203125 63.113281 32.175781 63.25 32.121094 63.386719 C 32.066406 63.519531 31.984375 63.640625 31.882812 63.742188 C 31.78125 63.84375 31.660156 63.925781 31.527344 63.980469 C 31.394531 64.035156 31.253906 64.0625 31.105469 64.0625 L 17.949219 64.0625 C 17.804688 64.0625 17.664062 64.035156 17.53125 63.980469 C 17.394531 63.925781 17.277344 63.84375 17.171875 63.742188 C 17.070312 63.640625 16.992188 63.519531 16.9375 63.386719 C 16.878906 63.25 16.851562 63.113281 16.851562 62.964844 Z M 16.851562 55.289062 " fill-opacity="1" fill-rule="nonzero"/><path fill="#ffffff" d="M 16.851562 55.289062 L 16.851562 62.964844 C 16.851562 63.113281 16.878906 63.25 16.9375 63.386719 C 16.992188 63.519531 17.070312 63.640625 17.171875 63.742188 C 17.277344 63.84375 17.394531 63.925781 17.53125 63.980469 C 17.664062 64.035156 17.804688 64.0625 17.949219 64.0625 L 19.820312 64.0625 L 28.59375 55.289062 Z M 16.851562 55.289062 " fill-opacity="1" fill-rule="nonzero"/><path fill="#ffffff" d="M 31.105469 42.132812 L 31.105469 49.808594 L 10.273438 49.808594 L 10.273438 41.035156 L 30.011719 41.035156 C 30.15625 41.035156 30.296875 41.066406 30.429688 41.121094 C 30.566406 41.175781 30.683594 41.253906 30.785156 41.359375 C 30.890625 41.460938 30.96875 41.578125 31.023438 41.714844 C 31.078125 41.847656 31.105469 41.988281 31.105469 42.132812 Z M 31.105469 42.132812 " fill-opacity="1" fill-rule="nonzero"/><path fill="#ffffff" d="M 10.273438 41.035156 L 10.273438 49.808594 L 14.816406 49.808594 L 23.589844 41.035156 Z M 10.273438 41.035156 " fill-opacity="1" fill-rule="nonzero"/><path stroke-linecap="round" transform="matrix(0.572103, 0, 0, 0.572103, 6.435384, 39.403195)" fill-opacity="1" fill="#ffffff" fill-rule="nonzero" stroke-linejoin="round" d="M 6.708678 2.852566 L 6.708678 18.187988 L 2.878237 18.187988 C 2.618777 18.187988 2.372974 18.140193 2.140826 18.044602 C 1.908678 17.949012 1.697014 17.805626 1.519489 17.628102 C 1.341964 17.450577 1.198578 17.238912 1.102988 17.006764 C 1.007398 16.767788 0.959602 16.528813 0.959602 16.269353 L 0.959602 4.771201 C 0.959602 4.518569 1.007398 4.272766 1.102988 4.040618 C 1.198578 3.801642 1.341964 3.596806 1.519489 3.419281 C 1.697014 3.234928 1.908678 3.09837 2.140826 3.00278 C 2.372974 2.90719 2.618777 2.852566 2.878237 2.852566 Z M 6.708678 2.852566 " stroke="#222126" stroke-width="2" stroke-opacity="1" stroke-miterlimit="4"/><path stroke-linecap="round" transform="matrix(0.572103, 0, 0, 0.572103, 6.435384, 39.403195)" fill="none" stroke-linejoin="round" d="M 43.121769 4.771201 L 43.121769 18.187988 L 6.708678 18.187988 L 6.708678 2.852566 L 41.209962 2.852566 C 41.462594 2.852566 41.708398 2.90719 41.940546 3.00278 C 42.179522 3.09837 42.384358 3.234928 42.561883 3.419281 C 42.746236 3.596806 42.882793 3.801642 42.978384 4.040618 C 43.073974 4.272766 43.121769 4.518569 43.121769 4.771201 Z M 43.121769 4.771201 " stroke="#222126" stroke-width="2" stroke-opacity="1" stroke-miterlimit="4"/><path stroke-linecap="round" transform="matrix(0.572103, 0, 0, 0.572103, 6.435384, 39.403195)" fill="none" stroke-linejoin="round" d="M 18.20683 27.767505 L 43.121769 27.767505 C 43.381229 27.767505 43.627032 27.822128 43.85918 27.917719 C 44.091328 28.013309 44.302993 28.149867 44.480518 28.334219 C 44.658042 28.511744 44.801428 28.716581 44.897018 28.955557 C 44.992609 29.187705 45.040404 29.433508 45.040404 29.68614 L 45.040404 41.184292 C 45.040404 41.443751 44.992609 41.682727 44.897018 41.921703 C 44.801428 42.153851 44.658042 42.365515 44.480518 42.54304 C 44.302993 42.720565 44.091328 42.863951 43.85918 42.959541 C 43.627032 43.055131 43.381229 43.102927 43.121769 43.102927 L 20.125465 43.102927 C 19.872833 43.102927 19.62703 43.055131 19.394882 42.959541 C 19.155906 42.863951 18.951069 42.720565 18.766717 42.54304 C 18.589192 42.365515 18.452634 42.153851 18.357044 41.921703 C 18.254626 41.682727 18.20683 41.443751 18.20683 41.184292 Z M 18.20683 27.767505 " stroke="#222126" stroke-width="2" stroke-opacity="1" stroke-miterlimit="4"/><path stroke-linecap="round" transform="matrix(0.572103, 0, 0, 0.572103, 6.435384, 39.403195)" fill="none" stroke-linejoin="round" d="M 14.376389 2.852566 L 14.376389 8.601642 " stroke="#222126" stroke-width="2" stroke-opacity="1" stroke-miterlimit="4"/><path stroke-linecap="round" transform="matrix(0.572103, 0, 0, 0.572103, 6.435384, 39.403195)" fill="none" stroke-linejoin="round" d="M 22.037272 2.852566 L 22.037272 8.601642 " stroke="#222126" stroke-width="2" stroke-opacity="1" stroke-miterlimit="4"/><path stroke-linecap="round" transform="matrix(0.572103, 0, 0, 0.572103, 6.435384, 39.403195)" fill="none" stroke-linejoin="round" d="M 29.704982 2.852566 L 29.704982 8.601642 " stroke="#222126" stroke-width="2" stroke-opacity="1" stroke-miterlimit="4"/><path stroke-linecap="round" transform="matrix(0.572103, 0, 0, 0.572103, 6.435384, 39.403195)" fill="none" stroke-linejoin="round" d="M 24.91181 27.767505 L 24.91181 33.523409 " stroke="#222126" stroke-width="2" stroke-opacity="1" stroke-miterlimit="4"/><path stroke-linecap="round" transform="matrix(0.572103, 0, 0, 0.572103, 6.435384, 39.403195)" fill="none" stroke-linejoin="round" d="M 32.579521 27.767505 L 32.579521 33.523409 " stroke="#222126" stroke-width="2" stroke-opacity="1" stroke-miterlimit="4"/><path stroke-linecap="round" transform="matrix(0.572103, 0, 0, 0.572103, 6.435384, 39.403195)" fill="none" stroke-linejoin="round" d="M 40.247231 27.767505 L 40.247231 33.523409 " stroke="#222126" stroke-width="2" stroke-opacity="1" stroke-miterlimit="4"/><path stroke-linecap="round" transform="matrix(0.572103, 0, 0, 0.572103, 6.435384, 39.403195)" fill="none" stroke-linejoin="round" d="M 37.372693 2.852566 L 37.372693 8.601642 " stroke="#222126" stroke-width="2" stroke-opacity="1" stroke-miterlimit="4"/><path stroke-linecap="round" transform="matrix(0.572103, 0, 0, 0.572103, 6.435384, 39.403195)" fill-opacity="1" fill="#ffffff" fill-rule="nonzero" stroke-linejoin="round" d="M 33.542252 27.767505 L 43.121769 18.187988 L 27.786348 18.187988 L 18.20683 27.767505 Z M 33.542252 27.767505 " stroke="#222126" stroke-width="2" stroke-opacity="1" stroke-miterlimit="4"/><g fill="#000000" fill-opacity="1"><g transform="translate(5.863281, 13.511949)"><g><path d="M 4.890625 0 L 4.03125 0 L 1.484375 -2.859375 L 1.484375 0 L 0.765625 0 L 0.765625 -5.640625 L 1.484375 -5.640625 L 1.484375 -2.90625 L 3.96875 -5.640625 L 4.78125 -5.640625 L 2.328125 -2.90625 Z M 4.890625 0 "/></g></g></g><g fill="#000000" fill-opacity="1"><g transform="translate(10.950495, 13.511949)"><g><path d="M 2.28125 -4.3125 C 2.789062 -4.3125 3.171875 -4.195312 3.421875 -3.96875 C 3.671875 -3.738281 3.796875 -3.378906 3.796875 -2.890625 L 3.796875 0 L 3.28125 0 L 3.15625 -0.59375 L 3.125 -0.59375 C 2.9375 -0.363281 2.738281 -0.191406 2.53125 -0.078125 C 2.332031 0.0234375 2.054688 0.078125 1.703125 0.078125 C 1.316406 0.078125 0.992188 -0.0195312 0.734375 -0.21875 C 0.484375 -0.425781 0.359375 -0.742188 0.359375 -1.171875 C 0.359375 -1.597656 0.523438 -1.925781 0.859375 -2.15625 C 1.191406 -2.382812 1.703125 -2.507812 2.390625 -2.53125 L 3.109375 -2.546875 L 3.109375 -2.8125 C 3.109375 -3.164062 3.03125 -3.410156 2.875 -3.546875 C 2.726562 -3.679688 2.515625 -3.75 2.234375 -3.75 C 2.015625 -3.75 1.800781 -3.710938 1.59375 -3.640625 C 1.394531 -3.578125 1.210938 -3.503906 1.046875 -3.421875 L 0.828125 -3.9375 C 1.015625 -4.039062 1.234375 -4.128906 1.484375 -4.203125 C 1.734375 -4.273438 2 -4.3125 2.28125 -4.3125 Z M 3.109375 -2.078125 L 2.484375 -2.046875 C 1.953125 -2.023438 1.582031 -1.941406 1.375 -1.796875 C 1.175781 -1.648438 1.078125 -1.441406 1.078125 -1.171875 C 1.078125 -0.929688 1.148438 -0.753906 1.296875 -0.640625 C 1.441406 -0.535156 1.628906 -0.484375 1.859375 -0.484375 C 2.210938 -0.484375 2.507812 -0.582031 2.75 -0.78125 C 2.988281 -0.976562 3.109375 -1.28125 3.109375 -1.6875 Z M 3.109375 -2.078125 "/></g></g></g><g fill="#000000" fill-opacity="1"><g transform="translate(15.586742, 13.511949)"><g><path d="M 3.171875 -4.234375 L 3.9375 -4.234375 L 2.125 -2.203125 L 4.09375 0 L 3.28125 0 L 1.375 -2.15625 L 1.375 0 L 0.671875 0 L 0.671875 -4.234375 L 1.375 -4.234375 L 1.375 -2.1875 Z M 3.171875 -4.234375 "/></g></g></g><g fill="#000000" fill-opacity="1"><g transform="translate(19.969815, 13.511949)"><g/></g></g><g fill="#000000" fill-opacity="1"><g transform="translate(23.909838, 13.511949)"><g><path d="M 4.078125 -3.171875 C 4.078125 -2.910156 4 -2.703125 3.84375 -2.546875 C 3.6875 -2.398438 3.484375 -2.300781 3.234375 -2.25 L 3.234375 -2.21875 C 3.492188 -2.1875 3.722656 -2.09375 3.921875 -1.9375 C 4.117188 -1.789062 4.21875 -1.554688 4.21875 -1.234375 C 4.21875 -0.878906 4.082031 -0.582031 3.8125 -0.34375 C 3.550781 -0.113281 3.113281 0 2.5 0 L 0.671875 0 L 0.671875 -4.234375 L 2.484375 -4.234375 C 2.785156 -4.234375 3.054688 -4.203125 3.296875 -4.140625 C 3.535156 -4.078125 3.722656 -3.96875 3.859375 -3.8125 C 4.003906 -3.65625 4.078125 -3.441406 4.078125 -3.171875 Z M 3.375 -3.078125 C 3.375 -3.285156 3.300781 -3.429688 3.15625 -3.515625 C 3.007812 -3.609375 2.773438 -3.65625 2.453125 -3.65625 L 1.375 -3.65625 L 1.375 -2.5 L 2.328125 -2.5 C 3.023438 -2.5 3.375 -2.691406 3.375 -3.078125 Z M 3.5 -1.234375 C 3.5 -1.484375 3.40625 -1.660156 3.21875 -1.765625 C 3.03125 -1.867188 2.757812 -1.921875 2.40625 -1.921875 L 1.375 -1.921875 L 1.375 -0.5625 L 2.421875 -0.5625 C 2.765625 -0.5625 3.03125 -0.613281 3.21875 -0.71875 C 3.40625 -0.820312 3.5 -0.992188 3.5 -1.234375 Z M 3.5 -1.234375 "/></g></g></g><g fill="#000000" fill-opacity="1"><g transform="translate(28.664764, 13.511949)"><g><path d="M 0.671875 0 L 0.671875 -4.234375 L 1.375 -4.234375 L 1.375 -2.5 L 2.46875 -2.5 C 3.007812 -2.5 3.410156 -2.394531 3.671875 -2.1875 C 3.941406 -1.988281 4.078125 -1.691406 4.078125 -1.296875 C 4.078125 -0.898438 3.945312 -0.582031 3.6875 -0.34375 C 3.4375 -0.113281 3.019531 0 2.4375 0 Z M 4.78125 0 L 4.78125 -4.234375 L 5.484375 -4.234375 L 5.484375 0 Z M 1.375 -0.5625 L 2.375 -0.5625 C 2.675781 -0.5625 2.921875 -0.613281 3.109375 -0.71875 C 3.296875 -0.820312 3.390625 -1 3.390625 -1.25 C 3.390625 -1.507812 3.300781 -1.6875 3.125 -1.78125 C 2.945312 -1.875 2.695312 -1.921875 2.375 -1.921875 L 1.375 -1.921875 Z M 1.375 -0.5625 "/></g></g></g><g fill="#000000" fill-opacity="1"><g transform="translate(35.017848, 13.511949)"><g><path d="M 0.453125 -2.546875 C 0.453125 -3.472656 0.585938 -4.191406 0.859375 -4.703125 C 1.140625 -5.222656 1.59375 -5.550781 2.21875 -5.6875 C 2.5625 -5.757812 2.894531 -5.828125 3.21875 -5.890625 C 3.550781 -5.953125 3.859375 -6.003906 4.140625 -6.046875 L 4.265625 -5.4375 C 4.078125 -5.40625 3.863281 -5.367188 3.625 -5.328125 C 3.394531 -5.296875 3.164062 -5.257812 2.9375 -5.21875 C 2.71875 -5.175781 2.523438 -5.140625 2.359375 -5.109375 C 2.015625 -5.035156 1.742188 -4.851562 1.546875 -4.5625 C 1.347656 -4.28125 1.234375 -3.84375 1.203125 -3.25 L 1.25 -3.25 C 1.332031 -3.351562 1.4375 -3.457031 1.5625 -3.5625 C 1.6875 -3.664062 1.835938 -3.753906 2.015625 -3.828125 C 2.203125 -3.898438 2.414062 -3.9375 2.65625 -3.9375 C 3.195312 -3.9375 3.609375 -3.757812 3.890625 -3.40625 C 4.171875 -3.0625 4.3125 -2.609375 4.3125 -2.046875 C 4.3125 -1.566406 4.226562 -1.171875 4.0625 -0.859375 C 3.894531 -0.546875 3.664062 -0.3125 3.375 -0.15625 C 3.082031 0 2.75 0.078125 2.375 0.078125 C 1.789062 0.078125 1.320312 -0.144531 0.96875 -0.59375 C 0.625 -1.039062 0.453125 -1.691406 0.453125 -2.546875 Z M 2.421875 -0.5 C 2.765625 -0.5 3.039062 -0.609375 3.25 -0.828125 C 3.46875 -1.046875 3.578125 -1.425781 3.578125 -1.96875 C 3.578125 -2.394531 3.492188 -2.734375 3.328125 -2.984375 C 3.171875 -3.242188 2.90625 -3.375 2.53125 -3.375 C 2.300781 -3.375 2.09375 -3.320312 1.90625 -3.21875 C 1.71875 -3.113281 1.554688 -2.992188 1.421875 -2.859375 C 1.296875 -2.734375 1.207031 -2.625 1.15625 -2.53125 C 1.15625 -2.269531 1.171875 -2.019531 1.203125 -1.78125 C 1.242188 -1.539062 1.3125 -1.320312 1.40625 -1.125 C 1.5 -0.9375 1.628906 -0.785156 1.796875 -0.671875 C 1.960938 -0.554688 2.171875 -0.5 2.421875 -0.5 Z M 2.421875 -0.5 "/></g></g></g><g fill="#000000" fill-opacity="1"><g transform="translate(39.954743, 13.511949)"><g><path d="M 2.6875 -4.3125 C 3.207031 -4.3125 3.625 -4.128906 3.9375 -3.765625 C 4.257812 -3.398438 4.421875 -2.851562 4.421875 -2.125 C 4.421875 -1.40625 4.257812 -0.859375 3.9375 -0.484375 C 3.625 -0.109375 3.207031 0.078125 2.6875 0.078125 C 2.351562 0.078125 2.078125 0.0195312 1.859375 -0.09375 C 1.648438 -0.21875 1.488281 -0.363281 1.375 -0.53125 L 1.328125 -0.53125 C 1.328125 -0.445312 1.332031 -0.332031 1.34375 -0.1875 C 1.363281 -0.0507812 1.375 0.0625 1.375 0.15625 L 1.375 1.890625 L 0.671875 1.890625 L 0.671875 -4.234375 L 1.234375 -4.234375 L 1.34375 -3.65625 L 1.375 -3.65625 C 1.5 -3.84375 1.660156 -4 1.859375 -4.125 C 2.066406 -4.25 2.34375 -4.3125 2.6875 -4.3125 Z M 2.5625 -3.734375 C 2.125 -3.734375 1.816406 -3.609375 1.640625 -3.359375 C 1.460938 -3.117188 1.375 -2.753906 1.375 -2.265625 L 1.375 -2.125 C 1.375 -1.601562 1.457031 -1.203125 1.625 -0.921875 C 1.789062 -0.640625 2.109375 -0.5 2.578125 -0.5 C 2.828125 -0.5 3.035156 -0.566406 3.203125 -0.703125 C 3.378906 -0.847656 3.503906 -1.039062 3.578125 -1.28125 C 3.660156 -1.53125 3.703125 -1.816406 3.703125 -2.140625 C 3.703125 -2.617188 3.609375 -3.003906 3.421875 -3.296875 C 3.234375 -3.585938 2.945312 -3.734375 2.5625 -3.734375 Z M 2.5625 -3.734375 "/></g></g></g><g fill="#000000" fill-opacity="1"><g transform="translate(45.018224, 13.511949)"><g><path d="M 2.28125 -4.3125 C 2.789062 -4.3125 3.171875 -4.195312 3.421875 -3.96875 C 3.671875 -3.738281 3.796875 -3.378906 3.796875 -2.890625 L 3.796875 0 L 3.28125 0 L 3.15625 -0.59375 L 3.125 -0.59375 C 2.9375 -0.363281 2.738281 -0.191406 2.53125 -0.078125 C 2.332031 0.0234375 2.054688 0.078125 1.703125 0.078125 C 1.316406 0.078125 0.992188 -0.0195312 0.734375 -0.21875 C 0.484375 -0.425781 0.359375 -0.742188 0.359375 -1.171875 C 0.359375 -1.597656 0.523438 -1.925781 0.859375 -2.15625 C 1.191406 -2.382812 1.703125 -2.507812 2.390625 -2.53125 L 3.109375 -2.546875 L 3.109375 -2.8125 C 3.109375 -3.164062 3.03125 -3.410156 2.875 -3.546875 C 2.726562 -3.679688 2.515625 -3.75 2.234375 -3.75 C 2.015625 -3.75 1.800781 -3.710938 1.59375 -3.640625 C 1.394531 -3.578125 1.210938 -3.503906 1.046875 -3.421875 L 0.828125 -3.9375 C 1.015625 -4.039062 1.234375 -4.128906 1.484375 -4.203125 C 1.734375 -4.273438 2 -4.3125 2.28125 -4.3125 Z M 3.109375 -2.078125 L 2.484375 -2.046875 C 1.953125 -2.023438 1.582031 -1.941406 1.375 -1.796875 C 1.175781 -1.648438 1.078125 -1.441406 1.078125 -1.171875 C 1.078125 -0.929688 1.148438 -0.753906 1.296875 -0.640625 C 1.441406 -0.535156 1.628906 -0.484375 1.859375 -0.484375 C 2.210938 -0.484375 2.507812 -0.582031 2.75 -0.78125 C 2.988281 -0.976562 3.109375 -1.28125 3.109375 -1.6875 Z M 3.109375 -2.078125 "/></g></g></g><g fill="#000000" fill-opacity="1"><g transform="translate(49.65447, 13.511949)"><g><path d="M 3.59375 -3.65625 L 2.21875 -3.65625 L 2.21875 0 L 1.53125 0 L 1.53125 -3.65625 L 0.15625 -3.65625 L 0.15625 -4.234375 L 3.59375 -4.234375 Z M 3.59375 -3.65625 "/></g></g></g><g fill="#000000" fill-opacity="1"><g transform="translate(53.618227, 13.511949)"><g><path d="M 1.375 -2.5 L 2.625 -2.5 C 3.726562 -2.5 4.28125 -2.097656 4.28125 -1.296875 C 4.28125 -0.898438 4.144531 -0.582031 3.875 -0.34375 C 3.601562 -0.113281 3.175781 0 2.59375 0 L 0.671875 0 L 0.671875 -4.234375 L 1.375 -4.234375 Z M 3.578125 -1.25 C 3.578125 -1.507812 3.484375 -1.6875 3.296875 -1.78125 C 3.117188 -1.875 2.867188 -1.921875 2.546875 -1.921875 L 1.375 -1.921875 L 1.375 -0.5625 L 2.5625 -0.5625 C 2.851562 -0.5625 3.09375 -0.613281 3.28125 -0.71875 C 3.476562 -0.820312 3.578125 -1 3.578125 -1.25 Z M 3.578125 -1.25 "/></g></g></g><g fill="#000000" fill-opacity="1"><g transform="translate(58.525124, 13.511949)"><g/></g></g><g fill="#000000" fill-opacity="1"><g transform="translate(5.863281, 24.0608)"><g><path d="M 2.6875 -4.3125 C 3.207031 -4.3125 3.625 -4.128906 3.9375 -3.765625 C 4.257812 -3.398438 4.421875 -2.851562 4.421875 -2.125 C 4.421875 -1.40625 4.257812 -0.859375 3.9375 -0.484375 C 3.625 -0.109375 3.207031 0.078125 2.6875 0.078125 C 2.351562 0.078125 2.078125 0.0195312 1.859375 -0.09375 C 1.648438 -0.21875 1.488281 -0.363281 1.375 -0.53125 L 1.328125 -0.53125 C 1.328125 -0.445312 1.332031 -0.332031 1.34375 -0.1875 C 1.363281 -0.0507812 1.375 0.0625 1.375 0.15625 L 1.375 1.890625 L 0.671875 1.890625 L 0.671875 -4.234375 L 1.234375 -4.234375 L 1.34375 -3.65625 L 1.375 -3.65625 C 1.5 -3.84375 1.660156 -4 1.859375 -4.125 C 2.066406 -4.25 2.34375 -4.3125 2.6875 -4.3125 Z M 2.5625 -3.734375 C 2.125 -3.734375 1.816406 -3.609375 1.640625 -3.359375 C 1.460938 -3.117188 1.375 -2.753906 1.375 -2.265625 L 1.375 -2.125 C 1.375 -1.601562 1.457031 -1.203125 1.625 -0.921875 C 1.789062 -0.640625 2.109375 -0.5 2.578125 -0.5 C 2.828125 -0.5 3.035156 -0.566406 3.203125 -0.703125 C 3.378906 -0.847656 3.503906 -1.039062 3.578125 -1.28125 C 3.660156 -1.53125 3.703125 -1.816406 3.703125 -2.140625 C 3.703125 -2.617188 3.609375 -3.003906 3.421875 -3.296875 C 3.234375 -3.585938 2.945312 -3.734375 2.5625 -3.734375 Z M 2.5625 -3.734375 "/></g></g></g><g fill="#000000" fill-opacity="1"><g transform="translate(10.926763, 24.0608)"><g><path d="M 2.28125 -4.3125 C 2.789062 -4.3125 3.171875 -4.195312 3.421875 -3.96875 C 3.671875 -3.738281 3.796875 -3.378906 3.796875 -2.890625 L 3.796875 0 L 3.28125 0 L 3.15625 -0.59375 L 3.125 -0.59375 C 2.9375 -0.363281 2.738281 -0.191406 2.53125 -0.078125 C 2.332031 0.0234375 2.054688 0.078125 1.703125 0.078125 C 1.316406 0.078125 0.992188 -0.0195312 0.734375 -0.21875 C 0.484375 -0.425781 0.359375 -0.742188 0.359375 -1.171875 C 0.359375 -1.597656 0.523438 -1.925781 0.859375 -2.15625 C 1.191406 -2.382812 1.703125 -2.507812 2.390625 -2.53125 L 3.109375 -2.546875 L 3.109375 -2.8125 C 3.109375 -3.164062 3.03125 -3.410156 2.875 -3.546875 C 2.726562 -3.679688 2.515625 -3.75 2.234375 -3.75 C 2.015625 -3.75 1.800781 -3.710938 1.59375 -3.640625 C 1.394531 -3.578125 1.210938 -3.503906 1.046875 -3.421875 L 0.828125 -3.9375 C 1.015625 -4.039062 1.234375 -4.128906 1.484375 -4.203125 C 1.734375 -4.273438 2 -4.3125 2.28125 -4.3125 Z M 3.109375 -2.078125 L 2.484375 -2.046875 C 1.953125 -2.023438 1.582031 -1.941406 1.375 -1.796875 C 1.175781 -1.648438 1.078125 -1.441406 1.078125 -1.171875 C 1.078125 -0.929688 1.148438 -0.753906 1.296875 -0.640625 C 1.441406 -0.535156 1.628906 -0.484375 1.859375 -0.484375 C 2.210938 -0.484375 2.507812 -0.582031 2.75 -0.78125 C 2.988281 -0.976562 3.109375 -1.28125 3.109375 -1.6875 Z M 3.109375 -2.078125 "/></g></g></g><g fill="#000000" fill-opacity="1"><g transform="translate(15.56301, 24.0608)"><g><path d="M 1.78125 -4.3125 C 2.269531 -4.3125 2.65625 -4.210938 2.9375 -4.015625 C 3.226562 -3.828125 3.375 -3.554688 3.375 -3.203125 C 3.375 -2.941406 3.300781 -2.734375 3.15625 -2.578125 C 3.007812 -2.429688 2.816406 -2.328125 2.578125 -2.265625 L 2.578125 -2.234375 C 2.742188 -2.179688 2.894531 -2.113281 3.03125 -2.03125 C 3.175781 -1.945312 3.289062 -1.832031 3.375 -1.6875 C 3.46875 -1.550781 3.515625 -1.378906 3.515625 -1.171875 C 3.515625 -0.816406 3.367188 -0.519531 3.078125 -0.28125 C 2.785156 -0.0390625 2.328125 0.078125 1.703125 0.078125 C 1.398438 0.078125 1.125 0.0507812 0.875 0 C 0.625 -0.0390625 0.421875 -0.109375 0.265625 -0.203125 L 0.265625 -0.828125 C 0.441406 -0.742188 0.648438 -0.664062 0.890625 -0.59375 C 1.140625 -0.519531 1.410156 -0.484375 1.703125 -0.484375 C 2.015625 -0.484375 2.28125 -0.535156 2.5 -0.640625 C 2.71875 -0.753906 2.828125 -0.941406 2.828125 -1.203125 C 2.828125 -1.679688 2.425781 -1.921875 1.625 -1.921875 L 1.046875 -1.921875 L 1.046875 -2.484375 L 1.515625 -2.484375 C 1.878906 -2.484375 2.171875 -2.53125 2.390625 -2.625 C 2.609375 -2.726562 2.71875 -2.898438 2.71875 -3.140625 C 2.71875 -3.335938 2.632812 -3.484375 2.46875 -3.578125 C 2.300781 -3.679688 2.0625 -3.734375 1.75 -3.734375 C 1.519531 -3.734375 1.316406 -3.710938 1.140625 -3.671875 C 0.960938 -3.628906 0.765625 -3.5625 0.546875 -3.46875 L 0.3125 -4.03125 C 0.75 -4.21875 1.238281 -4.3125 1.78125 -4.3125 Z M 1.78125 -4.3125 "/></g></g></g><g fill="#000000" fill-opacity="1"><g transform="translate(19.637528, 24.0608)"><g><path d="M 5.21875 -4.234375 L 5.21875 0 L 4.59375 0 L 4.59375 -2.703125 C 4.59375 -2.816406 4.597656 -2.929688 4.609375 -3.046875 C 4.617188 -3.160156 4.628906 -3.28125 4.640625 -3.40625 L 4.609375 -3.40625 L 3.21875 0 L 2.640625 0 L 1.296875 -3.40625 L 1.265625 -3.40625 C 1.285156 -3.164062 1.296875 -2.925781 1.296875 -2.6875 L 1.296875 0 L 0.671875 0 L 0.671875 -4.234375 L 1.59375 -4.234375 L 2.9375 -0.828125 L 4.296875 -4.234375 Z M 5.21875 -4.234375 "/></g></g></g><g fill="#000000" fill-opacity="1"><g transform="translate(25.737438, 24.0608)"><g><path d="M 2.3125 -4.3125 C 2.664062 -4.3125 2.972656 -4.234375 3.234375 -4.078125 C 3.503906 -3.921875 3.707031 -3.695312 3.84375 -3.40625 C 3.988281 -3.125 4.0625 -2.789062 4.0625 -2.40625 L 4.0625 -1.984375 L 1.15625 -1.984375 C 1.164062 -1.503906 1.285156 -1.140625 1.515625 -0.890625 C 1.753906 -0.640625 2.082031 -0.515625 2.5 -0.515625 C 2.769531 -0.515625 3.007812 -0.539062 3.21875 -0.59375 C 3.425781 -0.644531 3.640625 -0.71875 3.859375 -0.8125 L 3.859375 -0.203125 C 3.648438 -0.109375 3.4375 -0.0390625 3.21875 0 C 3.007812 0.0507812 2.757812 0.078125 2.46875 0.078125 C 2.0625 0.078125 1.707031 0 1.40625 -0.15625 C 1.101562 -0.320312 0.863281 -0.566406 0.6875 -0.890625 C 0.519531 -1.210938 0.4375 -1.613281 0.4375 -2.09375 C 0.4375 -2.550781 0.515625 -2.945312 0.671875 -3.28125 C 0.828125 -3.613281 1.046875 -3.867188 1.328125 -4.046875 C 1.609375 -4.222656 1.9375 -4.3125 2.3125 -4.3125 Z M 2.296875 -3.75 C 1.960938 -3.75 1.695312 -3.640625 1.5 -3.421875 C 1.3125 -3.210938 1.203125 -2.914062 1.171875 -2.53125 L 3.328125 -2.53125 C 3.328125 -2.894531 3.242188 -3.1875 3.078125 -3.40625 C 2.910156 -3.632812 2.648438 -3.75 2.296875 -3.75 Z M 2.296875 -3.75 "/></g></g></g><g fill="#000000" fill-opacity="1"><g transform="translate(30.397426, 24.0608)"><g><path d="M 2.6875 -4.3125 C 3.207031 -4.3125 3.625 -4.128906 3.9375 -3.765625 C 4.257812 -3.398438 4.421875 -2.851562 4.421875 -2.125 C 4.421875 -1.40625 4.257812 -0.859375 3.9375 -0.484375 C 3.625 -0.109375 3.207031 0.078125 2.6875 0.078125 C 2.351562 0.078125 2.078125 0.0195312 1.859375 -0.09375 C 1.648438 -0.21875 1.488281 -0.363281 1.375 -0.53125 L 1.328125 -0.53125 C 1.328125 -0.445312 1.332031 -0.332031 1.34375 -0.1875 C 1.363281 -0.0507812 1.375 0.0625 1.375 0.15625 L 1.375 1.890625 L 0.671875 1.890625 L 0.671875 -4.234375 L 1.234375 -4.234375 L 1.34375 -3.65625 L 1.375 -3.65625 C 1.5 -3.84375 1.660156 -4 1.859375 -4.125 C 2.066406 -4.25 2.34375 -4.3125 2.6875 -4.3125 Z M 2.5625 -3.734375 C 2.125 -3.734375 1.816406 -3.609375 1.640625 -3.359375 C 1.460938 -3.117188 1.375 -2.753906 1.375 -2.265625 L 1.375 -2.125 C 1.375 -1.601562 1.457031 -1.203125 1.625 -0.921875 C 1.789062 -0.640625 2.109375 -0.5 2.578125 -0.5 C 2.828125 -0.5 3.035156 -0.566406 3.203125 -0.703125 C 3.378906 -0.847656 3.503906 -1.039062 3.578125 -1.28125 C 3.660156 -1.53125 3.703125 -1.816406 3.703125 -2.140625 C 3.703125 -2.617188 3.609375 -3.003906 3.421875 -3.296875 C 3.234375 -3.585938 2.945312 -3.734375 2.5625 -3.734375 Z M 2.5625 -3.734375 "/></g></g></g><g fill="#000000" fill-opacity="1"><g transform="translate(5.863281, 34.609652)"><g><path d="M 4.25 -4.234375 L 4.25 0 L 3.5625 0 L 3.5625 -3.640625 L 1.375 -3.640625 L 1.375 0 L 0.671875 0 L 0.671875 -4.234375 Z M 4.25 -4.234375 "/></g></g></g><g fill="#000000" fill-opacity="1"><g transform="translate(10.997969, 34.609652)"><g><path d="M 2.6875 -4.3125 C 3.207031 -4.3125 3.625 -4.128906 3.9375 -3.765625 C 4.257812 -3.398438 4.421875 -2.851562 4.421875 -2.125 C 4.421875 -1.40625 4.257812 -0.859375 3.9375 -0.484375 C 3.625 -0.109375 3.207031 0.078125 2.6875 0.078125 C 2.351562 0.078125 2.078125 0.0195312 1.859375 -0.09375 C 1.648438 -0.21875 1.488281 -0.363281 1.375 -0.53125 L 1.328125 -0.53125 C 1.328125 -0.445312 1.332031 -0.332031 1.34375 -0.1875 C 1.363281 -0.0507812 1.375 0.0625 1.375 0.15625 L 1.375 1.890625 L 0.671875 1.890625 L 0.671875 -4.234375 L 1.234375 -4.234375 L 1.34375 -3.65625 L 1.375 -3.65625 C 1.5 -3.84375 1.660156 -4 1.859375 -4.125 C 2.066406 -4.25 2.34375 -4.3125 2.6875 -4.3125 Z M 2.5625 -3.734375 C 2.125 -3.734375 1.816406 -3.609375 1.640625 -3.359375 C 1.460938 -3.117188 1.375 -2.753906 1.375 -2.265625 L 1.375 -2.125 C 1.375 -1.601562 1.457031 -1.203125 1.625 -0.921875 C 1.789062 -0.640625 2.109375 -0.5 2.578125 -0.5 C 2.828125 -0.5 3.035156 -0.566406 3.203125 -0.703125 C 3.378906 -0.847656 3.503906 -1.039062 3.578125 -1.28125 C 3.660156 -1.53125 3.703125 -1.816406 3.703125 -2.140625 C 3.703125 -2.617188 3.609375 -3.003906 3.421875 -3.296875 C 3.234375 -3.585938 2.945312 -3.734375 2.5625 -3.734375 Z M 2.5625 -3.734375 "/></g></g></g><g fill="#000000" fill-opacity="1"><g transform="translate(16.061451, 34.609652)"><g><path d="M 2.28125 -4.3125 C 2.789062 -4.3125 3.171875 -4.195312 3.421875 -3.96875 C 3.671875 -3.738281 3.796875 -3.378906 3.796875 -2.890625 L 3.796875 0 L 3.28125 0 L 3.15625 -0.59375 L 3.125 -0.59375 C 2.9375 -0.363281 2.738281 -0.191406 2.53125 -0.078125 C 2.332031 0.0234375 2.054688 0.078125 1.703125 0.078125 C 1.316406 0.078125 0.992188 -0.0195312 0.734375 -0.21875 C 0.484375 -0.425781 0.359375 -0.742188 0.359375 -1.171875 C 0.359375 -1.597656 0.523438 -1.925781 0.859375 -2.15625 C 1.191406 -2.382812 1.703125 -2.507812 2.390625 -2.53125 L 3.109375 -2.546875 L 3.109375 -2.8125 C 3.109375 -3.164062 3.03125 -3.410156 2.875 -3.546875 C 2.726562 -3.679688 2.515625 -3.75 2.234375 -3.75 C 2.015625 -3.75 1.800781 -3.710938 1.59375 -3.640625 C 1.394531 -3.578125 1.210938 -3.503906 1.046875 -3.421875 L 0.828125 -3.9375 C 1.015625 -4.039062 1.234375 -4.128906 1.484375 -4.203125 C 1.734375 -4.273438 2 -4.3125 2.28125 -4.3125 Z M 3.109375 -2.078125 L 2.484375 -2.046875 C 1.953125 -2.023438 1.582031 -1.941406 1.375 -1.796875 C 1.175781 -1.648438 1.078125 -1.441406 1.078125 -1.171875 C 1.078125 -0.929688 1.148438 -0.753906 1.296875 -0.640625 C 1.441406 -0.535156 1.628906 -0.484375 1.859375 -0.484375 C 2.210938 -0.484375 2.507812 -0.582031 2.75 -0.78125 C 2.988281 -0.976562 3.109375 -1.28125 3.109375 -1.6875 Z M 3.109375 -2.078125 "/></g></g></g><g fill="#000000" fill-opacity="1"><g transform="translate(20.697699, 34.609652)"><g><path d="M 4.078125 -3.171875 C 4.078125 -2.910156 4 -2.703125 3.84375 -2.546875 C 3.6875 -2.398438 3.484375 -2.300781 3.234375 -2.25 L 3.234375 -2.21875 C 3.492188 -2.1875 3.722656 -2.09375 3.921875 -1.9375 C 4.117188 -1.789062 4.21875 -1.554688 4.21875 -1.234375 C 4.21875 -0.878906 4.082031 -0.582031 3.8125 -0.34375 C 3.550781 -0.113281 3.113281 0 2.5 0 L 0.671875 0 L 0.671875 -4.234375 L 2.484375 -4.234375 C 2.785156 -4.234375 3.054688 -4.203125 3.296875 -4.140625 C 3.535156 -4.078125 3.722656 -3.96875 3.859375 -3.8125 C 4.003906 -3.65625 4.078125 -3.441406 4.078125 -3.171875 Z M 3.375 -3.078125 C 3.375 -3.285156 3.300781 -3.429688 3.15625 -3.515625 C 3.007812 -3.609375 2.773438 -3.65625 2.453125 -3.65625 L 1.375 -3.65625 L 1.375 -2.5 L 2.328125 -2.5 C 3.023438 -2.5 3.375 -2.691406 3.375 -3.078125 Z M 3.5 -1.234375 C 3.5 -1.484375 3.40625 -1.660156 3.21875 -1.765625 C 3.03125 -1.867188 2.757812 -1.921875 2.40625 -1.921875 L 1.375 -1.921875 L 1.375 -0.5625 L 2.421875 -0.5625 C 2.765625 -0.5625 3.03125 -0.613281 3.21875 -0.71875 C 3.40625 -0.820312 3.5 -0.992188 3.5 -1.234375 Z M 3.5 -1.234375 "/></g></g></g><g fill="#000000" fill-opacity="1"><g transform="translate(25.452625, 34.609652)"><g><path d="M 1.328125 -4.234375 L 1.328125 -1.65625 C 1.328125 -1.582031 1.320312 -1.484375 1.3125 -1.359375 C 1.3125 -1.234375 1.304688 -1.109375 1.296875 -0.984375 C 1.285156 -0.859375 1.28125 -0.757812 1.28125 -0.6875 L 3.546875 -4.234375 L 4.40625 -4.234375 L 4.40625 0 L 3.75 0 L 3.75 -2.5 C 3.75 -2.582031 3.75 -2.691406 3.75 -2.828125 C 3.757812 -2.960938 3.765625 -3.097656 3.765625 -3.234375 C 3.773438 -3.367188 3.78125 -3.472656 3.78125 -3.546875 L 1.53125 0 L 0.671875 0 L 0.671875 -4.234375 Z M 1.328125 -4.234375 "/></g></g></g><g fill="#000000" fill-opacity="1"><g transform="translate(30.737631, 34.609652)"><g><path d="M 3.890625 0 L 3.1875 0 L 3.1875 -3.65625 L 1.9375 -3.65625 C 1.875 -2.769531 1.78125 -2.050781 1.65625 -1.5 C 1.539062 -0.957031 1.378906 -0.5625 1.171875 -0.3125 C 0.972656 -0.0625 0.722656 0.0625 0.421875 0.0625 C 0.347656 0.0625 0.28125 0.0546875 0.21875 0.046875 C 0.15625 0.0351562 0.101562 0.0195312 0.0625 0 L 0.0625 -0.515625 C 0.09375 -0.503906 0.125 -0.492188 0.15625 -0.484375 C 0.195312 -0.484375 0.234375 -0.484375 0.265625 -0.484375 C 0.554688 -0.484375 0.785156 -0.785156 0.953125 -1.390625 C 1.117188 -2.003906 1.25 -2.953125 1.34375 -4.234375 L 3.890625 -4.234375 Z M 3.890625 0 "/></g></g></g><g fill="#000000" fill-opacity="1"><g transform="translate(35.508382, 34.609652)"><g><path d="M 1.375 -2.5 L 2.625 -2.5 C 3.726562 -2.5 4.28125 -2.097656 4.28125 -1.296875 C 4.28125 -0.898438 4.144531 -0.582031 3.875 -0.34375 C 3.601562 -0.113281 3.175781 0 2.59375 0 L 0.671875 0 L 0.671875 -4.234375 L 1.375 -4.234375 Z M 3.578125 -1.25 C 3.578125 -1.507812 3.484375 -1.6875 3.296875 -1.78125 C 3.117188 -1.875 2.867188 -1.921875 2.546875 -1.921875 L 1.375 -1.921875 L 1.375 -0.5625 L 2.5625 -0.5625 C 2.851562 -0.5625 3.09375 -0.613281 3.28125 -0.71875 C 3.476562 -0.820312 3.578125 -1 3.578125 -1.25 Z M 3.578125 -1.25 "/></g></g></g><g fill="#000000" fill-opacity="1"><g transform="translate(40.40572, 34.609652)"><g><path d="M 1.375 -4.234375 L 1.375 -2.46875 L 3.671875 -2.46875 L 3.671875 -4.234375 L 4.359375 -4.234375 L 4.359375 0 L 3.671875 0 L 3.671875 -1.890625 L 1.375 -1.890625 L 1.375 0 L 0.671875 0 L 0.671875 -4.234375 Z M 1.375 -4.234375 "/></g></g></g><g fill="#000000" fill-opacity="1"><g transform="translate(45.643262, 34.609652)"><g><path d="M 4.359375 -2.125 C 4.359375 -1.425781 4.175781 -0.882812 3.8125 -0.5 C 3.457031 -0.113281 2.976562 0.078125 2.375 0.078125 C 2 0.078125 1.664062 -0.00390625 1.375 -0.171875 C 1.082031 -0.347656 0.851562 -0.597656 0.6875 -0.921875 C 0.519531 -1.253906 0.4375 -1.65625 0.4375 -2.125 C 0.4375 -2.820312 0.609375 -3.359375 0.953125 -3.734375 C 1.304688 -4.117188 1.789062 -4.3125 2.40625 -4.3125 C 2.78125 -4.3125 3.113281 -4.222656 3.40625 -4.046875 C 3.707031 -3.878906 3.941406 -3.632812 4.109375 -3.3125 C 4.273438 -2.988281 4.359375 -2.59375 4.359375 -2.125 Z M 1.15625 -2.125 C 1.15625 -1.625 1.253906 -1.226562 1.453125 -0.9375 C 1.648438 -0.644531 1.960938 -0.5 2.390625 -0.5 C 2.816406 -0.5 3.128906 -0.644531 3.328125 -0.9375 C 3.535156 -1.226562 3.640625 -1.625 3.640625 -2.125 C 3.640625 -2.625 3.535156 -3.015625 3.328125 -3.296875 C 3.128906 -3.585938 2.816406 -3.734375 2.390625 -3.734375 C 1.953125 -3.734375 1.632812 -3.585938 1.4375 -3.296875 C 1.25 -3.015625 1.15625 -2.625 1.15625 -2.125 Z M 1.15625 -2.125 "/></g></g></g><g fill="#000000" fill-opacity="1"><g transform="translate(50.634089, 34.609652)"><g/></g></g></svg>