<svg xmlns="http://www.w3.org/2000/svg" xmlns:xlink="http://www.w3.org/1999/xlink" width="95" zoomAndPan="magnify" viewBox="0 0 71.25 71.25" height="95" preserveAspectRatio="xMidYMid meet" version="1.0"><defs><g/><clipPath id="61e310799b"><path d="M 0 0 L 70.507812 0 L 70.507812 70.507812 L 0 70.507812 Z M 0 0 " clip-rule="nonzero"/></clipPath><clipPath id="5d0f990598"><path d="M 48 40 L 65 40 L 65 65.980469 L 48 65.980469 Z M 48 40 " clip-rule="nonzero"/></clipPath><clipPath id="1a0849ef1f"><path d="M 32.105469 40 L 51 40 L 51 65.980469 L 32.105469 65.980469 Z M 32.105469 40 " clip-rule="nonzero"/></clipPath></defs><g clip-path="url(#61e310799b)"><path fill="#ffffff" d="M 0 0 L 70.507812 0 L 70.507812 70.507812 L 0 70.507812 Z M 0 0 " fill-opacity="1" fill-rule="nonzero"/><path fill="#6dd3ff" d="M 0 0 L 70.507812 0 L 70.507812 70.507812 L 0 70.507812 Z M 0 0 " fill-opacity="1" fill-rule="nonzero"/></g><path fill="#f6d878" d="M 64.140625 41.484375 L 64.140625 57.085938 C 64.140625 57.347656 64.070312 57.589844 63.925781 57.808594 C 63.785156 58.03125 63.59375 58.191406 63.355469 58.300781 L 50.003906 64.382812 C 49.835938 64.460938 49.660156 64.5 49.472656 64.5 L 49.472656 47.28125 L 63.902344 40.71875 C 64.0625 40.949219 64.140625 41.203125 64.140625 41.484375 Z M 64.140625 41.484375 " fill-opacity="1" fill-rule="nonzero"/><path fill="#f6d878" d="M 63.902344 40.71875 L 49.472656 47.28125 L 33.707031 40.71875 C 33.847656 40.507812 34.035156 40.351562 34.269531 40.253906 L 48.273438 34.171875 C 48.628906 34.019531 48.984375 34.019531 49.339844 34.171875 L 63.339844 40.253906 C 63.570312 40.355469 63.757812 40.511719 63.902344 40.71875 Z M 63.902344 40.71875 " fill-opacity="1" fill-rule="nonzero"/><path fill="#f6d878" d="M 49.472656 47.28125 L 49.472656 64.496094 C 49.285156 64.503906 49.109375 64.46875 48.9375 64.390625 L 34.28125 58.28125 C 34.035156 58.179688 33.835938 58.015625 33.6875 57.792969 C 33.539062 57.570312 33.46875 57.324219 33.46875 57.054688 L 33.46875 41.480469 C 33.464844 41.199219 33.542969 40.945312 33.707031 40.71875 Z M 49.472656 47.28125 " fill-opacity="1" fill-rule="nonzero"/><path stroke-linecap="round" transform="matrix(0.695801, 0, 0, 0.695801, 32.801711, 33.277833)" fill="none" stroke-linejoin="round" d="M 13.769892 4.973333 L 35.047086 15.089824 " stroke="#00303e" stroke-width="2" stroke-opacity="1" stroke-miterlimit="4"/><path fill="#ffffff" d="M 45.472656 50.546875 C 45.472656 50.257812 45.335938 50.054688 45.070312 49.9375 L 38.402344 47.015625 C 38.300781 46.96875 38.191406 46.953125 38.078125 46.960938 C 37.96875 46.96875 37.863281 47.007812 37.769531 47.066406 C 37.675781 47.128906 37.601562 47.210938 37.550781 47.308594 C 37.496094 47.40625 37.46875 47.515625 37.46875 47.625 L 37.46875 52.839844 C 37.46875 53.128906 37.601562 53.332031 37.871094 53.449219 L 44.539062 56.367188 C 44.640625 56.410156 44.75 56.429688 44.859375 56.421875 C 44.972656 56.410156 45.074219 56.375 45.167969 56.3125 C 45.261719 56.253906 45.335938 56.171875 45.390625 56.074219 C 45.445312 55.972656 45.472656 55.867188 45.472656 55.757812 Z M 45.472656 50.546875 " fill-opacity="1" fill-rule="nonzero"/><g clip-path="url(#5d0f990598)"><path stroke-linecap="round" transform="matrix(0.695801, 0, 0, 0.695801, 32.801711, 33.277833)" fill="none" stroke-linejoin="round" d="M 45.040069 11.794385 L 45.040069 34.216843 C 45.040069 34.592983 44.939017 34.941053 44.731297 35.255439 C 44.529192 35.575439 44.254104 35.805615 43.911648 35.962807 L 24.722875 44.70386 C 24.481472 44.816141 24.22884 44.872282 23.959367 44.872282 L 23.959367 20.125614 L 44.697613 10.694035 C 44.927788 11.025263 45.040069 11.390175 45.040069 11.794385 Z M 45.040069 11.794385 " stroke="#00303e" stroke-width="2" stroke-opacity="1" stroke-miterlimit="4"/></g><path stroke-linecap="round" transform="matrix(0.695801, 0, 0, 0.695801, 32.801711, 33.277833)" fill="none" stroke-linejoin="round" d="M 44.697613 10.694035 L 23.959367 20.125614 L 1.30112 10.694035 C 1.503225 10.390877 1.772699 10.166315 2.109541 10.025964 L 22.235858 1.284911 C 22.746735 1.065964 23.257612 1.065964 23.768489 1.284911 L 43.889192 10.025964 C 44.22042 10.171929 44.489894 10.396491 44.697613 10.694035 Z M 44.697613 10.694035 " stroke="#00303e" stroke-width="2" stroke-opacity="1" stroke-miterlimit="4"/><g clip-path="url(#1a0849ef1f)"><path stroke-linecap="round" transform="matrix(0.695801, 0, 0, 0.695801, 32.801711, 33.277833)" fill="none" stroke-linejoin="round" d="M 23.959367 20.125614 L 23.959367 44.866668 C 23.689893 44.877896 23.437261 44.827369 23.190244 44.715089 L 2.126383 35.934737 C 1.772699 35.788772 1.486383 35.552983 1.27305 35.232983 C 1.059716 34.912983 0.958664 34.559299 0.958664 34.17193 L 0.958664 11.788771 C 0.95305 11.384561 1.065331 11.019649 1.30112 10.694035 Z M 23.959367 20.125614 " stroke="#00303e" stroke-width="2" stroke-opacity="1" stroke-miterlimit="4"/></g><path stroke-linecap="round" transform="matrix(0.695801, 0, 0, 0.695801, 32.801711, 33.277833)" fill="none" stroke-linejoin="round" d="M 18.210594 24.818947 C 18.210594 24.403509 18.014103 24.111579 17.632349 23.943158 L 8.04919 19.743859 C 7.903226 19.676491 7.746033 19.654035 7.583226 19.665263 C 7.426033 19.676491 7.274454 19.732631 7.139717 19.816842 C 7.00498 19.906666 6.898313 20.024561 6.825331 20.164912 C 6.746734 20.305263 6.707436 20.462456 6.707436 20.619649 L 6.707436 28.114386 C 6.707436 28.529825 6.898313 28.821755 7.285682 28.990176 L 16.86884 33.18386 C 17.014805 33.245614 17.171998 33.273685 17.329191 33.262457 C 17.491998 33.245614 17.637963 33.195088 17.7727 33.105264 C 17.907436 33.021053 18.014103 32.903158 18.0927 32.762807 C 18.171296 32.616842 18.210594 32.465263 18.210594 32.30807 Z M 18.210594 24.818947 " stroke="#00303e" stroke-width="2" stroke-opacity="1" stroke-miterlimit="4"/><g fill="#ffffff" fill-opacity="1"><g transform="translate(5.624722, 14.852375)"><g><path d="M 5.53125 -6.828125 L 5.53125 -0.765625 L 6.390625 -0.765625 L 6.390625 1.796875 L 5.578125 1.796875 L 5.578125 0 L 0.875 0 L 0.875 1.796875 L 0.0625 1.796875 L 0.0625 -0.765625 L 0.578125 -0.765625 C 0.804688 -1.160156 1.023438 -1.601562 1.234375 -2.09375 C 1.441406 -2.582031 1.625 -3.097656 1.78125 -3.640625 C 1.945312 -4.179688 2.078125 -4.722656 2.171875 -5.265625 C 2.273438 -5.804688 2.34375 -6.328125 2.375 -6.828125 Z M 4.671875 -6.046875 L 3.125 -6.046875 C 3.101562 -5.679688 3.039062 -5.265625 2.9375 -4.796875 C 2.84375 -4.335938 2.71875 -3.863281 2.5625 -3.375 C 2.414062 -2.882812 2.25 -2.410156 2.0625 -1.953125 C 1.882812 -1.503906 1.691406 -1.109375 1.484375 -0.765625 L 4.671875 -0.765625 Z M 4.671875 -6.046875 "/></g></g></g><g fill="#ffffff" fill-opacity="1"><g transform="translate(12.466784, 14.852375)"><g><path d="M 5.265625 -2.578125 C 5.265625 -1.722656 5.050781 -1.0625 4.625 -0.59375 C 4.195312 -0.132812 3.613281 0.09375 2.875 0.09375 C 2.425781 0.09375 2.023438 -0.0078125 1.671875 -0.21875 C 1.316406 -0.425781 1.035156 -0.726562 0.828125 -1.125 C 0.628906 -1.519531 0.53125 -2.003906 0.53125 -2.578125 C 0.53125 -3.421875 0.738281 -4.070312 1.15625 -4.53125 C 1.582031 -4.988281 2.164062 -5.21875 2.90625 -5.21875 C 3.363281 -5.21875 3.769531 -5.113281 4.125 -4.90625 C 4.488281 -4.695312 4.769531 -4.394531 4.96875 -4 C 5.164062 -3.613281 5.265625 -3.140625 5.265625 -2.578125 Z M 1.390625 -2.578125 C 1.390625 -1.960938 1.507812 -1.476562 1.75 -1.125 C 1.988281 -0.78125 2.367188 -0.609375 2.890625 -0.609375 C 3.410156 -0.609375 3.789062 -0.78125 4.03125 -1.125 C 4.28125 -1.476562 4.40625 -1.960938 4.40625 -2.578125 C 4.40625 -3.179688 4.28125 -3.65625 4.03125 -4 C 3.789062 -4.34375 3.410156 -4.515625 2.890625 -4.515625 C 2.367188 -4.515625 1.988281 -4.34375 1.75 -4 C 1.507812 -3.65625 1.390625 -3.179688 1.390625 -2.578125 Z M 1.390625 -2.578125 "/></g></g></g><g fill="#ffffff" fill-opacity="1"><g transform="translate(18.487055, 14.852375)"><g><path d="M 2.875 0.09375 C 2.414062 0.09375 2.007812 0.00390625 1.65625 -0.171875 C 1.300781 -0.359375 1.023438 -0.644531 0.828125 -1.03125 C 0.628906 -1.425781 0.53125 -1.925781 0.53125 -2.53125 C 0.53125 -3.164062 0.628906 -3.679688 0.828125 -4.078125 C 1.035156 -4.472656 1.320312 -4.757812 1.6875 -4.9375 C 2.050781 -5.125 2.460938 -5.21875 2.921875 -5.21875 C 3.179688 -5.21875 3.429688 -5.191406 3.671875 -5.140625 C 3.921875 -5.085938 4.125 -5.019531 4.28125 -4.9375 L 4.015625 -4.25 C 3.859375 -4.300781 3.675781 -4.351562 3.46875 -4.40625 C 3.269531 -4.457031 3.082031 -4.484375 2.90625 -4.484375 C 1.894531 -4.484375 1.390625 -3.835938 1.390625 -2.546875 C 1.390625 -1.921875 1.507812 -1.441406 1.75 -1.109375 C 2 -0.785156 2.367188 -0.625 2.859375 -0.625 C 3.128906 -0.625 3.375 -0.648438 3.59375 -0.703125 C 3.8125 -0.765625 4.007812 -0.835938 4.1875 -0.921875 L 4.1875 -0.1875 C 4.019531 -0.09375 3.832031 -0.0234375 3.625 0.015625 C 3.414062 0.0664062 3.164062 0.09375 2.875 0.09375 Z M 2.875 0.09375 "/></g></g></g><g fill="#ffffff" fill-opacity="1"><g transform="translate(23.312858, 14.852375)"><g><path d="M 4.34375 -4.421875 L 2.671875 -4.421875 L 2.671875 0 L 1.84375 0 L 1.84375 -4.421875 L 0.1875 -4.421875 L 0.1875 -5.125 L 4.34375 -5.125 Z M 4.34375 -4.421875 "/></g></g></g><g fill="#ffffff" fill-opacity="1"><g transform="translate(28.100437, 14.852375)"><g><path d="M 2.75 -5.21875 C 3.375 -5.21875 3.835938 -5.078125 4.140625 -4.796875 C 4.441406 -4.523438 4.59375 -4.085938 4.59375 -3.484375 L 4.59375 0 L 3.984375 0 L 3.8125 -0.734375 L 3.78125 -0.734375 C 3.550781 -0.453125 3.3125 -0.242188 3.0625 -0.109375 C 2.820312 0.0234375 2.488281 0.09375 2.0625 0.09375 C 1.59375 0.09375 1.203125 -0.0234375 0.890625 -0.265625 C 0.585938 -0.515625 0.4375 -0.898438 0.4375 -1.421875 C 0.4375 -1.929688 0.632812 -2.320312 1.03125 -2.59375 C 1.4375 -2.875 2.054688 -3.03125 2.890625 -3.0625 L 3.765625 -3.09375 L 3.765625 -3.390625 C 3.765625 -3.816406 3.671875 -4.113281 3.484375 -4.28125 C 3.304688 -4.445312 3.046875 -4.53125 2.703125 -4.53125 C 2.429688 -4.53125 2.175781 -4.488281 1.9375 -4.40625 C 1.695312 -4.332031 1.472656 -4.242188 1.265625 -4.140625 L 1 -4.765625 C 1.226562 -4.890625 1.492188 -4.992188 1.796875 -5.078125 C 2.097656 -5.171875 2.414062 -5.21875 2.75 -5.21875 Z M 3.765625 -2.5 L 3 -2.484375 C 2.363281 -2.453125 1.921875 -2.347656 1.671875 -2.171875 C 1.429688 -1.992188 1.3125 -1.742188 1.3125 -1.421875 C 1.3125 -1.128906 1.398438 -0.914062 1.578125 -0.78125 C 1.753906 -0.644531 1.976562 -0.578125 2.25 -0.578125 C 2.675781 -0.578125 3.035156 -0.695312 3.328125 -0.9375 C 3.617188 -1.175781 3.765625 -1.546875 3.765625 -2.046875 Z M 3.765625 -2.5 "/></g></g></g><g fill="#ffffff" fill-opacity="1"><g transform="translate(33.700249, 14.852375)"><g><path d="M 4.9375 -3.828125 C 4.9375 -3.515625 4.835938 -3.269531 4.640625 -3.09375 C 4.453125 -2.914062 4.207031 -2.789062 3.90625 -2.71875 L 3.90625 -2.6875 C 4.21875 -2.644531 4.492188 -2.53125 4.734375 -2.34375 C 4.972656 -2.164062 5.09375 -1.882812 5.09375 -1.5 C 5.09375 -1.0625 4.929688 -0.703125 4.609375 -0.421875 C 4.285156 -0.140625 3.753906 0 3.015625 0 L 0.8125 0 L 0.8125 -5.125 L 3.015625 -5.125 C 3.378906 -5.125 3.703125 -5.082031 3.984375 -5 C 4.273438 -4.925781 4.503906 -4.796875 4.671875 -4.609375 C 4.847656 -4.421875 4.9375 -4.160156 4.9375 -3.828125 Z M 4.078125 -3.734375 C 4.078125 -3.972656 3.988281 -4.144531 3.8125 -4.25 C 3.644531 -4.363281 3.363281 -4.421875 2.96875 -4.421875 L 1.65625 -4.421875 L 1.65625 -3.015625 L 2.8125 -3.015625 C 3.65625 -3.015625 4.078125 -3.253906 4.078125 -3.734375 Z M 4.234375 -1.5 C 4.234375 -1.789062 4.117188 -2 3.890625 -2.125 C 3.671875 -2.257812 3.34375 -2.328125 2.90625 -2.328125 L 1.65625 -2.328125 L 1.65625 -0.671875 L 2.921875 -0.671875 C 3.347656 -0.671875 3.671875 -0.734375 3.890625 -0.859375 C 4.117188 -0.984375 4.234375 -1.195312 4.234375 -1.5 Z M 4.234375 -1.5 "/></g></g></g><g fill="#ffffff" fill-opacity="1"><g transform="translate(39.443399, 14.852375)"><g><path d="M 3.84375 -5.125 L 4.765625 -5.125 L 2.578125 -2.65625 L 4.9375 0 L 3.96875 0 L 1.65625 -2.59375 L 1.65625 0 L 0.8125 0 L 0.8125 -5.125 L 1.65625 -5.125 L 1.65625 -2.640625 Z M 3.84375 -5.125 "/></g></g></g><g fill="#ffffff" fill-opacity="1"><g transform="translate(44.737428, 14.852375)"><g><path d="M 2.75 -5.21875 C 3.375 -5.21875 3.835938 -5.078125 4.140625 -4.796875 C 4.441406 -4.523438 4.59375 -4.085938 4.59375 -3.484375 L 4.59375 0 L 3.984375 0 L 3.8125 -0.734375 L 3.78125 -0.734375 C 3.550781 -0.453125 3.3125 -0.242188 3.0625 -0.109375 C 2.820312 0.0234375 2.488281 0.09375 2.0625 0.09375 C 1.59375 0.09375 1.203125 -0.0234375 0.890625 -0.265625 C 0.585938 -0.515625 0.4375 -0.898438 0.4375 -1.421875 C 0.4375 -1.929688 0.632812 -2.320312 1.03125 -2.59375 C 1.4375 -2.875 2.054688 -3.03125 2.890625 -3.0625 L 3.765625 -3.09375 L 3.765625 -3.390625 C 3.765625 -3.816406 3.671875 -4.113281 3.484375 -4.28125 C 3.304688 -4.445312 3.046875 -4.53125 2.703125 -4.53125 C 2.429688 -4.53125 2.175781 -4.488281 1.9375 -4.40625 C 1.695312 -4.332031 1.472656 -4.242188 1.265625 -4.140625 L 1 -4.765625 C 1.226562 -4.890625 1.492188 -4.992188 1.796875 -5.078125 C 2.097656 -5.171875 2.414062 -5.21875 2.75 -5.21875 Z M 3.765625 -2.5 L 3 -2.484375 C 2.363281 -2.453125 1.921875 -2.347656 1.671875 -2.171875 C 1.429688 -1.992188 1.3125 -1.742188 1.3125 -1.421875 C 1.3125 -1.128906 1.398438 -0.914062 1.578125 -0.78125 C 1.753906 -0.644531 1.976562 -0.578125 2.25 -0.578125 C 2.675781 -0.578125 3.035156 -0.695312 3.328125 -0.9375 C 3.617188 -1.175781 3.765625 -1.546875 3.765625 -2.046875 Z M 3.765625 -2.5 "/></g></g></g></svg>