<svg xmlns="http://www.w3.org/2000/svg" xmlns:xlink="http://www.w3.org/1999/xlink" width="95" zoomAndPan="magnify" viewBox="0 0 71.25 71.25" height="95" preserveAspectRatio="xMidYMid meet" version="1.0"><defs><g/><clipPath id="0a6106d716"><path d="M 0 0 L 70.507812 0 L 70.507812 70.507812 L 0 70.507812 Z M 0 0 " clip-rule="nonzero"/></clipPath><clipPath id="720e85f352"><path d="M 45 35.253906 L 65.683594 35.253906 L 65.683594 56 L 45 56 Z M 45 35.253906 " clip-rule="nonzero"/></clipPath><clipPath id="9e89b60e4f"><path d="M 35.253906 45 L 56 45 L 56 65.683594 L 35.253906 65.683594 Z M 35.253906 45 " clip-rule="nonzero"/></clipPath></defs><g clip-path="url(#0a6106d716)"><path fill="#ffffff" d="M 0 0 L 70.507812 0 L 70.507812 70.507812 L 0 70.507812 Z M 0 0 " fill-opacity="1" fill-rule="nonzero"/><path fill="#4c5270" d="M 0 0 L 70.507812 0 L 70.507812 70.507812 L 0 70.507812 Z M 0 0 " fill-opacity="1" fill-rule="nonzero"/></g><path fill="#c7c5c4" d="M 64.441406 45.601562 C 64.441406 46.199219 64.382812 46.792969 64.265625 47.378906 C 64.148438 47.964844 63.976562 48.535156 63.75 49.089844 C 63.519531 49.640625 63.238281 50.167969 62.90625 50.664062 C 62.574219 51.160156 62.195312 51.621094 61.773438 52.046875 C 61.351562 52.46875 60.890625 52.847656 60.390625 53.179688 C 59.894531 53.511719 59.371094 53.792969 58.816406 54.019531 C 58.261719 54.25 57.695312 54.421875 57.105469 54.539062 C 56.519531 54.65625 55.925781 54.714844 55.328125 54.714844 C 55.117188 54.714844 54.90625 54.703125 54.695312 54.679688 C 54.152344 54.640625 53.617188 54.558594 53.089844 54.425781 C 52.5625 54.292969 52.050781 54.113281 51.554688 53.886719 C 51.0625 53.664062 50.589844 53.398438 50.140625 53.085938 C 49.695312 52.777344 49.277344 52.429688 48.894531 52.046875 C 48.507812 51.660156 48.160156 51.246094 47.851562 50.796875 C 47.539062 50.351562 47.273438 49.878906 47.046875 49.386719 C 46.820312 48.890625 46.640625 48.378906 46.507812 47.851562 C 46.375 47.324219 46.289062 46.789062 46.253906 46.246094 C 46.226562 46.03125 46.214844 45.816406 46.214844 45.601562 C 46.214844 45.003906 46.273438 44.410156 46.390625 43.824219 C 46.507812 43.238281 46.679688 42.667969 46.910156 42.113281 C 47.140625 41.5625 47.421875 41.035156 47.753906 40.539062 C 48.085938 40.042969 48.464844 39.582031 48.886719 39.160156 C 49.308594 38.738281 49.769531 38.359375 50.265625 38.027344 C 50.765625 37.695312 51.289062 37.414062 51.84375 37.183594 C 52.394531 36.957031 52.964844 36.78125 53.550781 36.667969 C 54.136719 36.550781 54.730469 36.492188 55.328125 36.492188 C 55.925781 36.492188 56.519531 36.550781 57.105469 36.667969 C 57.691406 36.78125 58.261719 36.957031 58.816406 37.183594 C 59.367188 37.414062 59.894531 37.695312 60.390625 38.027344 C 60.886719 38.359375 61.347656 38.738281 61.773438 39.160156 C 62.195312 39.582031 62.574219 40.042969 62.90625 40.539062 C 63.238281 41.035156 63.519531 41.5625 63.746094 42.113281 C 63.976562 42.667969 64.148438 43.238281 64.265625 43.824219 C 64.382812 44.410156 64.441406 45.003906 64.441406 45.601562 Z M 64.441406 45.601562 " fill-opacity="1" fill-rule="nonzero"/><path fill="#c7c5c4" d="M 55.328125 36.488281 C 54.730469 36.488281 54.136719 36.546875 53.550781 36.664062 C 52.964844 36.78125 52.394531 36.953125 51.839844 37.183594 C 51.289062 37.410156 50.761719 37.691406 50.265625 38.023438 C 49.769531 38.355469 49.308594 38.734375 48.886719 39.15625 C 48.460938 39.582031 48.085938 40.039062 47.75 40.539062 C 47.417969 41.035156 47.136719 41.5625 46.910156 42.113281 C 46.679688 42.667969 46.507812 43.238281 46.390625 43.824219 C 46.273438 44.410156 46.214844 45.003906 46.214844 45.601562 C 46.214844 45.816406 46.226562 46.03125 46.253906 46.246094 C 46.324219 47.328125 46.585938 48.363281 47.03125 49.351562 C 47.476562 50.34375 48.082031 51.222656 48.84375 51.996094 L 61.722656 39.113281 C 60.871094 38.273438 59.894531 37.625 58.785156 37.167969 C 57.679688 36.714844 56.527344 36.488281 55.328125 36.488281 Z M 55.328125 36.488281 " fill-opacity="1" fill-rule="nonzero"/><path fill="#c7c5c4" d="M 54.699219 54.679688 C 54.746094 55.292969 54.726562 55.90625 54.648438 56.519531 C 54.570312 57.132812 54.429688 57.730469 54.226562 58.3125 C 54.027344 58.898438 53.769531 59.453125 53.453125 59.984375 C 53.140625 60.515625 52.777344 61.011719 52.359375 61.46875 C 51.945312 61.925781 51.488281 62.335938 50.992188 62.703125 C 50.492188 63.066406 49.964844 63.378906 49.402344 63.632812 C 48.839844 63.890625 48.261719 64.089844 47.660156 64.226562 C 47.058594 64.367188 46.449219 64.445312 45.832031 64.460938 C 45.214844 64.476562 44.601562 64.429688 43.992188 64.320312 C 43.386719 64.210938 42.796875 64.042969 42.222656 63.8125 C 41.648438 63.582031 41.105469 63.300781 40.589844 62.960938 C 40.074219 62.621094 39.597656 62.230469 39.160156 61.796875 C 38.722656 61.359375 38.335938 60.882812 37.996094 60.367188 C 37.65625 59.855469 37.371094 59.308594 37.140625 58.738281 C 36.910156 58.164062 36.738281 57.574219 36.628906 56.964844 C 36.519531 56.359375 36.472656 55.746094 36.488281 55.128906 C 36.5 54.511719 36.578125 53.902344 36.714844 53.300781 C 36.855469 52.699219 37.050781 52.117188 37.308594 51.554688 C 37.5625 50.996094 37.875 50.464844 38.238281 49.964844 C 38.601562 49.46875 39.011719 49.011719 39.46875 48.59375 C 39.925781 48.179688 40.417969 47.8125 40.949219 47.5 C 41.480469 47.183594 42.039062 46.925781 42.621094 46.722656 C 43.203125 46.523438 43.800781 46.378906 44.414062 46.300781 C 45.027344 46.21875 45.640625 46.199219 46.257812 46.246094 C 46.292969 46.789062 46.378906 47.324219 46.511719 47.851562 C 46.644531 48.378906 46.824219 48.890625 47.050781 49.386719 C 47.273438 49.878906 47.542969 50.351562 47.851562 50.796875 C 48.164062 51.246094 48.511719 51.660156 48.894531 52.046875 C 49.28125 52.429688 49.699219 52.777344 50.144531 53.085938 C 50.59375 53.398438 51.0625 53.664062 51.558594 53.886719 C 52.054688 54.113281 52.566406 54.292969 53.09375 54.425781 C 53.621094 54.558594 54.15625 54.640625 54.699219 54.679688 Z M 54.699219 54.679688 " fill-opacity="1" fill-rule="nonzero"/><path fill="#c7c5c4" d="M 46.257812 46.246094 C 45.332031 46.179688 44.421875 46.253906 43.519531 46.464844 C 42.621094 46.679688 41.769531 47.019531 40.972656 47.492188 C 40.175781 47.960938 39.46875 48.539062 38.847656 49.226562 C 38.226562 49.914062 37.722656 50.679688 37.335938 51.519531 C 36.949219 52.359375 36.695312 53.238281 36.574219 54.15625 C 36.457031 55.074219 36.476562 55.988281 36.632812 56.898438 C 36.792969 57.8125 37.082031 58.679688 37.507812 59.503906 C 37.929688 60.324219 38.464844 61.066406 39.113281 61.726562 L 48.847656 51.996094 C 48.085938 51.222656 47.480469 50.34375 47.035156 49.351562 C 46.589844 48.363281 46.328125 47.328125 46.257812 46.246094 Z M 46.257812 46.246094 " fill-opacity="1" fill-rule="nonzero"/><g clip-path="url(#720e85f352)"><path stroke-linecap="round" transform="matrix(0.633952, 0, 0, 0.633952, 35.887855, 35.887857)" fill="none" stroke-linejoin="round" d="M 45.040568 15.322465 C 45.040568 16.265213 44.948142 17.201798 44.76329 18.12606 C 44.578437 19.050322 44.30732 19.949936 43.949939 20.824904 C 43.586396 21.69371 43.14275 22.525546 42.619002 23.308088 C 42.095254 24.09063 41.497564 24.817716 40.832096 25.489346 C 40.166627 26.154814 39.439541 26.752504 38.650838 27.276252 C 37.868296 27.8 37.042622 28.243646 36.167654 28.601027 C 35.292686 28.96457 34.399233 29.235687 33.46881 29.42054 C 32.544548 29.605392 31.607962 29.697818 30.665215 29.697818 C 30.332481 29.697818 29.999747 29.679333 29.667013 29.642362 C 28.81053 29.580745 27.966371 29.451348 27.134535 29.241849 C 26.302699 29.03235 25.495511 28.748909 24.712969 28.391528 C 23.936589 28.040309 23.191018 27.62131 22.482417 27.12837 C 21.779978 26.641592 21.120671 26.093197 20.51682 25.489346 C 19.906807 24.879333 19.358412 24.226188 18.871634 23.517587 C 18.378694 22.815148 17.959696 22.069577 17.602314 21.293197 C 17.244933 20.510655 16.961493 19.703467 16.751994 18.871631 C 16.542494 18.039795 16.406936 17.195636 16.35148 16.339153 C 16.308348 16.000257 16.289863 15.661361 16.289863 15.322465 C 16.289863 14.379718 16.382289 13.443133 16.567141 12.518871 C 16.751994 11.594609 17.02311 10.694994 17.386653 9.820027 C 17.750196 8.95122 18.193842 8.119385 18.71759 7.336843 C 19.241339 6.554301 19.839028 5.827215 20.504497 5.161747 C 21.169965 4.496278 21.897051 3.898589 22.679593 3.374841 C 23.468296 2.851092 24.29397 2.407446 25.168938 2.043903 C 26.037744 1.686522 26.937359 1.409244 27.861621 1.230553 C 28.785883 1.045701 29.722468 0.953274 30.665215 0.953274 C 31.607962 0.953274 32.544548 1.045701 33.46881 1.230553 C 34.393071 1.409244 35.292686 1.686522 36.167654 2.043903 C 37.03646 2.407446 37.868296 2.851092 38.650838 3.374841 C 39.433379 3.898589 40.160465 4.496278 40.832096 5.161747 C 41.497564 5.827215 42.095254 6.554301 42.619002 7.336843 C 43.14275 8.119385 43.586396 8.95122 43.943777 9.820027 C 44.30732 10.694994 44.578437 11.594609 44.76329 12.518871 C 44.948142 13.443133 45.040568 14.379718 45.040568 15.322465 Z M 45.040568 15.322465 " stroke="#222126" stroke-width="2" stroke-opacity="1" stroke-miterlimit="4"/></g><g clip-path="url(#9e89b60e4f)"><path stroke-linecap="round" transform="matrix(0.633952, 0, 0, 0.633952, 35.887855, 35.887857)" fill="none" stroke-linejoin="round" d="M 29.673174 29.642362 C 29.747115 30.609757 29.716307 31.577151 29.593072 32.544545 C 29.469837 33.511939 29.248014 34.454686 28.927603 35.372786 C 28.613354 36.297048 28.206679 37.172016 27.707577 38.010013 C 27.214638 38.848011 26.641595 39.630552 25.982289 40.351476 C 25.329144 41.072401 24.608219 41.719384 23.825678 42.298588 C 23.036974 42.87163 22.205138 43.36457 21.317847 43.765084 C 20.430556 44.171759 19.518617 44.486008 18.569709 44.701669 C 17.6208 44.923492 16.659567 45.046727 15.686012 45.071374 C 14.712456 45.096021 13.745062 45.02208 12.783829 44.849551 C 11.828759 44.677022 10.898335 44.412067 9.992559 44.048524 C 9.086782 43.684981 8.230299 43.241335 7.416949 42.705263 C 6.603598 42.169191 5.851865 41.553017 5.16175 40.869063 C 4.471634 40.178948 3.861622 39.427215 3.32555 38.613864 C 2.789478 37.806675 2.33967 36.944031 1.976127 36.044416 C 1.612584 35.13864 1.341468 34.208216 1.168939 33.246984 C 0.99641 32.291913 0.922469 31.324519 0.947116 30.350963 C 0.965601 29.377407 1.088836 28.416175 1.304497 27.467266 C 1.52632 26.518357 1.834407 25.600257 2.241082 24.712966 C 2.641596 23.831836 3.134536 22.993839 3.707578 22.205135 C 4.28062 21.422594 4.927604 20.701669 5.648528 20.042363 C 6.369452 19.389218 7.145832 18.810013 7.983829 18.317074 C 8.821827 17.817972 9.702956 17.411297 10.621057 17.090886 C 11.539157 16.776637 12.481904 16.548653 13.449298 16.425418 C 14.416692 16.296021 15.384086 16.265213 16.357642 16.339153 C 16.413098 17.195636 16.548656 18.039795 16.758155 18.871631 C 16.967655 19.703467 17.251095 20.510655 17.608476 21.293197 C 17.959696 22.069577 18.384856 22.815148 18.871634 23.517587 C 19.364574 24.226188 19.912969 24.879333 20.51682 25.489346 C 21.126833 26.093197 21.78614 26.641592 22.488579 27.12837 C 23.19718 27.62131 23.936589 28.040309 24.719131 28.391528 C 25.501672 28.748909 26.308861 29.03235 27.140697 29.241849 C 27.972532 29.451348 28.816692 29.580745 29.673174 29.642362 Z M 29.673174 29.642362 " stroke="#222126" stroke-width="2" stroke-opacity="1" stroke-miterlimit="4"/></g><path stroke-linecap="round" transform="matrix(0.633952, 0, 0, 0.633952, 35.887855, 35.887857)" fill="none" stroke-linejoin="round" d="M 14.385883 25.865212 L 14.385883 23.948909 " stroke="#222126" stroke-width="2" stroke-opacity="1" stroke-miterlimit="4"/><path stroke-linecap="round" transform="matrix(0.633952, 0, 0, 0.633952, 35.887855, 35.887857)" fill="none" stroke-linejoin="round" d="M 17.251095 25.865212 L 13.369195 25.865212 C 12.753021 25.865212 12.204625 26.062388 11.730171 26.450578 C 11.255716 26.84493 10.959953 27.344031 10.842879 27.947882 C 10.725806 28.551733 10.818232 29.124776 11.107834 29.667009 C 11.403598 30.209243 11.83492 30.591271 12.407963 30.819256 L 16.363804 32.402825 C 16.936846 32.636971 17.368168 33.018999 17.663932 33.561233 C 17.959696 34.103466 18.04596 34.676509 17.928887 35.28036 C 17.811814 35.884211 17.51605 36.383312 17.041596 36.777664 C 16.567141 37.165854 16.024908 37.36303 15.408733 37.36303 L 11.502186 37.36303 " stroke="#222126" stroke-width="2" stroke-opacity="1" stroke-miterlimit="4"/><path stroke-linecap="round" transform="matrix(0.633952, 0, 0, 0.633952, 35.887855, 35.887857)" fill="none" stroke-linejoin="round" d="M 14.385883 39.279333 L 14.385883 37.36303 " stroke="#222126" stroke-width="2" stroke-opacity="1" stroke-miterlimit="4"/><path stroke-linecap="round" transform="matrix(0.633952, 0, 0, 0.633952, 35.887855, 35.887857)" fill="none" stroke-linejoin="round" d="M 30.677539 9.573557 L 30.677539 7.657254 " stroke="#222126" stroke-width="2" stroke-opacity="1" stroke-miterlimit="4"/><path stroke-linecap="round" transform="matrix(0.633952, 0, 0, 0.633952, 35.887855, 35.887857)" fill="none" stroke-linejoin="round" d="M 33.542751 9.573557 L 29.660851 9.573557 C 29.044676 9.573557 28.496281 9.770733 28.021826 10.158923 C 27.547372 10.553274 27.251608 11.052376 27.134535 11.656227 C 27.017462 12.260078 27.109888 12.83312 27.39949 13.375354 C 27.695254 13.917587 28.126576 14.299616 28.699618 14.5276 L 32.655459 16.111169 C 33.228502 16.345315 33.659824 16.727343 33.955588 17.269577 C 34.251351 17.811811 34.337616 18.384853 34.220543 18.988704 C 34.103469 19.592555 33.807706 20.091657 33.333251 20.486008 C 32.858797 20.874198 32.316563 21.071374 31.700389 21.071374 L 27.793842 21.071374 " stroke="#222126" stroke-width="2" stroke-opacity="1" stroke-miterlimit="4"/><path stroke-linecap="round" transform="matrix(0.633952, 0, 0, 0.633952, 35.887855, 35.887857)" fill="none" stroke-linejoin="round" d="M 30.677539 22.987677 L 30.677539 21.071374 " stroke="#222126" stroke-width="2" stroke-opacity="1" stroke-miterlimit="4"/><g fill="#ffffff" fill-opacity="1"><g transform="translate(5.923584, 12.48897)"><g><path d="M 3.363281 0.078125 C 5.3125 0.078125 6.433594 -0.300781 6.433594 -1.578125 C 6.433594 -2.132812 6.140625 -2.515625 5.625 -2.777344 C 6.140625 -3.039062 6.433594 -3.417969 6.433594 -3.972656 C 6.433594 -5.25 5.3125 -5.632812 3.363281 -5.632812 C 1.4375 -5.632812 0.136719 -5.25 0.136719 -3.449219 L 2 -3.449219 C 2 -4.011719 2.492188 -4.0625 3.441406 -4.0625 C 4.332031 -4.0625 4.578125 -4.011719 4.578125 -3.664062 C 4.578125 -3.25 4.289062 -3.234375 2.648438 -3.234375 L 2.648438 -2.316406 C 4.308594 -2.316406 4.578125 -2.300781 4.578125 -1.886719 C 4.578125 -1.523438 4.308594 -1.492188 3.441406 -1.492188 C 2.53125 -1.492188 2 -1.523438 2 -2.101562 L 0.136719 -2.101562 C 0.136719 -0.300781 1.4375 0.078125 3.363281 0.078125 Z M 3.363281 0.078125 "/></g></g></g><g fill="#ffffff" fill-opacity="1"><g transform="translate(12.696986, 12.48897)"><g/></g></g><g fill="#ffffff" fill-opacity="1"><g transform="translate(16.210588, 12.48897)"><g><path d="M 2.375 0.078125 C 1.726562 0.078125 1.226562 -0.0976562 0.875 -0.453125 C 0.53125 -0.804688 0.359375 -1.367188 0.359375 -2.140625 C 0.359375 -2.671875 0.445312 -3.101562 0.625 -3.4375 C 0.800781 -3.769531 1.050781 -4.015625 1.375 -4.171875 C 1.695312 -4.328125 2.066406 -4.40625 2.484375 -4.40625 C 2.773438 -4.40625 3.03125 -4.375 3.25 -4.3125 C 3.476562 -4.257812 3.671875 -4.195312 3.828125 -4.125 L 3.484375 -3.203125 C 3.296875 -3.273438 3.117188 -3.332031 2.953125 -3.375 C 2.796875 -3.425781 2.640625 -3.453125 2.484375 -3.453125 C 1.867188 -3.453125 1.5625 -3.019531 1.5625 -2.15625 C 1.5625 -1.71875 1.640625 -1.394531 1.796875 -1.1875 C 1.960938 -0.976562 2.191406 -0.875 2.484375 -0.875 C 2.734375 -0.875 2.953125 -0.90625 3.140625 -0.96875 C 3.328125 -1.039062 3.515625 -1.132812 3.703125 -1.25 L 3.703125 -0.25 C 3.515625 -0.132812 3.320312 -0.0507812 3.125 0 C 2.925781 0.0507812 2.675781 0.078125 2.375 0.078125 Z M 2.375 0.078125 "/></g></g></g><g fill="#ffffff" fill-opacity="1"><g transform="translate(20.485604, 12.48897)"><g><path d="M 4.5625 -4.328125 L 4.5625 0 L 3.375 0 L 3.375 -3.4375 L 1.796875 -3.4375 L 1.796875 0 L 0.625 0 L 0.625 -4.328125 Z M 4.5625 -4.328125 "/></g></g></g><g fill="#ffffff" fill-opacity="1"><g transform="translate(25.855145, 12.48897)"><g><path d="M 4.5625 -2.171875 C 4.5625 -1.453125 4.367188 -0.894531 3.984375 -0.5 C 3.609375 -0.113281 3.09375 0.078125 2.4375 0.078125 C 2.039062 0.078125 1.679688 -0.00390625 1.359375 -0.171875 C 1.046875 -0.347656 0.800781 -0.601562 0.625 -0.9375 C 0.445312 -1.28125 0.359375 -1.691406 0.359375 -2.171875 C 0.359375 -2.890625 0.546875 -3.441406 0.921875 -3.828125 C 1.296875 -4.210938 1.8125 -4.40625 2.46875 -4.40625 C 2.875 -4.40625 3.234375 -4.316406 3.546875 -4.140625 C 3.859375 -3.972656 4.101562 -3.722656 4.28125 -3.390625 C 4.46875 -3.054688 4.5625 -2.648438 4.5625 -2.171875 Z M 1.5625 -2.171875 C 1.5625 -1.742188 1.628906 -1.421875 1.765625 -1.203125 C 1.910156 -0.984375 2.140625 -0.875 2.453125 -0.875 C 2.765625 -0.875 2.988281 -0.984375 3.125 -1.203125 C 3.269531 -1.421875 3.34375 -1.742188 3.34375 -2.171875 C 3.34375 -2.597656 3.269531 -2.914062 3.125 -3.125 C 2.988281 -3.34375 2.765625 -3.453125 2.453125 -3.453125 C 2.140625 -3.453125 1.910156 -3.34375 1.765625 -3.125 C 1.628906 -2.914062 1.5625 -2.597656 1.5625 -2.171875 Z M 1.5625 -2.171875 "/></g></g></g><g fill="#ffffff" fill-opacity="1"><g transform="translate(30.962956, 12.48897)"><g><path d="M 2.375 0.078125 C 1.726562 0.078125 1.226562 -0.0976562 0.875 -0.453125 C 0.53125 -0.804688 0.359375 -1.367188 0.359375 -2.140625 C 0.359375 -2.671875 0.445312 -3.101562 0.625 -3.4375 C 0.800781 -3.769531 1.050781 -4.015625 1.375 -4.171875 C 1.695312 -4.328125 2.066406 -4.40625 2.484375 -4.40625 C 2.773438 -4.40625 3.03125 -4.375 3.25 -4.3125 C 3.476562 -4.257812 3.671875 -4.195312 3.828125 -4.125 L 3.484375 -3.203125 C 3.296875 -3.273438 3.117188 -3.332031 2.953125 -3.375 C 2.796875 -3.425781 2.640625 -3.453125 2.484375 -3.453125 C 1.867188 -3.453125 1.5625 -3.019531 1.5625 -2.15625 C 1.5625 -1.71875 1.640625 -1.394531 1.796875 -1.1875 C 1.960938 -0.976562 2.191406 -0.875 2.484375 -0.875 C 2.734375 -0.875 2.953125 -0.90625 3.140625 -0.96875 C 3.328125 -1.039062 3.515625 -1.132812 3.703125 -1.25 L 3.703125 -0.25 C 3.515625 -0.132812 3.320312 -0.0507812 3.125 0 C 2.925781 0.0507812 2.675781 0.078125 2.375 0.078125 Z M 2.375 0.078125 "/></g></g></g><g fill="#ffffff" fill-opacity="1"><g transform="translate(35.23797, 12.48897)"><g><path d="M 4.5625 -2.171875 C 4.5625 -1.453125 4.367188 -0.894531 3.984375 -0.5 C 3.609375 -0.113281 3.09375 0.078125 2.4375 0.078125 C 2.039062 0.078125 1.679688 -0.00390625 1.359375 -0.171875 C 1.046875 -0.347656 0.800781 -0.601562 0.625 -0.9375 C 0.445312 -1.28125 0.359375 -1.691406 0.359375 -2.171875 C 0.359375 -2.890625 0.546875 -3.441406 0.921875 -3.828125 C 1.296875 -4.210938 1.8125 -4.40625 2.46875 -4.40625 C 2.875 -4.40625 3.234375 -4.316406 3.546875 -4.140625 C 3.859375 -3.972656 4.101562 -3.722656 4.28125 -3.390625 C 4.46875 -3.054688 4.5625 -2.648438 4.5625 -2.171875 Z M 1.5625 -2.171875 C 1.5625 -1.742188 1.628906 -1.421875 1.765625 -1.203125 C 1.910156 -0.984375 2.140625 -0.875 2.453125 -0.875 C 2.765625 -0.875 2.988281 -0.984375 3.125 -1.203125 C 3.269531 -1.421875 3.34375 -1.742188 3.34375 -2.171875 C 3.34375 -2.597656 3.269531 -2.914062 3.125 -3.125 C 2.988281 -3.34375 2.765625 -3.453125 2.453125 -3.453125 C 2.140625 -3.453125 1.910156 -3.34375 1.765625 -3.125 C 1.628906 -2.914062 1.5625 -2.597656 1.5625 -2.171875 Z M 1.5625 -2.171875 "/></g></g></g><g fill="#ffffff" fill-opacity="1"><g transform="translate(40.34578, 12.48897)"><g><path d="M 0.359375 -2.59375 C 0.359375 -3.550781 0.535156 -4.296875 0.890625 -4.828125 C 1.253906 -5.359375 1.859375 -5.695312 2.703125 -5.84375 C 2.972656 -5.882812 3.253906 -5.921875 3.546875 -5.953125 C 3.835938 -5.992188 4.132812 -6.035156 4.4375 -6.078125 L 4.578125 -5.046875 C 4.398438 -5.023438 4.203125 -5 3.984375 -4.96875 C 3.773438 -4.9375 3.5625 -4.910156 3.34375 -4.890625 C 3.132812 -4.867188 2.953125 -4.84375 2.796875 -4.8125 C 2.523438 -4.769531 2.300781 -4.707031 2.125 -4.625 C 1.957031 -4.539062 1.828125 -4.398438 1.734375 -4.203125 C 1.640625 -4.015625 1.582031 -3.738281 1.5625 -3.375 L 1.625 -3.375 C 1.6875 -3.476562 1.773438 -3.578125 1.890625 -3.671875 C 2.003906 -3.773438 2.144531 -3.863281 2.3125 -3.9375 C 2.476562 -4.007812 2.671875 -4.046875 2.890625 -4.046875 C 3.410156 -4.046875 3.820312 -3.882812 4.125 -3.5625 C 4.425781 -3.238281 4.578125 -2.765625 4.578125 -2.140625 C 4.578125 -1.648438 4.488281 -1.238281 4.3125 -0.90625 C 4.132812 -0.570312 3.882812 -0.320312 3.5625 -0.15625 C 3.25 0 2.878906 0.078125 2.453125 0.078125 C 1.816406 0.078125 1.304688 -0.148438 0.921875 -0.609375 C 0.546875 -1.066406 0.359375 -1.726562 0.359375 -2.59375 Z M 2.53125 -0.875 C 2.78125 -0.875 2.984375 -0.957031 3.140625 -1.125 C 3.296875 -1.300781 3.375 -1.609375 3.375 -2.046875 C 3.375 -2.390625 3.316406 -2.660156 3.203125 -2.859375 C 3.085938 -3.066406 2.890625 -3.171875 2.609375 -3.171875 C 2.441406 -3.171875 2.285156 -3.128906 2.140625 -3.046875 C 1.992188 -2.960938 1.867188 -2.867188 1.765625 -2.765625 C 1.671875 -2.660156 1.601562 -2.570312 1.5625 -2.5 C 1.5625 -2.226562 1.585938 -1.96875 1.640625 -1.71875 C 1.703125 -1.46875 1.800781 -1.265625 1.9375 -1.109375 C 2.082031 -0.953125 2.28125 -0.875 2.53125 -0.875 Z M 2.53125 -0.875 "/></g></g></g><g fill="#ffffff" fill-opacity="1"><g transform="translate(45.477381, 12.48897)"><g><path d="M 2.390625 -4.421875 C 2.972656 -4.421875 3.421875 -4.296875 3.734375 -4.046875 C 4.046875 -3.796875 4.203125 -3.410156 4.203125 -2.890625 L 4.203125 0 L 3.375 0 L 3.140625 -0.59375 L 3.109375 -0.59375 C 2.921875 -0.351562 2.722656 -0.179688 2.515625 -0.078125 C 2.316406 0.0234375 2.035156 0.078125 1.671875 0.078125 C 1.285156 0.078125 0.960938 -0.03125 0.703125 -0.25 C 0.453125 -0.476562 0.328125 -0.828125 0.328125 -1.296875 C 0.328125 -1.753906 0.488281 -2.09375 0.8125 -2.3125 C 1.132812 -2.53125 1.617188 -2.648438 2.265625 -2.671875 L 3.03125 -2.703125 L 3.03125 -2.890625 C 3.03125 -3.117188 2.96875 -3.285156 2.84375 -3.390625 C 2.726562 -3.492188 2.5625 -3.546875 2.34375 -3.546875 C 2.132812 -3.546875 1.925781 -3.515625 1.71875 -3.453125 C 1.519531 -3.390625 1.320312 -3.316406 1.125 -3.234375 L 0.734375 -4.03125 C 0.960938 -4.144531 1.21875 -4.238281 1.5 -4.3125 C 1.789062 -4.382812 2.085938 -4.421875 2.390625 -4.421875 Z M 3.03125 -2.015625 L 2.5625 -2 C 2.1875 -1.976562 1.921875 -1.90625 1.765625 -1.78125 C 1.617188 -1.65625 1.546875 -1.488281 1.546875 -1.28125 C 1.546875 -1.101562 1.597656 -0.972656 1.703125 -0.890625 C 1.804688 -0.816406 1.945312 -0.78125 2.125 -0.78125 C 2.375 -0.78125 2.585938 -0.851562 2.765625 -1 C 2.941406 -1.15625 3.03125 -1.375 3.03125 -1.65625 Z M 3.03125 -2.015625 "/></g></g></g><g fill="#ffffff" fill-opacity="1"><g transform="translate(5.923584, 23.064073)"><g><path d="M 2.203125 -4.40625 C 2.515625 -4.40625 2.804688 -4.363281 3.078125 -4.28125 C 3.347656 -4.207031 3.566406 -4.082031 3.734375 -3.90625 C 3.898438 -3.738281 3.984375 -3.523438 3.984375 -3.265625 C 3.984375 -3.003906 3.90625 -2.796875 3.75 -2.640625 C 3.59375 -2.484375 3.382812 -2.375 3.125 -2.3125 L 3.125 -2.265625 C 3.300781 -2.222656 3.460938 -2.160156 3.609375 -2.078125 C 3.765625 -2.003906 3.882812 -1.90625 3.96875 -1.78125 C 4.0625 -1.65625 4.109375 -1.484375 4.109375 -1.265625 C 4.109375 -1.023438 4.03125 -0.800781 3.875 -0.59375 C 3.726562 -0.394531 3.492188 -0.234375 3.171875 -0.109375 C 2.859375 0.015625 2.457031 0.078125 1.96875 0.078125 C 1.25 0.078125 0.691406 -0.0078125 0.296875 -0.1875 L 0.296875 -1.171875 C 0.484375 -1.085938 0.707031 -1.007812 0.96875 -0.9375 C 1.226562 -0.863281 1.503906 -0.828125 1.796875 -0.828125 C 2.117188 -0.828125 2.390625 -0.863281 2.609375 -0.9375 C 2.835938 -1.019531 2.953125 -1.148438 2.953125 -1.328125 C 2.953125 -1.671875 2.539062 -1.84375 1.71875 -1.84375 L 1.265625 -1.84375 L 1.265625 -2.671875 L 1.703125 -2.671875 C 2.085938 -2.671875 2.382812 -2.703125 2.59375 -2.765625 C 2.8125 -2.828125 2.921875 -2.945312 2.921875 -3.125 C 2.921875 -3.257812 2.851562 -3.363281 2.71875 -3.4375 C 2.582031 -3.507812 2.359375 -3.546875 2.046875 -3.546875 C 1.835938 -3.546875 1.609375 -3.519531 1.359375 -3.46875 C 1.117188 -3.414062 0.894531 -3.347656 0.6875 -3.265625 L 0.328125 -4.09375 C 0.578125 -4.1875 0.847656 -4.257812 1.140625 -4.3125 C 1.441406 -4.375 1.796875 -4.40625 2.203125 -4.40625 Z M 2.203125 -4.40625 "/></g></g></g><g fill="#ffffff" fill-opacity="1"><g transform="translate(10.523786, 23.064073)"><g><path d="M 2.390625 -4.421875 C 2.972656 -4.421875 3.421875 -4.296875 3.734375 -4.046875 C 4.046875 -3.796875 4.203125 -3.410156 4.203125 -2.890625 L 4.203125 0 L 3.375 0 L 3.140625 -0.59375 L 3.109375 -0.59375 C 2.921875 -0.351562 2.722656 -0.179688 2.515625 -0.078125 C 2.316406 0.0234375 2.035156 0.078125 1.671875 0.078125 C 1.285156 0.078125 0.960938 -0.03125 0.703125 -0.25 C 0.453125 -0.476562 0.328125 -0.828125 0.328125 -1.296875 C 0.328125 -1.753906 0.488281 -2.09375 0.8125 -2.3125 C 1.132812 -2.53125 1.617188 -2.648438 2.265625 -2.671875 L 3.03125 -2.703125 L 3.03125 -2.890625 C 3.03125 -3.117188 2.96875 -3.285156 2.84375 -3.390625 C 2.726562 -3.492188 2.5625 -3.546875 2.34375 -3.546875 C 2.132812 -3.546875 1.925781 -3.515625 1.71875 -3.453125 C 1.519531 -3.390625 1.320312 -3.316406 1.125 -3.234375 L 0.734375 -4.03125 C 0.960938 -4.144531 1.21875 -4.238281 1.5 -4.3125 C 1.789062 -4.382812 2.085938 -4.421875 2.390625 -4.421875 Z M 3.03125 -2.015625 L 2.5625 -2 C 2.1875 -1.976562 1.921875 -1.90625 1.765625 -1.78125 C 1.617188 -1.65625 1.546875 -1.488281 1.546875 -1.28125 C 1.546875 -1.101562 1.597656 -0.972656 1.703125 -0.890625 C 1.804688 -0.816406 1.945312 -0.78125 2.125 -0.78125 C 2.375 -0.78125 2.585938 -0.851562 2.765625 -1 C 2.941406 -1.15625 3.03125 -1.375 3.03125 -1.65625 Z M 3.03125 -2.015625 "/></g></g></g><g fill="#ffffff" fill-opacity="1"><g transform="translate(15.512622, 23.064073)"><g><path d="M 3.453125 -4.328125 L 4.765625 -4.328125 L 3.046875 -2.25 L 4.90625 0 L 3.578125 0 L 1.796875 -2.203125 L 1.796875 0 L 0.625 0 L 0.625 -4.328125 L 1.796875 -4.328125 L 1.796875 -2.234375 Z M 3.453125 -4.328125 "/></g></g></g><g fill="#ffffff" fill-opacity="1"><g transform="translate(20.620433, 23.064073)"><g><path d="M 2.390625 -4.421875 C 2.972656 -4.421875 3.421875 -4.296875 3.734375 -4.046875 C 4.046875 -3.796875 4.203125 -3.410156 4.203125 -2.890625 L 4.203125 0 L 3.375 0 L 3.140625 -0.59375 L 3.109375 -0.59375 C 2.921875 -0.351562 2.722656 -0.179688 2.515625 -0.078125 C 2.316406 0.0234375 2.035156 0.078125 1.671875 0.078125 C 1.285156 0.078125 0.960938 -0.03125 0.703125 -0.25 C 0.453125 -0.476562 0.328125 -0.828125 0.328125 -1.296875 C 0.328125 -1.753906 0.488281 -2.09375 0.8125 -2.3125 C 1.132812 -2.53125 1.617188 -2.648438 2.265625 -2.671875 L 3.03125 -2.703125 L 3.03125 -2.890625 C 3.03125 -3.117188 2.96875 -3.285156 2.84375 -3.390625 C 2.726562 -3.492188 2.5625 -3.546875 2.34375 -3.546875 C 2.132812 -3.546875 1.925781 -3.515625 1.71875 -3.453125 C 1.519531 -3.390625 1.320312 -3.316406 1.125 -3.234375 L 0.734375 -4.03125 C 0.960938 -4.144531 1.21875 -4.238281 1.5 -4.3125 C 1.789062 -4.382812 2.085938 -4.421875 2.390625 -4.421875 Z M 3.03125 -2.015625 L 2.5625 -2 C 2.1875 -1.976562 1.921875 -1.90625 1.765625 -1.78125 C 1.617188 -1.65625 1.546875 -1.488281 1.546875 -1.28125 C 1.546875 -1.101562 1.597656 -0.972656 1.703125 -0.890625 C 1.804688 -0.816406 1.945312 -0.78125 2.125 -0.78125 C 2.375 -0.78125 2.585938 -0.851562 2.765625 -1 C 2.941406 -1.15625 3.03125 -1.375 3.03125 -1.65625 Z M 3.03125 -2.015625 "/></g></g></g><g fill="#ffffff" fill-opacity="1"><g transform="translate(25.609268, 23.064073)"><g><path d="M 2.203125 -4.40625 C 2.515625 -4.40625 2.804688 -4.363281 3.078125 -4.28125 C 3.347656 -4.207031 3.566406 -4.082031 3.734375 -3.90625 C 3.898438 -3.738281 3.984375 -3.523438 3.984375 -3.265625 C 3.984375 -3.003906 3.90625 -2.796875 3.75 -2.640625 C 3.59375 -2.484375 3.382812 -2.375 3.125 -2.3125 L 3.125 -2.265625 C 3.300781 -2.222656 3.460938 -2.160156 3.609375 -2.078125 C 3.765625 -2.003906 3.882812 -1.90625 3.96875 -1.78125 C 4.0625 -1.65625 4.109375 -1.484375 4.109375 -1.265625 C 4.109375 -1.023438 4.03125 -0.800781 3.875 -0.59375 C 3.726562 -0.394531 3.492188 -0.234375 3.171875 -0.109375 C 2.859375 0.015625 2.457031 0.078125 1.96875 0.078125 C 1.25 0.078125 0.691406 -0.0078125 0.296875 -0.1875 L 0.296875 -1.171875 C 0.484375 -1.085938 0.707031 -1.007812 0.96875 -0.9375 C 1.226562 -0.863281 1.503906 -0.828125 1.796875 -0.828125 C 2.117188 -0.828125 2.390625 -0.863281 2.609375 -0.9375 C 2.835938 -1.019531 2.953125 -1.148438 2.953125 -1.328125 C 2.953125 -1.671875 2.539062 -1.84375 1.71875 -1.84375 L 1.265625 -1.84375 L 1.265625 -2.671875 L 1.703125 -2.671875 C 2.085938 -2.671875 2.382812 -2.703125 2.59375 -2.765625 C 2.8125 -2.828125 2.921875 -2.945312 2.921875 -3.125 C 2.921875 -3.257812 2.851562 -3.363281 2.71875 -3.4375 C 2.582031 -3.507812 2.359375 -3.546875 2.046875 -3.546875 C 1.835938 -3.546875 1.609375 -3.519531 1.359375 -3.46875 C 1.117188 -3.414062 0.894531 -3.347656 0.6875 -3.265625 L 0.328125 -4.09375 C 0.578125 -4.1875 0.847656 -4.257812 1.140625 -4.3125 C 1.441406 -4.375 1.796875 -4.40625 2.203125 -4.40625 Z M 2.203125 -4.40625 "/></g></g></g><g fill="#ffffff" fill-opacity="1"><g transform="translate(30.20947, 23.064073)"><g><path d="M 2.390625 -4.421875 C 2.972656 -4.421875 3.421875 -4.296875 3.734375 -4.046875 C 4.046875 -3.796875 4.203125 -3.410156 4.203125 -2.890625 L 4.203125 0 L 3.375 0 L 3.140625 -0.59375 L 3.109375 -0.59375 C 2.921875 -0.351562 2.722656 -0.179688 2.515625 -0.078125 C 2.316406 0.0234375 2.035156 0.078125 1.671875 0.078125 C 1.285156 0.078125 0.960938 -0.03125 0.703125 -0.25 C 0.453125 -0.476562 0.328125 -0.828125 0.328125 -1.296875 C 0.328125 -1.753906 0.488281 -2.09375 0.8125 -2.3125 C 1.132812 -2.53125 1.617188 -2.648438 2.265625 -2.671875 L 3.03125 -2.703125 L 3.03125 -2.890625 C 3.03125 -3.117188 2.96875 -3.285156 2.84375 -3.390625 C 2.726562 -3.492188 2.5625 -3.546875 2.34375 -3.546875 C 2.132812 -3.546875 1.925781 -3.515625 1.71875 -3.453125 C 1.519531 -3.390625 1.320312 -3.316406 1.125 -3.234375 L 0.734375 -4.03125 C 0.960938 -4.144531 1.21875 -4.238281 1.5 -4.3125 C 1.789062 -4.382812 2.085938 -4.421875 2.390625 -4.421875 Z M 3.03125 -2.015625 L 2.5625 -2 C 2.1875 -1.976562 1.921875 -1.90625 1.765625 -1.78125 C 1.617188 -1.65625 1.546875 -1.488281 1.546875 -1.28125 C 1.546875 -1.101562 1.597656 -0.972656 1.703125 -0.890625 C 1.804688 -0.816406 1.945312 -0.78125 2.125 -0.78125 C 2.375 -0.78125 2.585938 -0.851562 2.765625 -1 C 2.941406 -1.15625 3.03125 -1.375 3.03125 -1.65625 Z M 3.03125 -2.015625 "/></g></g></g><g fill="#ffffff" fill-opacity="1"><g transform="translate(5.923584, 33.639175)"><g><path d="M 3.453125 -4.328125 L 4.765625 -4.328125 L 3.046875 -2.25 L 4.90625 0 L 3.578125 0 L 1.796875 -2.203125 L 1.796875 0 L 0.625 0 L 0.625 -4.328125 L 1.796875 -4.328125 L 1.796875 -2.234375 Z M 3.453125 -4.328125 "/></g></g></g><g fill="#ffffff" fill-opacity="1"><g transform="translate(11.031394, 33.639175)"><g><path d="M 3.03125 -4.40625 C 3.519531 -4.40625 3.914062 -4.21875 4.21875 -3.84375 C 4.519531 -3.46875 4.671875 -2.910156 4.671875 -2.171875 C 4.671875 -1.429688 4.515625 -0.867188 4.203125 -0.484375 C 3.890625 -0.109375 3.488281 0.078125 3 0.078125 C 2.6875 0.078125 2.4375 0.0195312 2.25 -0.09375 C 2.0625 -0.207031 1.910156 -0.332031 1.796875 -0.46875 L 1.734375 -0.46875 C 1.773438 -0.25 1.796875 -0.0390625 1.796875 0.15625 L 1.796875 1.90625 L 0.625 1.90625 L 0.625 -4.328125 L 1.578125 -4.328125 L 1.75 -3.765625 L 1.796875 -3.765625 C 1.910156 -3.941406 2.066406 -4.09375 2.265625 -4.21875 C 2.460938 -4.34375 2.71875 -4.40625 3.03125 -4.40625 Z M 2.65625 -3.46875 C 2.34375 -3.46875 2.125 -3.367188 2 -3.171875 C 1.875 -2.984375 1.804688 -2.695312 1.796875 -2.3125 L 1.796875 -2.1875 C 1.796875 -1.769531 1.859375 -1.445312 1.984375 -1.21875 C 2.109375 -0.988281 2.335938 -0.875 2.671875 -0.875 C 2.941406 -0.875 3.140625 -0.988281 3.265625 -1.21875 C 3.390625 -1.445312 3.453125 -1.769531 3.453125 -2.1875 C 3.453125 -3.039062 3.1875 -3.46875 2.65625 -3.46875 Z M 2.65625 -3.46875 "/></g></g></g><g fill="#ffffff" fill-opacity="1"><g transform="translate(16.250243, 33.639175)"><g><path d="M 4.5625 -2.171875 C 4.5625 -1.453125 4.367188 -0.894531 3.984375 -0.5 C 3.609375 -0.113281 3.09375 0.078125 2.4375 0.078125 C 2.039062 0.078125 1.679688 -0.00390625 1.359375 -0.171875 C 1.046875 -0.347656 0.800781 -0.601562 0.625 -0.9375 C 0.445312 -1.28125 0.359375 -1.691406 0.359375 -2.171875 C 0.359375 -2.890625 0.546875 -3.441406 0.921875 -3.828125 C 1.296875 -4.210938 1.8125 -4.40625 2.46875 -4.40625 C 2.875 -4.40625 3.234375 -4.316406 3.546875 -4.140625 C 3.859375 -3.972656 4.101562 -3.722656 4.28125 -3.390625 C 4.46875 -3.054688 4.5625 -2.648438 4.5625 -2.171875 Z M 1.5625 -2.171875 C 1.5625 -1.742188 1.628906 -1.421875 1.765625 -1.203125 C 1.910156 -0.984375 2.140625 -0.875 2.453125 -0.875 C 2.765625 -0.875 2.988281 -0.984375 3.125 -1.203125 C 3.269531 -1.421875 3.34375 -1.742188 3.34375 -2.171875 C 3.34375 -2.597656 3.269531 -2.914062 3.125 -3.125 C 2.988281 -3.34375 2.765625 -3.453125 2.453125 -3.453125 C 2.140625 -3.453125 1.910156 -3.34375 1.765625 -3.125 C 1.628906 -2.914062 1.5625 -2.597656 1.5625 -2.171875 Z M 1.5625 -2.171875 "/></g></g></g><g fill="#ffffff" fill-opacity="1"><g transform="translate(21.358055, 33.639175)"><g><path d="M 2.375 0.078125 C 1.726562 0.078125 1.226562 -0.0976562 0.875 -0.453125 C 0.53125 -0.804688 0.359375 -1.367188 0.359375 -2.140625 C 0.359375 -2.671875 0.445312 -3.101562 0.625 -3.4375 C 0.800781 -3.769531 1.050781 -4.015625 1.375 -4.171875 C 1.695312 -4.328125 2.066406 -4.40625 2.484375 -4.40625 C 2.773438 -4.40625 3.03125 -4.375 3.25 -4.3125 C 3.476562 -4.257812 3.671875 -4.195312 3.828125 -4.125 L 3.484375 -3.203125 C 3.296875 -3.273438 3.117188 -3.332031 2.953125 -3.375 C 2.796875 -3.425781 2.640625 -3.453125 2.484375 -3.453125 C 1.867188 -3.453125 1.5625 -3.019531 1.5625 -2.15625 C 1.5625 -1.71875 1.640625 -1.394531 1.796875 -1.1875 C 1.960938 -0.976562 2.191406 -0.875 2.484375 -0.875 C 2.734375 -0.875 2.953125 -0.90625 3.140625 -0.96875 C 3.328125 -1.039062 3.515625 -1.132812 3.703125 -1.25 L 3.703125 -0.25 C 3.515625 -0.132812 3.320312 -0.0507812 3.125 0 C 2.925781 0.0507812 2.675781 0.078125 2.375 0.078125 Z M 2.375 0.078125 "/></g></g></g><g fill="#ffffff" fill-opacity="1"><g transform="translate(25.633069, 33.639175)"><g><path d="M 2.375 0.078125 C 1.726562 0.078125 1.226562 -0.0976562 0.875 -0.453125 C 0.53125 -0.804688 0.359375 -1.367188 0.359375 -2.140625 C 0.359375 -2.671875 0.445312 -3.101562 0.625 -3.4375 C 0.800781 -3.769531 1.050781 -4.015625 1.375 -4.171875 C 1.695312 -4.328125 2.066406 -4.40625 2.484375 -4.40625 C 2.773438 -4.40625 3.03125 -4.375 3.25 -4.3125 C 3.476562 -4.257812 3.671875 -4.195312 3.828125 -4.125 L 3.484375 -3.203125 C 3.296875 -3.273438 3.117188 -3.332031 2.953125 -3.375 C 2.796875 -3.425781 2.640625 -3.453125 2.484375 -3.453125 C 1.867188 -3.453125 1.5625 -3.019531 1.5625 -2.15625 C 1.5625 -1.71875 1.640625 -1.394531 1.796875 -1.1875 C 1.960938 -0.976562 2.191406 -0.875 2.484375 -0.875 C 2.734375 -0.875 2.953125 -0.90625 3.140625 -0.96875 C 3.328125 -1.039062 3.515625 -1.132812 3.703125 -1.25 L 3.703125 -0.25 C 3.515625 -0.132812 3.320312 -0.0507812 3.125 0 C 2.925781 0.0507812 2.675781 0.078125 2.375 0.078125 Z M 2.375 0.078125 "/></g></g></g><g fill="#ffffff" fill-opacity="1"><g transform="translate(29.908084, 33.639175)"><g><path d="M 4.5625 -2.171875 C 4.5625 -1.453125 4.367188 -0.894531 3.984375 -0.5 C 3.609375 -0.113281 3.09375 0.078125 2.4375 0.078125 C 2.039062 0.078125 1.679688 -0.00390625 1.359375 -0.171875 C 1.046875 -0.347656 0.800781 -0.601562 0.625 -0.9375 C 0.445312 -1.28125 0.359375 -1.691406 0.359375 -2.171875 C 0.359375 -2.890625 0.546875 -3.441406 0.921875 -3.828125 C 1.296875 -4.210938 1.8125 -4.40625 2.46875 -4.40625 C 2.875 -4.40625 3.234375 -4.316406 3.546875 -4.140625 C 3.859375 -3.972656 4.101562 -3.722656 4.28125 -3.390625 C 4.46875 -3.054688 4.5625 -2.648438 4.5625 -2.171875 Z M 1.5625 -2.171875 C 1.5625 -1.742188 1.628906 -1.421875 1.765625 -1.203125 C 1.910156 -0.984375 2.140625 -0.875 2.453125 -0.875 C 2.765625 -0.875 2.988281 -0.984375 3.125 -1.203125 C 3.269531 -1.421875 3.34375 -1.742188 3.34375 -2.171875 C 3.34375 -2.597656 3.269531 -2.914062 3.125 -3.125 C 2.988281 -3.34375 2.765625 -3.453125 2.453125 -3.453125 C 2.140625 -3.453125 1.910156 -3.34375 1.765625 -3.125 C 1.628906 -2.914062 1.5625 -2.597656 1.5625 -2.171875 Z M 1.5625 -2.171875 "/></g></g></g><g fill="#ffffff" fill-opacity="1"><g transform="translate(35.015894, 33.639175)"><g><path d="M 4.453125 -3.203125 C 4.453125 -2.960938 4.378906 -2.757812 4.234375 -2.59375 C 4.097656 -2.4375 3.882812 -2.332031 3.59375 -2.28125 L 3.59375 -2.25 C 3.894531 -2.21875 4.132812 -2.113281 4.3125 -1.9375 C 4.5 -1.769531 4.59375 -1.554688 4.59375 -1.296875 C 4.59375 -1.046875 4.523438 -0.820312 4.390625 -0.625 C 4.265625 -0.425781 4.0625 -0.269531 3.78125 -0.15625 C 3.5 -0.0507812 3.132812 0 2.6875 0 L 0.625 0 L 0.625 -4.328125 L 2.6875 -4.328125 C 3.019531 -4.328125 3.320312 -4.289062 3.59375 -4.21875 C 3.863281 -4.15625 4.070312 -4.039062 4.21875 -3.875 C 4.375 -3.707031 4.453125 -3.484375 4.453125 -3.203125 Z M 3.265625 -3.109375 C 3.265625 -3.367188 3.054688 -3.5 2.640625 -3.5 L 1.796875 -3.5 L 1.796875 -2.640625 L 2.5 -2.640625 C 2.75 -2.640625 2.9375 -2.675781 3.0625 -2.75 C 3.195312 -2.820312 3.265625 -2.941406 3.265625 -3.109375 Z M 3.375 -1.359375 C 3.375 -1.523438 3.304688 -1.644531 3.171875 -1.71875 C 3.035156 -1.800781 2.835938 -1.84375 2.578125 -1.84375 L 1.796875 -1.84375 L 1.796875 -0.8125 L 2.609375 -0.8125 C 2.828125 -0.8125 3.007812 -0.851562 3.15625 -0.9375 C 3.300781 -1.019531 3.375 -1.160156 3.375 -1.359375 Z M 3.375 -1.359375 "/></g></g></g><g fill="#ffffff" fill-opacity="1"><g transform="translate(40.203014, 33.639175)"><g><path d="M 4.5625 -2.171875 C 4.5625 -1.453125 4.367188 -0.894531 3.984375 -0.5 C 3.609375 -0.113281 3.09375 0.078125 2.4375 0.078125 C 2.039062 0.078125 1.679688 -0.00390625 1.359375 -0.171875 C 1.046875 -0.347656 0.800781 -0.601562 0.625 -0.9375 C 0.445312 -1.28125 0.359375 -1.691406 0.359375 -2.171875 C 0.359375 -2.890625 0.546875 -3.441406 0.921875 -3.828125 C 1.296875 -4.210938 1.8125 -4.40625 2.46875 -4.40625 C 2.875 -4.40625 3.234375 -4.316406 3.546875 -4.140625 C 3.859375 -3.972656 4.101562 -3.722656 4.28125 -3.390625 C 4.46875 -3.054688 4.5625 -2.648438 4.5625 -2.171875 Z M 1.5625 -2.171875 C 1.5625 -1.742188 1.628906 -1.421875 1.765625 -1.203125 C 1.910156 -0.984375 2.140625 -0.875 2.453125 -0.875 C 2.765625 -0.875 2.988281 -0.984375 3.125 -1.203125 C 3.269531 -1.421875 3.34375 -1.742188 3.34375 -2.171875 C 3.34375 -2.597656 3.269531 -2.914062 3.125 -3.125 C 2.988281 -3.34375 2.765625 -3.453125 2.453125 -3.453125 C 2.140625 -3.453125 1.910156 -3.34375 1.765625 -3.125 C 1.628906 -2.914062 1.5625 -2.597656 1.5625 -2.171875 Z M 1.5625 -2.171875 "/></g></g></g><g fill="#ffffff" fill-opacity="1"><g transform="translate(45.310824, 33.639175)"><g><path d="M 3.453125 -4.328125 L 4.765625 -4.328125 L 3.046875 -2.25 L 4.90625 0 L 3.578125 0 L 1.796875 -2.203125 L 1.796875 0 L 0.625 0 L 0.625 -4.328125 L 1.796875 -4.328125 L 1.796875 -2.234375 Z M 3.453125 -4.328125 "/></g></g></g></svg>