<svg xmlns="http://www.w3.org/2000/svg" xmlns:xlink="http://www.w3.org/1999/xlink" width="95" zoomAndPan="magnify" viewBox="0 0 71.25 71.25" height="95" preserveAspectRatio="xMidYMid meet" version="1.0"><defs><g/><clipPath id="5fe268c413"><path d="M 0 0 L 70.507812 0 L 70.507812 70.507812 L 0 70.507812 Z M 0 0 " clip-rule="nonzero"/></clipPath></defs><g clip-path="url(#5fe268c413)"><path fill="#ffffff" d="M 0 0 L 70.507812 0 L 70.507812 70.507812 L 0 70.507812 Z M 0 0 " fill-opacity="1" fill-rule="nonzero"/><path fill="#ffb1a5" d="M 0 0 L 70.507812 0 L 70.507812 70.507812 L 0 70.507812 Z M 0 0 " fill-opacity="1" fill-rule="nonzero"/></g><path stroke-linecap="butt" transform="matrix(0.76598, 0, 0, 0.76598, 6.259039, 43.498334)" fill="none" stroke-linejoin="miter" d="M 0.569562 12.139398 L 0.538964 12.394382 C -0.0933958 17.483857 2.293252 20.436568 8.326166 20.436568 C 13.803215 20.436568 16.725328 17.300268 17.199598 12.516774 L 17.260794 11.884415 C 17.729964 7.11112 15.465709 3.964621 10.692414 3.964621 C 9.024821 3.964621 7.892693 4.280801 6.974752 4.877463 L 7.739703 0.573338 L 18.454118 0.573338 L 19.111976 -4.526336 L 3.522273 -4.526336 L 1.196822 8.83991 L 6.000714 10.568699 C 6.69427 9.528365 7.923291 9.064295 8.927927 9.064295 L 9.086017 9.064295 C 10.621019 9.064295 11.600156 9.844545 11.411468 12.047604 L 11.38087 12.394382 C 11.192182 14.587242 9.901965 15.347093 8.672944 15.347093 L 8.366963 15.347093 C 7.137942 15.347093 6.102708 14.658637 6.418888 12.139398 Z M 39.423977 2.393922 C 39.990041 -1.854107 37.19032 -4.959808 31.907057 -4.959808 C 26.404509 -4.959808 23.671084 -2.007097 23.074422 2.393922 L 21.661813 13.082838 C 21.095749 17.330866 23.89547 20.436568 29.178732 20.436568 C 34.68128 20.436568 37.414705 17.483857 38.011367 13.082838 Z M 32.162041 13.082838 C 31.968254 14.495448 31.126807 15.347093 29.642802 15.347093 L 29.52041 15.347093 C 28.041505 15.347093 27.317351 14.403654 27.511139 13.082838 L 28.923748 2.393922 C 29.117536 0.981312 29.958982 0.129667 31.442987 0.129667 L 31.565379 0.129667 C 33.044285 0.129667 33.768438 1.073106 33.574651 2.393922 Z M 53.692864 19.997996 L 65.768892 -2.007097 L 66.11567 -4.648728 C 65.01414 -4.30195 62.061429 -3.638992 59.103618 -3.638992 C 56.273299 -3.638992 55.01368 -3.83278 53.320588 -4.526336 C 52.565836 -4.806818 51.714191 -4.959808 50.770751 -4.959808 C 47.155082 -4.959808 44.329863 -2.797546 43.794397 1.134302 L 43.763799 1.516778 C 43.223234 5.448626 45.487489 7.610888 49.103158 7.610888 C 52.718826 7.610888 55.554245 5.448626 56.089711 1.516778 L 56.181505 0.889518 C 56.528283 0.920116 56.931157 0.950714 57.379928 0.950714 C 58.068384 0.950714 58.659946 0.889518 59.195412 0.787525 L 48.664586 19.997996 Z M 59.735978 13.965082 L 59.674781 14.342458 C 59.164814 18.274306 61.429069 20.436568 65.044738 20.436568 C 68.660407 20.436568 71.495825 18.274306 71.995593 14.342458 L 72.05679 13.965082 C 72.561657 10.038333 70.297402 7.865872 66.681733 7.865872 C 63.066065 7.865872 60.235746 10.038333 59.735978 13.965082 Z M 63.91771 14.342458 L 63.978906 13.965082 C 64.101298 12.924748 64.85605 12.139398 66.023875 12.139398 L 66.212563 12.139398 C 67.370189 12.139398 67.941353 12.924748 67.808761 13.965082 L 67.747565 14.342458 C 67.625173 15.377691 66.875521 16.163041 65.707696 16.163041 L 65.513908 16.163041 C 64.356282 16.163041 63.790218 15.377691 63.91771 14.342458 Z M 51.87738 1.134302 L 51.846782 1.516778 C 51.714191 2.552012 50.928841 3.337361 49.766115 3.337361 L 49.582527 3.337361 C 48.414702 3.337361 47.884336 2.552012 48.006728 1.516778 L 48.037326 1.134302 C 48.200515 0.0990686 48.950167 -0.686281 50.107793 -0.686281 L 50.301581 -0.686281 C 51.469406 -0.686281 52.03037 0.0990686 51.87738 1.134302 Z M 51.87738 1.134302 " stroke="#ffde59" stroke-width="0.903998" stroke-opacity="1" stroke-miterlimit="4"/><g fill="#ffffff" fill-opacity="1"><g transform="translate(5.416063, 11.256997)"><g><path d="M 3.875 -4.078125 C 3.875 -3.710938 3.757812 -3.425781 3.53125 -3.21875 C 3.300781 -3.007812 2.992188 -2.875 2.609375 -2.8125 L 2.609375 -2.78125 C 3.054688 -2.71875 3.394531 -2.578125 3.625 -2.359375 C 3.863281 -2.140625 3.984375 -1.851562 3.984375 -1.5 C 3.984375 -1.039062 3.800781 -0.660156 3.4375 -0.359375 C 3.082031 -0.0664062 2.546875 0.078125 1.828125 0.078125 C 1.546875 0.078125 1.273438 0.0546875 1.015625 0.015625 C 0.753906 -0.0234375 0.507812 -0.101562 0.28125 -0.21875 L 0.28125 -0.828125 C 0.507812 -0.710938 0.757812 -0.625 1.03125 -0.5625 C 1.3125 -0.507812 1.578125 -0.484375 1.828125 -0.484375 C 2.304688 -0.484375 2.664062 -0.570312 2.90625 -0.75 C 3.15625 -0.925781 3.28125 -1.175781 3.28125 -1.5 C 3.28125 -1.84375 3.132812 -2.085938 2.84375 -2.234375 C 2.5625 -2.390625 2.160156 -2.46875 1.640625 -2.46875 L 0.875 -2.46875 L 0.875 -3.03125 L 1.609375 -3.03125 C 2.128906 -3.03125 2.519531 -3.117188 2.78125 -3.296875 C 3.039062 -3.472656 3.171875 -3.710938 3.171875 -4.015625 C 3.171875 -4.273438 3.070312 -4.476562 2.875 -4.625 C 2.675781 -4.769531 2.421875 -4.84375 2.109375 -4.84375 C 1.765625 -4.84375 1.484375 -4.800781 1.265625 -4.71875 C 1.046875 -4.632812 0.832031 -4.523438 0.625 -4.390625 L 0.3125 -4.84375 C 0.519531 -5 0.773438 -5.128906 1.078125 -5.234375 C 1.378906 -5.335938 1.722656 -5.390625 2.109375 -5.390625 C 2.679688 -5.390625 3.117188 -5.265625 3.421875 -5.015625 C 3.722656 -4.773438 3.875 -4.460938 3.875 -4.078125 Z M 3.875 -4.078125 "/></g></g></g><g fill="#ffffff" fill-opacity="1"><g transform="translate(9.984706, 11.256997)"><g><path d="M 2.140625 -4.0625 C 2.628906 -4.0625 2.988281 -3.953125 3.21875 -3.734375 C 3.457031 -3.523438 3.578125 -3.1875 3.578125 -2.71875 L 3.578125 0 L 3.09375 0 L 2.96875 -0.5625 L 2.9375 -0.5625 C 2.769531 -0.34375 2.585938 -0.179688 2.390625 -0.078125 C 2.203125 0.0234375 1.941406 0.078125 1.609375 0.078125 C 1.242188 0.078125 0.941406 -0.015625 0.703125 -0.203125 C 0.460938 -0.398438 0.34375 -0.703125 0.34375 -1.109375 C 0.34375 -1.503906 0.5 -1.8125 0.8125 -2.03125 C 1.125 -2.25 1.609375 -2.367188 2.265625 -2.390625 L 2.9375 -2.40625 L 2.9375 -2.640625 C 2.9375 -2.972656 2.863281 -3.203125 2.71875 -3.328125 C 2.570312 -3.460938 2.367188 -3.53125 2.109375 -3.53125 C 1.898438 -3.53125 1.703125 -3.5 1.515625 -3.4375 C 1.328125 -3.375 1.148438 -3.304688 0.984375 -3.234375 L 0.78125 -3.71875 C 0.957031 -3.8125 1.164062 -3.890625 1.40625 -3.953125 C 1.644531 -4.023438 1.890625 -4.0625 2.140625 -4.0625 Z M 2.921875 -1.953125 L 2.34375 -1.9375 C 1.84375 -1.914062 1.492188 -1.832031 1.296875 -1.6875 C 1.109375 -1.550781 1.015625 -1.359375 1.015625 -1.109375 C 1.015625 -0.878906 1.082031 -0.710938 1.21875 -0.609375 C 1.363281 -0.503906 1.539062 -0.453125 1.75 -0.453125 C 2.082031 -0.453125 2.359375 -0.546875 2.578125 -0.734375 C 2.804688 -0.921875 2.921875 -1.207031 2.921875 -1.59375 Z M 2.921875 -1.953125 "/></g></g></g><g fill="#ffffff" fill-opacity="1"><g transform="translate(14.352117, 11.256997)"><g><path d="M 3 -4 L 3.71875 -4 L 2 -2.078125 L 3.859375 0 L 3.09375 0 L 1.296875 -2.03125 L 1.296875 0 L 0.640625 0 L 0.640625 -4 L 1.296875 -4 L 1.296875 -2.0625 Z M 3 -4 "/></g></g></g><g fill="#ffffff" fill-opacity="1"><g transform="translate(18.481035, 11.256997)"><g><path d="M 2.140625 -4.0625 C 2.628906 -4.0625 2.988281 -3.953125 3.21875 -3.734375 C 3.457031 -3.523438 3.578125 -3.1875 3.578125 -2.71875 L 3.578125 0 L 3.09375 0 L 2.96875 -0.5625 L 2.9375 -0.5625 C 2.769531 -0.34375 2.585938 -0.179688 2.390625 -0.078125 C 2.203125 0.0234375 1.941406 0.078125 1.609375 0.078125 C 1.242188 0.078125 0.941406 -0.015625 0.703125 -0.203125 C 0.460938 -0.398438 0.34375 -0.703125 0.34375 -1.109375 C 0.34375 -1.503906 0.5 -1.8125 0.8125 -2.03125 C 1.125 -2.25 1.609375 -2.367188 2.265625 -2.390625 L 2.9375 -2.40625 L 2.9375 -2.640625 C 2.9375 -2.972656 2.863281 -3.203125 2.71875 -3.328125 C 2.570312 -3.460938 2.367188 -3.53125 2.109375 -3.53125 C 1.898438 -3.53125 1.703125 -3.5 1.515625 -3.4375 C 1.328125 -3.375 1.148438 -3.304688 0.984375 -3.234375 L 0.78125 -3.71875 C 0.957031 -3.8125 1.164062 -3.890625 1.40625 -3.953125 C 1.644531 -4.023438 1.890625 -4.0625 2.140625 -4.0625 Z M 2.921875 -1.953125 L 2.34375 -1.9375 C 1.84375 -1.914062 1.492188 -1.832031 1.296875 -1.6875 C 1.109375 -1.550781 1.015625 -1.359375 1.015625 -1.109375 C 1.015625 -0.878906 1.082031 -0.710938 1.21875 -0.609375 C 1.363281 -0.503906 1.539062 -0.453125 1.75 -0.453125 C 2.082031 -0.453125 2.359375 -0.546875 2.578125 -0.734375 C 2.804688 -0.921875 2.921875 -1.207031 2.921875 -1.59375 Z M 2.921875 -1.953125 "/></g></g></g><g fill="#ffffff" fill-opacity="1"><g transform="translate(22.848446, 11.256997)"><g><path d="M 1.6875 -4.0625 C 2.144531 -4.0625 2.507812 -3.96875 2.78125 -3.78125 C 3.050781 -3.601562 3.1875 -3.347656 3.1875 -3.015625 C 3.1875 -2.773438 3.113281 -2.582031 2.96875 -2.4375 C 2.832031 -2.300781 2.65625 -2.195312 2.4375 -2.125 L 2.4375 -2.109375 C 2.59375 -2.054688 2.738281 -1.988281 2.875 -1.90625 C 3.007812 -1.832031 3.113281 -1.726562 3.1875 -1.59375 C 3.269531 -1.46875 3.3125 -1.304688 3.3125 -1.109375 C 3.3125 -0.773438 3.171875 -0.492188 2.890625 -0.265625 C 2.617188 -0.0351562 2.191406 0.078125 1.609375 0.078125 C 1.316406 0.078125 1.054688 0.0507812 0.828125 0 C 0.597656 -0.0390625 0.40625 -0.101562 0.25 -0.1875 L 0.25 -0.78125 C 0.414062 -0.695312 0.613281 -0.625 0.84375 -0.5625 C 1.070312 -0.5 1.328125 -0.46875 1.609375 -0.46875 C 1.898438 -0.46875 2.148438 -0.515625 2.359375 -0.609375 C 2.566406 -0.710938 2.671875 -0.890625 2.671875 -1.140625 C 2.671875 -1.585938 2.289062 -1.8125 1.53125 -1.8125 L 0.984375 -1.8125 L 0.984375 -2.34375 L 1.421875 -2.34375 C 1.765625 -2.34375 2.039062 -2.390625 2.25 -2.484375 C 2.457031 -2.578125 2.5625 -2.734375 2.5625 -2.953125 C 2.5625 -3.140625 2.484375 -3.28125 2.328125 -3.375 C 2.171875 -3.476562 1.941406 -3.53125 1.640625 -3.53125 C 1.421875 -3.53125 1.226562 -3.507812 1.0625 -3.46875 C 0.894531 -3.425781 0.710938 -3.359375 0.515625 -3.265625 L 0.296875 -3.796875 C 0.710938 -3.972656 1.175781 -4.0625 1.6875 -4.0625 Z M 1.6875 -4.0625 "/></g></g></g><g fill="#ffffff" fill-opacity="1"><g transform="translate(26.686699, 11.256997)"><g><path d="M 0.640625 0 L 0.640625 -4 L 1.296875 -4 L 1.296875 -2.359375 L 2.328125 -2.359375 C 2.835938 -2.359375 3.21875 -2.257812 3.46875 -2.0625 C 3.71875 -1.875 3.84375 -1.59375 3.84375 -1.21875 C 3.84375 -0.84375 3.71875 -0.546875 3.46875 -0.328125 C 3.226562 -0.109375 2.835938 0 2.296875 0 Z M 4.515625 0 L 4.515625 -4 L 5.171875 -4 L 5.171875 0 Z M 1.296875 -0.53125 L 2.234375 -0.53125 C 2.515625 -0.53125 2.742188 -0.578125 2.921875 -0.671875 C 3.109375 -0.765625 3.203125 -0.9375 3.203125 -1.1875 C 3.203125 -1.425781 3.117188 -1.585938 2.953125 -1.671875 C 2.785156 -1.765625 2.550781 -1.8125 2.25 -1.8125 L 1.296875 -1.8125 Z M 1.296875 -0.53125 "/></g></g></g><g fill="#ffffff" fill-opacity="1"><g transform="translate(32.671396, 11.256997)"><g><path d="M 3.84375 -2.984375 C 3.84375 -2.734375 3.769531 -2.539062 3.625 -2.40625 C 3.476562 -2.269531 3.285156 -2.175781 3.046875 -2.125 L 3.046875 -2.09375 C 3.285156 -2.0625 3.5 -1.972656 3.6875 -1.828125 C 3.875 -1.691406 3.96875 -1.472656 3.96875 -1.171875 C 3.96875 -0.828125 3.84375 -0.546875 3.59375 -0.328125 C 3.34375 -0.109375 2.929688 0 2.359375 0 L 0.640625 0 L 0.640625 -4 L 2.34375 -4 C 2.625 -4 2.878906 -3.96875 3.109375 -3.90625 C 3.335938 -3.84375 3.515625 -3.738281 3.640625 -3.59375 C 3.773438 -3.445312 3.84375 -3.242188 3.84375 -2.984375 Z M 3.1875 -2.90625 C 3.1875 -3.09375 3.113281 -3.226562 2.96875 -3.3125 C 2.832031 -3.40625 2.613281 -3.453125 2.3125 -3.453125 L 1.296875 -3.453125 L 1.296875 -2.359375 L 2.1875 -2.359375 C 2.851562 -2.359375 3.1875 -2.539062 3.1875 -2.90625 Z M 3.296875 -1.171875 C 3.296875 -1.398438 3.207031 -1.5625 3.03125 -1.65625 C 2.851562 -1.757812 2.597656 -1.8125 2.265625 -1.8125 L 1.296875 -1.8125 L 1.296875 -0.53125 L 2.28125 -0.53125 C 2.601562 -0.53125 2.851562 -0.578125 3.03125 -0.671875 C 3.207031 -0.765625 3.296875 -0.929688 3.296875 -1.171875 Z M 3.296875 -1.171875 "/></g></g></g><g fill="#ffffff" fill-opacity="1"><g transform="translate(37.150605, 11.256997)"><g><path d="M 2.140625 -4.0625 C 2.628906 -4.0625 2.988281 -3.953125 3.21875 -3.734375 C 3.457031 -3.523438 3.578125 -3.1875 3.578125 -2.71875 L 3.578125 0 L 3.09375 0 L 2.96875 -0.5625 L 2.9375 -0.5625 C 2.769531 -0.34375 2.585938 -0.179688 2.390625 -0.078125 C 2.203125 0.0234375 1.941406 0.078125 1.609375 0.078125 C 1.242188 0.078125 0.941406 -0.015625 0.703125 -0.203125 C 0.460938 -0.398438 0.34375 -0.703125 0.34375 -1.109375 C 0.34375 -1.503906 0.5 -1.8125 0.8125 -2.03125 C 1.125 -2.25 1.609375 -2.367188 2.265625 -2.390625 L 2.9375 -2.40625 L 2.9375 -2.640625 C 2.9375 -2.972656 2.863281 -3.203125 2.71875 -3.328125 C 2.570312 -3.460938 2.367188 -3.53125 2.109375 -3.53125 C 1.898438 -3.53125 1.703125 -3.5 1.515625 -3.4375 C 1.328125 -3.375 1.148438 -3.304688 0.984375 -3.234375 L 0.78125 -3.71875 C 0.957031 -3.8125 1.164062 -3.890625 1.40625 -3.953125 C 1.644531 -4.023438 1.890625 -4.0625 2.140625 -4.0625 Z M 2.921875 -1.953125 L 2.34375 -1.9375 C 1.84375 -1.914062 1.492188 -1.832031 1.296875 -1.6875 C 1.109375 -1.550781 1.015625 -1.359375 1.015625 -1.109375 C 1.015625 -0.878906 1.082031 -0.710938 1.21875 -0.609375 C 1.363281 -0.503906 1.539062 -0.453125 1.75 -0.453125 C 2.082031 -0.453125 2.359375 -0.546875 2.578125 -0.734375 C 2.804688 -0.921875 2.921875 -1.207031 2.921875 -1.59375 Z M 2.921875 -1.953125 "/></g></g></g><g fill="#ffffff" fill-opacity="1"><g transform="translate(41.518016, 11.256997)"><g><path d="M 1.25 -4 L 1.25 -1.5625 C 1.25 -1.488281 1.242188 -1.394531 1.234375 -1.28125 C 1.234375 -1.164062 1.226562 -1.046875 1.21875 -0.921875 C 1.21875 -0.804688 1.210938 -0.710938 1.203125 -0.640625 L 3.34375 -4 L 4.15625 -4 L 4.15625 0 L 3.546875 0 L 3.546875 -2.359375 C 3.546875 -2.429688 3.546875 -2.53125 3.546875 -2.65625 C 3.546875 -2.789062 3.546875 -2.921875 3.546875 -3.046875 C 3.554688 -3.171875 3.5625 -3.269531 3.5625 -3.34375 L 1.453125 0 L 0.640625 0 L 0.640625 -4 Z M 3.859375 -5.65625 C 3.828125 -5.28125 3.703125 -4.992188 3.484375 -4.796875 C 3.265625 -4.609375 2.921875 -4.515625 2.453125 -4.515625 C 1.960938 -4.515625 1.617188 -4.609375 1.421875 -4.796875 C 1.222656 -4.984375 1.109375 -5.269531 1.078125 -5.65625 L 1.6875 -5.65625 C 1.71875 -5.382812 1.789062 -5.203125 1.90625 -5.109375 C 2.019531 -5.015625 2.207031 -4.96875 2.46875 -4.96875 C 2.695312 -4.96875 2.875 -5.015625 3 -5.109375 C 3.132812 -5.210938 3.21875 -5.394531 3.25 -5.65625 Z M 3.859375 -5.65625 "/></g></g></g><g fill="#ffffff" fill-opacity="1"><g transform="translate(5.416063, 21.194167)"><g><path d="M 2.234375 0.078125 C 1.878906 0.078125 1.5625 0.00390625 1.28125 -0.140625 C 1.007812 -0.285156 0.796875 -0.507812 0.640625 -0.8125 C 0.484375 -1.113281 0.40625 -1.5 0.40625 -1.96875 C 0.40625 -2.46875 0.484375 -2.867188 0.640625 -3.171875 C 0.804688 -3.484375 1.03125 -3.707031 1.3125 -3.84375 C 1.601562 -3.988281 1.925781 -4.0625 2.28125 -4.0625 C 2.476562 -4.0625 2.671875 -4.039062 2.859375 -4 C 3.054688 -3.957031 3.210938 -3.910156 3.328125 -3.859375 L 3.125 -3.3125 C 3.007812 -3.351562 2.867188 -3.394531 2.703125 -3.4375 C 2.546875 -3.476562 2.398438 -3.5 2.265625 -3.5 C 1.484375 -3.5 1.09375 -2.992188 1.09375 -1.984375 C 1.09375 -1.503906 1.1875 -1.132812 1.375 -0.875 C 1.5625 -0.613281 1.847656 -0.484375 2.234375 -0.484375 C 2.441406 -0.484375 2.628906 -0.503906 2.796875 -0.546875 C 2.972656 -0.597656 3.128906 -0.65625 3.265625 -0.71875 L 3.265625 -0.140625 C 3.128906 -0.0664062 2.976562 -0.015625 2.8125 0.015625 C 2.65625 0.0546875 2.460938 0.078125 2.234375 0.078125 Z M 2.234375 0.078125 "/></g></g></g><g fill="#ffffff" fill-opacity="1"><g transform="translate(9.179792, 21.194167)"><g><path d="M 2.171875 -4.0625 C 2.515625 -4.0625 2.804688 -3.988281 3.046875 -3.84375 C 3.296875 -3.695312 3.488281 -3.488281 3.625 -3.21875 C 3.757812 -2.945312 3.828125 -2.628906 3.828125 -2.265625 L 3.828125 -1.875 L 1.09375 -1.875 C 1.101562 -1.414062 1.21875 -1.066406 1.4375 -0.828125 C 1.65625 -0.597656 1.960938 -0.484375 2.359375 -0.484375 C 2.617188 -0.484375 2.84375 -0.503906 3.03125 -0.546875 C 3.226562 -0.597656 3.429688 -0.671875 3.640625 -0.765625 L 3.640625 -0.1875 C 3.441406 -0.09375 3.242188 -0.0234375 3.046875 0.015625 C 2.847656 0.0546875 2.609375 0.078125 2.328125 0.078125 C 1.953125 0.078125 1.617188 0 1.328125 -0.15625 C 1.035156 -0.3125 0.804688 -0.539062 0.640625 -0.84375 C 0.484375 -1.144531 0.40625 -1.519531 0.40625 -1.96875 C 0.40625 -2.40625 0.476562 -2.78125 0.625 -3.09375 C 0.769531 -3.40625 0.972656 -3.644531 1.234375 -3.8125 C 1.503906 -3.976562 1.816406 -4.0625 2.171875 -4.0625 Z M 2.171875 -3.53125 C 1.859375 -3.53125 1.609375 -3.425781 1.421875 -3.21875 C 1.242188 -3.019531 1.140625 -2.742188 1.109375 -2.390625 L 3.140625 -2.390625 C 3.128906 -2.734375 3.046875 -3.007812 2.890625 -3.21875 C 2.742188 -3.425781 2.503906 -3.53125 2.171875 -3.53125 Z M 2.171875 -3.53125 "/></g></g></g><g fill="#ffffff" fill-opacity="1"><g transform="translate(13.569568, 21.194167)"><g><path d="M 1.25 -4 L 1.25 -1.5625 C 1.25 -1.488281 1.242188 -1.394531 1.234375 -1.28125 C 1.234375 -1.164062 1.226562 -1.046875 1.21875 -0.921875 C 1.21875 -0.804688 1.210938 -0.710938 1.203125 -0.640625 L 3.34375 -4 L 4.15625 -4 L 4.15625 0 L 3.546875 0 L 3.546875 -2.359375 C 3.546875 -2.429688 3.546875 -2.53125 3.546875 -2.65625 C 3.546875 -2.789062 3.546875 -2.921875 3.546875 -3.046875 C 3.554688 -3.171875 3.5625 -3.269531 3.5625 -3.34375 L 1.453125 0 L 0.640625 0 L 0.640625 -4 Z M 3.859375 -5.65625 C 3.828125 -5.28125 3.703125 -4.992188 3.484375 -4.796875 C 3.265625 -4.609375 2.921875 -4.515625 2.453125 -4.515625 C 1.960938 -4.515625 1.617188 -4.609375 1.421875 -4.796875 C 1.222656 -4.984375 1.109375 -5.269531 1.078125 -5.65625 L 1.6875 -5.65625 C 1.71875 -5.382812 1.789062 -5.203125 1.90625 -5.109375 C 2.019531 -5.015625 2.207031 -4.96875 2.46875 -4.96875 C 2.695312 -4.96875 2.875 -5.015625 3 -5.109375 C 3.132812 -5.210938 3.21875 -5.394531 3.25 -5.65625 Z M 3.859375 -5.65625 "/></g></g></g><g fill="#ffffff" fill-opacity="1"><g transform="translate(18.548121, 21.194167)"><g><path d="M 1.203125 -4 L 1.203125 -2.546875 C 1.203125 -2.085938 1.457031 -1.859375 1.96875 -1.859375 C 2.21875 -1.859375 2.441406 -1.894531 2.640625 -1.96875 C 2.847656 -2.050781 3.0625 -2.15625 3.28125 -2.28125 L 3.28125 -4 L 3.9375 -4 L 3.9375 0 L 3.28125 0 L 3.28125 -1.78125 C 3.050781 -1.632812 2.828125 -1.519531 2.609375 -1.4375 C 2.398438 -1.351562 2.144531 -1.3125 1.84375 -1.3125 C 1.425781 -1.3125 1.101562 -1.414062 0.875 -1.625 C 0.65625 -1.84375 0.546875 -2.132812 0.546875 -2.5 L 0.546875 -4 Z M 1.203125 -4 "/></g></g></g><g fill="#ffffff" fill-opacity="1"><g transform="translate(23.303087, 21.194167)"><g><path d="M 2.140625 -4.0625 C 2.628906 -4.0625 2.988281 -3.953125 3.21875 -3.734375 C 3.457031 -3.523438 3.578125 -3.1875 3.578125 -2.71875 L 3.578125 0 L 3.09375 0 L 2.96875 -0.5625 L 2.9375 -0.5625 C 2.769531 -0.34375 2.585938 -0.179688 2.390625 -0.078125 C 2.203125 0.0234375 1.941406 0.078125 1.609375 0.078125 C 1.242188 0.078125 0.941406 -0.015625 0.703125 -0.203125 C 0.460938 -0.398438 0.34375 -0.703125 0.34375 -1.109375 C 0.34375 -1.503906 0.5 -1.8125 0.8125 -2.03125 C 1.125 -2.25 1.609375 -2.367188 2.265625 -2.390625 L 2.9375 -2.40625 L 2.9375 -2.640625 C 2.9375 -2.972656 2.863281 -3.203125 2.71875 -3.328125 C 2.570312 -3.460938 2.367188 -3.53125 2.109375 -3.53125 C 1.898438 -3.53125 1.703125 -3.5 1.515625 -3.4375 C 1.328125 -3.375 1.148438 -3.304688 0.984375 -3.234375 L 0.78125 -3.71875 C 0.957031 -3.8125 1.164062 -3.890625 1.40625 -3.953125 C 1.644531 -4.023438 1.890625 -4.0625 2.140625 -4.0625 Z M 2.921875 -1.953125 L 2.34375 -1.9375 C 1.84375 -1.914062 1.492188 -1.832031 1.296875 -1.6875 C 1.109375 -1.550781 1.015625 -1.359375 1.015625 -1.109375 C 1.015625 -0.878906 1.082031 -0.710938 1.21875 -0.609375 C 1.363281 -0.503906 1.539062 -0.453125 1.75 -0.453125 C 2.082031 -0.453125 2.359375 -0.546875 2.578125 -0.734375 C 2.804688 -0.921875 2.921875 -1.207031 2.921875 -1.59375 Z M 2.921875 -1.953125 "/></g></g></g><g fill="#ffffff" fill-opacity="1"><g transform="translate(27.670498, 21.194167)"><g><path d="M 2.234375 0.078125 C 1.878906 0.078125 1.5625 0.00390625 1.28125 -0.140625 C 1.007812 -0.285156 0.796875 -0.507812 0.640625 -0.8125 C 0.484375 -1.113281 0.40625 -1.5 0.40625 -1.96875 C 0.40625 -2.46875 0.484375 -2.867188 0.640625 -3.171875 C 0.804688 -3.484375 1.03125 -3.707031 1.3125 -3.84375 C 1.601562 -3.988281 1.925781 -4.0625 2.28125 -4.0625 C 2.476562 -4.0625 2.671875 -4.039062 2.859375 -4 C 3.054688 -3.957031 3.210938 -3.910156 3.328125 -3.859375 L 3.125 -3.3125 C 3.007812 -3.351562 2.867188 -3.394531 2.703125 -3.4375 C 2.546875 -3.476562 2.398438 -3.5 2.265625 -3.5 C 1.484375 -3.5 1.09375 -2.992188 1.09375 -1.984375 C 1.09375 -1.503906 1.1875 -1.132812 1.375 -0.875 C 1.5625 -0.613281 1.847656 -0.484375 2.234375 -0.484375 C 2.441406 -0.484375 2.628906 -0.503906 2.796875 -0.546875 C 2.972656 -0.597656 3.128906 -0.65625 3.265625 -0.71875 L 3.265625 -0.140625 C 3.128906 -0.0664062 2.976562 -0.015625 2.8125 0.015625 C 2.65625 0.0546875 2.460938 0.078125 2.234375 0.078125 Z M 2.234375 0.078125 "/></g></g></g><g fill="#ffffff" fill-opacity="1"><g transform="translate(31.434225, 21.194167)"><g/></g></g><g fill="#ffffff" fill-opacity="1"><g transform="translate(35.145783, 21.194167)"><g><path d="M 0.515625 -2.058594 L 6.476562 -2.058594 L 6.476562 -3.011719 L 0.515625 -3.011719 Z M 0.515625 -2.058594 "/></g></g></g><g fill="#ffffff" fill-opacity="1"><g transform="translate(5.416063, 31.131337)"><g><path d="M 4.015625 -4 L 4.015625 0 L 3.359375 0 L 3.359375 -3.4375 L 1.296875 -3.4375 L 1.296875 0 L 0.640625 0 L 0.640625 -4 Z M 4.015625 -4 "/></g></g></g><g fill="#ffffff" fill-opacity="1"><g transform="translate(10.253013, 31.131337)"><g><path d="M 3.671875 0 L 3.015625 0 L 3.015625 -3.453125 L 1.828125 -3.453125 C 1.765625 -2.609375 1.675781 -1.925781 1.5625 -1.40625 C 1.445312 -0.894531 1.289062 -0.523438 1.09375 -0.296875 C 0.90625 -0.0664062 0.671875 0.046875 0.390625 0.046875 C 0.328125 0.046875 0.265625 0.0390625 0.203125 0.03125 C 0.140625 0.03125 0.0859375 0.0195312 0.046875 0 L 0.046875 -0.484375 C 0.078125 -0.484375 0.109375 -0.476562 0.140625 -0.46875 C 0.179688 -0.46875 0.21875 -0.46875 0.25 -0.46875 C 0.519531 -0.46875 0.734375 -0.75 0.890625 -1.3125 C 1.054688 -1.882812 1.179688 -2.78125 1.265625 -4 L 3.671875 -4 Z M 3.671875 0 "/></g></g></g><g fill="#ffffff" fill-opacity="1"><g transform="translate(14.74713, 31.131337)"><g><path d="M 2.140625 -4.0625 C 2.628906 -4.0625 2.988281 -3.953125 3.21875 -3.734375 C 3.457031 -3.523438 3.578125 -3.1875 3.578125 -2.71875 L 3.578125 0 L 3.09375 0 L 2.96875 -0.5625 L 2.9375 -0.5625 C 2.769531 -0.34375 2.585938 -0.179688 2.390625 -0.078125 C 2.203125 0.0234375 1.941406 0.078125 1.609375 0.078125 C 1.242188 0.078125 0.941406 -0.015625 0.703125 -0.203125 C 0.460938 -0.398438 0.34375 -0.703125 0.34375 -1.109375 C 0.34375 -1.503906 0.5 -1.8125 0.8125 -2.03125 C 1.125 -2.25 1.609375 -2.367188 2.265625 -2.390625 L 2.9375 -2.40625 L 2.9375 -2.640625 C 2.9375 -2.972656 2.863281 -3.203125 2.71875 -3.328125 C 2.570312 -3.460938 2.367188 -3.53125 2.109375 -3.53125 C 1.898438 -3.53125 1.703125 -3.5 1.515625 -3.4375 C 1.328125 -3.375 1.148438 -3.304688 0.984375 -3.234375 L 0.78125 -3.71875 C 0.957031 -3.8125 1.164062 -3.890625 1.40625 -3.953125 C 1.644531 -4.023438 1.890625 -4.0625 2.140625 -4.0625 Z M 2.921875 -1.953125 L 2.34375 -1.9375 C 1.84375 -1.914062 1.492188 -1.832031 1.296875 -1.6875 C 1.109375 -1.550781 1.015625 -1.359375 1.015625 -1.109375 C 1.015625 -0.878906 1.082031 -0.710938 1.21875 -0.609375 C 1.363281 -0.503906 1.539062 -0.453125 1.75 -0.453125 C 2.082031 -0.453125 2.359375 -0.546875 2.578125 -0.734375 C 2.804688 -0.921875 2.921875 -1.207031 2.921875 -1.59375 Z M 2.921875 -1.953125 "/></g></g></g><g fill="#ffffff" fill-opacity="1"><g transform="translate(19.114542, 31.131337)"><g><path d="M 3.390625 -3.4375 L 2.09375 -3.4375 L 2.09375 0 L 1.4375 0 L 1.4375 -3.4375 L 0.15625 -3.4375 L 0.15625 -4 L 3.390625 -4 Z M 3.390625 -3.4375 "/></g></g></g><g fill="#ffffff" fill-opacity="1"><g transform="translate(22.848455, 31.131337)"><g><path d="M 1.25 -4 L 1.25 -1.5625 C 1.25 -1.488281 1.242188 -1.394531 1.234375 -1.28125 C 1.234375 -1.164062 1.226562 -1.046875 1.21875 -0.921875 C 1.21875 -0.804688 1.210938 -0.710938 1.203125 -0.640625 L 3.34375 -4 L 4.15625 -4 L 4.15625 0 L 3.546875 0 L 3.546875 -2.359375 C 3.546875 -2.429688 3.546875 -2.53125 3.546875 -2.65625 C 3.546875 -2.789062 3.546875 -2.921875 3.546875 -3.046875 C 3.554688 -3.171875 3.5625 -3.269531 3.5625 -3.34375 L 1.453125 0 L 0.640625 0 L 0.640625 -4 Z M 1.25 -4 "/></g></g></g><g fill="#ffffff" fill-opacity="1"><g transform="translate(27.827008, 31.131337)"><g/></g></g><g fill="#ffffff" fill-opacity="1"><g transform="translate(31.538565, 31.131337)"><g><path d="M 4.015625 -4 L 4.015625 0 L 3.359375 0 L 3.359375 -3.4375 L 1.296875 -3.4375 L 1.296875 0 L 0.640625 0 L 0.640625 -4 Z M 4.015625 -4 "/></g></g></g><g fill="#ffffff" fill-opacity="1"><g transform="translate(36.375514, 31.131337)"><g><path d="M 4.109375 -2 C 4.109375 -1.34375 3.9375 -0.832031 3.59375 -0.46875 C 3.257812 -0.101562 2.8125 0.078125 2.25 0.078125 C 1.894531 0.078125 1.578125 0 1.296875 -0.15625 C 1.023438 -0.320312 0.804688 -0.5625 0.640625 -0.875 C 0.484375 -1.1875 0.40625 -1.5625 0.40625 -2 C 0.40625 -2.664062 0.570312 -3.175781 0.90625 -3.53125 C 1.238281 -3.882812 1.691406 -4.0625 2.265625 -4.0625 C 2.617188 -4.0625 2.9375 -3.976562 3.21875 -3.8125 C 3.5 -3.65625 3.71875 -3.425781 3.875 -3.125 C 4.03125 -2.820312 4.109375 -2.445312 4.109375 -2 Z M 1.09375 -2 C 1.09375 -1.53125 1.179688 -1.15625 1.359375 -0.875 C 1.546875 -0.601562 1.847656 -0.46875 2.265625 -0.46875 C 2.660156 -0.46875 2.953125 -0.601562 3.140625 -0.875 C 3.328125 -1.15625 3.421875 -1.53125 3.421875 -2 C 3.421875 -2.476562 3.328125 -2.847656 3.140625 -3.109375 C 2.953125 -3.378906 2.65625 -3.515625 2.25 -3.515625 C 1.84375 -3.515625 1.546875 -3.378906 1.359375 -3.109375 C 1.179688 -2.847656 1.09375 -2.476562 1.09375 -2 Z M 1.09375 -2 "/></g></g></g><g fill="#ffffff" fill-opacity="1"><g transform="translate(41.070861, 31.131337)"><g><path d="M 3.390625 -3.4375 L 2.09375 -3.4375 L 2.09375 0 L 1.4375 0 L 1.4375 -3.4375 L 0.15625 -3.4375 L 0.15625 -4 L 3.390625 -4 Z M 3.390625 -3.4375 "/></g></g></g><g fill="#ffffff" fill-opacity="1"><g transform="translate(44.804775, 31.131337)"><g><path d="M 4.109375 -2 C 4.109375 -1.34375 3.9375 -0.832031 3.59375 -0.46875 C 3.257812 -0.101562 2.8125 0.078125 2.25 0.078125 C 1.894531 0.078125 1.578125 0 1.296875 -0.15625 C 1.023438 -0.320312 0.804688 -0.5625 0.640625 -0.875 C 0.484375 -1.1875 0.40625 -1.5625 0.40625 -2 C 0.40625 -2.664062 0.570312 -3.175781 0.90625 -3.53125 C 1.238281 -3.882812 1.691406 -4.0625 2.265625 -4.0625 C 2.617188 -4.0625 2.9375 -3.976562 3.21875 -3.8125 C 3.5 -3.65625 3.71875 -3.425781 3.875 -3.125 C 4.03125 -2.820312 4.109375 -2.445312 4.109375 -2 Z M 1.09375 -2 C 1.09375 -1.53125 1.179688 -1.15625 1.359375 -0.875 C 1.546875 -0.601562 1.847656 -0.46875 2.265625 -0.46875 C 2.660156 -0.46875 2.953125 -0.601562 3.140625 -0.875 C 3.328125 -1.15625 3.421875 -1.53125 3.421875 -2 C 3.421875 -2.476562 3.328125 -2.847656 3.140625 -3.109375 C 2.953125 -3.378906 2.65625 -3.515625 2.25 -3.515625 C 1.84375 -3.515625 1.546875 -3.378906 1.359375 -3.109375 C 1.179688 -2.847656 1.09375 -2.476562 1.09375 -2 Z M 1.09375 -2 "/></g></g></g><g fill="#ffffff" fill-opacity="1"><g transform="translate(49.500124, 31.131337)"><g><path d="M 4.921875 -4 L 4.921875 0 L 4.328125 0 L 4.328125 -2.546875 C 4.328125 -2.648438 4.332031 -2.757812 4.34375 -2.875 C 4.351562 -2.988281 4.363281 -3.101562 4.375 -3.21875 L 4.34375 -3.21875 L 3.046875 0 L 2.484375 0 L 1.21875 -3.21875 L 1.203125 -3.21875 C 1.210938 -2.988281 1.21875 -2.757812 1.21875 -2.53125 L 1.21875 0 L 0.640625 0 L 0.640625 -4 L 1.5 -4 L 2.765625 -0.78125 L 4.046875 -4 Z M 4.921875 -4 "/></g></g></g></svg>