<svg xmlns="http://www.w3.org/2000/svg" xmlns:xlink="http://www.w3.org/1999/xlink" width="95" zoomAndPan="magnify" viewBox="0 0 71.25 71.25" height="95" preserveAspectRatio="xMidYMid meet" version="1.0"><defs><g/><clipPath id="d7568aa8ac"><path d="M 0 0 L 70.507812 0 L 70.507812 70.507812 L 0 70.507812 Z M 0 0 " clip-rule="nonzero"/></clipPath><clipPath id="f87c31d0a8"><path d="M 13.359375 0 L 57.148438 0 C 60.691406 0 64.089844 1.40625 66.59375 3.914062 C 69.101562 6.417969 70.507812 9.816406 70.507812 13.359375 L 70.507812 57.148438 C 70.507812 60.691406 69.101562 64.089844 66.59375 66.59375 C 64.089844 69.101562 60.691406 70.507812 57.148438 70.507812 L 13.359375 70.507812 C 9.816406 70.507812 6.417969 69.101562 3.914062 66.59375 C 1.40625 64.089844 0 60.691406 0 57.148438 L 0 13.359375 C 0 9.816406 1.40625 6.417969 3.914062 3.914062 C 6.417969 1.40625 9.816406 0 13.359375 0 Z M 13.359375 0 " clip-rule="nonzero"/></clipPath><clipPath id="1f476446a1"><path d="M 7.050781 43 L 11 43 L 11 51 L 7.050781 51 Z M 7.050781 43 " clip-rule="nonzero"/></clipPath><clipPath id="f3f7d37f5d"><path d="M 7.050781 42 L 12 42 L 12 51 L 7.050781 51 Z M 7.050781 42 " clip-rule="nonzero"/></clipPath></defs><g clip-path="url(#d7568aa8ac)"><g clip-path="url(#f87c31d0a8)"><path fill="#ffffff" d="M 0 0 L 70.507812 0 L 70.507812 70.507812 L 0 70.507812 Z M 0 0 " fill-opacity="1" fill-rule="nonzero"/></g></g><g fill="#000000" fill-opacity="1"><g transform="translate(7.050781, 15.066408)"><g><path d="M 4.21875 -2.03125 L 5.28125 0 L 4.3125 0 L 3.40625 -1.78125 C 3.238281 -2.113281 3.085938 -2.363281 2.953125 -2.53125 C 2.828125 -2.707031 2.675781 -2.835938 2.5 -2.921875 C 2.332031 -3.003906 2.113281 -3.046875 1.84375 -3.046875 L 1.546875 -3.046875 L 1.546875 0 L 0.703125 0 L 0.703125 -6.375 L 1.546875 -6.375 L 1.546875 -3.765625 L 1.828125 -3.765625 C 2.078125 -3.765625 2.269531 -3.789062 2.40625 -3.84375 C 2.539062 -3.894531 2.65625 -3.992188 2.75 -4.140625 C 2.851562 -4.285156 2.96875 -4.507812 3.09375 -4.8125 L 3.328125 -5.390625 C 3.453125 -5.734375 3.617188 -5.984375 3.828125 -6.140625 C 4.046875 -6.296875 4.320312 -6.375 4.65625 -6.375 L 5.078125 -6.375 L 5.078125 -5.65625 L 4.78125 -5.65625 C 4.613281 -5.65625 4.476562 -5.609375 4.375 -5.515625 C 4.269531 -5.429688 4.175781 -5.296875 4.09375 -5.109375 L 3.859375 -4.546875 C 3.710938 -4.191406 3.570312 -3.929688 3.4375 -3.765625 C 3.300781 -3.597656 3.132812 -3.476562 2.9375 -3.40625 L 2.9375 -3.390625 C 3.101562 -3.335938 3.25 -3.265625 3.375 -3.171875 C 3.507812 -3.085938 3.640625 -2.953125 3.765625 -2.765625 C 3.898438 -2.585938 4.050781 -2.34375 4.21875 -2.03125 Z M 4.21875 -2.03125 "/></g></g><g transform="translate(12.408447, 15.066408)"><g><path d="M 4.3125 0 L 3.5 0 C 3.457031 -0.09375 3.425781 -0.171875 3.40625 -0.234375 C 3.382812 -0.296875 3.363281 -0.40625 3.34375 -0.5625 C 3.113281 -0.332031 2.875 -0.160156 2.625 -0.046875 C 2.375 0.0546875 2.09375 0.109375 1.78125 0.109375 C 1.488281 0.109375 1.226562 0.0546875 1 -0.046875 C 0.78125 -0.160156 0.609375 -0.316406 0.484375 -0.515625 C 0.367188 -0.722656 0.3125 -0.957031 0.3125 -1.21875 C 0.3125 -1.613281 0.441406 -1.925781 0.703125 -2.15625 C 0.960938 -2.394531 1.382812 -2.5625 1.96875 -2.65625 C 2.582031 -2.75 3.019531 -2.835938 3.28125 -2.921875 L 3.28125 -3.046875 C 3.28125 -3.304688 3.25 -3.507812 3.1875 -3.65625 C 3.125 -3.800781 3.015625 -3.90625 2.859375 -3.96875 C 2.710938 -4.039062 2.519531 -4.078125 2.28125 -4.078125 C 1.96875 -4.078125 1.71875 -4.003906 1.53125 -3.859375 C 1.351562 -3.722656 1.234375 -3.503906 1.171875 -3.203125 L 0.40625 -3.3125 C 0.5 -3.78125 0.707031 -4.128906 1.03125 -4.359375 C 1.351562 -4.597656 1.78125 -4.71875 2.3125 -4.71875 C 2.726562 -4.71875 3.0625 -4.664062 3.3125 -4.5625 C 3.570312 -4.457031 3.765625 -4.285156 3.890625 -4.046875 C 4.015625 -3.816406 4.078125 -3.507812 4.078125 -3.125 L 4.078125 -1.46875 C 4.078125 -1.175781 4.082031 -0.953125 4.09375 -0.796875 C 4.101562 -0.640625 4.125 -0.503906 4.15625 -0.390625 C 4.1875 -0.273438 4.238281 -0.144531 4.3125 0 Z M 2.015625 -2 C 1.703125 -1.945312 1.472656 -1.851562 1.328125 -1.71875 C 1.179688 -1.59375 1.109375 -1.425781 1.109375 -1.21875 C 1.109375 -1 1.179688 -0.828125 1.328125 -0.703125 C 1.472656 -0.578125 1.679688 -0.515625 1.953125 -0.515625 C 2.171875 -0.515625 2.40625 -0.582031 2.65625 -0.71875 C 2.820312 -0.820312 2.945312 -0.929688 3.03125 -1.046875 C 3.125 -1.171875 3.1875 -1.316406 3.21875 -1.484375 C 3.257812 -1.648438 3.28125 -1.867188 3.28125 -2.140625 L 3.28125 -2.3125 C 3.21875 -2.269531 3.0625 -2.21875 2.8125 -2.15625 C 2.570312 -2.101562 2.304688 -2.050781 2.015625 -2 Z M 2.015625 -2 "/></g></g><g transform="translate(17.065963, 15.066408)"><g><path d="M 1.390625 -4.609375 L 1.390625 -2.6875 C 1.554688 -2.6875 1.6875 -2.707031 1.78125 -2.75 C 1.882812 -2.800781 1.960938 -2.867188 2.015625 -2.953125 C 2.066406 -3.046875 2.132812 -3.1875 2.21875 -3.375 L 2.46875 -3.90625 C 2.550781 -4.09375 2.632812 -4.234375 2.71875 -4.328125 C 2.800781 -4.429688 2.90625 -4.503906 3.03125 -4.546875 C 3.15625 -4.585938 3.316406 -4.609375 3.515625 -4.609375 L 3.859375 -4.609375 L 3.859375 -3.96875 L 3.640625 -3.96875 C 3.535156 -3.96875 3.457031 -3.957031 3.40625 -3.9375 C 3.351562 -3.925781 3.300781 -3.894531 3.25 -3.84375 C 3.207031 -3.789062 3.160156 -3.707031 3.109375 -3.59375 L 2.875 -3.078125 C 2.789062 -2.878906 2.703125 -2.726562 2.609375 -2.625 C 2.523438 -2.53125 2.40625 -2.445312 2.25 -2.375 C 2.425781 -2.34375 2.578125 -2.269531 2.703125 -2.15625 C 2.828125 -2.050781 2.941406 -1.90625 3.046875 -1.71875 L 4.0625 0 L 3.171875 0 L 2.34375 -1.46875 C 2.25 -1.632812 2.160156 -1.757812 2.078125 -1.84375 C 1.992188 -1.9375 1.894531 -2 1.78125 -2.03125 C 1.675781 -2.070312 1.546875 -2.09375 1.390625 -2.09375 L 1.390625 0 L 0.609375 0 L 0.609375 -4.609375 Z M 1.390625 -4.609375 "/></g></g><g transform="translate(21.188583, 15.066408)"><g/></g><g transform="translate(23.636931, 15.066408)"><g><path d="M 3.9375 -3.375 C 3.9375 -3.164062 3.878906 -2.976562 3.765625 -2.8125 C 3.660156 -2.644531 3.503906 -2.507812 3.296875 -2.40625 C 3.585938 -2.3125 3.800781 -2.164062 3.9375 -1.96875 C 4.082031 -1.78125 4.15625 -1.554688 4.15625 -1.296875 C 4.15625 -0.898438 4.007812 -0.582031 3.71875 -0.34375 C 3.4375 -0.113281 2.992188 0 2.390625 0 L 0.609375 0 L 0.609375 -4.609375 L 2.28125 -4.609375 C 2.875 -4.609375 3.296875 -4.5 3.546875 -4.28125 C 3.804688 -4.070312 3.9375 -3.769531 3.9375 -3.375 Z M 1.390625 -0.625 L 2.40625 -0.625 C 3.03125 -0.625 3.34375 -0.863281 3.34375 -1.34375 C 3.34375 -1.582031 3.265625 -1.757812 3.109375 -1.875 C 2.960938 -2 2.722656 -2.0625 2.390625 -2.0625 L 1.390625 -2.0625 Z M 3.140625 -3.328125 C 3.140625 -3.535156 3.066406 -3.695312 2.921875 -3.8125 C 2.785156 -3.925781 2.570312 -3.984375 2.28125 -3.984375 L 1.390625 -3.984375 L 1.390625 -2.671875 L 2.3125 -2.671875 C 2.601562 -2.671875 2.8125 -2.722656 2.9375 -2.828125 C 3.070312 -2.941406 3.140625 -3.109375 3.140625 -3.328125 Z M 3.140625 -3.328125 "/></g></g><g transform="translate(28.203124, 15.066408)"><g><path d="M 3.953125 -1.375 C 3.953125 -0.9375 3.804688 -0.597656 3.515625 -0.359375 C 3.234375 -0.117188 2.800781 0 2.21875 0 L 0.609375 0 L 0.609375 -4.609375 L 1.390625 -4.609375 L 1.390625 -2.78125 L 2.234375 -2.78125 C 2.847656 -2.78125 3.285156 -2.660156 3.546875 -2.421875 C 3.816406 -2.191406 3.953125 -1.84375 3.953125 -1.375 Z M 1.390625 -0.640625 L 2.203125 -0.640625 C 2.835938 -0.640625 3.15625 -0.890625 3.15625 -1.390625 C 3.15625 -1.628906 3.078125 -1.8125 2.921875 -1.9375 C 2.773438 -2.070312 2.53125 -2.140625 2.1875 -2.140625 L 1.390625 -2.140625 Z M 5.546875 0 L 4.765625 0 L 4.765625 -4.609375 L 5.546875 -4.609375 Z M 5.546875 0 "/></g></g><g transform="translate(34.356612, 15.066408)"><g><path d="M 2.46875 -3.96875 C 2.21875 -3.96875 1.988281 -3.90625 1.78125 -3.78125 C 1.582031 -3.65625 1.425781 -3.476562 1.3125 -3.25 C 1.195312 -3.019531 1.140625 -2.753906 1.140625 -2.453125 C 1.140625 -1.804688 1.257812 -1.320312 1.5 -1 C 1.738281 -0.6875 2.0625 -0.53125 2.46875 -0.53125 C 2.738281 -0.53125 2.972656 -0.59375 3.171875 -0.71875 C 3.378906 -0.851562 3.539062 -1.050781 3.65625 -1.3125 C 3.78125 -1.570312 3.84375 -1.882812 3.84375 -2.25 C 3.84375 -2.601562 3.785156 -2.910156 3.671875 -3.171875 C 3.554688 -3.429688 3.394531 -3.628906 3.1875 -3.765625 C 2.976562 -3.898438 2.738281 -3.96875 2.46875 -3.96875 Z M 2.515625 -4.609375 C 2.941406 -4.609375 3.316406 -4.515625 3.640625 -4.328125 C 3.960938 -4.140625 4.207031 -3.867188 4.375 -3.515625 C 4.550781 -3.160156 4.640625 -2.742188 4.640625 -2.265625 C 4.640625 -1.765625 4.550781 -1.335938 4.375 -0.984375 C 4.207031 -0.628906 3.957031 -0.359375 3.625 -0.171875 C 3.300781 0.015625 2.921875 0.109375 2.484375 0.109375 C 1.753906 0.109375 1.210938 -0.128906 0.859375 -0.609375 C 0.515625 -1.097656 0.34375 -1.84375 0.34375 -2.84375 C 0.34375 -4.050781 0.523438 -4.941406 0.890625 -5.515625 C 1.253906 -6.085938 1.800781 -6.375 2.53125 -6.375 L 3.578125 -6.375 C 3.710938 -6.375 3.78125 -6.429688 3.78125 -6.546875 L 4.421875 -6.546875 C 4.421875 -6.285156 4.351562 -6.082031 4.21875 -5.9375 C 4.09375 -5.800781 3.890625 -5.734375 3.609375 -5.734375 L 2.5625 -5.734375 C 2.101562 -5.734375 1.757812 -5.582031 1.53125 -5.28125 C 1.300781 -4.976562 1.160156 -4.53125 1.109375 -3.9375 L 1.125 -3.9375 C 1.28125 -4.144531 1.476562 -4.304688 1.71875 -4.421875 C 1.96875 -4.546875 2.234375 -4.609375 2.515625 -4.609375 Z M 2.515625 -4.609375 "/></g></g><g transform="translate(39.318541, 15.066408)"><g><path d="M 1.40625 -0.53125 L 1.390625 -0.53125 L 1.390625 1.765625 L 0.609375 1.765625 L 0.609375 -4.609375 L 1.328125 -4.609375 L 1.328125 -4.03125 L 1.359375 -4.03125 C 1.515625 -4.25 1.707031 -4.414062 1.9375 -4.53125 C 2.164062 -4.65625 2.429688 -4.71875 2.734375 -4.71875 C 3.140625 -4.71875 3.5 -4.617188 3.8125 -4.421875 C 4.125 -4.222656 4.363281 -3.941406 4.53125 -3.578125 C 4.695312 -3.210938 4.78125 -2.789062 4.78125 -2.3125 C 4.78125 -1.820312 4.695312 -1.394531 4.53125 -1.03125 C 4.363281 -0.664062 4.128906 -0.382812 3.828125 -0.1875 C 3.535156 0.0078125 3.1875 0.109375 2.78125 0.109375 C 2.207031 0.109375 1.75 -0.101562 1.40625 -0.53125 Z M 2.65625 -4.078125 C 2.382812 -4.078125 2.148438 -4.003906 1.953125 -3.859375 C 1.753906 -3.710938 1.597656 -3.507812 1.484375 -3.25 C 1.378906 -2.988281 1.328125 -2.695312 1.328125 -2.375 C 1.328125 -1.988281 1.382812 -1.65625 1.5 -1.375 C 1.613281 -1.101562 1.769531 -0.894531 1.96875 -0.75 C 2.175781 -0.601562 2.421875 -0.53125 2.703125 -0.53125 C 2.960938 -0.53125 3.1875 -0.601562 3.375 -0.75 C 3.570312 -0.90625 3.722656 -1.113281 3.828125 -1.375 C 3.929688 -1.644531 3.984375 -1.957031 3.984375 -2.3125 C 3.984375 -2.675781 3.925781 -2.988281 3.8125 -3.25 C 3.707031 -3.519531 3.550781 -3.722656 3.34375 -3.859375 C 3.144531 -4.003906 2.914062 -4.078125 2.65625 -4.078125 Z M 2.65625 -4.078125 "/></g></g><g transform="translate(44.410933, 15.066408)"><g><path d="M 4.3125 0 L 3.5 0 C 3.457031 -0.09375 3.425781 -0.171875 3.40625 -0.234375 C 3.382812 -0.296875 3.363281 -0.40625 3.34375 -0.5625 C 3.113281 -0.332031 2.875 -0.160156 2.625 -0.046875 C 2.375 0.0546875 2.09375 0.109375 1.78125 0.109375 C 1.488281 0.109375 1.226562 0.0546875 1 -0.046875 C 0.78125 -0.160156 0.609375 -0.316406 0.484375 -0.515625 C 0.367188 -0.722656 0.3125 -0.957031 0.3125 -1.21875 C 0.3125 -1.613281 0.441406 -1.925781 0.703125 -2.15625 C 0.960938 -2.394531 1.382812 -2.5625 1.96875 -2.65625 C 2.582031 -2.75 3.019531 -2.835938 3.28125 -2.921875 L 3.28125 -3.046875 C 3.28125 -3.304688 3.25 -3.507812 3.1875 -3.65625 C 3.125 -3.800781 3.015625 -3.90625 2.859375 -3.96875 C 2.710938 -4.039062 2.519531 -4.078125 2.28125 -4.078125 C 1.96875 -4.078125 1.71875 -4.003906 1.53125 -3.859375 C 1.351562 -3.722656 1.234375 -3.503906 1.171875 -3.203125 L 0.40625 -3.3125 C 0.5 -3.78125 0.707031 -4.128906 1.03125 -4.359375 C 1.351562 -4.597656 1.78125 -4.71875 2.3125 -4.71875 C 2.726562 -4.71875 3.0625 -4.664062 3.3125 -4.5625 C 3.570312 -4.457031 3.765625 -4.285156 3.890625 -4.046875 C 4.015625 -3.816406 4.078125 -3.507812 4.078125 -3.125 L 4.078125 -1.46875 C 4.078125 -1.175781 4.082031 -0.953125 4.09375 -0.796875 C 4.101562 -0.640625 4.125 -0.503906 4.15625 -0.390625 C 4.1875 -0.273438 4.238281 -0.144531 4.3125 0 Z M 2.015625 -2 C 1.703125 -1.945312 1.472656 -1.851562 1.328125 -1.71875 C 1.179688 -1.59375 1.109375 -1.425781 1.109375 -1.21875 C 1.109375 -1 1.179688 -0.828125 1.328125 -0.703125 C 1.472656 -0.578125 1.679688 -0.515625 1.953125 -0.515625 C 2.171875 -0.515625 2.40625 -0.582031 2.65625 -0.71875 C 2.820312 -0.820312 2.945312 -0.929688 3.03125 -1.046875 C 3.125 -1.171875 3.1875 -1.316406 3.21875 -1.484375 C 3.257812 -1.648438 3.28125 -1.867188 3.28125 -2.140625 L 3.28125 -2.3125 C 3.21875 -2.269531 3.0625 -2.21875 2.8125 -2.15625 C 2.570312 -2.101562 2.304688 -2.050781 2.015625 -2 Z M 2.015625 -2 "/></g></g><g transform="translate(49.068449, 15.066408)"><g><path d="M 3.390625 -3.96875 L 2.171875 -3.96875 L 2.171875 0 L 1.390625 0 L 1.390625 -3.96875 L 0.15625 -3.96875 L 0.15625 -4.609375 L 3.390625 -4.609375 Z M 3.390625 -3.96875 "/></g></g><g transform="translate(52.617033, 15.066408)"><g><path d="M 4.078125 -1.375 C 4.078125 -0.9375 3.929688 -0.597656 3.640625 -0.359375 C 3.359375 -0.117188 2.925781 0 2.34375 0 L 0.609375 0 L 0.609375 -4.609375 L 1.390625 -4.609375 L 1.390625 -2.78125 L 2.359375 -2.78125 C 2.972656 -2.78125 3.410156 -2.660156 3.671875 -2.421875 C 3.941406 -2.191406 4.078125 -1.84375 4.078125 -1.375 Z M 1.390625 -0.640625 L 2.34375 -0.640625 C 2.96875 -0.640625 3.28125 -0.890625 3.28125 -1.390625 C 3.28125 -1.628906 3.203125 -1.8125 3.046875 -1.9375 C 2.898438 -2.070312 2.65625 -2.140625 2.3125 -2.140625 L 1.390625 -2.140625 Z M 1.390625 -0.640625 "/></g></g></g><g fill="#000000" fill-opacity="1"><g transform="translate(57.032468, 15.066408)"><g/></g></g><g fill="#000000" fill-opacity="1"><g transform="translate(7.050781, 26.941407)"><g><path d="M 1.40625 -0.53125 L 1.390625 -0.53125 L 1.390625 1.765625 L 0.609375 1.765625 L 0.609375 -4.609375 L 1.328125 -4.609375 L 1.328125 -4.03125 L 1.359375 -4.03125 C 1.515625 -4.25 1.707031 -4.414062 1.9375 -4.53125 C 2.164062 -4.65625 2.429688 -4.71875 2.734375 -4.71875 C 3.140625 -4.71875 3.5 -4.617188 3.8125 -4.421875 C 4.125 -4.222656 4.363281 -3.941406 4.53125 -3.578125 C 4.695312 -3.210938 4.78125 -2.789062 4.78125 -2.3125 C 4.78125 -1.820312 4.695312 -1.394531 4.53125 -1.03125 C 4.363281 -0.664062 4.128906 -0.382812 3.828125 -0.1875 C 3.535156 0.0078125 3.1875 0.109375 2.78125 0.109375 C 2.207031 0.109375 1.75 -0.101562 1.40625 -0.53125 Z M 2.65625 -4.078125 C 2.382812 -4.078125 2.148438 -4.003906 1.953125 -3.859375 C 1.753906 -3.710938 1.597656 -3.507812 1.484375 -3.25 C 1.378906 -2.988281 1.328125 -2.695312 1.328125 -2.375 C 1.328125 -1.988281 1.382812 -1.65625 1.5 -1.375 C 1.613281 -1.101562 1.769531 -0.894531 1.96875 -0.75 C 2.175781 -0.601562 2.421875 -0.53125 2.703125 -0.53125 C 2.960938 -0.53125 3.1875 -0.601562 3.375 -0.75 C 3.570312 -0.90625 3.722656 -1.113281 3.828125 -1.375 C 3.929688 -1.644531 3.984375 -1.957031 3.984375 -2.3125 C 3.984375 -2.675781 3.925781 -2.988281 3.8125 -3.25 C 3.707031 -3.519531 3.550781 -3.722656 3.34375 -3.859375 C 3.144531 -4.003906 2.914062 -4.078125 2.65625 -4.078125 Z M 2.65625 -4.078125 "/></g></g><g transform="translate(12.143173, 26.941407)"><g><path d="M 4.3125 0 L 3.5 0 C 3.457031 -0.09375 3.425781 -0.171875 3.40625 -0.234375 C 3.382812 -0.296875 3.363281 -0.40625 3.34375 -0.5625 C 3.113281 -0.332031 2.875 -0.160156 2.625 -0.046875 C 2.375 0.0546875 2.09375 0.109375 1.78125 0.109375 C 1.488281 0.109375 1.226562 0.0546875 1 -0.046875 C 0.78125 -0.160156 0.609375 -0.316406 0.484375 -0.515625 C 0.367188 -0.722656 0.3125 -0.957031 0.3125 -1.21875 C 0.3125 -1.613281 0.441406 -1.925781 0.703125 -2.15625 C 0.960938 -2.394531 1.382812 -2.5625 1.96875 -2.65625 C 2.582031 -2.75 3.019531 -2.835938 3.28125 -2.921875 L 3.28125 -3.046875 C 3.28125 -3.304688 3.25 -3.507812 3.1875 -3.65625 C 3.125 -3.800781 3.015625 -3.90625 2.859375 -3.96875 C 2.710938 -4.039062 2.519531 -4.078125 2.28125 -4.078125 C 1.96875 -4.078125 1.71875 -4.003906 1.53125 -3.859375 C 1.351562 -3.722656 1.234375 -3.503906 1.171875 -3.203125 L 0.40625 -3.3125 C 0.5 -3.78125 0.707031 -4.128906 1.03125 -4.359375 C 1.351562 -4.597656 1.78125 -4.71875 2.3125 -4.71875 C 2.726562 -4.71875 3.0625 -4.664062 3.3125 -4.5625 C 3.570312 -4.457031 3.765625 -4.285156 3.890625 -4.046875 C 4.015625 -3.816406 4.078125 -3.507812 4.078125 -3.125 L 4.078125 -1.46875 C 4.078125 -1.175781 4.082031 -0.953125 4.09375 -0.796875 C 4.101562 -0.640625 4.125 -0.503906 4.15625 -0.390625 C 4.1875 -0.273438 4.238281 -0.144531 4.3125 0 Z M 2.015625 -2 C 1.703125 -1.945312 1.472656 -1.851562 1.328125 -1.71875 C 1.179688 -1.59375 1.109375 -1.425781 1.109375 -1.21875 C 1.109375 -1 1.179688 -0.828125 1.328125 -0.703125 C 1.472656 -0.578125 1.679688 -0.515625 1.953125 -0.515625 C 2.171875 -0.515625 2.40625 -0.582031 2.65625 -0.71875 C 2.820312 -0.820312 2.945312 -0.929688 3.03125 -1.046875 C 3.125 -1.171875 3.1875 -1.316406 3.21875 -1.484375 C 3.257812 -1.648438 3.28125 -1.867188 3.28125 -2.140625 L 3.28125 -2.3125 C 3.21875 -2.269531 3.0625 -2.21875 2.8125 -2.15625 C 2.570312 -2.101562 2.304688 -2.050781 2.015625 -2 Z M 2.015625 -2 "/></g></g><g transform="translate(16.800689, 26.941407)"><g><path d="M 2.046875 -4.71875 C 2.429688 -4.71875 2.75 -4.660156 3 -4.546875 C 3.25 -4.429688 3.429688 -4.273438 3.546875 -4.078125 C 3.660156 -3.890625 3.71875 -3.6875 3.71875 -3.46875 C 3.71875 -3.207031 3.660156 -2.992188 3.546875 -2.828125 C 3.429688 -2.660156 3.25 -2.519531 3 -2.40625 C 3.257812 -2.3125 3.457031 -2.160156 3.59375 -1.953125 C 3.738281 -1.742188 3.8125 -1.507812 3.8125 -1.25 C 3.8125 -0.976562 3.742188 -0.738281 3.609375 -0.53125 C 3.472656 -0.332031 3.269531 -0.175781 3 -0.0625 C 2.726562 0.0507812 2.390625 0.109375 1.984375 0.109375 C 1.503906 0.109375 1.117188 0.0078125 0.828125 -0.1875 C 0.535156 -0.382812 0.320312 -0.6875 0.1875 -1.09375 L 0.9375 -1.359375 C 1.09375 -0.816406 1.441406 -0.546875 1.984375 -0.546875 C 2.328125 -0.546875 2.582031 -0.613281 2.75 -0.75 C 2.925781 -0.882812 3.015625 -1.0625 3.015625 -1.28125 C 3.015625 -1.414062 2.984375 -1.546875 2.921875 -1.671875 C 2.859375 -1.796875 2.757812 -1.894531 2.625 -1.96875 C 2.488281 -2.039062 2.316406 -2.078125 2.109375 -2.078125 L 1.75 -2.078125 L 1.75 -2.734375 L 2.125 -2.734375 C 2.382812 -2.734375 2.582031 -2.789062 2.71875 -2.90625 C 2.863281 -3.03125 2.9375 -3.195312 2.9375 -3.40625 C 2.9375 -3.519531 2.90625 -3.628906 2.84375 -3.734375 C 2.78125 -3.835938 2.679688 -3.921875 2.546875 -3.984375 C 2.410156 -4.046875 2.238281 -4.078125 2.03125 -4.078125 C 1.8125 -4.078125 1.617188 -4.019531 1.453125 -3.90625 C 1.285156 -3.800781 1.140625 -3.609375 1.015625 -3.328125 L 0.3125 -3.625 C 0.457031 -3.988281 0.671875 -4.257812 0.953125 -4.4375 C 1.234375 -4.625 1.597656 -4.71875 2.046875 -4.71875 Z M 2.046875 -4.71875 "/></g></g><g transform="translate(20.992889, 26.941407)"><g><path d="M 2.9375 -1.15625 L 4.140625 -4.609375 L 5.28125 -4.609375 L 5.28125 0 L 4.515625 0 L 4.515625 -3.640625 L 3.28125 0 L 2.609375 0 L 1.359375 -3.640625 L 1.359375 0 L 0.609375 0 L 0.609375 -4.609375 L 1.75 -4.609375 Z M 2.9375 -1.15625 "/></g></g><g transform="translate(26.876754, 26.941407)"><g><path d="M 2.515625 -0.53125 C 2.816406 -0.53125 3.070312 -0.617188 3.28125 -0.796875 C 3.5 -0.972656 3.648438 -1.203125 3.734375 -1.484375 L 4.5 -1.375 C 4.375 -0.90625 4.128906 -0.539062 3.765625 -0.28125 C 3.410156 -0.0195312 2.984375 0.109375 2.484375 0.109375 C 2.046875 0.109375 1.660156 0.015625 1.328125 -0.171875 C 1.003906 -0.367188 0.753906 -0.644531 0.578125 -1 C 0.398438 -1.363281 0.3125 -1.785156 0.3125 -2.265625 C 0.3125 -2.765625 0.394531 -3.195312 0.5625 -3.5625 C 0.738281 -3.9375 0.988281 -4.222656 1.3125 -4.421875 C 1.644531 -4.617188 2.03125 -4.71875 2.46875 -4.71875 C 2.894531 -4.71875 3.265625 -4.625 3.578125 -4.4375 C 3.898438 -4.25 4.144531 -3.96875 4.3125 -3.59375 C 4.488281 -3.226562 4.578125 -2.785156 4.578125 -2.265625 L 4.578125 -2.109375 L 1.125 -2.109375 C 1.132812 -1.773438 1.195312 -1.488281 1.3125 -1.25 C 1.4375 -1.019531 1.601562 -0.84375 1.8125 -0.71875 C 2.019531 -0.59375 2.253906 -0.53125 2.515625 -0.53125 Z M 2.46875 -4.078125 C 2.238281 -4.078125 2.03125 -4.019531 1.84375 -3.90625 C 1.65625 -3.800781 1.5 -3.648438 1.375 -3.453125 C 1.257812 -3.253906 1.179688 -3.019531 1.140625 -2.75 L 3.75 -2.75 C 3.695312 -3.175781 3.5625 -3.503906 3.34375 -3.734375 C 3.125 -3.960938 2.832031 -4.078125 2.46875 -4.078125 Z M 2.46875 -4.078125 "/></g></g><g transform="translate(31.756056, 26.941407)"><g><path d="M 1.40625 -0.53125 L 1.390625 -0.53125 L 1.390625 1.765625 L 0.609375 1.765625 L 0.609375 -4.609375 L 1.328125 -4.609375 L 1.328125 -4.03125 L 1.359375 -4.03125 C 1.515625 -4.25 1.707031 -4.414062 1.9375 -4.53125 C 2.164062 -4.65625 2.429688 -4.71875 2.734375 -4.71875 C 3.140625 -4.71875 3.5 -4.617188 3.8125 -4.421875 C 4.125 -4.222656 4.363281 -3.941406 4.53125 -3.578125 C 4.695312 -3.210938 4.78125 -2.789062 4.78125 -2.3125 C 4.78125 -1.820312 4.695312 -1.394531 4.53125 -1.03125 C 4.363281 -0.664062 4.128906 -0.382812 3.828125 -0.1875 C 3.535156 0.0078125 3.1875 0.109375 2.78125 0.109375 C 2.207031 0.109375 1.75 -0.101562 1.40625 -0.53125 Z M 2.65625 -4.078125 C 2.382812 -4.078125 2.148438 -4.003906 1.953125 -3.859375 C 1.753906 -3.710938 1.597656 -3.507812 1.484375 -3.25 C 1.378906 -2.988281 1.328125 -2.695312 1.328125 -2.375 C 1.328125 -1.988281 1.382812 -1.65625 1.5 -1.375 C 1.613281 -1.101562 1.769531 -0.894531 1.96875 -0.75 C 2.175781 -0.601562 2.421875 -0.53125 2.703125 -0.53125 C 2.960938 -0.53125 3.1875 -0.601562 3.375 -0.75 C 3.570312 -0.90625 3.722656 -1.113281 3.828125 -1.375 C 3.929688 -1.644531 3.984375 -1.957031 3.984375 -2.3125 C 3.984375 -2.675781 3.925781 -2.988281 3.8125 -3.25 C 3.707031 -3.519531 3.550781 -3.722656 3.34375 -3.859375 C 3.144531 -4.003906 2.914062 -4.078125 2.65625 -4.078125 Z M 2.65625 -4.078125 "/></g></g></g><g fill="#000000" fill-opacity="1"><g transform="translate(7.050781, 38.816407)"><g><path d="M 4.34375 -4.609375 L 4.34375 0 L 3.5625 0 L 3.5625 -3.96875 L 1.390625 -3.96875 L 1.390625 0 L 0.609375 0 L 0.609375 -4.609375 Z M 4.34375 -4.609375 "/></g></g><g transform="translate(12.004013, 38.816407)"><g><path d="M 1.40625 -0.53125 L 1.390625 -0.53125 L 1.390625 1.765625 L 0.609375 1.765625 L 0.609375 -4.609375 L 1.328125 -4.609375 L 1.328125 -4.03125 L 1.359375 -4.03125 C 1.515625 -4.25 1.707031 -4.414062 1.9375 -4.53125 C 2.164062 -4.65625 2.429688 -4.71875 2.734375 -4.71875 C 3.140625 -4.71875 3.5 -4.617188 3.8125 -4.421875 C 4.125 -4.222656 4.363281 -3.941406 4.53125 -3.578125 C 4.695312 -3.210938 4.78125 -2.789062 4.78125 -2.3125 C 4.78125 -1.820312 4.695312 -1.394531 4.53125 -1.03125 C 4.363281 -0.664062 4.128906 -0.382812 3.828125 -0.1875 C 3.535156 0.0078125 3.1875 0.109375 2.78125 0.109375 C 2.207031 0.109375 1.75 -0.101562 1.40625 -0.53125 Z M 2.65625 -4.078125 C 2.382812 -4.078125 2.148438 -4.003906 1.953125 -3.859375 C 1.753906 -3.710938 1.597656 -3.507812 1.484375 -3.25 C 1.378906 -2.988281 1.328125 -2.695312 1.328125 -2.375 C 1.328125 -1.988281 1.382812 -1.65625 1.5 -1.375 C 1.613281 -1.101562 1.769531 -0.894531 1.96875 -0.75 C 2.175781 -0.601562 2.421875 -0.53125 2.703125 -0.53125 C 2.960938 -0.53125 3.1875 -0.601562 3.375 -0.75 C 3.570312 -0.90625 3.722656 -1.113281 3.828125 -1.375 C 3.929688 -1.644531 3.984375 -1.957031 3.984375 -2.3125 C 3.984375 -2.675781 3.925781 -2.988281 3.8125 -3.25 C 3.707031 -3.519531 3.550781 -3.722656 3.34375 -3.859375 C 3.144531 -4.003906 2.914062 -4.078125 2.65625 -4.078125 Z M 2.65625 -4.078125 "/></g></g><g transform="translate(17.096404, 38.816407)"><g><path d="M 4.3125 0 L 3.5 0 C 3.457031 -0.09375 3.425781 -0.171875 3.40625 -0.234375 C 3.382812 -0.296875 3.363281 -0.40625 3.34375 -0.5625 C 3.113281 -0.332031 2.875 -0.160156 2.625 -0.046875 C 2.375 0.0546875 2.09375 0.109375 1.78125 0.109375 C 1.488281 0.109375 1.226562 0.0546875 1 -0.046875 C 0.78125 -0.160156 0.609375 -0.316406 0.484375 -0.515625 C 0.367188 -0.722656 0.3125 -0.957031 0.3125 -1.21875 C 0.3125 -1.613281 0.441406 -1.925781 0.703125 -2.15625 C 0.960938 -2.394531 1.382812 -2.5625 1.96875 -2.65625 C 2.582031 -2.75 3.019531 -2.835938 3.28125 -2.921875 L 3.28125 -3.046875 C 3.28125 -3.304688 3.25 -3.507812 3.1875 -3.65625 C 3.125 -3.800781 3.015625 -3.90625 2.859375 -3.96875 C 2.710938 -4.039062 2.519531 -4.078125 2.28125 -4.078125 C 1.96875 -4.078125 1.71875 -4.003906 1.53125 -3.859375 C 1.351562 -3.722656 1.234375 -3.503906 1.171875 -3.203125 L 0.40625 -3.3125 C 0.5 -3.78125 0.707031 -4.128906 1.03125 -4.359375 C 1.351562 -4.597656 1.78125 -4.71875 2.3125 -4.71875 C 2.726562 -4.71875 3.0625 -4.664062 3.3125 -4.5625 C 3.570312 -4.457031 3.765625 -4.285156 3.890625 -4.046875 C 4.015625 -3.816406 4.078125 -3.507812 4.078125 -3.125 L 4.078125 -1.46875 C 4.078125 -1.175781 4.082031 -0.953125 4.09375 -0.796875 C 4.101562 -0.640625 4.125 -0.503906 4.15625 -0.390625 C 4.1875 -0.273438 4.238281 -0.144531 4.3125 0 Z M 2.015625 -2 C 1.703125 -1.945312 1.472656 -1.851562 1.328125 -1.71875 C 1.179688 -1.59375 1.109375 -1.425781 1.109375 -1.21875 C 1.109375 -1 1.179688 -0.828125 1.328125 -0.703125 C 1.472656 -0.578125 1.679688 -0.515625 1.953125 -0.515625 C 2.171875 -0.515625 2.40625 -0.582031 2.65625 -0.71875 C 2.820312 -0.820312 2.945312 -0.929688 3.03125 -1.046875 C 3.125 -1.171875 3.1875 -1.316406 3.21875 -1.484375 C 3.257812 -1.648438 3.28125 -1.867188 3.28125 -2.140625 L 3.28125 -2.3125 C 3.21875 -2.269531 3.0625 -2.21875 2.8125 -2.15625 C 2.570312 -2.101562 2.304688 -2.050781 2.015625 -2 Z M 2.015625 -2 "/></g></g><g transform="translate(21.753921, 38.816407)"><g><path d="M 3.9375 -3.375 C 3.9375 -3.164062 3.878906 -2.976562 3.765625 -2.8125 C 3.660156 -2.644531 3.503906 -2.507812 3.296875 -2.40625 C 3.585938 -2.3125 3.800781 -2.164062 3.9375 -1.96875 C 4.082031 -1.78125 4.15625 -1.554688 4.15625 -1.296875 C 4.15625 -0.898438 4.007812 -0.582031 3.71875 -0.34375 C 3.4375 -0.113281 2.992188 0 2.390625 0 L 0.609375 0 L 0.609375 -4.609375 L 2.28125 -4.609375 C 2.875 -4.609375 3.296875 -4.5 3.546875 -4.28125 C 3.804688 -4.070312 3.9375 -3.769531 3.9375 -3.375 Z M 1.390625 -0.625 L 2.40625 -0.625 C 3.03125 -0.625 3.34375 -0.863281 3.34375 -1.34375 C 3.34375 -1.582031 3.265625 -1.757812 3.109375 -1.875 C 2.960938 -2 2.722656 -2.0625 2.390625 -2.0625 L 1.390625 -2.0625 Z M 3.140625 -3.328125 C 3.140625 -3.535156 3.066406 -3.695312 2.921875 -3.8125 C 2.785156 -3.925781 2.570312 -3.984375 2.28125 -3.984375 L 1.390625 -3.984375 L 1.390625 -2.671875 L 2.3125 -2.671875 C 2.601562 -2.671875 2.8125 -2.722656 2.9375 -2.828125 C 3.070312 -2.941406 3.140625 -3.109375 3.140625 -3.328125 Z M 3.140625 -3.328125 "/></g></g><g transform="translate(26.320113, 38.816407)"><g><path d="M 1.390625 -4.609375 L 1.390625 -1.28125 L 3.53125 -4.609375 L 4.34375 -4.609375 L 4.34375 0 L 3.5625 0 L 3.5625 -3.328125 L 1.421875 0 L 0.609375 0 L 0.609375 -4.609375 Z M 1.390625 -4.609375 "/></g></g><g transform="translate(31.273345, 38.816407)"><g><path d="M 4.359375 -4.609375 L 4.359375 0 L 3.578125 0 L 3.578125 -3.96875 L 1.78125 -3.96875 L 1.78125 -1.375 C 1.78125 -0.851562 1.679688 -0.476562 1.484375 -0.25 C 1.296875 -0.0195312 1.007812 0.09375 0.625 0.09375 C 0.375 0.09375 0.15625 0.0664062 -0.03125 0.015625 L 0.109375 -0.609375 C 0.234375 -0.566406 0.363281 -0.546875 0.5 -0.546875 C 0.65625 -0.546875 0.773438 -0.609375 0.859375 -0.734375 C 0.953125 -0.867188 1 -1.070312 1 -1.34375 L 1 -4.609375 Z M 4.359375 -4.609375 "/></g></g><g transform="translate(36.235274, 38.816407)"><g><path d="M 4.078125 -1.375 C 4.078125 -0.9375 3.929688 -0.597656 3.640625 -0.359375 C 3.359375 -0.117188 2.925781 0 2.34375 0 L 0.609375 0 L 0.609375 -4.609375 L 1.390625 -4.609375 L 1.390625 -2.78125 L 2.359375 -2.78125 C 2.972656 -2.78125 3.410156 -2.660156 3.671875 -2.421875 C 3.941406 -2.191406 4.078125 -1.84375 4.078125 -1.375 Z M 1.390625 -0.640625 L 2.34375 -0.640625 C 2.96875 -0.640625 3.28125 -0.890625 3.28125 -1.390625 C 3.28125 -1.628906 3.203125 -1.8125 3.046875 -1.9375 C 2.898438 -2.070312 2.65625 -2.140625 2.3125 -2.140625 L 1.390625 -2.140625 Z M 1.390625 -0.640625 "/></g></g><g transform="translate(40.640562, 38.816407)"><g><path d="M 3.5625 0 L 3.5625 -2.046875 L 1.390625 -2.046875 L 1.390625 0 L 0.609375 0 L 0.609375 -4.609375 L 1.390625 -4.609375 L 1.390625 -2.703125 L 3.5625 -2.703125 L 3.5625 -4.609375 L 4.34375 -4.609375 L 4.34375 0 Z M 3.5625 0 "/></g></g><g transform="translate(45.593794, 38.816407)"><g><path d="M 0.3125 -2.3125 C 0.3125 -2.8125 0.398438 -3.238281 0.578125 -3.59375 C 0.765625 -3.957031 1.019531 -4.234375 1.34375 -4.421875 C 1.664062 -4.617188 2.039062 -4.71875 2.46875 -4.71875 C 2.90625 -4.71875 3.285156 -4.625 3.609375 -4.4375 C 3.929688 -4.25 4.179688 -3.972656 4.359375 -3.609375 C 4.546875 -3.253906 4.640625 -2.820312 4.640625 -2.3125 C 4.640625 -1.800781 4.546875 -1.363281 4.359375 -1 C 4.179688 -0.644531 3.925781 -0.367188 3.59375 -0.171875 C 3.269531 0.015625 2.894531 0.109375 2.46875 0.109375 C 2.050781 0.109375 1.675781 0.0195312 1.34375 -0.15625 C 1.019531 -0.34375 0.765625 -0.617188 0.578125 -0.984375 C 0.398438 -1.347656 0.3125 -1.789062 0.3125 -2.3125 Z M 2.46875 -4.078125 C 2.207031 -4.078125 1.972656 -4.007812 1.765625 -3.875 C 1.566406 -3.738281 1.40625 -3.535156 1.28125 -3.265625 C 1.164062 -3.003906 1.109375 -2.6875 1.109375 -2.3125 C 1.109375 -1.925781 1.164062 -1.597656 1.28125 -1.328125 C 1.40625 -1.066406 1.566406 -0.867188 1.765625 -0.734375 C 1.972656 -0.597656 2.207031 -0.53125 2.46875 -0.53125 C 2.75 -0.53125 2.988281 -0.597656 3.1875 -0.734375 C 3.394531 -0.878906 3.554688 -1.082031 3.671875 -1.34375 C 3.785156 -1.613281 3.84375 -1.9375 3.84375 -2.3125 C 3.84375 -2.6875 3.78125 -3.003906 3.65625 -3.265625 C 3.539062 -3.535156 3.378906 -3.738281 3.171875 -3.875 C 2.972656 -4.007812 2.738281 -4.078125 2.46875 -4.078125 Z M 2.46875 -4.078125 "/></g></g></g><g fill="#000000" fill-opacity="1"><g transform="translate(50.549925, 38.816407)"><g/></g></g><path fill="#ffffff" d="M 15.960938 54.910156 L 27.519531 54.910156 C 27.765625 54.910156 27.972656 54.996094 28.148438 55.167969 C 28.320312 55.34375 28.40625 55.550781 28.40625 55.796875 L 28.40625 61.132812 C 28.40625 61.378906 28.320312 61.585938 28.148438 61.761719 C 27.972656 61.933594 27.765625 62.019531 27.519531 62.019531 L 16.851562 62.019531 C 16.605469 62.019531 16.394531 61.933594 16.222656 61.761719 C 16.046875 61.585938 15.960938 61.378906 15.960938 61.132812 Z M 15.960938 54.910156 " fill-opacity="1" fill-rule="nonzero"/><path fill="#ffffff" d="M 15.960938 54.910156 L 15.960938 61.132812 C 15.960938 61.378906 16.046875 61.585938 16.222656 61.761719 C 16.394531 61.933594 16.605469 62.019531 16.851562 62.019531 L 18.367188 62.019531 L 25.480469 54.910156 Z M 15.960938 54.910156 " fill-opacity="1" fill-rule="nonzero"/><path fill="#ffffff" d="M 27.519531 44.238281 L 27.519531 50.464844 L 10.625 50.464844 L 10.625 43.351562 L 26.628906 43.351562 C 26.875 43.351562 27.085938 43.4375 27.257812 43.613281 C 27.433594 43.785156 27.519531 43.996094 27.519531 44.238281 Z M 27.519531 44.238281 " fill-opacity="1" fill-rule="nonzero"/><path fill="#ffffff" d="M 10.625 43.351562 L 10.625 50.464844 L 14.308594 50.464844 L 21.421875 43.351562 Z M 10.625 43.351562 " fill-opacity="1" fill-rule="nonzero"/><g clip-path="url(#1f476446a1)"><path fill="#ffffff" d="M 10.625 43.351562 L 10.625 50.464844 L 8.847656 50.464844 C 8.601562 50.464844 8.394531 50.375 8.21875 50.203125 C 8.046875 50.03125 7.960938 49.820312 7.960938 49.574219 L 7.960938 44.238281 C 7.960938 43.996094 8.046875 43.785156 8.21875 43.613281 C 8.394531 43.4375 8.601562 43.351562 8.847656 43.351562 Z M 10.625 43.351562 " fill-opacity="1" fill-rule="nonzero"/></g><g clip-path="url(#f3f7d37f5d)"><path stroke-linecap="round" transform="matrix(0.463867, 0, 0, 0.463867, 7.514648, 42.026369)" fill="none" stroke-linejoin="round" d="M 6.705264 2.856839 L 6.705264 18.191577 L 2.873685 18.191577 C 2.343159 18.191577 1.896843 17.997892 1.517895 17.627366 C 1.147369 17.25684 0.962106 16.802103 0.962106 16.271577 L 0.962106 4.768418 C 0.962106 4.246313 1.147369 3.791576 1.517895 3.42105 C 1.896843 3.042102 2.343159 2.856839 2.873685 2.856839 Z M 6.705264 2.856839 " stroke="#222126" stroke-width="2" stroke-opacity="1" stroke-miterlimit="4"/></g><path stroke-linecap="round" transform="matrix(0.463867, 0, 0, 0.463867, 7.514648, 42.026369)" fill="none" stroke-linejoin="round" d="M 43.126318 4.768418 L 43.126318 18.191577 L 6.705264 18.191577 L 6.705264 2.856839 L 41.206318 2.856839 C 41.736845 2.856839 42.191581 3.042102 42.562108 3.42105 C 42.941055 3.791576 43.126318 4.246313 43.126318 4.768418 Z M 43.126318 4.768418 " stroke="#222126" stroke-width="2" stroke-opacity="1" stroke-miterlimit="4"/><path stroke-linecap="round" transform="matrix(0.463867, 0, 0, 0.463867, 7.514648, 42.026369)" fill="none" stroke-linejoin="round" d="M 18.208422 27.774735 L 43.126318 27.774735 C 43.656845 27.774735 44.10316 27.959998 44.482108 28.330524 C 44.852634 28.709472 45.037897 29.155788 45.037897 29.686314 L 45.037897 41.189472 C 45.037897 41.719999 44.852634 42.166314 44.482108 42.545262 C 44.10316 42.915788 43.656845 43.101051 43.126318 43.101051 L 20.128423 43.101051 C 19.597896 43.101051 19.143159 42.915788 18.772633 42.545262 C 18.393686 42.166314 18.208422 41.719999 18.208422 41.189472 Z M 18.208422 27.774735 " stroke="#222126" stroke-width="2" stroke-opacity="1" stroke-miterlimit="4"/><path stroke-linecap="round" transform="matrix(0.463867, 0, 0, 0.463867, 7.514648, 42.026369)" fill="none" stroke-linejoin="round" d="M 14.376843 2.856839 L 14.376843 8.599997 " stroke="#222126" stroke-width="2" stroke-opacity="1" stroke-miterlimit="4"/><path stroke-linecap="round" transform="matrix(0.463867, 0, 0, 0.463867, 7.514648, 42.026369)" fill="none" stroke-linejoin="round" d="M 22.040002 2.856839 L 22.040002 8.599997 " stroke="#222126" stroke-width="2" stroke-opacity="1" stroke-miterlimit="4"/><path stroke-linecap="round" transform="matrix(0.463867, 0, 0, 0.463867, 7.514648, 42.026369)" fill="none" stroke-linejoin="round" d="M 29.70316 2.856839 L 29.70316 8.599997 " stroke="#222126" stroke-width="2" stroke-opacity="1" stroke-miterlimit="4"/><path stroke-linecap="round" transform="matrix(0.463867, 0, 0, 0.463867, 7.514648, 42.026369)" fill="none" stroke-linejoin="round" d="M 24.911581 27.774735 L 24.911581 33.517893 " stroke="#222126" stroke-width="2" stroke-opacity="1" stroke-miterlimit="4"/><path stroke-linecap="round" transform="matrix(0.463867, 0, 0, 0.463867, 7.514648, 42.026369)" fill="none" stroke-linejoin="round" d="M 32.58316 27.774735 L 32.58316 33.517893 " stroke="#222126" stroke-width="2" stroke-opacity="1" stroke-miterlimit="4"/><path stroke-linecap="round" transform="matrix(0.463867, 0, 0, 0.463867, 7.514648, 42.026369)" fill="none" stroke-linejoin="round" d="M 40.246318 27.774735 L 40.246318 33.517893 " stroke="#222126" stroke-width="2" stroke-opacity="1" stroke-miterlimit="4"/><path stroke-linecap="round" transform="matrix(0.463867, 0, 0, 0.463867, 7.514648, 42.026369)" fill="none" stroke-linejoin="round" d="M 37.374739 2.856839 L 37.374739 8.599997 " stroke="#222126" stroke-width="2" stroke-opacity="1" stroke-miterlimit="4"/><path stroke-linecap="round" transform="matrix(0.463867, 0, 0, 0.463867, 7.514648, 42.026369)" fill-opacity="1" fill="#ffffff" fill-rule="nonzero" stroke-linejoin="round" d="M 33.54316 27.774735 L 43.126318 18.183156 L 27.791581 18.183156 L 18.208422 27.774735 Z M 33.54316 27.774735 " stroke="#222126" stroke-width="2" stroke-opacity="1" stroke-miterlimit="4"/></svg>