<svg xmlns="http://www.w3.org/2000/svg" xmlns:xlink="http://www.w3.org/1999/xlink" width="95" zoomAndPan="magnify" viewBox="0 0 71.25 71.25" height="95" preserveAspectRatio="xMidYMid meet" version="1.0"><defs><g/><clipPath id="01e8154987"><path d="M 0 0 L 70.507812 0 L 70.507812 70.507812 L 0 70.507812 Z M 0 0 " clip-rule="nonzero"/></clipPath><clipPath id="b69e28a931"><path d="M 35.253906 35.253906 L 64.941406 35.253906 L 64.941406 64.941406 L 35.253906 64.941406 Z M 35.253906 35.253906 " clip-rule="nonzero"/></clipPath></defs><g clip-path="url(#01e8154987)"><path fill="#ffffff" d="M 0 0 L 70.507812 0 L 70.507812 70.507812 L 0 70.507812 Z M 0 0 " fill-opacity="1" fill-rule="nonzero"/><path fill="#ffcb65" d="M 0 0 L 70.507812 0 L 70.507812 70.507812 L 0 70.507812 Z M 0 0 " fill-opacity="1" fill-rule="nonzero"/></g><path fill="#67b2fc" d="M 48.554688 37.203125 C 48.742188 36.96875 48.972656 36.785156 49.242188 36.65625 C 49.511719 36.527344 49.796875 36.460938 50.097656 36.460938 C 50.398438 36.460938 50.683594 36.527344 50.953125 36.65625 C 51.222656 36.785156 51.453125 36.96875 51.640625 37.203125 L 53.46875 39.480469 C 53.679688 39.742188 53.941406 39.9375 54.253906 40.066406 C 54.566406 40.195312 54.886719 40.242188 55.222656 40.207031 L 58.128906 39.890625 C 58.425781 39.859375 58.71875 39.890625 59 39.992188 C 59.28125 40.089844 59.527344 40.246094 59.738281 40.457031 C 59.949219 40.671875 60.105469 40.917969 60.203125 41.199219 C 60.304688 41.480469 60.335938 41.769531 60.304688 42.066406 L 59.988281 44.972656 C 59.953125 45.308594 59.996094 45.632812 60.125 45.941406 C 60.253906 46.253906 60.453125 46.515625 60.714844 46.726562 L 62.992188 48.554688 C 63.226562 48.742188 63.410156 48.972656 63.539062 49.242188 C 63.667969 49.511719 63.734375 49.796875 63.734375 50.097656 C 63.734375 50.398438 63.667969 50.683594 63.539062 50.953125 C 63.410156 51.222656 63.226562 51.453125 62.992188 51.640625 L 60.714844 53.46875 C 60.453125 53.679688 60.253906 53.941406 60.125 54.253906 C 59.996094 54.5625 59.953125 54.886719 59.988281 55.222656 L 60.304688 58.128906 C 60.335938 58.425781 60.304688 58.714844 60.203125 59 C 60.105469 59.28125 59.949219 59.527344 59.738281 59.738281 C 59.527344 59.949219 59.28125 60.105469 58.996094 60.207031 C 58.714844 60.304688 58.425781 60.339844 58.128906 60.304688 L 55.222656 59.988281 C 54.886719 59.953125 54.5625 60 54.25 60.128906 C 53.941406 60.257812 53.679688 60.453125 53.46875 60.714844 L 51.640625 62.992188 C 51.453125 63.226562 51.222656 63.40625 50.953125 63.539062 C 50.683594 63.667969 50.398438 63.730469 50.097656 63.730469 C 49.796875 63.730469 49.511719 63.667969 49.242188 63.539062 C 48.972656 63.40625 48.742188 63.226562 48.554688 62.992188 L 46.726562 60.714844 C 46.515625 60.449219 46.253906 60.253906 45.945312 60.125 C 45.632812 59.996094 45.308594 59.949219 44.972656 59.988281 L 42.066406 60.304688 C 41.769531 60.335938 41.480469 60.300781 41.199219 60.203125 C 40.914062 60.105469 40.667969 59.949219 40.457031 59.738281 C 40.246094 59.523438 40.089844 59.277344 39.992188 58.996094 C 39.890625 58.714844 39.859375 58.425781 39.890625 58.125 L 40.207031 55.21875 C 40.242188 54.886719 40.199219 54.5625 40.070312 54.25 C 39.941406 53.941406 39.742188 53.679688 39.480469 53.46875 L 37.203125 51.640625 C 36.96875 51.453125 36.785156 51.222656 36.65625 50.953125 C 36.527344 50.683594 36.460938 50.398438 36.460938 50.097656 C 36.460938 49.796875 36.527344 49.511719 36.65625 49.242188 C 36.785156 48.972656 36.96875 48.742188 37.203125 48.554688 L 39.480469 46.726562 C 39.742188 46.515625 39.941406 46.253906 40.070312 45.941406 C 40.199219 45.632812 40.242188 45.308594 40.207031 44.972656 L 39.890625 42.066406 C 39.859375 41.769531 39.890625 41.480469 39.992188 41.199219 C 40.089844 40.917969 40.246094 40.667969 40.457031 40.457031 C 40.667969 40.246094 40.917969 40.089844 41.199219 39.992188 C 41.480469 39.890625 41.769531 39.859375 42.066406 39.890625 L 44.972656 40.207031 C 45.308594 40.242188 45.632812 40.195312 45.945312 40.066406 C 46.253906 39.9375 46.515625 39.742188 46.726562 39.480469 Z M 48.554688 37.203125 " fill-opacity="1" fill-rule="nonzero"/><path fill="#67b2fc" d="M 40.457031 59.738281 C 40.011719 59.289062 39.824219 58.753906 39.890625 58.125 L 40.207031 55.21875 C 40.242188 54.886719 40.199219 54.5625 40.070312 54.25 C 39.941406 53.941406 39.742188 53.679688 39.480469 53.46875 L 37.203125 51.640625 C 36.96875 51.453125 36.785156 51.222656 36.65625 50.953125 C 36.527344 50.683594 36.460938 50.398438 36.460938 50.097656 C 36.460938 49.796875 36.527344 49.511719 36.65625 49.242188 C 36.785156 48.972656 36.96875 48.742188 37.203125 48.554688 L 39.480469 46.726562 C 39.742188 46.515625 39.941406 46.253906 40.070312 45.941406 C 40.199219 45.632812 40.242188 45.308594 40.207031 44.972656 L 39.890625 42.066406 C 39.859375 41.769531 39.890625 41.480469 39.992188 41.199219 C 40.089844 40.917969 40.246094 40.667969 40.457031 40.457031 C 40.667969 40.246094 40.917969 40.089844 41.199219 39.992188 C 41.480469 39.890625 41.769531 39.859375 42.066406 39.890625 L 44.972656 40.207031 C 45.308594 40.242188 45.632812 40.195312 45.945312 40.066406 C 46.253906 39.9375 46.515625 39.742188 46.726562 39.480469 L 48.554688 37.203125 C 48.742188 36.96875 48.972656 36.785156 49.242188 36.65625 C 49.511719 36.527344 49.796875 36.460938 50.097656 36.460938 C 50.398438 36.460938 50.683594 36.527344 50.953125 36.65625 C 51.222656 36.785156 51.453125 36.96875 51.640625 37.203125 L 53.46875 39.480469 C 53.679688 39.742188 53.941406 39.9375 54.253906 40.066406 C 54.566406 40.195312 54.886719 40.242188 55.222656 40.207031 L 58.128906 39.890625 C 58.757812 39.824219 59.292969 40.011719 59.738281 40.457031 Z M 40.457031 59.738281 " fill-opacity="1" fill-rule="nonzero"/><g clip-path="url(#b69e28a931)"><path stroke-linecap="round" transform="matrix(0.61849, 0, 0, 0.61849, 35.872396, 35.872398)" fill="none" stroke-linejoin="round" d="M 20.505266 2.151576 C 20.808424 1.772629 21.181055 1.475787 21.616845 1.267366 C 22.052634 1.058945 22.513687 0.951576 23.000003 0.951576 C 23.486319 0.951576 23.947371 1.058945 24.383161 1.267366 C 24.81895 1.475787 25.191582 1.772629 25.49474 2.151576 L 28.45053 5.833682 C 28.791582 6.25684 29.21474 6.572629 29.720004 6.781051 C 30.225267 6.989472 30.743162 7.065261 31.286319 7.008419 L 35.985267 6.49684 C 36.465267 6.446314 36.938952 6.49684 37.393689 6.661051 C 37.848425 6.818945 38.24632 7.071577 38.587373 7.41263 C 38.928426 7.759998 39.181057 8.157893 39.338952 8.61263 C 39.503162 9.067367 39.553689 9.534735 39.503162 10.014735 L 38.991583 14.713683 C 38.934741 15.256841 39.004215 15.781051 39.212636 16.279999 C 39.421057 16.785262 39.743162 17.20842 40.16632 17.549473 L 43.848426 20.505262 C 44.227373 20.80842 44.524216 21.181052 44.732637 21.616842 C 44.941058 22.052631 45.048426 22.513684 45.048426 23 C 45.048426 23.486315 44.941058 23.947368 44.732637 24.383158 C 44.524216 24.818947 44.227373 25.191579 43.848426 25.494737 L 40.16632 28.450526 C 39.743162 28.791579 39.421057 29.214737 39.212636 29.72 C 39.004215 30.218948 38.934741 30.743158 38.991583 31.286316 L 39.503162 35.985264 C 39.553689 36.465264 39.503162 36.932633 39.338952 37.393685 C 39.181057 37.848422 38.928426 38.246317 38.587373 38.58737 C 38.24632 38.928422 37.848425 39.181054 37.387373 39.345264 C 36.932636 39.503159 36.465267 39.560001 35.985267 39.503159 L 31.286319 38.99158 C 30.743162 38.934738 30.218951 39.010528 29.713688 39.218949 C 29.21474 39.42737 28.791582 39.743159 28.45053 40.166317 L 25.49474 43.848423 C 25.191582 44.22737 24.81895 44.517897 24.383161 44.732633 C 23.947371 44.941055 23.486319 45.042107 23.000003 45.042107 C 22.513687 45.042107 22.052634 44.941055 21.616845 44.732633 C 21.181055 44.517897 20.808424 44.22737 20.505266 43.848423 L 17.549476 40.166317 C 17.208423 39.736843 16.785265 39.421054 16.286318 39.212633 C 15.781055 39.004212 15.256844 38.928422 14.713686 38.99158 L 10.014738 39.503159 C 9.534738 39.553686 9.06737 39.496843 8.612633 39.338949 C 8.15158 39.181054 7.753685 38.928422 7.412633 38.58737 C 7.07158 38.240001 6.818948 37.842106 6.661054 37.38737 C 6.496843 36.932633 6.446317 36.465264 6.496843 35.978948 L 7.008422 31.28 C 7.065264 30.743158 6.995791 30.218948 6.78737 29.713685 C 6.578948 29.214737 6.256843 28.791579 5.833685 28.450526 L 2.15158 25.494737 C 1.772632 25.191579 1.47579 24.818947 1.267369 24.383158 C 1.058948 23.947368 0.951579 23.486315 0.951579 23 C 0.951579 22.513684 1.058948 22.052631 1.267369 21.616842 C 1.47579 21.181052 1.772632 20.80842 2.15158 20.505262 L 5.833685 17.549473 C 6.256843 17.20842 6.578948 16.785262 6.78737 16.279999 C 6.995791 15.781051 7.065264 15.256841 7.008422 14.713683 L 6.496843 10.014735 C 6.446317 9.534735 6.496843 9.067367 6.661054 8.61263 C 6.818948 8.157893 7.07158 7.753682 7.412633 7.41263 C 7.753685 7.071577 8.157896 6.818945 8.612633 6.661051 C 9.06737 6.49684 9.534738 6.446314 10.014738 6.49684 L 14.713686 7.008419 C 15.256844 7.065261 15.781055 6.989472 16.286318 6.781051 C 16.785265 6.572629 17.208423 6.25684 17.549476 5.833682 Z M 20.505266 2.151576 " stroke="#ffffff" stroke-width="2" stroke-opacity="1" stroke-miterlimit="4"/></g><path stroke-linecap="round" transform="matrix(0.61849, 0, 0, 0.61849, 35.872396, 35.872398)" fill="none" stroke-linejoin="round" d="M 30.667372 18.206315 L 22.867371 28.608421 C 22.741055 28.778948 22.583161 28.911579 22.393687 29.018948 C 22.204213 29.12 22.008424 29.176842 21.793687 29.189474 C 21.585266 29.208421 21.376845 29.176842 21.174739 29.101053 C 20.97895 29.031579 20.802108 28.917895 20.650529 28.766316 L 15.970528 24.086316 " stroke="#ffffff" stroke-width="2" stroke-opacity="1" stroke-miterlimit="4"/><g fill="#ffffff" fill-opacity="1"><g transform="translate(5.269531, 12.064528)"><g><path d="M 4.0625 -5.8125 L 4.0625 -5.15625 L 1.515625 -5.15625 L 1.515625 0 L 0.796875 0 L 0.796875 -5.8125 Z M 4.0625 -5.8125 "/></g></g></g><g fill="#ffffff" fill-opacity="1"><g transform="translate(9.737672, 12.064528)"><g><path d="M 2.34375 -4.4375 C 2.875 -4.4375 3.265625 -4.316406 3.515625 -4.078125 C 3.773438 -3.847656 3.90625 -3.476562 3.90625 -2.96875 L 3.90625 0 L 3.390625 0 L 3.25 -0.625 L 3.21875 -0.625 C 3.03125 -0.382812 2.828125 -0.207031 2.609375 -0.09375 C 2.398438 0.0195312 2.113281 0.078125 1.75 0.078125 C 1.351562 0.078125 1.023438 -0.0234375 0.765625 -0.234375 C 0.503906 -0.441406 0.375 -0.769531 0.375 -1.21875 C 0.375 -1.644531 0.546875 -1.976562 0.890625 -2.21875 C 1.234375 -2.457031 1.757812 -2.585938 2.46875 -2.609375 L 3.203125 -2.625 L 3.203125 -2.890625 C 3.203125 -3.253906 3.125 -3.503906 2.96875 -3.640625 C 2.8125 -3.785156 2.585938 -3.859375 2.296875 -3.859375 C 2.078125 -3.859375 1.863281 -3.820312 1.65625 -3.75 C 1.445312 -3.6875 1.253906 -3.613281 1.078125 -3.53125 L 0.859375 -4.0625 C 1.046875 -4.164062 1.269531 -4.253906 1.53125 -4.328125 C 1.789062 -4.398438 2.0625 -4.4375 2.34375 -4.4375 Z M 3.203125 -2.140625 L 2.5625 -2.109375 C 2.007812 -2.085938 1.628906 -2 1.421875 -1.84375 C 1.210938 -1.695312 1.109375 -1.484375 1.109375 -1.203125 C 1.109375 -0.960938 1.179688 -0.785156 1.328125 -0.671875 C 1.484375 -0.554688 1.675781 -0.5 1.90625 -0.5 C 2.269531 -0.5 2.578125 -0.597656 2.828125 -0.796875 C 3.078125 -1.003906 3.203125 -1.316406 3.203125 -1.734375 Z M 3.203125 -2.140625 "/></g></g></g><g fill="#ffffff" fill-opacity="1"><g transform="translate(14.506942, 12.064528)"><g><path d="M 2.765625 -4.4375 C 3.304688 -4.4375 3.738281 -4.25 4.0625 -3.875 C 4.394531 -3.507812 4.5625 -2.945312 4.5625 -2.1875 C 4.5625 -1.445312 4.394531 -0.882812 4.0625 -0.5 C 3.738281 -0.113281 3.304688 0.078125 2.765625 0.078125 C 2.421875 0.078125 2.140625 0.015625 1.921875 -0.109375 C 1.703125 -0.234375 1.53125 -0.378906 1.40625 -0.546875 L 1.359375 -0.546875 C 1.367188 -0.460938 1.378906 -0.347656 1.390625 -0.203125 C 1.398438 -0.0546875 1.40625 0.0625 1.40625 0.15625 L 1.40625 1.953125 L 0.6875 1.953125 L 0.6875 -4.359375 L 1.28125 -4.359375 L 1.375 -3.765625 L 1.40625 -3.765625 C 1.539062 -3.953125 1.710938 -4.109375 1.921875 -4.234375 C 2.128906 -4.367188 2.410156 -4.4375 2.765625 -4.4375 Z M 2.640625 -3.84375 C 2.191406 -3.84375 1.875 -3.71875 1.6875 -3.46875 C 1.507812 -3.21875 1.414062 -2.835938 1.40625 -2.328125 L 1.40625 -2.1875 C 1.40625 -1.65625 1.492188 -1.242188 1.671875 -0.953125 C 1.847656 -0.660156 2.175781 -0.515625 2.65625 -0.515625 C 2.914062 -0.515625 3.128906 -0.582031 3.296875 -0.71875 C 3.472656 -0.863281 3.601562 -1.0625 3.6875 -1.3125 C 3.769531 -1.570312 3.8125 -1.867188 3.8125 -2.203125 C 3.8125 -2.703125 3.710938 -3.097656 3.515625 -3.390625 C 3.328125 -3.691406 3.035156 -3.84375 2.640625 -3.84375 Z M 2.640625 -3.84375 "/></g></g></g><g fill="#ffffff" fill-opacity="1"><g transform="translate(19.715706, 12.064528)"><g><path d="M 2.34375 -4.4375 C 2.875 -4.4375 3.265625 -4.316406 3.515625 -4.078125 C 3.773438 -3.847656 3.90625 -3.476562 3.90625 -2.96875 L 3.90625 0 L 3.390625 0 L 3.25 -0.625 L 3.21875 -0.625 C 3.03125 -0.382812 2.828125 -0.207031 2.609375 -0.09375 C 2.398438 0.0195312 2.113281 0.078125 1.75 0.078125 C 1.351562 0.078125 1.023438 -0.0234375 0.765625 -0.234375 C 0.503906 -0.441406 0.375 -0.769531 0.375 -1.21875 C 0.375 -1.644531 0.546875 -1.976562 0.890625 -2.21875 C 1.234375 -2.457031 1.757812 -2.585938 2.46875 -2.609375 L 3.203125 -2.625 L 3.203125 -2.890625 C 3.203125 -3.253906 3.125 -3.503906 2.96875 -3.640625 C 2.8125 -3.785156 2.585938 -3.859375 2.296875 -3.859375 C 2.078125 -3.859375 1.863281 -3.820312 1.65625 -3.75 C 1.445312 -3.6875 1.253906 -3.613281 1.078125 -3.53125 L 0.859375 -4.0625 C 1.046875 -4.164062 1.269531 -4.253906 1.53125 -4.328125 C 1.789062 -4.398438 2.0625 -4.4375 2.34375 -4.4375 Z M 3.203125 -2.140625 L 2.5625 -2.109375 C 2.007812 -2.085938 1.628906 -2 1.421875 -1.84375 C 1.210938 -1.695312 1.109375 -1.484375 1.109375 -1.203125 C 1.109375 -0.960938 1.179688 -0.785156 1.328125 -0.671875 C 1.484375 -0.554688 1.675781 -0.5 1.90625 -0.5 C 2.269531 -0.5 2.578125 -0.597656 2.828125 -0.796875 C 3.078125 -1.003906 3.203125 -1.316406 3.203125 -1.734375 Z M 3.203125 -2.140625 "/></g></g></g><g fill="#ffffff" fill-opacity="1"><g transform="translate(24.484976, 12.064528)"><g><path d="M 1.40625 -4.359375 L 1.40625 -2.546875 L 3.78125 -2.546875 L 3.78125 -4.359375 L 4.5 -4.359375 L 4.5 0 L 3.78125 0 L 3.78125 -1.953125 L 1.40625 -1.953125 L 1.40625 0 L 0.6875 0 L 0.6875 -4.359375 Z M 1.40625 -4.359375 "/></g></g></g><g fill="#ffffff" fill-opacity="1"><g transform="translate(29.872794, 12.064528)"><g><path d="M 3.703125 -3.765625 L 2.28125 -3.765625 L 2.28125 0 L 1.578125 0 L 1.578125 -3.765625 L 0.15625 -3.765625 L 0.15625 -4.359375 L 3.703125 -4.359375 Z M 3.703125 -3.765625 "/></g></g></g><g fill="#ffffff" fill-opacity="1"><g transform="translate(33.950277, 12.064528)"><g><path d="M 1.375 -4.359375 L 1.375 -1.703125 C 1.375 -1.628906 1.367188 -1.53125 1.359375 -1.40625 C 1.347656 -1.28125 1.335938 -1.148438 1.328125 -1.015625 C 1.328125 -0.878906 1.320312 -0.773438 1.3125 -0.703125 L 3.65625 -4.359375 L 4.53125 -4.359375 L 4.53125 0 L 3.859375 0 L 3.859375 -2.578125 C 3.859375 -2.660156 3.859375 -2.769531 3.859375 -2.90625 C 3.867188 -3.050781 3.875 -3.191406 3.875 -3.328125 C 3.882812 -3.472656 3.894531 -3.578125 3.90625 -3.640625 L 1.578125 0 L 0.6875 0 L 0.6875 -4.359375 Z M 1.375 -4.359375 "/></g></g></g><g fill="#ffffff" fill-opacity="1"><g transform="translate(39.386921, 12.064528)"><g><path d="M 1.375 -4.359375 L 1.375 -1.703125 C 1.375 -1.628906 1.367188 -1.53125 1.359375 -1.40625 C 1.347656 -1.28125 1.335938 -1.148438 1.328125 -1.015625 C 1.328125 -0.878906 1.320312 -0.773438 1.3125 -0.703125 L 3.65625 -4.359375 L 4.53125 -4.359375 L 4.53125 0 L 3.859375 0 L 3.859375 -2.578125 C 3.859375 -2.660156 3.859375 -2.769531 3.859375 -2.90625 C 3.867188 -3.050781 3.875 -3.191406 3.875 -3.328125 C 3.882812 -3.472656 3.894531 -3.578125 3.90625 -3.640625 L 1.578125 0 L 0.6875 0 L 0.6875 -4.359375 Z M 1.375 -4.359375 "/></g></g></g><g fill="#ffffff" fill-opacity="1"><g transform="translate(44.823564, 12.064528)"><g/></g></g><g fill="#ffffff" fill-opacity="1"><g transform="translate(48.876634, 12.064528)"><g><path d="M 1.375 -4.359375 L 1.375 -1.703125 C 1.375 -1.628906 1.367188 -1.53125 1.359375 -1.40625 C 1.347656 -1.28125 1.335938 -1.148438 1.328125 -1.015625 C 1.328125 -0.878906 1.320312 -0.773438 1.3125 -0.703125 L 3.65625 -4.359375 L 4.53125 -4.359375 L 4.53125 0 L 3.859375 0 L 3.859375 -2.578125 C 3.859375 -2.660156 3.859375 -2.769531 3.859375 -2.90625 C 3.867188 -3.050781 3.875 -3.191406 3.875 -3.328125 C 3.882812 -3.472656 3.894531 -3.578125 3.90625 -3.640625 L 1.578125 0 L 0.6875 0 L 0.6875 -4.359375 Z M 1.375 -4.359375 "/></g></g></g><g fill="#ffffff" fill-opacity="1"><g transform="translate(54.313312, 12.064528)"><g/></g></g><g fill="#ffffff" fill-opacity="1"><g transform="translate(5.269531, 22.916047)"><g><path d="M 0.46875 -2.625 C 0.46875 -3.570312 0.609375 -4.3125 0.890625 -4.84375 C 1.179688 -5.382812 1.644531 -5.722656 2.28125 -5.859375 C 2.632812 -5.929688 2.976562 -6 3.3125 -6.0625 C 3.65625 -6.125 3.972656 -6.179688 4.265625 -6.234375 L 4.390625 -5.59375 C 4.203125 -5.5625 3.988281 -5.523438 3.75 -5.484375 C 3.507812 -5.453125 3.269531 -5.414062 3.03125 -5.375 C 2.800781 -5.332031 2.601562 -5.296875 2.4375 -5.265625 C 2.082031 -5.179688 1.800781 -4.992188 1.59375 -4.703125 C 1.382812 -4.410156 1.269531 -3.960938 1.25 -3.359375 L 1.296875 -3.359375 C 1.367188 -3.460938 1.472656 -3.566406 1.609375 -3.671875 C 1.742188 -3.773438 1.90625 -3.863281 2.09375 -3.9375 C 2.28125 -4.019531 2.492188 -4.0625 2.734375 -4.0625 C 3.296875 -4.0625 3.71875 -3.878906 4 -3.515625 C 4.289062 -3.148438 4.4375 -2.675781 4.4375 -2.09375 C 4.4375 -1.613281 4.351562 -1.210938 4.1875 -0.890625 C 4.019531 -0.566406 3.785156 -0.320312 3.484375 -0.15625 C 3.179688 0 2.832031 0.078125 2.4375 0.078125 C 1.832031 0.078125 1.351562 -0.148438 1 -0.609375 C 0.644531 -1.066406 0.46875 -1.738281 0.46875 -2.625 Z M 2.5 -0.515625 C 2.851562 -0.515625 3.132812 -0.628906 3.34375 -0.859375 C 3.5625 -1.085938 3.671875 -1.476562 3.671875 -2.03125 C 3.671875 -2.46875 3.585938 -2.816406 3.421875 -3.078125 C 3.265625 -3.335938 2.992188 -3.46875 2.609375 -3.46875 C 2.367188 -3.46875 2.148438 -3.414062 1.953125 -3.3125 C 1.765625 -3.207031 1.601562 -3.085938 1.46875 -2.953125 C 1.332031 -2.816406 1.242188 -2.703125 1.203125 -2.609375 C 1.203125 -2.335938 1.21875 -2.078125 1.25 -1.828125 C 1.289062 -1.578125 1.359375 -1.351562 1.453125 -1.15625 C 1.546875 -0.957031 1.675781 -0.800781 1.84375 -0.6875 C 2.019531 -0.570312 2.238281 -0.515625 2.5 -0.515625 Z M 2.5 -0.515625 "/></g></g></g><g fill="#ffffff" fill-opacity="1"><g transform="translate(10.348076, 22.916047)"><g><path d="M 2.375 -4.4375 C 2.75 -4.4375 3.070312 -4.351562 3.34375 -4.1875 C 3.613281 -4.03125 3.816406 -3.800781 3.953125 -3.5 C 4.097656 -3.207031 4.171875 -2.863281 4.171875 -2.46875 L 4.171875 -2.046875 L 1.1875 -2.046875 C 1.195312 -1.546875 1.320312 -1.164062 1.5625 -0.90625 C 1.800781 -0.65625 2.140625 -0.53125 2.578125 -0.53125 C 2.859375 -0.53125 3.101562 -0.554688 3.3125 -0.609375 C 3.53125 -0.660156 3.753906 -0.734375 3.984375 -0.828125 L 3.984375 -0.203125 C 3.753906 -0.109375 3.53125 -0.0390625 3.3125 0 C 3.101562 0.0507812 2.847656 0.078125 2.546875 0.078125 C 2.128906 0.078125 1.765625 -0.00390625 1.453125 -0.171875 C 1.140625 -0.335938 0.894531 -0.585938 0.71875 -0.921875 C 0.539062 -1.253906 0.453125 -1.664062 0.453125 -2.15625 C 0.453125 -2.625 0.53125 -3.03125 0.6875 -3.375 C 0.84375 -3.71875 1.066406 -3.976562 1.359375 -4.15625 C 1.648438 -4.34375 1.988281 -4.4375 2.375 -4.4375 Z M 2.375 -3.859375 C 2.03125 -3.859375 1.757812 -3.75 1.5625 -3.53125 C 1.363281 -3.3125 1.242188 -3.003906 1.203125 -2.609375 L 3.421875 -2.609375 C 3.421875 -2.984375 3.335938 -3.285156 3.171875 -3.515625 C 3.003906 -3.742188 2.738281 -3.859375 2.375 -3.859375 Z M 2.375 -3.859375 "/></g></g></g><g fill="#ffffff" fill-opacity="1"><g transform="translate(15.141769, 22.916047)"><g><path d="M 1.84375 -4.4375 C 2.34375 -4.4375 2.738281 -4.335938 3.03125 -4.140625 C 3.320312 -3.941406 3.46875 -3.660156 3.46875 -3.296875 C 3.46875 -3.023438 3.394531 -2.8125 3.25 -2.65625 C 3.101562 -2.507812 2.90625 -2.398438 2.65625 -2.328125 L 2.65625 -2.296875 C 2.832031 -2.242188 2.992188 -2.175781 3.140625 -2.09375 C 3.285156 -2.007812 3.398438 -1.894531 3.484375 -1.75 C 3.578125 -1.601562 3.625 -1.421875 3.625 -1.203125 C 3.625 -0.835938 3.472656 -0.53125 3.171875 -0.28125 C 2.867188 -0.0390625 2.398438 0.078125 1.765625 0.078125 C 1.441406 0.078125 1.148438 0.0507812 0.890625 0 C 0.640625 -0.0390625 0.429688 -0.109375 0.265625 -0.203125 L 0.265625 -0.84375 C 0.453125 -0.757812 0.671875 -0.679688 0.921875 -0.609375 C 1.171875 -0.535156 1.445312 -0.5 1.75 -0.5 C 2.070312 -0.5 2.347656 -0.554688 2.578125 -0.671875 C 2.804688 -0.785156 2.921875 -0.976562 2.921875 -1.25 C 2.921875 -1.738281 2.503906 -1.984375 1.671875 -1.984375 L 1.078125 -1.984375 L 1.078125 -2.5625 L 1.5625 -2.5625 C 1.925781 -2.5625 2.222656 -2.609375 2.453125 -2.703125 C 2.679688 -2.804688 2.796875 -2.984375 2.796875 -3.234375 C 2.796875 -3.441406 2.707031 -3.59375 2.53125 -3.6875 C 2.363281 -3.789062 2.117188 -3.84375 1.796875 -3.84375 C 1.554688 -3.84375 1.34375 -3.820312 1.15625 -3.78125 C 0.976562 -3.738281 0.78125 -3.671875 0.5625 -3.578125 L 0.3125 -4.140625 C 0.769531 -4.335938 1.28125 -4.4375 1.84375 -4.4375 Z M 1.84375 -4.4375 "/></g></g></g><g fill="#ffffff" fill-opacity="1"><g transform="translate(19.333193, 22.916047)"><g><path d="M 4.484375 -2.1875 C 4.484375 -1.46875 4.300781 -0.910156 3.9375 -0.515625 C 3.570312 -0.117188 3.078125 0.078125 2.453125 0.078125 C 2.066406 0.078125 1.722656 -0.0078125 1.421875 -0.1875 C 1.117188 -0.363281 0.878906 -0.617188 0.703125 -0.953125 C 0.535156 -1.296875 0.453125 -1.707031 0.453125 -2.1875 C 0.453125 -2.90625 0.628906 -3.457031 0.984375 -3.84375 C 1.347656 -4.238281 1.84375 -4.4375 2.46875 -4.4375 C 2.863281 -4.4375 3.210938 -4.347656 3.515625 -4.171875 C 3.816406 -4.003906 4.050781 -3.753906 4.21875 -3.421875 C 4.394531 -3.085938 4.484375 -2.675781 4.484375 -2.1875 Z M 1.1875 -2.1875 C 1.1875 -1.675781 1.285156 -1.269531 1.484375 -0.96875 C 1.691406 -0.664062 2.019531 -0.515625 2.46875 -0.515625 C 2.90625 -0.515625 3.226562 -0.664062 3.4375 -0.96875 C 3.644531 -1.269531 3.75 -1.675781 3.75 -2.1875 C 3.75 -2.707031 3.644531 -3.113281 3.4375 -3.40625 C 3.226562 -3.695312 2.898438 -3.84375 2.453125 -3.84375 C 2.015625 -3.84375 1.691406 -3.695312 1.484375 -3.40625 C 1.285156 -3.113281 1.1875 -2.707031 1.1875 -2.1875 Z M 1.1875 -2.1875 "/></g></g></g><g fill="#ffffff" fill-opacity="1"><g transform="translate(24.460573, 22.916047)"><g><path d="M 4.375 -4.359375 L 4.375 0 L 3.65625 0 L 3.65625 -3.75 L 1.40625 -3.75 L 1.40625 0 L 0.6875 0 L 0.6875 -4.359375 Z M 4.375 -4.359375 "/></g></g></g><g fill="#ffffff" fill-opacity="1"><g transform="translate(29.742585, 22.916047)"><g><path d="M 2.34375 -4.4375 C 2.875 -4.4375 3.265625 -4.316406 3.515625 -4.078125 C 3.773438 -3.847656 3.90625 -3.476562 3.90625 -2.96875 L 3.90625 0 L 3.390625 0 L 3.25 -0.625 L 3.21875 -0.625 C 3.03125 -0.382812 2.828125 -0.207031 2.609375 -0.09375 C 2.398438 0.0195312 2.113281 0.078125 1.75 0.078125 C 1.351562 0.078125 1.023438 -0.0234375 0.765625 -0.234375 C 0.503906 -0.441406 0.375 -0.769531 0.375 -1.21875 C 0.375 -1.644531 0.546875 -1.976562 0.890625 -2.21875 C 1.234375 -2.457031 1.757812 -2.585938 2.46875 -2.609375 L 3.203125 -2.625 L 3.203125 -2.890625 C 3.203125 -3.253906 3.125 -3.503906 2.96875 -3.640625 C 2.8125 -3.785156 2.585938 -3.859375 2.296875 -3.859375 C 2.078125 -3.859375 1.863281 -3.820312 1.65625 -3.75 C 1.445312 -3.6875 1.253906 -3.613281 1.078125 -3.53125 L 0.859375 -4.0625 C 1.046875 -4.164062 1.269531 -4.253906 1.53125 -4.328125 C 1.789062 -4.398438 2.0625 -4.4375 2.34375 -4.4375 Z M 3.203125 -2.140625 L 2.5625 -2.109375 C 2.007812 -2.085938 1.628906 -2 1.421875 -1.84375 C 1.210938 -1.695312 1.109375 -1.484375 1.109375 -1.203125 C 1.109375 -0.960938 1.179688 -0.785156 1.328125 -0.671875 C 1.484375 -0.554688 1.675781 -0.5 1.90625 -0.5 C 2.269531 -0.5 2.578125 -0.597656 2.828125 -0.796875 C 3.078125 -1.003906 3.203125 -1.316406 3.203125 -1.734375 Z M 3.203125 -2.140625 "/></g></g></g><g fill="#ffffff" fill-opacity="1"><g transform="translate(34.511855, 22.916047)"><g><path d="M 2.4375 0.078125 C 2.050781 0.078125 1.707031 0 1.40625 -0.15625 C 1.101562 -0.3125 0.867188 -0.554688 0.703125 -0.890625 C 0.535156 -1.222656 0.453125 -1.644531 0.453125 -2.15625 C 0.453125 -2.695312 0.539062 -3.132812 0.71875 -3.46875 C 0.894531 -3.800781 1.132812 -4.046875 1.4375 -4.203125 C 1.75 -4.359375 2.097656 -4.4375 2.484375 -4.4375 C 2.703125 -4.4375 2.914062 -4.414062 3.125 -4.375 C 3.332031 -4.332031 3.503906 -4.273438 3.640625 -4.203125 L 3.421875 -3.609375 C 3.285156 -3.660156 3.128906 -3.707031 2.953125 -3.75 C 2.785156 -3.789062 2.625 -3.8125 2.46875 -3.8125 C 1.613281 -3.8125 1.1875 -3.265625 1.1875 -2.171875 C 1.1875 -1.640625 1.289062 -1.234375 1.5 -0.953125 C 1.707031 -0.671875 2.019531 -0.53125 2.4375 -0.53125 C 2.664062 -0.53125 2.875 -0.554688 3.0625 -0.609375 C 3.25 -0.660156 3.414062 -0.722656 3.5625 -0.796875 L 3.5625 -0.15625 C 3.414062 -0.0820312 3.253906 -0.0234375 3.078125 0.015625 C 2.898438 0.0546875 2.6875 0.078125 2.4375 0.078125 Z M 2.4375 0.078125 "/></g></g></g><g fill="#ffffff" fill-opacity="1"><g transform="translate(38.621895, 22.916047)"><g><path d="M 1.40625 -4.359375 L 1.40625 -2.546875 L 3.78125 -2.546875 L 3.78125 -4.359375 L 4.5 -4.359375 L 4.5 0 L 3.78125 0 L 3.78125 -1.953125 L 1.40625 -1.953125 L 1.40625 0 L 0.6875 0 L 0.6875 -4.359375 Z M 1.40625 -4.359375 "/></g></g></g><g fill="#ffffff" fill-opacity="1"><g transform="translate(44.009713, 22.916047)"><g><path d="M 4.484375 -2.1875 C 4.484375 -1.46875 4.300781 -0.910156 3.9375 -0.515625 C 3.570312 -0.117188 3.078125 0.078125 2.453125 0.078125 C 2.066406 0.078125 1.722656 -0.0078125 1.421875 -0.1875 C 1.117188 -0.363281 0.878906 -0.617188 0.703125 -0.953125 C 0.535156 -1.296875 0.453125 -1.707031 0.453125 -2.1875 C 0.453125 -2.90625 0.628906 -3.457031 0.984375 -3.84375 C 1.347656 -4.238281 1.84375 -4.4375 2.46875 -4.4375 C 2.863281 -4.4375 3.210938 -4.347656 3.515625 -4.171875 C 3.816406 -4.003906 4.050781 -3.753906 4.21875 -3.421875 C 4.394531 -3.085938 4.484375 -2.675781 4.484375 -2.1875 Z M 1.1875 -2.1875 C 1.1875 -1.675781 1.285156 -1.269531 1.484375 -0.96875 C 1.691406 -0.664062 2.019531 -0.515625 2.46875 -0.515625 C 2.90625 -0.515625 3.226562 -0.664062 3.4375 -0.96875 C 3.644531 -1.269531 3.75 -1.675781 3.75 -2.1875 C 3.75 -2.707031 3.644531 -3.113281 3.4375 -3.40625 C 3.226562 -3.695312 2.898438 -3.84375 2.453125 -3.84375 C 2.015625 -3.84375 1.691406 -3.695312 1.484375 -3.40625 C 1.285156 -3.113281 1.1875 -2.707031 1.1875 -2.1875 Z M 1.1875 -2.1875 "/></g></g></g><g fill="#ffffff" fill-opacity="1"><g transform="translate(49.137093, 22.916047)"><g><path d="M 2.4375 0.078125 C 2.050781 0.078125 1.707031 0 1.40625 -0.15625 C 1.101562 -0.3125 0.867188 -0.554688 0.703125 -0.890625 C 0.535156 -1.222656 0.453125 -1.644531 0.453125 -2.15625 C 0.453125 -2.695312 0.539062 -3.132812 0.71875 -3.46875 C 0.894531 -3.800781 1.132812 -4.046875 1.4375 -4.203125 C 1.75 -4.359375 2.097656 -4.4375 2.484375 -4.4375 C 2.703125 -4.4375 2.914062 -4.414062 3.125 -4.375 C 3.332031 -4.332031 3.503906 -4.273438 3.640625 -4.203125 L 3.421875 -3.609375 C 3.285156 -3.660156 3.128906 -3.707031 2.953125 -3.75 C 2.785156 -3.789062 2.625 -3.8125 2.46875 -3.8125 C 1.613281 -3.8125 1.1875 -3.265625 1.1875 -2.171875 C 1.1875 -1.640625 1.289062 -1.234375 1.5 -0.953125 C 1.707031 -0.671875 2.019531 -0.53125 2.4375 -0.53125 C 2.664062 -0.53125 2.875 -0.554688 3.0625 -0.609375 C 3.25 -0.660156 3.414062 -0.722656 3.5625 -0.796875 L 3.5625 -0.15625 C 3.414062 -0.0820312 3.253906 -0.0234375 3.078125 0.015625 C 2.898438 0.0546875 2.6875 0.078125 2.4375 0.078125 Z M 2.4375 0.078125 "/></g></g></g><g fill="#ffffff" fill-opacity="1"><g transform="translate(53.247135, 22.916047)"><g><path d="M 3.703125 -3.765625 L 2.28125 -3.765625 L 2.28125 0 L 1.578125 0 L 1.578125 -3.765625 L 0.15625 -3.765625 L 0.15625 -4.359375 L 3.703125 -4.359375 Z M 3.703125 -3.765625 "/></g></g></g><g fill="#ffffff" fill-opacity="1"><g transform="translate(57.32462, 22.916047)"><g><path d="M 1.40625 -2.578125 L 2.703125 -2.578125 C 3.835938 -2.578125 4.40625 -2.160156 4.40625 -1.328125 C 4.40625 -0.921875 4.265625 -0.597656 3.984375 -0.359375 C 3.710938 -0.117188 3.273438 0 2.671875 0 L 0.6875 0 L 0.6875 -4.359375 L 1.40625 -4.359375 Z M 3.6875 -1.296875 C 3.6875 -1.554688 3.59375 -1.734375 3.40625 -1.828125 C 3.21875 -1.929688 2.957031 -1.984375 2.625 -1.984375 L 1.40625 -1.984375 L 1.40625 -0.578125 L 2.640625 -0.578125 C 2.941406 -0.578125 3.191406 -0.628906 3.390625 -0.734375 C 3.585938 -0.847656 3.6875 -1.035156 3.6875 -1.296875 Z M 3.6875 -1.296875 "/></g></g></g></svg>