<svg xmlns="http://www.w3.org/2000/svg" xmlns:xlink="http://www.w3.org/1999/xlink" width="95" zoomAndPan="magnify" viewBox="0 0 71.25 71.25" height="95" preserveAspectRatio="xMidYMid meet" version="1.0"><defs><g/><clipPath id="e4b1cb6617"><path d="M 0 0 L 70.507812 0 L 70.507812 70.507812 L 0 70.507812 Z M 0 0 " clip-rule="nonzero"/></clipPath><clipPath id="2ce500c06a"><path d="M 13.359375 0 L 57.148438 0 C 60.691406 0 64.089844 1.40625 66.59375 3.914062 C 69.101562 6.417969 70.507812 9.816406 70.507812 13.359375 L 70.507812 57.148438 C 70.507812 60.691406 69.101562 64.089844 66.59375 66.59375 C 64.089844 69.101562 60.691406 70.507812 57.148438 70.507812 L 13.359375 70.507812 C 9.816406 70.507812 6.417969 69.101562 3.914062 66.59375 C 1.40625 64.089844 0 60.691406 0 57.148438 L 0 13.359375 C 0 9.816406 1.40625 6.417969 3.914062 3.914062 C 6.417969 1.40625 9.816406 0 13.359375 0 Z M 13.359375 0 " clip-rule="nonzero"/></clipPath><clipPath id="6a442e3cc4"><path d="M 48 39 L 63.679688 39 L 63.679688 63 L 48 63 Z M 48 39 " clip-rule="nonzero"/></clipPath></defs><g clip-path="url(#e4b1cb6617)"><g clip-path="url(#2ce500c06a)"><path fill="#6dd3ff" d="M 0 0 L 70.507812 0 L 70.507812 70.507812 L 0 70.507812 Z M 0 0 " fill-opacity="1" fill-rule="nonzero"/></g></g><g fill="#ffffff" fill-opacity="1"><g transform="translate(7.161908, 15.051919)"><g><path d="M 0.046875 1.765625 L 0.046875 -0.75 L 0.6875 -0.75 C 0.945312 -1.394531 1.132812 -2.078125 1.25 -2.796875 C 1.375 -3.515625 1.4375 -4.28125 1.4375 -5.09375 L 1.4375 -6.359375 L 5.125 -6.359375 L 5.125 -0.75 L 5.875 -0.75 L 5.875 1.765625 L 5.0625 1.765625 L 5.0625 0 L 0.859375 0 L 0.859375 1.765625 Z M 4.28125 -5.609375 L 2.28125 -5.609375 L 2.28125 -5.0625 C 2.28125 -4.238281 2.222656 -3.472656 2.109375 -2.765625 C 1.992188 -2.066406 1.816406 -1.394531 1.578125 -0.75 L 4.28125 -0.75 Z M 4.28125 -5.609375 "/></g></g></g><g fill="#ffffff" fill-opacity="1"><g transform="translate(13.409323, 15.051919)"><g><path d="M 0.3125 -2.296875 C 0.3125 -2.796875 0.398438 -3.226562 0.578125 -3.59375 C 0.753906 -3.957031 1.003906 -4.234375 1.328125 -4.421875 C 1.660156 -4.609375 2.039062 -4.703125 2.46875 -4.703125 C 2.894531 -4.703125 3.269531 -4.609375 3.59375 -4.421875 C 3.925781 -4.242188 4.179688 -3.972656 4.359375 -3.609375 C 4.535156 -3.253906 4.625 -2.820312 4.625 -2.3125 C 4.625 -1.800781 4.53125 -1.363281 4.34375 -1 C 4.164062 -0.632812 3.914062 -0.359375 3.59375 -0.171875 C 3.269531 0.015625 2.894531 0.109375 2.46875 0.109375 C 2.050781 0.109375 1.675781 0.0195312 1.34375 -0.15625 C 1.019531 -0.34375 0.765625 -0.617188 0.578125 -0.984375 C 0.398438 -1.347656 0.3125 -1.785156 0.3125 -2.296875 Z M 2.46875 -4.0625 C 2.207031 -4.0625 1.972656 -3.992188 1.765625 -3.859375 C 1.566406 -3.722656 1.40625 -3.523438 1.28125 -3.265625 C 1.164062 -3.003906 1.109375 -2.679688 1.109375 -2.296875 C 1.109375 -1.921875 1.164062 -1.597656 1.28125 -1.328125 C 1.394531 -1.066406 1.554688 -0.867188 1.765625 -0.734375 C 1.972656 -0.597656 2.207031 -0.53125 2.46875 -0.53125 C 2.738281 -0.53125 2.976562 -0.597656 3.1875 -0.734375 C 3.394531 -0.878906 3.550781 -1.082031 3.65625 -1.34375 C 3.769531 -1.613281 3.828125 -1.9375 3.828125 -2.3125 C 3.828125 -2.6875 3.769531 -3.003906 3.65625 -3.265625 C 3.539062 -3.523438 3.378906 -3.722656 3.171875 -3.859375 C 2.972656 -3.992188 2.738281 -4.0625 2.46875 -4.0625 Z M 2.46875 -4.0625 "/></g></g></g><g fill="#ffffff" fill-opacity="1"><g transform="translate(18.575855, 15.051919)"><g><path d="M 2.53125 -4.0625 C 2.070312 -4.0625 1.71875 -3.90625 1.46875 -3.59375 C 1.226562 -3.289062 1.109375 -2.863281 1.109375 -2.3125 C 1.109375 -1.957031 1.160156 -1.644531 1.265625 -1.375 C 1.378906 -1.113281 1.539062 -0.90625 1.75 -0.75 C 1.957031 -0.601562 2.203125 -0.53125 2.484375 -0.53125 C 2.816406 -0.53125 3.085938 -0.632812 3.296875 -0.84375 C 3.515625 -1.050781 3.648438 -1.332031 3.703125 -1.6875 L 4.484375 -1.578125 C 4.429688 -1.234375 4.3125 -0.929688 4.125 -0.671875 C 3.9375 -0.421875 3.695312 -0.226562 3.40625 -0.09375 C 3.113281 0.0390625 2.796875 0.109375 2.453125 0.109375 C 2.023438 0.109375 1.648438 0.0078125 1.328125 -0.1875 C 1.003906 -0.382812 0.753906 -0.660156 0.578125 -1.015625 C 0.398438 -1.378906 0.3125 -1.804688 0.3125 -2.296875 C 0.3125 -2.804688 0.398438 -3.242188 0.578125 -3.609375 C 0.753906 -3.972656 1.003906 -4.242188 1.328125 -4.421875 C 1.660156 -4.609375 2.050781 -4.703125 2.5 -4.703125 C 2.820312 -4.703125 3.117188 -4.644531 3.390625 -4.53125 C 3.660156 -4.414062 3.878906 -4.25 4.046875 -4.03125 C 4.222656 -3.820312 4.34375 -3.5625 4.40625 -3.25 L 3.640625 -3.140625 C 3.566406 -3.429688 3.429688 -3.65625 3.234375 -3.8125 C 3.046875 -3.976562 2.8125 -4.0625 2.53125 -4.0625 Z M 2.53125 -4.0625 "/></g></g></g><g fill="#ffffff" fill-opacity="1"><g transform="translate(23.455889, 15.051919)"><g><path d="M 3.390625 -3.96875 L 2.15625 -3.96875 L 2.15625 0 L 1.375 0 L 1.375 -3.96875 L 0.15625 -3.96875 L 0.15625 -4.609375 L 3.390625 -4.609375 Z M 3.390625 -3.96875 "/></g></g></g><g fill="#ffffff" fill-opacity="1"><g transform="translate(27.220312, 15.051919)"><g><path d="M 4.3125 0 L 3.5 0 C 3.445312 -0.09375 3.410156 -0.171875 3.390625 -0.234375 C 3.378906 -0.296875 3.359375 -0.40625 3.328125 -0.5625 C 3.109375 -0.332031 2.875 -0.160156 2.625 -0.046875 C 2.375 0.0546875 2.085938 0.109375 1.765625 0.109375 C 1.484375 0.109375 1.226562 0.0546875 1 -0.046875 C 0.78125 -0.160156 0.609375 -0.316406 0.484375 -0.515625 C 0.367188 -0.722656 0.3125 -0.957031 0.3125 -1.21875 C 0.3125 -1.613281 0.4375 -1.925781 0.6875 -2.15625 C 0.945312 -2.394531 1.375 -2.5625 1.96875 -2.65625 C 2.582031 -2.75 3.019531 -2.835938 3.28125 -2.921875 L 3.28125 -3.03125 C 3.28125 -3.289062 3.242188 -3.492188 3.171875 -3.640625 C 3.109375 -3.796875 3.003906 -3.90625 2.859375 -3.96875 C 2.710938 -4.039062 2.515625 -4.078125 2.265625 -4.078125 C 1.953125 -4.078125 1.707031 -4.003906 1.53125 -3.859375 C 1.351562 -3.710938 1.234375 -3.488281 1.171875 -3.1875 L 0.40625 -3.3125 C 0.5 -3.769531 0.707031 -4.113281 1.03125 -4.34375 C 1.351562 -4.582031 1.78125 -4.703125 2.3125 -4.703125 C 2.71875 -4.703125 3.046875 -4.648438 3.296875 -4.546875 C 3.554688 -4.453125 3.75 -4.285156 3.875 -4.046875 C 4 -3.816406 4.0625 -3.503906 4.0625 -3.109375 L 4.0625 -1.453125 C 4.0625 -1.171875 4.066406 -0.953125 4.078125 -0.796875 C 4.097656 -0.640625 4.125 -0.503906 4.15625 -0.390625 C 4.1875 -0.273438 4.238281 -0.144531 4.3125 0 Z M 2 -2 C 1.695312 -1.945312 1.472656 -1.851562 1.328125 -1.71875 C 1.179688 -1.59375 1.109375 -1.425781 1.109375 -1.21875 C 1.109375 -1 1.179688 -0.828125 1.328125 -0.703125 C 1.472656 -0.578125 1.675781 -0.515625 1.9375 -0.515625 C 2.164062 -0.515625 2.40625 -0.582031 2.65625 -0.71875 C 2.820312 -0.820312 2.945312 -0.929688 3.03125 -1.046875 C 3.125 -1.171875 3.1875 -1.316406 3.21875 -1.484375 C 3.257812 -1.648438 3.28125 -1.867188 3.28125 -2.140625 L 3.28125 -2.296875 C 3.207031 -2.265625 3.046875 -2.21875 2.796875 -2.15625 C 2.554688 -2.101562 2.289062 -2.050781 2 -2 Z M 2 -2 "/></g></g></g><g fill="#ffffff" fill-opacity="1"><g transform="translate(32.091663, 15.051919)"><g><path d="M 3.921875 -3.359375 C 3.921875 -3.160156 3.863281 -2.976562 3.75 -2.8125 C 3.644531 -2.644531 3.492188 -2.507812 3.296875 -2.40625 C 3.585938 -2.300781 3.800781 -2.15625 3.9375 -1.96875 C 4.070312 -1.78125 4.140625 -1.554688 4.140625 -1.296875 C 4.140625 -0.898438 3.992188 -0.582031 3.703125 -0.34375 C 3.421875 -0.113281 2.984375 0 2.390625 0 L 0.609375 0 L 0.609375 -4.609375 L 2.28125 -4.609375 C 2.863281 -4.609375 3.28125 -4.5 3.53125 -4.28125 C 3.789062 -4.070312 3.921875 -3.765625 3.921875 -3.359375 Z M 1.390625 -0.625 L 2.40625 -0.625 C 3.03125 -0.625 3.34375 -0.863281 3.34375 -1.34375 C 3.34375 -1.582031 3.265625 -1.757812 3.109375 -1.875 C 2.960938 -2 2.722656 -2.0625 2.390625 -2.0625 L 1.390625 -2.0625 Z M 3.140625 -3.328125 C 3.140625 -3.535156 3.066406 -3.695312 2.921875 -3.8125 C 2.785156 -3.925781 2.570312 -3.984375 2.28125 -3.984375 L 1.390625 -3.984375 L 1.390625 -2.65625 L 2.3125 -2.65625 C 2.601562 -2.65625 2.8125 -2.710938 2.9375 -2.828125 C 3.070312 -2.941406 3.140625 -3.109375 3.140625 -3.328125 Z M 3.140625 -3.328125 "/></g></g></g><g fill="#ffffff" fill-opacity="1"><g transform="translate(36.871855, 15.051919)"><g><path d="M 1.390625 -4.609375 L 1.390625 -2.6875 C 1.554688 -2.6875 1.6875 -2.707031 1.78125 -2.75 C 1.875 -2.800781 1.945312 -2.867188 2 -2.953125 C 2.0625 -3.035156 2.132812 -3.171875 2.21875 -3.359375 L 2.46875 -3.890625 C 2.550781 -4.078125 2.632812 -4.21875 2.71875 -4.3125 C 2.800781 -4.414062 2.898438 -4.488281 3.015625 -4.53125 C 3.140625 -4.582031 3.300781 -4.609375 3.5 -4.609375 L 3.84375 -4.609375 L 3.84375 -3.96875 L 3.625 -3.96875 C 3.53125 -3.96875 3.453125 -3.957031 3.390625 -3.9375 C 3.335938 -3.925781 3.285156 -3.894531 3.234375 -3.84375 C 3.191406 -3.789062 3.148438 -3.707031 3.109375 -3.59375 L 2.875 -3.0625 C 2.789062 -2.875 2.703125 -2.726562 2.609375 -2.625 C 2.523438 -2.53125 2.398438 -2.445312 2.234375 -2.375 C 2.421875 -2.332031 2.570312 -2.257812 2.6875 -2.15625 C 2.8125 -2.050781 2.929688 -1.90625 3.046875 -1.71875 L 4.046875 0 L 3.15625 0 L 2.34375 -1.46875 C 2.25 -1.632812 2.15625 -1.757812 2.0625 -1.84375 C 1.976562 -1.925781 1.882812 -1.984375 1.78125 -2.015625 C 1.675781 -2.054688 1.546875 -2.078125 1.390625 -2.078125 L 1.390625 0 L 0.609375 0 L 0.609375 -4.609375 Z M 1.390625 -4.609375 "/></g></g></g><g fill="#ffffff" fill-opacity="1"><g transform="translate(41.209276, 15.051919)"><g><path d="M 4.3125 0 L 3.5 0 C 3.445312 -0.09375 3.410156 -0.171875 3.390625 -0.234375 C 3.378906 -0.296875 3.359375 -0.40625 3.328125 -0.5625 C 3.109375 -0.332031 2.875 -0.160156 2.625 -0.046875 C 2.375 0.0546875 2.085938 0.109375 1.765625 0.109375 C 1.484375 0.109375 1.226562 0.0546875 1 -0.046875 C 0.78125 -0.160156 0.609375 -0.316406 0.484375 -0.515625 C 0.367188 -0.722656 0.3125 -0.957031 0.3125 -1.21875 C 0.3125 -1.613281 0.4375 -1.925781 0.6875 -2.15625 C 0.945312 -2.394531 1.375 -2.5625 1.96875 -2.65625 C 2.582031 -2.75 3.019531 -2.835938 3.28125 -2.921875 L 3.28125 -3.03125 C 3.28125 -3.289062 3.242188 -3.492188 3.171875 -3.640625 C 3.109375 -3.796875 3.003906 -3.90625 2.859375 -3.96875 C 2.710938 -4.039062 2.515625 -4.078125 2.265625 -4.078125 C 1.953125 -4.078125 1.707031 -4.003906 1.53125 -3.859375 C 1.351562 -3.710938 1.234375 -3.488281 1.171875 -3.1875 L 0.40625 -3.3125 C 0.5 -3.769531 0.707031 -4.113281 1.03125 -4.34375 C 1.351562 -4.582031 1.78125 -4.703125 2.3125 -4.703125 C 2.71875 -4.703125 3.046875 -4.648438 3.296875 -4.546875 C 3.554688 -4.453125 3.75 -4.285156 3.875 -4.046875 C 4 -3.816406 4.0625 -3.503906 4.0625 -3.109375 L 4.0625 -1.453125 C 4.0625 -1.171875 4.066406 -0.953125 4.078125 -0.796875 C 4.097656 -0.640625 4.125 -0.503906 4.15625 -0.390625 C 4.1875 -0.273438 4.238281 -0.144531 4.3125 0 Z M 2 -2 C 1.695312 -1.945312 1.472656 -1.851562 1.328125 -1.71875 C 1.179688 -1.59375 1.109375 -1.425781 1.109375 -1.21875 C 1.109375 -1 1.179688 -0.828125 1.328125 -0.703125 C 1.472656 -0.578125 1.675781 -0.515625 1.9375 -0.515625 C 2.164062 -0.515625 2.40625 -0.582031 2.65625 -0.71875 C 2.820312 -0.820312 2.945312 -0.929688 3.03125 -1.046875 C 3.125 -1.171875 3.1875 -1.316406 3.21875 -1.484375 C 3.257812 -1.648438 3.28125 -1.867188 3.28125 -2.140625 L 3.28125 -2.296875 C 3.207031 -2.265625 3.046875 -2.21875 2.796875 -2.15625 C 2.554688 -2.101562 2.289062 -2.050781 2 -2 Z M 2 -2 "/></g></g></g><path fill="#f6d878" d="M 62.410156 40.816406 L 62.410156 55.378906 C 62.410156 55.625 62.34375 55.851562 62.210938 56.054688 C 62.078125 56.261719 61.898438 56.414062 61.675781 56.511719 L 49.214844 62.1875 C 49.058594 62.261719 48.890625 62.300781 48.71875 62.300781 L 48.71875 46.226562 L 62.1875 40.105469 C 62.332031 40.320312 62.410156 40.558594 62.410156 40.816406 Z M 62.410156 40.816406 " fill-opacity="1" fill-rule="nonzero"/><path fill="#f6d878" d="M 62.1875 40.105469 L 48.71875 46.226562 L 34.003906 40.105469 C 34.136719 39.90625 34.3125 39.761719 34.527344 39.667969 L 47.597656 33.992188 C 47.929688 33.851562 48.261719 33.851562 48.59375 33.992188 L 61.664062 39.667969 C 61.878906 39.765625 62.050781 39.910156 62.1875 40.105469 Z M 62.1875 40.105469 " fill-opacity="1" fill-rule="nonzero"/><path fill="#f6d878" d="M 48.71875 46.226562 L 48.71875 62.296875 C 48.542969 62.300781 48.378906 62.269531 48.21875 62.199219 L 34.539062 56.496094 C 34.308594 56.402344 34.125 56.25 33.988281 56.039062 C 33.847656 55.832031 33.78125 55.601562 33.78125 55.351562 L 33.78125 40.8125 C 33.777344 40.550781 33.851562 40.316406 34.003906 40.105469 Z M 48.71875 46.226562 " fill-opacity="1" fill-rule="nonzero"/><path stroke-linecap="round" transform="matrix(0.649414, 0, 0, 0.649414, 33.158983, 33.158985)" fill="none" stroke-linejoin="round" d="M 13.770228 4.970225 L 35.045417 15.087519 " stroke="#00303e" stroke-width="2" stroke-opacity="1" stroke-miterlimit="4"/><path fill="#ffffff" d="M 44.984375 49.277344 C 44.984375 49.007812 44.859375 48.816406 44.609375 48.707031 L 38.386719 45.980469 C 38.289062 45.9375 38.191406 45.921875 38.085938 45.929688 C 37.980469 45.9375 37.882812 45.972656 37.796875 46.03125 C 37.707031 46.085938 37.640625 46.160156 37.589844 46.253906 C 37.539062 46.347656 37.515625 46.445312 37.515625 46.550781 L 37.515625 51.414062 C 37.515625 51.6875 37.640625 51.875 37.890625 51.984375 L 44.113281 54.707031 C 44.207031 54.75 44.308594 54.765625 44.414062 54.757812 C 44.519531 54.75 44.613281 54.714844 44.703125 54.660156 C 44.789062 54.601562 44.859375 54.527344 44.910156 54.433594 C 44.957031 54.34375 44.984375 54.242188 44.984375 54.136719 Z M 44.984375 49.277344 " fill-opacity="1" fill-rule="nonzero"/><g clip-path="url(#6a442e3cc4)"><path stroke-linecap="round" transform="matrix(0.649414, 0, 0, 0.649414, 33.158983, 33.158985)" fill="none" stroke-linejoin="round" d="M 45.04241 11.791278 L 45.04241 34.215339 C 45.04241 34.594286 44.940154 34.943159 44.735643 35.255941 C 44.531132 35.574738 44.25444 35.809324 43.911583 35.9597 L 24.723612 44.69955 C 24.483011 44.813836 24.224364 44.873986 23.959702 44.873986 L 23.959702 20.122105 L 44.699553 10.696541 C 44.922109 11.027368 45.04241 11.394285 45.04241 11.791278 Z M 45.04241 11.791278 " stroke="#00303e" stroke-width="2" stroke-opacity="1" stroke-miterlimit="4"/></g><path stroke-linecap="round" transform="matrix(0.649414, 0, 0, 0.649414, 33.158983, 33.158985)" fill="none" stroke-linejoin="round" d="M 44.699553 10.696541 L 23.959702 20.122105 L 1.301055 10.696541 C 1.505566 10.389774 1.776243 10.167218 2.10707 10.022857 L 22.233387 1.283007 C 22.744665 1.066465 23.255943 1.066465 23.767221 1.283007 L 43.893538 10.022857 C 44.224365 10.173233 44.489027 10.395789 44.699553 10.696541 Z M 44.699553 10.696541 " stroke="#00303e" stroke-width="2" stroke-opacity="1" stroke-miterlimit="4"/><path stroke-linecap="round" transform="matrix(0.649414, 0, 0, 0.649414, 33.158983, 33.158985)" fill="none" stroke-linejoin="round" d="M 23.959702 20.122105 L 23.959702 44.867971 C 23.689026 44.873986 23.436394 44.825866 23.189778 44.717595 L 2.125115 35.93564 C 1.770228 35.791279 1.487521 35.556692 1.276995 35.23188 C 1.060453 34.913083 0.958198 34.558196 0.958198 34.173234 L 0.958198 11.785263 C 0.952183 11.382255 1.066468 11.021353 1.301055 10.696541 Z M 23.959702 20.122105 " stroke="#00303e" stroke-width="2" stroke-opacity="1" stroke-miterlimit="4"/><path stroke-linecap="round" transform="matrix(0.649414, 0, 0, 0.649414, 33.158983, 33.158985)" fill="none" stroke-linejoin="round" d="M 18.209326 24.81985 C 18.209326 24.404812 18.016845 24.110075 17.631883 23.941654 L 8.049927 19.743158 C 7.899551 19.676992 7.749175 19.652932 7.586769 19.664962 C 7.424363 19.676992 7.273988 19.731128 7.141657 19.821353 C 7.003311 19.905564 6.901055 20.01985 6.82286 20.164211 C 6.744664 20.308571 6.708574 20.458947 6.708574 20.621353 L 6.708574 28.110076 C 6.708574 28.531128 6.901055 28.81985 7.286018 28.988271 L 16.867973 33.180752 C 17.012334 33.246918 17.168725 33.270978 17.331131 33.258948 C 17.493537 33.246918 17.637898 33.192783 17.776244 33.108572 C 17.908574 33.018346 18.016845 32.904061 18.095041 32.7597 C 18.167221 32.621354 18.209326 32.464963 18.209326 32.302557 Z M 18.209326 24.81985 " stroke="#00303e" stroke-width="2" stroke-opacity="1" stroke-miterlimit="4"/></svg>