<svg xmlns="http://www.w3.org/2000/svg" xmlns:xlink="http://www.w3.org/1999/xlink" width="95" zoomAndPan="magnify" viewBox="0 0 71.25 71.25" height="95" preserveAspectRatio="xMidYMid meet" version="1.0"><defs><g/><clipPath id="c355270c9d"><path d="M 0 0 L 70.507812 0 L 70.507812 70.507812 L 0 70.507812 Z M 0 0 " clip-rule="nonzero"/></clipPath><clipPath id="0054818b8d"><path d="M 13.359375 0 L 57.148438 0 C 60.691406 0 64.089844 1.40625 66.59375 3.914062 C 69.101562 6.417969 70.507812 9.816406 70.507812 13.359375 L 70.507812 57.148438 C 70.507812 60.691406 69.101562 64.089844 66.59375 66.59375 C 64.089844 69.101562 60.691406 70.507812 57.148438 70.507812 L 13.359375 70.507812 C 9.816406 70.507812 6.417969 69.101562 3.914062 66.59375 C 1.40625 64.089844 0 60.691406 0 57.148438 L 0 13.359375 C 0 9.816406 1.40625 6.417969 3.914062 3.914062 C 6.417969 1.40625 9.816406 0 13.359375 0 Z M 13.359375 0 " clip-rule="nonzero"/></clipPath><clipPath id="fa7cec20c8"><path d="M 45 32.21875 L 62 32.21875 L 62 56 L 45 56 Z M 45 32.21875 " clip-rule="nonzero"/></clipPath></defs><g clip-path="url(#c355270c9d)"><g clip-path="url(#0054818b8d)"><path fill="#545454" d="M 0 0 L 70.507812 0 L 70.507812 70.507812 L 0 70.507812 Z M 0 0 " fill-opacity="1" fill-rule="nonzero"/></g></g><g fill="#ffffff" fill-opacity="1"><g transform="translate(7.050781, 15.066408)"><g><path d="M 3.359375 -5.765625 C 2.910156 -5.765625 2.53125 -5.65625 2.21875 -5.4375 C 1.914062 -5.21875 1.679688 -4.914062 1.515625 -4.53125 C 1.359375 -4.15625 1.28125 -3.722656 1.28125 -3.234375 C 1.28125 -2.703125 1.359375 -2.238281 1.515625 -1.84375 C 1.679688 -1.445312 1.914062 -1.140625 2.21875 -0.921875 C 2.53125 -0.710938 2.898438 -0.609375 3.328125 -0.609375 C 3.828125 -0.609375 4.234375 -0.742188 4.546875 -1.015625 C 4.867188 -1.296875 5.09375 -1.695312 5.21875 -2.21875 L 6.046875 -2.015625 C 5.941406 -1.578125 5.765625 -1.195312 5.515625 -0.875 C 5.273438 -0.5625 4.96875 -0.316406 4.59375 -0.140625 C 4.226562 0.0234375 3.816406 0.109375 3.359375 0.109375 C 2.742188 0.109375 2.210938 -0.0195312 1.765625 -0.28125 C 1.328125 -0.550781 0.988281 -0.9375 0.75 -1.4375 C 0.519531 -1.9375 0.40625 -2.535156 0.40625 -3.234375 C 0.40625 -3.890625 0.53125 -4.460938 0.78125 -4.953125 C 1.03125 -5.453125 1.378906 -5.832031 1.828125 -6.09375 C 2.273438 -6.351562 2.785156 -6.484375 3.359375 -6.484375 C 4.023438 -6.484375 4.578125 -6.320312 5.015625 -6 C 5.453125 -5.6875 5.757812 -5.226562 5.9375 -4.625 L 5.109375 -4.421875 C 4.972656 -4.867188 4.757812 -5.203125 4.46875 -5.421875 C 4.175781 -5.648438 3.804688 -5.765625 3.359375 -5.765625 Z M 3.359375 -5.765625 "/></g></g><g transform="translate(13.426055, 15.066408)"><g><path d="M 4.3125 0 L 3.5 0 C 3.457031 -0.09375 3.425781 -0.171875 3.40625 -0.234375 C 3.382812 -0.296875 3.363281 -0.40625 3.34375 -0.5625 C 3.113281 -0.332031 2.875 -0.160156 2.625 -0.046875 C 2.375 0.0546875 2.09375 0.109375 1.78125 0.109375 C 1.488281 0.109375 1.226562 0.0546875 1 -0.046875 C 0.78125 -0.160156 0.609375 -0.316406 0.484375 -0.515625 C 0.367188 -0.722656 0.3125 -0.957031 0.3125 -1.21875 C 0.3125 -1.613281 0.441406 -1.925781 0.703125 -2.15625 C 0.960938 -2.394531 1.382812 -2.5625 1.96875 -2.65625 C 2.582031 -2.75 3.019531 -2.835938 3.28125 -2.921875 L 3.28125 -3.046875 C 3.28125 -3.304688 3.25 -3.507812 3.1875 -3.65625 C 3.125 -3.800781 3.015625 -3.90625 2.859375 -3.96875 C 2.710938 -4.039062 2.519531 -4.078125 2.28125 -4.078125 C 1.96875 -4.078125 1.71875 -4.003906 1.53125 -3.859375 C 1.351562 -3.722656 1.234375 -3.503906 1.171875 -3.203125 L 0.40625 -3.3125 C 0.5 -3.78125 0.707031 -4.128906 1.03125 -4.359375 C 1.351562 -4.597656 1.78125 -4.71875 2.3125 -4.71875 C 2.726562 -4.71875 3.0625 -4.664062 3.3125 -4.5625 C 3.570312 -4.457031 3.765625 -4.285156 3.890625 -4.046875 C 4.015625 -3.816406 4.078125 -3.507812 4.078125 -3.125 L 4.078125 -1.46875 C 4.078125 -1.175781 4.082031 -0.953125 4.09375 -0.796875 C 4.101562 -0.640625 4.125 -0.503906 4.15625 -0.390625 C 4.1875 -0.273438 4.238281 -0.144531 4.3125 0 Z M 2.015625 -2 C 1.703125 -1.945312 1.472656 -1.851562 1.328125 -1.71875 C 1.179688 -1.59375 1.109375 -1.425781 1.109375 -1.21875 C 1.109375 -1 1.179688 -0.828125 1.328125 -0.703125 C 1.472656 -0.578125 1.679688 -0.515625 1.953125 -0.515625 C 2.171875 -0.515625 2.40625 -0.582031 2.65625 -0.71875 C 2.820312 -0.820312 2.945312 -0.929688 3.03125 -1.046875 C 3.125 -1.171875 3.1875 -1.316406 3.21875 -1.484375 C 3.257812 -1.648438 3.28125 -1.867188 3.28125 -2.140625 L 3.28125 -2.3125 C 3.21875 -2.269531 3.0625 -2.21875 2.8125 -2.15625 C 2.570312 -2.101562 2.304688 -2.050781 2.015625 -2 Z M 2.015625 -2 "/></g></g><g transform="translate(18.083572, 15.066408)"><g><path d="M 2.9375 -1.15625 L 4.140625 -4.609375 L 5.28125 -4.609375 L 5.28125 0 L 4.515625 0 L 4.515625 -3.640625 L 3.28125 0 L 2.609375 0 L 1.359375 -3.640625 L 1.359375 0 L 0.609375 0 L 0.609375 -4.609375 L 1.75 -4.609375 Z M 2.9375 -1.15625 "/></g></g><g transform="translate(23.967437, 15.066408)"><g><path d="M 0.3125 -2.3125 C 0.3125 -2.8125 0.398438 -3.238281 0.578125 -3.59375 C 0.765625 -3.957031 1.019531 -4.234375 1.34375 -4.421875 C 1.664062 -4.617188 2.039062 -4.71875 2.46875 -4.71875 C 2.90625 -4.71875 3.285156 -4.625 3.609375 -4.4375 C 3.929688 -4.25 4.179688 -3.972656 4.359375 -3.609375 C 4.546875 -3.253906 4.640625 -2.820312 4.640625 -2.3125 C 4.640625 -1.800781 4.546875 -1.363281 4.359375 -1 C 4.179688 -0.644531 3.925781 -0.367188 3.59375 -0.171875 C 3.269531 0.015625 2.894531 0.109375 2.46875 0.109375 C 2.050781 0.109375 1.675781 0.0195312 1.34375 -0.15625 C 1.019531 -0.34375 0.765625 -0.617188 0.578125 -0.984375 C 0.398438 -1.347656 0.3125 -1.789062 0.3125 -2.3125 Z M 2.46875 -4.078125 C 2.207031 -4.078125 1.972656 -4.007812 1.765625 -3.875 C 1.566406 -3.738281 1.40625 -3.535156 1.28125 -3.265625 C 1.164062 -3.003906 1.109375 -2.6875 1.109375 -2.3125 C 1.109375 -1.925781 1.164062 -1.597656 1.28125 -1.328125 C 1.40625 -1.066406 1.566406 -0.867188 1.765625 -0.734375 C 1.972656 -0.597656 2.207031 -0.53125 2.46875 -0.53125 C 2.75 -0.53125 2.988281 -0.597656 3.1875 -0.734375 C 3.394531 -0.878906 3.554688 -1.082031 3.671875 -1.34375 C 3.785156 -1.613281 3.84375 -1.9375 3.84375 -2.3125 C 3.84375 -2.6875 3.78125 -3.003906 3.65625 -3.265625 C 3.539062 -3.535156 3.378906 -3.738281 3.171875 -3.875 C 2.972656 -4.007812 2.738281 -4.078125 2.46875 -4.078125 Z M 2.46875 -4.078125 "/></g></g><g transform="translate(28.920668, 15.066408)"><g><path d="M 3.9375 -3.375 C 3.9375 -3.164062 3.878906 -2.976562 3.765625 -2.8125 C 3.660156 -2.644531 3.503906 -2.507812 3.296875 -2.40625 C 3.585938 -2.3125 3.800781 -2.164062 3.9375 -1.96875 C 4.082031 -1.78125 4.15625 -1.554688 4.15625 -1.296875 C 4.15625 -0.898438 4.007812 -0.582031 3.71875 -0.34375 C 3.4375 -0.113281 2.992188 0 2.390625 0 L 0.609375 0 L 0.609375 -4.609375 L 2.28125 -4.609375 C 2.875 -4.609375 3.296875 -4.5 3.546875 -4.28125 C 3.804688 -4.070312 3.9375 -3.769531 3.9375 -3.375 Z M 1.390625 -0.625 L 2.40625 -0.625 C 3.03125 -0.625 3.34375 -0.863281 3.34375 -1.34375 C 3.34375 -1.582031 3.265625 -1.757812 3.109375 -1.875 C 2.960938 -2 2.722656 -2.0625 2.390625 -2.0625 L 1.390625 -2.0625 Z M 3.140625 -3.328125 C 3.140625 -3.535156 3.066406 -3.695312 2.921875 -3.8125 C 2.785156 -3.925781 2.570312 -3.984375 2.28125 -3.984375 L 1.390625 -3.984375 L 1.390625 -2.671875 L 2.3125 -2.671875 C 2.601562 -2.671875 2.8125 -2.722656 2.9375 -2.828125 C 3.070312 -2.941406 3.140625 -3.109375 3.140625 -3.328125 Z M 3.140625 -3.328125 "/></g></g><g transform="translate(33.486861, 15.066408)"><g><path d="M 3.953125 -1.375 C 3.953125 -0.9375 3.804688 -0.597656 3.515625 -0.359375 C 3.234375 -0.117188 2.800781 0 2.21875 0 L 0.609375 0 L 0.609375 -4.609375 L 1.390625 -4.609375 L 1.390625 -2.78125 L 2.234375 -2.78125 C 2.847656 -2.78125 3.285156 -2.660156 3.546875 -2.421875 C 3.816406 -2.191406 3.953125 -1.84375 3.953125 -1.375 Z M 1.390625 -0.640625 L 2.203125 -0.640625 C 2.835938 -0.640625 3.15625 -0.890625 3.15625 -1.390625 C 3.15625 -1.628906 3.078125 -1.8125 2.921875 -1.9375 C 2.773438 -2.070312 2.53125 -2.140625 2.1875 -2.140625 L 1.390625 -2.140625 Z M 5.546875 0 L 4.765625 0 L 4.765625 -4.609375 L 5.546875 -4.609375 Z M 5.546875 0 "/></g></g><g transform="translate(39.640349, 15.066408)"><g><path d="M 3.9375 -3.375 C 3.9375 -3.164062 3.878906 -2.976562 3.765625 -2.8125 C 3.660156 -2.644531 3.503906 -2.507812 3.296875 -2.40625 C 3.585938 -2.3125 3.800781 -2.164062 3.9375 -1.96875 C 4.082031 -1.78125 4.15625 -1.554688 4.15625 -1.296875 C 4.15625 -0.898438 4.007812 -0.582031 3.71875 -0.34375 C 3.4375 -0.113281 2.992188 0 2.390625 0 L 0.609375 0 L 0.609375 -4.609375 L 2.28125 -4.609375 C 2.875 -4.609375 3.296875 -4.5 3.546875 -4.28125 C 3.804688 -4.070312 3.9375 -3.769531 3.9375 -3.375 Z M 1.390625 -0.625 L 2.40625 -0.625 C 3.03125 -0.625 3.34375 -0.863281 3.34375 -1.34375 C 3.34375 -1.582031 3.265625 -1.757812 3.109375 -1.875 C 2.960938 -2 2.722656 -2.0625 2.390625 -2.0625 L 1.390625 -2.0625 Z M 3.140625 -3.328125 C 3.140625 -3.535156 3.066406 -3.695312 2.921875 -3.8125 C 2.785156 -3.925781 2.570312 -3.984375 2.28125 -3.984375 L 1.390625 -3.984375 L 1.390625 -2.671875 L 2.3125 -2.671875 C 2.601562 -2.671875 2.8125 -2.722656 2.9375 -2.828125 C 3.070312 -2.941406 3.140625 -3.109375 3.140625 -3.328125 Z M 3.140625 -3.328125 "/></g></g><g transform="translate(44.206541, 15.066408)"><g><path d="M 0.3125 -2.3125 C 0.3125 -2.8125 0.398438 -3.238281 0.578125 -3.59375 C 0.765625 -3.957031 1.019531 -4.234375 1.34375 -4.421875 C 1.664062 -4.617188 2.039062 -4.71875 2.46875 -4.71875 C 2.90625 -4.71875 3.285156 -4.625 3.609375 -4.4375 C 3.929688 -4.25 4.179688 -3.972656 4.359375 -3.609375 C 4.546875 -3.253906 4.640625 -2.820312 4.640625 -2.3125 C 4.640625 -1.800781 4.546875 -1.363281 4.359375 -1 C 4.179688 -0.644531 3.925781 -0.367188 3.59375 -0.171875 C 3.269531 0.015625 2.894531 0.109375 2.46875 0.109375 C 2.050781 0.109375 1.675781 0.0195312 1.34375 -0.15625 C 1.019531 -0.34375 0.765625 -0.617188 0.578125 -0.984375 C 0.398438 -1.347656 0.3125 -1.789062 0.3125 -2.3125 Z M 2.46875 -4.078125 C 2.207031 -4.078125 1.972656 -4.007812 1.765625 -3.875 C 1.566406 -3.738281 1.40625 -3.535156 1.28125 -3.265625 C 1.164062 -3.003906 1.109375 -2.6875 1.109375 -2.3125 C 1.109375 -1.925781 1.164062 -1.597656 1.28125 -1.328125 C 1.40625 -1.066406 1.566406 -0.867188 1.765625 -0.734375 C 1.972656 -0.597656 2.207031 -0.53125 2.46875 -0.53125 C 2.75 -0.53125 2.988281 -0.597656 3.1875 -0.734375 C 3.394531 -0.878906 3.554688 -1.082031 3.671875 -1.34375 C 3.785156 -1.613281 3.84375 -1.9375 3.84375 -2.3125 C 3.84375 -2.6875 3.78125 -3.003906 3.65625 -3.265625 C 3.539062 -3.535156 3.378906 -3.738281 3.171875 -3.875 C 2.972656 -4.007812 2.738281 -4.078125 2.46875 -4.078125 Z M 2.46875 -4.078125 "/></g></g><g transform="translate(49.159773, 15.066408)"><g><path d="M 2.046875 -4.71875 C 2.429688 -4.71875 2.75 -4.660156 3 -4.546875 C 3.25 -4.429688 3.429688 -4.273438 3.546875 -4.078125 C 3.660156 -3.890625 3.71875 -3.6875 3.71875 -3.46875 C 3.71875 -3.207031 3.660156 -2.992188 3.546875 -2.828125 C 3.429688 -2.660156 3.25 -2.519531 3 -2.40625 C 3.257812 -2.3125 3.457031 -2.160156 3.59375 -1.953125 C 3.738281 -1.742188 3.8125 -1.507812 3.8125 -1.25 C 3.8125 -0.976562 3.742188 -0.738281 3.609375 -0.53125 C 3.472656 -0.332031 3.269531 -0.175781 3 -0.0625 C 2.726562 0.0507812 2.390625 0.109375 1.984375 0.109375 C 1.503906 0.109375 1.117188 0.0078125 0.828125 -0.1875 C 0.535156 -0.382812 0.320312 -0.6875 0.1875 -1.09375 L 0.9375 -1.359375 C 1.09375 -0.816406 1.441406 -0.546875 1.984375 -0.546875 C 2.328125 -0.546875 2.582031 -0.613281 2.75 -0.75 C 2.925781 -0.882812 3.015625 -1.0625 3.015625 -1.28125 C 3.015625 -1.414062 2.984375 -1.546875 2.921875 -1.671875 C 2.859375 -1.796875 2.757812 -1.894531 2.625 -1.96875 C 2.488281 -2.039062 2.316406 -2.078125 2.109375 -2.078125 L 1.75 -2.078125 L 1.75 -2.734375 L 2.125 -2.734375 C 2.382812 -2.734375 2.582031 -2.789062 2.71875 -2.90625 C 2.863281 -3.03125 2.9375 -3.195312 2.9375 -3.40625 C 2.9375 -3.519531 2.90625 -3.628906 2.84375 -3.734375 C 2.78125 -3.835938 2.679688 -3.921875 2.546875 -3.984375 C 2.410156 -4.046875 2.238281 -4.078125 2.03125 -4.078125 C 1.8125 -4.078125 1.617188 -4.019531 1.453125 -3.90625 C 1.285156 -3.800781 1.140625 -3.609375 1.015625 -3.328125 L 0.3125 -3.625 C 0.457031 -3.988281 0.671875 -4.257812 0.953125 -4.4375 C 1.234375 -4.625 1.597656 -4.71875 2.046875 -4.71875 Z M 2.046875 -4.71875 "/></g></g></g><g fill="#ffffff" fill-opacity="1"><g transform="translate(53.356321, 15.066408)"><g/></g></g><g fill="#ffffff" fill-opacity="1"><g transform="translate(7.050781, 26.941407)"><g><path d="M 1.390625 -4.609375 L 1.390625 -1.28125 L 3.53125 -4.609375 L 4.34375 -4.609375 L 4.34375 0 L 3.5625 0 L 3.5625 -3.328125 L 1.421875 0 L 0.609375 0 L 0.609375 -4.609375 Z M 1.390625 -4.609375 "/></g></g><g transform="translate(12.004013, 26.941407)"><g><path d="M 2.046875 -4.71875 C 2.429688 -4.71875 2.75 -4.660156 3 -4.546875 C 3.25 -4.429688 3.429688 -4.273438 3.546875 -4.078125 C 3.660156 -3.890625 3.71875 -3.6875 3.71875 -3.46875 C 3.71875 -3.207031 3.660156 -2.992188 3.546875 -2.828125 C 3.429688 -2.660156 3.25 -2.519531 3 -2.40625 C 3.257812 -2.3125 3.457031 -2.160156 3.59375 -1.953125 C 3.738281 -1.742188 3.8125 -1.507812 3.8125 -1.25 C 3.8125 -0.976562 3.742188 -0.738281 3.609375 -0.53125 C 3.472656 -0.332031 3.269531 -0.175781 3 -0.0625 C 2.726562 0.0507812 2.390625 0.109375 1.984375 0.109375 C 1.503906 0.109375 1.117188 0.0078125 0.828125 -0.1875 C 0.535156 -0.382812 0.320312 -0.6875 0.1875 -1.09375 L 0.9375 -1.359375 C 1.09375 -0.816406 1.441406 -0.546875 1.984375 -0.546875 C 2.328125 -0.546875 2.582031 -0.613281 2.75 -0.75 C 2.925781 -0.882812 3.015625 -1.0625 3.015625 -1.28125 C 3.015625 -1.414062 2.984375 -1.546875 2.921875 -1.671875 C 2.859375 -1.796875 2.757812 -1.894531 2.625 -1.96875 C 2.488281 -2.039062 2.316406 -2.078125 2.109375 -2.078125 L 1.75 -2.078125 L 1.75 -2.734375 L 2.125 -2.734375 C 2.382812 -2.734375 2.582031 -2.789062 2.71875 -2.90625 C 2.863281 -3.03125 2.9375 -3.195312 2.9375 -3.40625 C 2.9375 -3.519531 2.90625 -3.628906 2.84375 -3.734375 C 2.78125 -3.835938 2.679688 -3.921875 2.546875 -3.984375 C 2.410156 -4.046875 2.238281 -4.078125 2.03125 -4.078125 C 1.8125 -4.078125 1.617188 -4.019531 1.453125 -3.90625 C 1.285156 -3.800781 1.140625 -3.609375 1.015625 -3.328125 L 0.3125 -3.625 C 0.457031 -3.988281 0.671875 -4.257812 0.953125 -4.4375 C 1.234375 -4.625 1.597656 -4.71875 2.046875 -4.71875 Z M 2.046875 -4.71875 "/></g></g><g transform="translate(16.196212, 26.941407)"><g/></g><g transform="translate(18.644561, 26.941407)"><g><path d="M 3.40625 -2.140625 C 3.539062 -1.742188 3.628906 -1.46875 3.671875 -1.3125 C 3.710938 -1.175781 3.738281 -1.070312 3.75 -1 L 3.78125 -1 C 3.789062 -1.050781 3.835938 -1.203125 3.921875 -1.453125 L 4.109375 -2.03125 L 5.59375 -6.375 L 6.765625 -6.375 L 6.765625 0 L 5.953125 0 L 5.953125 -5.328125 L 5.9375 -5.328125 L 4.109375 0 L 3.34375 0 L 1.515625 -5.421875 L 1.5 -5.421875 L 1.5 0 L 0.703125 0 L 0.703125 -6.375 L 1.984375 -6.375 Z M 3.40625 -2.140625 "/></g></g><g transform="translate(26.098327, 26.941407)"><g><path d="M 3.359375 -5.765625 C 2.910156 -5.765625 2.53125 -5.65625 2.21875 -5.4375 C 1.914062 -5.21875 1.679688 -4.914062 1.515625 -4.53125 C 1.359375 -4.15625 1.28125 -3.722656 1.28125 -3.234375 C 1.28125 -2.703125 1.359375 -2.238281 1.515625 -1.84375 C 1.679688 -1.445312 1.914062 -1.140625 2.21875 -0.921875 C 2.53125 -0.710938 2.898438 -0.609375 3.328125 -0.609375 C 3.828125 -0.609375 4.234375 -0.742188 4.546875 -1.015625 C 4.867188 -1.296875 5.09375 -1.695312 5.21875 -2.21875 L 6.046875 -2.015625 C 5.941406 -1.578125 5.765625 -1.195312 5.515625 -0.875 C 5.273438 -0.5625 4.96875 -0.316406 4.59375 -0.140625 C 4.226562 0.0234375 3.816406 0.109375 3.359375 0.109375 C 2.742188 0.109375 2.210938 -0.0195312 1.765625 -0.28125 C 1.328125 -0.550781 0.988281 -0.9375 0.75 -1.4375 C 0.519531 -1.9375 0.40625 -2.535156 0.40625 -3.234375 C 0.40625 -3.890625 0.53125 -4.460938 0.78125 -4.953125 C 1.03125 -5.453125 1.378906 -5.832031 1.828125 -6.09375 C 2.273438 -6.351562 2.785156 -6.484375 3.359375 -6.484375 C 4.023438 -6.484375 4.578125 -6.320312 5.015625 -6 C 5.453125 -5.6875 5.757812 -5.226562 5.9375 -4.625 L 5.109375 -4.421875 C 4.972656 -4.867188 4.757812 -5.203125 4.46875 -5.421875 C 4.175781 -5.648438 3.804688 -5.765625 3.359375 -5.765625 Z M 3.359375 -5.765625 "/></g></g><g transform="translate(32.473601, 26.941407)"><g><path d="M 4.21875 -2.03125 L 5.28125 0 L 4.3125 0 L 3.40625 -1.78125 C 3.238281 -2.113281 3.085938 -2.363281 2.953125 -2.53125 C 2.828125 -2.707031 2.675781 -2.835938 2.5 -2.921875 C 2.332031 -3.003906 2.113281 -3.046875 1.84375 -3.046875 L 1.546875 -3.046875 L 1.546875 0 L 0.703125 0 L 0.703125 -6.375 L 1.546875 -6.375 L 1.546875 -3.765625 L 1.828125 -3.765625 C 2.078125 -3.765625 2.269531 -3.789062 2.40625 -3.84375 C 2.539062 -3.894531 2.65625 -3.992188 2.75 -4.140625 C 2.851562 -4.285156 2.96875 -4.507812 3.09375 -4.8125 L 3.328125 -5.390625 C 3.453125 -5.734375 3.617188 -5.984375 3.828125 -6.140625 C 4.046875 -6.296875 4.320312 -6.375 4.65625 -6.375 L 5.078125 -6.375 L 5.078125 -5.65625 L 4.78125 -5.65625 C 4.613281 -5.65625 4.476562 -5.609375 4.375 -5.515625 C 4.269531 -5.429688 4.175781 -5.296875 4.09375 -5.109375 L 3.859375 -4.546875 C 3.710938 -4.191406 3.570312 -3.929688 3.4375 -3.765625 C 3.300781 -3.597656 3.132812 -3.476562 2.9375 -3.40625 L 2.9375 -3.390625 C 3.101562 -3.335938 3.25 -3.265625 3.375 -3.171875 C 3.507812 -3.085938 3.640625 -2.953125 3.765625 -2.765625 C 3.898438 -2.585938 4.050781 -2.34375 4.21875 -2.03125 Z M 4.21875 -2.03125 "/></g></g></g><path fill="#ff0000" d="M 53.445312 33.492188 C 53.9375 33.492188 54.425781 33.542969 54.90625 33.636719 C 55.386719 33.734375 55.855469 33.875 56.308594 34.0625 C 56.761719 34.25 57.195312 34.480469 57.601562 34.753906 C 58.011719 35.027344 58.390625 35.335938 58.738281 35.683594 C 59.085938 36.03125 59.394531 36.410156 59.667969 36.820312 C 59.941406 37.226562 60.171875 37.660156 60.359375 38.113281 C 60.546875 38.566406 60.6875 39.035156 60.785156 39.515625 C 60.878906 39.996094 60.929688 40.484375 60.929688 40.976562 C 60.929688 44.148438 56.523438 50.894531 54.472656 53.863281 C 54.355469 54.035156 54.207031 54.164062 54.027344 54.261719 C 53.84375 54.355469 53.652344 54.402344 53.445312 54.402344 C 53.242188 54.402344 53.046875 54.355469 52.867188 54.261719 C 52.683594 54.164062 52.535156 54.035156 52.417969 53.863281 C 50.371094 50.894531 45.964844 44.148438 45.964844 40.976562 C 45.964844 40.484375 46.011719 39.996094 46.109375 39.515625 C 46.203125 39.035156 46.34375 38.566406 46.535156 38.113281 C 46.722656 37.660156 46.953125 37.226562 47.226562 36.820312 C 47.496094 36.410156 47.808594 36.03125 48.15625 35.683594 C 48.503906 35.335938 48.878906 35.027344 49.289062 34.753906 C 49.699219 34.480469 50.128906 34.25 50.582031 34.0625 C 51.035156 33.875 51.503906 33.734375 51.988281 33.636719 C 52.46875 33.542969 52.953125 33.492188 53.445312 33.492188 Z M 53.445312 33.492188 " fill-opacity="1" fill-rule="nonzero"/><path fill="#ff0000" d="M 53.445312 54.402344 C 53.007812 54.402344 52.667969 54.222656 52.417969 53.863281 C 50.371094 50.894531 45.964844 44.148438 45.964844 40.976562 C 45.964844 40.484375 46.011719 39.996094 46.109375 39.515625 C 46.203125 39.035156 46.34375 38.566406 46.535156 38.113281 C 46.722656 37.660156 46.953125 37.226562 47.226562 36.820312 C 47.496094 36.410156 47.808594 36.03125 48.15625 35.683594 C 48.503906 35.335938 48.878906 35.027344 49.289062 34.753906 C 49.699219 34.480469 50.128906 34.25 50.582031 34.0625 C 51.035156 33.875 51.503906 33.734375 51.988281 33.636719 C 52.46875 33.542969 52.953125 33.492188 53.445312 33.492188 Z M 53.445312 54.402344 " fill-opacity="1" fill-rule="nonzero"/><path stroke-linecap="round" transform="matrix(0.650622, 0, 0, 0.650622, 32.870146, 32.87014)" fill="none" stroke-linejoin="round" d="M 2.87731 29.708612 L 2.87731 45.042495 " stroke="#222126" stroke-width="2" stroke-opacity="1" stroke-miterlimit="4"/><path stroke-linecap="round" transform="matrix(0.650622, 0, 0, 0.650622, 32.870146, 32.87014)" fill-opacity="1" fill="#ff0000" fill-rule="nonzero" stroke-linejoin="round" d="M 31.623838 43.127261 C 31.623838 42.364769 31.479745 41.626293 31.185556 40.923841 C 30.89737 40.221388 30.477099 39.596985 29.942755 39.056637 C 29.402406 38.522293 28.778004 38.102022 28.075551 37.813836 C 27.373099 37.519646 26.634623 37.375554 25.872131 37.375554 L 18.685499 37.375554 C 18.685499 36.613062 18.541406 35.88059 18.247217 35.172133 C 17.959031 34.469681 17.544764 33.851282 17.004416 33.310934 C 16.464067 32.770586 15.839665 32.356319 15.137212 32.062129 C 14.434759 31.767939 13.702287 31.623846 12.939796 31.623846 L 2.87731 31.623846 L 2.87731 43.127261 Z M 31.623838 43.127261 " stroke="#222126" stroke-width="2" stroke-opacity="1" stroke-miterlimit="4"/><path stroke-linecap="round" transform="matrix(0.650622, 0, 0, 0.650622, 32.870146, 32.87014)" fill="none" stroke-linejoin="round" d="M 12.939796 37.375554 L 20.126428 37.375554 " stroke="#222126" stroke-width="2" stroke-opacity="1" stroke-miterlimit="4"/><g clip-path="url(#fa7cec20c8)"><path stroke-linecap="round" transform="matrix(0.650622, 0, 0, 0.650622, 32.870146, 32.87014)" fill="none" stroke-linejoin="round" d="M 31.623838 0.95608 C 32.380326 0.95608 33.130809 1.034131 33.869285 1.178224 C 34.607761 1.32832 35.328226 1.54446 36.024675 1.832645 C 36.721124 2.120831 37.387553 2.475059 38.011956 2.89533 C 38.642362 3.315601 39.224737 3.789907 39.759082 4.324251 C 40.293426 4.858596 40.767732 5.440971 41.188003 6.071377 C 41.608273 6.69578 41.962502 7.362209 42.250687 8.058658 C 42.538873 8.755107 42.755013 9.475571 42.905109 10.214047 C 43.049202 10.952523 43.127252 11.703007 43.127252 12.459495 C 43.127252 17.334637 36.354887 27.70332 33.202856 32.266261 C 33.02274 32.530431 32.794593 32.728559 32.518415 32.878655 C 32.236233 33.022748 31.942043 33.094795 31.623838 33.094795 C 31.311637 33.094795 31.011444 33.022748 30.735266 32.878655 C 30.453084 32.728559 30.224937 32.530431 30.044821 32.266261 C 26.898793 27.70332 20.126428 17.334637 20.126428 12.459495 C 20.126428 11.703007 20.198474 10.952523 20.348571 10.214047 C 20.492664 9.475571 20.708803 8.755107 21.002993 8.058658 C 21.291179 7.362209 21.645407 6.69578 22.065678 6.071377 C 22.479945 5.440971 22.960254 4.858596 23.494599 4.324251 C 24.028943 3.789907 24.605315 3.315601 25.235721 2.89533 C 25.866127 2.475059 26.526553 2.120831 27.223002 1.832645 C 27.919451 1.54446 28.639915 1.32832 29.384395 1.178224 C 30.122871 1.034131 30.867351 0.95608 31.623838 0.95608 Z M 31.623838 0.95608 " stroke="#222126" stroke-width="2" stroke-opacity="1" stroke-miterlimit="4"/></g><path stroke-linecap="round" transform="matrix(0.650622, 0, 0, 0.650622, 32.870146, 32.87014)" fill-opacity="1" fill="#545454" fill-rule="nonzero" stroke-linejoin="round" d="M 27.793369 12.459495 C 27.793369 12.96382 27.889431 13.456137 28.081555 13.924439 C 28.279683 14.392741 28.555861 14.807008 28.916093 15.16724 C 29.276325 15.527472 29.690592 15.80365 30.158894 16.001778 C 30.627196 16.193902 31.119513 16.289963 31.623838 16.289963 C 32.134167 16.289963 32.620481 16.193902 33.094786 16.001778 C 33.563088 15.80365 33.977355 15.527472 34.337587 15.16724 C 34.697819 14.807008 34.973997 14.392741 35.166121 13.924439 C 35.358245 13.456137 35.460311 12.96382 35.460311 12.459495 C 35.460311 11.949166 35.358245 11.462852 35.166121 10.988547 C 34.973997 10.520245 34.697819 10.105978 34.337587 9.745746 C 33.977355 9.385513 33.563088 9.109335 33.094786 8.917212 C 32.620481 8.725088 32.134167 8.623022 31.623838 8.623022 C 31.119513 8.623022 30.627196 8.725088 30.158894 8.917212 C 29.690592 9.109335 29.276325 9.385513 28.916093 9.745746 C 28.555861 10.105978 28.279683 10.520245 28.081555 10.988547 C 27.889431 11.462852 27.793369 11.949166 27.793369 12.459495 " stroke="#222126" stroke-width="2" stroke-opacity="1" stroke-miterlimit="4"/></svg>