<svg xmlns="http://www.w3.org/2000/svg" xmlns:xlink="http://www.w3.org/1999/xlink" width="95" zoomAndPan="magnify" viewBox="0 0 71.25 71.25" height="95" preserveAspectRatio="xMidYMid meet" version="1.0"><defs><g/><clipPath id="a87b2511e8"><path d="M 0 0 L 70.507812 0 L 70.507812 70.507812 L 0 70.507812 Z M 0 0 " clip-rule="nonzero"/></clipPath><clipPath id="caf7a5d572"><path d="M 13.359375 0 L 57.148438 0 C 60.691406 0 64.089844 1.40625 66.59375 3.914062 C 69.101562 6.417969 70.507812 9.816406 70.507812 13.359375 L 70.507812 57.148438 C 70.507812 60.691406 69.101562 64.089844 66.59375 66.59375 C 64.089844 69.101562 60.691406 70.507812 57.148438 70.507812 L 13.359375 70.507812 C 9.816406 70.507812 6.417969 69.101562 3.914062 66.59375 C 1.40625 64.089844 0 60.691406 0 57.148438 L 0 13.359375 C 0 9.816406 1.40625 6.417969 3.914062 3.914062 C 6.417969 1.40625 9.816406 0 13.359375 0 Z M 13.359375 0 " clip-rule="nonzero"/></clipPath></defs><g clip-path="url(#a87b2511e8)"><g clip-path="url(#caf7a5d572)"><path fill="#ffb1a5" d="M 0 0 L 70.507812 0 L 70.507812 70.507812 L 0 70.507812 Z M 0 0 " fill-opacity="1" fill-rule="nonzero"/></g></g><g fill="#ffffff" fill-opacity="1"><g transform="translate(7.050781, 15.066393)"><g><path d="M 4.765625 -1.828125 C 4.765625 -1.441406 4.675781 -1.101562 4.5 -0.8125 C 4.320312 -0.519531 4.066406 -0.289062 3.734375 -0.125 C 3.398438 0.03125 3.015625 0.109375 2.578125 0.109375 C 1.941406 0.109375 1.429688 -0.0507812 1.046875 -0.375 C 0.671875 -0.695312 0.429688 -1.140625 0.328125 -1.703125 L 1.203125 -1.859375 C 1.273438 -1.453125 1.429688 -1.140625 1.671875 -0.921875 C 1.910156 -0.710938 2.21875 -0.609375 2.59375 -0.609375 C 2.84375 -0.609375 3.066406 -0.65625 3.265625 -0.75 C 3.460938 -0.851562 3.613281 -1 3.71875 -1.1875 C 3.832031 -1.382812 3.890625 -1.617188 3.890625 -1.890625 C 3.890625 -2.242188 3.773438 -2.523438 3.546875 -2.734375 C 3.328125 -2.941406 3.003906 -3.046875 2.578125 -3.046875 L 2.109375 -3.046875 L 2.109375 -3.78125 L 2.5625 -3.78125 C 2.894531 -3.78125 3.148438 -3.875 3.328125 -4.0625 C 3.515625 -4.25 3.609375 -4.5 3.609375 -4.8125 C 3.609375 -5.101562 3.515625 -5.332031 3.328125 -5.5 C 3.148438 -5.675781 2.898438 -5.765625 2.578125 -5.765625 C 2.265625 -5.765625 2.007812 -5.675781 1.8125 -5.5 C 1.613281 -5.332031 1.484375 -5.070312 1.421875 -4.71875 L 0.5625 -4.859375 C 0.695312 -5.398438 0.9375 -5.804688 1.28125 -6.078125 C 1.625 -6.347656 2.0625 -6.484375 2.59375 -6.484375 C 2.96875 -6.484375 3.296875 -6.410156 3.578125 -6.265625 C 3.859375 -6.128906 4.078125 -5.9375 4.234375 -5.6875 C 4.390625 -5.4375 4.46875 -5.15625 4.46875 -4.84375 C 4.46875 -4.53125 4.390625 -4.253906 4.234375 -4.015625 C 4.078125 -3.773438 3.84375 -3.582031 3.53125 -3.4375 L 3.53125 -3.421875 C 3.914062 -3.347656 4.21875 -3.164062 4.4375 -2.875 C 4.65625 -2.59375 4.765625 -2.242188 4.765625 -1.828125 Z M 4.765625 -1.828125 "/></g></g></g><g fill="#ffffff" fill-opacity="1"><g transform="translate(12.452804, 15.066393)"><g><path d="M 4.3125 0 L 3.5 0 C 3.457031 -0.09375 3.425781 -0.171875 3.40625 -0.234375 C 3.382812 -0.296875 3.363281 -0.40625 3.34375 -0.5625 C 3.113281 -0.332031 2.875 -0.160156 2.625 -0.046875 C 2.375 0.0546875 2.09375 0.109375 1.78125 0.109375 C 1.488281 0.109375 1.226562 0.0546875 1 -0.046875 C 0.78125 -0.160156 0.609375 -0.316406 0.484375 -0.515625 C 0.367188 -0.722656 0.3125 -0.957031 0.3125 -1.21875 C 0.3125 -1.613281 0.441406 -1.925781 0.703125 -2.15625 C 0.960938 -2.394531 1.382812 -2.5625 1.96875 -2.65625 C 2.582031 -2.75 3.019531 -2.835938 3.28125 -2.921875 L 3.28125 -3.046875 C 3.28125 -3.304688 3.25 -3.507812 3.1875 -3.65625 C 3.125 -3.800781 3.015625 -3.90625 2.859375 -3.96875 C 2.710938 -4.039062 2.519531 -4.078125 2.28125 -4.078125 C 1.96875 -4.078125 1.71875 -4.003906 1.53125 -3.859375 C 1.351562 -3.722656 1.234375 -3.503906 1.171875 -3.203125 L 0.40625 -3.3125 C 0.5 -3.78125 0.707031 -4.128906 1.03125 -4.359375 C 1.351562 -4.597656 1.78125 -4.71875 2.3125 -4.71875 C 2.726562 -4.71875 3.0625 -4.664062 3.3125 -4.5625 C 3.570312 -4.457031 3.765625 -4.285156 3.890625 -4.046875 C 4.015625 -3.816406 4.078125 -3.507812 4.078125 -3.125 L 4.078125 -1.46875 C 4.078125 -1.175781 4.082031 -0.953125 4.09375 -0.796875 C 4.101562 -0.640625 4.125 -0.503906 4.15625 -0.390625 C 4.1875 -0.273438 4.238281 -0.144531 4.3125 0 Z M 2.015625 -2 C 1.703125 -1.945312 1.472656 -1.851562 1.328125 -1.71875 C 1.179688 -1.59375 1.109375 -1.425781 1.109375 -1.21875 C 1.109375 -1 1.179688 -0.828125 1.328125 -0.703125 C 1.472656 -0.578125 1.679688 -0.515625 1.953125 -0.515625 C 2.171875 -0.515625 2.40625 -0.582031 2.65625 -0.71875 C 2.820312 -0.820312 2.945312 -0.929688 3.03125 -1.046875 C 3.125 -1.171875 3.1875 -1.316406 3.21875 -1.484375 C 3.257812 -1.648438 3.28125 -1.867188 3.28125 -2.140625 L 3.28125 -2.3125 C 3.21875 -2.269531 3.0625 -2.21875 2.8125 -2.15625 C 2.570312 -2.101562 2.304688 -2.050781 2.015625 -2 Z M 2.015625 -2 "/></g></g></g><g fill="#ffffff" fill-opacity="1"><g transform="translate(17.332977, 15.066393)"><g><path d="M 1.390625 -4.609375 L 1.390625 -2.6875 C 1.554688 -2.6875 1.6875 -2.707031 1.78125 -2.75 C 1.882812 -2.800781 1.960938 -2.867188 2.015625 -2.953125 C 2.066406 -3.046875 2.132812 -3.1875 2.21875 -3.375 L 2.46875 -3.90625 C 2.550781 -4.09375 2.632812 -4.234375 2.71875 -4.328125 C 2.800781 -4.429688 2.90625 -4.503906 3.03125 -4.546875 C 3.15625 -4.585938 3.316406 -4.609375 3.515625 -4.609375 L 3.859375 -4.609375 L 3.859375 -3.96875 L 3.640625 -3.96875 C 3.535156 -3.96875 3.457031 -3.957031 3.40625 -3.9375 C 3.351562 -3.925781 3.300781 -3.894531 3.25 -3.84375 C 3.207031 -3.789062 3.160156 -3.707031 3.109375 -3.59375 L 2.875 -3.078125 C 2.789062 -2.878906 2.703125 -2.726562 2.609375 -2.625 C 2.523438 -2.53125 2.40625 -2.445312 2.25 -2.375 C 2.425781 -2.34375 2.578125 -2.269531 2.703125 -2.15625 C 2.828125 -2.050781 2.941406 -1.90625 3.046875 -1.71875 L 4.0625 0 L 3.171875 0 L 2.34375 -1.46875 C 2.25 -1.632812 2.160156 -1.757812 2.078125 -1.84375 C 1.992188 -1.9375 1.894531 -2 1.78125 -2.03125 C 1.675781 -2.070312 1.546875 -2.09375 1.390625 -2.09375 L 1.390625 0 L 0.609375 0 L 0.609375 -4.609375 Z M 1.390625 -4.609375 "/></g></g></g><g fill="#ffffff" fill-opacity="1"><g transform="translate(21.678253, 15.066393)"><g><path d="M 4.3125 0 L 3.5 0 C 3.457031 -0.09375 3.425781 -0.171875 3.40625 -0.234375 C 3.382812 -0.296875 3.363281 -0.40625 3.34375 -0.5625 C 3.113281 -0.332031 2.875 -0.160156 2.625 -0.046875 C 2.375 0.0546875 2.09375 0.109375 1.78125 0.109375 C 1.488281 0.109375 1.226562 0.0546875 1 -0.046875 C 0.78125 -0.160156 0.609375 -0.316406 0.484375 -0.515625 C 0.367188 -0.722656 0.3125 -0.957031 0.3125 -1.21875 C 0.3125 -1.613281 0.441406 -1.925781 0.703125 -2.15625 C 0.960938 -2.394531 1.382812 -2.5625 1.96875 -2.65625 C 2.582031 -2.75 3.019531 -2.835938 3.28125 -2.921875 L 3.28125 -3.046875 C 3.28125 -3.304688 3.25 -3.507812 3.1875 -3.65625 C 3.125 -3.800781 3.015625 -3.90625 2.859375 -3.96875 C 2.710938 -4.039062 2.519531 -4.078125 2.28125 -4.078125 C 1.96875 -4.078125 1.71875 -4.003906 1.53125 -3.859375 C 1.351562 -3.722656 1.234375 -3.503906 1.171875 -3.203125 L 0.40625 -3.3125 C 0.5 -3.78125 0.707031 -4.128906 1.03125 -4.359375 C 1.351562 -4.597656 1.78125 -4.71875 2.3125 -4.71875 C 2.726562 -4.71875 3.0625 -4.664062 3.3125 -4.5625 C 3.570312 -4.457031 3.765625 -4.285156 3.890625 -4.046875 C 4.015625 -3.816406 4.078125 -3.507812 4.078125 -3.125 L 4.078125 -1.46875 C 4.078125 -1.175781 4.082031 -0.953125 4.09375 -0.796875 C 4.101562 -0.640625 4.125 -0.503906 4.15625 -0.390625 C 4.1875 -0.273438 4.238281 -0.144531 4.3125 0 Z M 2.015625 -2 C 1.703125 -1.945312 1.472656 -1.851562 1.328125 -1.71875 C 1.179688 -1.59375 1.109375 -1.425781 1.109375 -1.21875 C 1.109375 -1 1.179688 -0.828125 1.328125 -0.703125 C 1.472656 -0.578125 1.679688 -0.515625 1.953125 -0.515625 C 2.171875 -0.515625 2.40625 -0.582031 2.65625 -0.71875 C 2.820312 -0.820312 2.945312 -0.929688 3.03125 -1.046875 C 3.125 -1.171875 3.1875 -1.316406 3.21875 -1.484375 C 3.257812 -1.648438 3.28125 -1.867188 3.28125 -2.140625 L 3.28125 -2.3125 C 3.21875 -2.269531 3.0625 -2.21875 2.8125 -2.15625 C 2.570312 -2.101562 2.304688 -2.050781 2.015625 -2 Z M 2.015625 -2 "/></g></g></g><g fill="#ffffff" fill-opacity="1"><g transform="translate(26.558425, 15.066393)"><g><path d="M 2.046875 -4.71875 C 2.429688 -4.71875 2.75 -4.660156 3 -4.546875 C 3.25 -4.429688 3.429688 -4.273438 3.546875 -4.078125 C 3.660156 -3.890625 3.71875 -3.6875 3.71875 -3.46875 C 3.71875 -3.207031 3.660156 -2.992188 3.546875 -2.828125 C 3.429688 -2.660156 3.25 -2.519531 3 -2.40625 C 3.257812 -2.3125 3.457031 -2.160156 3.59375 -1.953125 C 3.738281 -1.742188 3.8125 -1.507812 3.8125 -1.25 C 3.8125 -0.976562 3.742188 -0.738281 3.609375 -0.53125 C 3.472656 -0.332031 3.269531 -0.175781 3 -0.0625 C 2.726562 0.0507812 2.390625 0.109375 1.984375 0.109375 C 1.503906 0.109375 1.117188 0.0078125 0.828125 -0.1875 C 0.535156 -0.382812 0.320312 -0.6875 0.1875 -1.09375 L 0.9375 -1.359375 C 1.09375 -0.816406 1.441406 -0.546875 1.984375 -0.546875 C 2.328125 -0.546875 2.582031 -0.613281 2.75 -0.75 C 2.925781 -0.882812 3.015625 -1.0625 3.015625 -1.28125 C 3.015625 -1.414062 2.984375 -1.546875 2.921875 -1.671875 C 2.859375 -1.796875 2.757812 -1.894531 2.625 -1.96875 C 2.488281 -2.039062 2.316406 -2.078125 2.109375 -2.078125 L 1.75 -2.078125 L 1.75 -2.734375 L 2.125 -2.734375 C 2.382812 -2.734375 2.582031 -2.789062 2.71875 -2.90625 C 2.863281 -3.03125 2.9375 -3.195312 2.9375 -3.40625 C 2.9375 -3.519531 2.90625 -3.628906 2.84375 -3.734375 C 2.78125 -3.835938 2.679688 -3.921875 2.546875 -3.984375 C 2.410156 -4.046875 2.238281 -4.078125 2.03125 -4.078125 C 1.8125 -4.078125 1.617188 -4.019531 1.453125 -3.90625 C 1.285156 -3.800781 1.140625 -3.609375 1.015625 -3.328125 L 0.3125 -3.625 C 0.457031 -3.988281 0.671875 -4.257812 0.953125 -4.4375 C 1.234375 -4.625 1.597656 -4.71875 2.046875 -4.71875 Z M 2.046875 -4.71875 "/></g></g></g><g fill="#ffffff" fill-opacity="1"><g transform="translate(30.973281, 15.066393)"><g><path d="M 3.953125 -1.375 C 3.953125 -0.9375 3.804688 -0.597656 3.515625 -0.359375 C 3.234375 -0.117188 2.800781 0 2.21875 0 L 0.609375 0 L 0.609375 -4.609375 L 1.390625 -4.609375 L 1.390625 -2.78125 L 2.234375 -2.78125 C 2.847656 -2.78125 3.285156 -2.660156 3.546875 -2.421875 C 3.816406 -2.191406 3.953125 -1.84375 3.953125 -1.375 Z M 1.390625 -0.640625 L 2.203125 -0.640625 C 2.835938 -0.640625 3.15625 -0.890625 3.15625 -1.390625 C 3.15625 -1.628906 3.078125 -1.8125 2.921875 -1.9375 C 2.773438 -2.070312 2.53125 -2.140625 2.1875 -2.140625 L 1.390625 -2.140625 Z M 5.546875 0 L 4.765625 0 L 4.765625 -4.609375 L 5.546875 -4.609375 Z M 5.546875 0 "/></g></g></g><g fill="#ffffff" fill-opacity="1"><g transform="translate(37.349424, 15.066393)"><g><path d="M 3.9375 -3.375 C 3.9375 -3.164062 3.878906 -2.976562 3.765625 -2.8125 C 3.660156 -2.644531 3.503906 -2.507812 3.296875 -2.40625 C 3.585938 -2.3125 3.800781 -2.164062 3.9375 -1.96875 C 4.082031 -1.78125 4.15625 -1.554688 4.15625 -1.296875 C 4.15625 -0.898438 4.007812 -0.582031 3.71875 -0.34375 C 3.4375 -0.113281 2.992188 0 2.390625 0 L 0.609375 0 L 0.609375 -4.609375 L 2.28125 -4.609375 C 2.875 -4.609375 3.296875 -4.5 3.546875 -4.28125 C 3.804688 -4.070312 3.9375 -3.769531 3.9375 -3.375 Z M 1.390625 -0.625 L 2.40625 -0.625 C 3.03125 -0.625 3.34375 -0.863281 3.34375 -1.34375 C 3.34375 -1.582031 3.265625 -1.757812 3.109375 -1.875 C 2.960938 -2 2.722656 -2.0625 2.390625 -2.0625 L 1.390625 -2.0625 Z M 3.140625 -3.328125 C 3.140625 -3.535156 3.066406 -3.695312 2.921875 -3.8125 C 2.785156 -3.925781 2.570312 -3.984375 2.28125 -3.984375 L 1.390625 -3.984375 L 1.390625 -2.671875 L 2.3125 -2.671875 C 2.601562 -2.671875 2.8125 -2.722656 2.9375 -2.828125 C 3.070312 -2.941406 3.140625 -3.109375 3.140625 -3.328125 Z M 3.140625 -3.328125 "/></g></g></g><g fill="#ffffff" fill-opacity="1"><g transform="translate(42.138272, 15.066393)"><g><path d="M 4.3125 0 L 3.5 0 C 3.457031 -0.09375 3.425781 -0.171875 3.40625 -0.234375 C 3.382812 -0.296875 3.363281 -0.40625 3.34375 -0.5625 C 3.113281 -0.332031 2.875 -0.160156 2.625 -0.046875 C 2.375 0.0546875 2.09375 0.109375 1.78125 0.109375 C 1.488281 0.109375 1.226562 0.0546875 1 -0.046875 C 0.78125 -0.160156 0.609375 -0.316406 0.484375 -0.515625 C 0.367188 -0.722656 0.3125 -0.957031 0.3125 -1.21875 C 0.3125 -1.613281 0.441406 -1.925781 0.703125 -2.15625 C 0.960938 -2.394531 1.382812 -2.5625 1.96875 -2.65625 C 2.582031 -2.75 3.019531 -2.835938 3.28125 -2.921875 L 3.28125 -3.046875 C 3.28125 -3.304688 3.25 -3.507812 3.1875 -3.65625 C 3.125 -3.800781 3.015625 -3.90625 2.859375 -3.96875 C 2.710938 -4.039062 2.519531 -4.078125 2.28125 -4.078125 C 1.96875 -4.078125 1.71875 -4.003906 1.53125 -3.859375 C 1.351562 -3.722656 1.234375 -3.503906 1.171875 -3.203125 L 0.40625 -3.3125 C 0.5 -3.78125 0.707031 -4.128906 1.03125 -4.359375 C 1.351562 -4.597656 1.78125 -4.71875 2.3125 -4.71875 C 2.726562 -4.71875 3.0625 -4.664062 3.3125 -4.5625 C 3.570312 -4.457031 3.765625 -4.285156 3.890625 -4.046875 C 4.015625 -3.816406 4.078125 -3.507812 4.078125 -3.125 L 4.078125 -1.46875 C 4.078125 -1.175781 4.082031 -0.953125 4.09375 -0.796875 C 4.101562 -0.640625 4.125 -0.503906 4.15625 -0.390625 C 4.1875 -0.273438 4.238281 -0.144531 4.3125 0 Z M 2.015625 -2 C 1.703125 -1.945312 1.472656 -1.851562 1.328125 -1.71875 C 1.179688 -1.59375 1.109375 -1.425781 1.109375 -1.21875 C 1.109375 -1 1.179688 -0.828125 1.328125 -0.703125 C 1.472656 -0.578125 1.679688 -0.515625 1.953125 -0.515625 C 2.171875 -0.515625 2.40625 -0.582031 2.65625 -0.71875 C 2.820312 -0.820312 2.945312 -0.929688 3.03125 -1.046875 C 3.125 -1.171875 3.1875 -1.316406 3.21875 -1.484375 C 3.257812 -1.648438 3.28125 -1.867188 3.28125 -2.140625 L 3.28125 -2.3125 C 3.21875 -2.269531 3.0625 -2.21875 2.8125 -2.15625 C 2.570312 -2.101562 2.304688 -2.050781 2.015625 -2 Z M 2.015625 -2 "/></g></g></g><g fill="#ffffff" fill-opacity="1"><g transform="translate(47.018444, 15.066393)"><g><path d="M 1.390625 -4.609375 L 1.390625 -1.28125 L 3.53125 -4.609375 L 4.34375 -4.609375 L 4.34375 0 L 3.5625 0 L 3.5625 -3.328125 L 1.421875 0 L 0.609375 0 L 0.609375 -4.609375 Z M 2.453125 -5.78125 C 2.691406 -5.78125 2.867188 -5.832031 2.984375 -5.9375 C 3.109375 -6.039062 3.191406 -6.207031 3.234375 -6.4375 L 3.828125 -6.4375 C 3.796875 -6.082031 3.65625 -5.804688 3.40625 -5.609375 C 3.164062 -5.410156 2.851562 -5.3125 2.46875 -5.3125 C 2.09375 -5.3125 1.78125 -5.40625 1.53125 -5.59375 C 1.28125 -5.789062 1.140625 -6.070312 1.109375 -6.4375 L 1.703125 -6.4375 C 1.734375 -6.226562 1.8125 -6.066406 1.9375 -5.953125 C 2.0625 -5.835938 2.234375 -5.78125 2.453125 -5.78125 Z M 2.453125 -5.78125 "/></g></g></g><g fill="#ffffff" fill-opacity="1"><g transform="translate(7.050781, 26.941393)"><g><path d="M 2.53125 -4.078125 C 2.082031 -4.078125 1.734375 -3.921875 1.484375 -3.609375 C 1.234375 -3.304688 1.109375 -2.875 1.109375 -2.3125 C 1.109375 -1.96875 1.160156 -1.660156 1.265625 -1.390625 C 1.378906 -1.117188 1.539062 -0.90625 1.75 -0.75 C 1.957031 -0.601562 2.203125 -0.53125 2.484375 -0.53125 C 2.816406 -0.53125 3.09375 -0.632812 3.3125 -0.84375 C 3.53125 -1.050781 3.664062 -1.332031 3.71875 -1.6875 L 4.484375 -1.578125 C 4.429688 -1.234375 4.3125 -0.929688 4.125 -0.671875 C 3.9375 -0.421875 3.695312 -0.226562 3.40625 -0.09375 C 3.125 0.0390625 2.8125 0.109375 2.46875 0.109375 C 2.039062 0.109375 1.660156 0.0078125 1.328125 -0.1875 C 1.003906 -0.382812 0.753906 -0.660156 0.578125 -1.015625 C 0.398438 -1.378906 0.3125 -1.804688 0.3125 -2.296875 C 0.3125 -2.816406 0.398438 -3.253906 0.578125 -3.609375 C 0.753906 -3.972656 1.003906 -4.25 1.328125 -4.4375 C 1.660156 -4.625 2.050781 -4.71875 2.5 -4.71875 C 2.820312 -4.71875 3.117188 -4.660156 3.390625 -4.546875 C 3.660156 -4.429688 3.882812 -4.265625 4.0625 -4.046875 C 4.238281 -3.828125 4.351562 -3.566406 4.40625 -3.265625 L 3.65625 -3.15625 C 3.582031 -3.445312 3.445312 -3.671875 3.25 -3.828125 C 3.050781 -3.992188 2.8125 -4.078125 2.53125 -4.078125 Z M 2.53125 -4.078125 "/></g></g></g><g fill="#ffffff" fill-opacity="1"><g transform="translate(11.939651, 26.941393)"><g><path d="M 2.515625 -0.53125 C 2.816406 -0.53125 3.070312 -0.617188 3.28125 -0.796875 C 3.5 -0.972656 3.648438 -1.203125 3.734375 -1.484375 L 4.5 -1.375 C 4.375 -0.90625 4.128906 -0.539062 3.765625 -0.28125 C 3.410156 -0.0195312 2.984375 0.109375 2.484375 0.109375 C 2.046875 0.109375 1.660156 0.015625 1.328125 -0.171875 C 1.003906 -0.367188 0.753906 -0.644531 0.578125 -1 C 0.398438 -1.363281 0.3125 -1.785156 0.3125 -2.265625 C 0.3125 -2.765625 0.394531 -3.195312 0.5625 -3.5625 C 0.738281 -3.9375 0.988281 -4.222656 1.3125 -4.421875 C 1.644531 -4.617188 2.03125 -4.71875 2.46875 -4.71875 C 2.894531 -4.71875 3.265625 -4.625 3.578125 -4.4375 C 3.898438 -4.25 4.144531 -3.96875 4.3125 -3.59375 C 4.488281 -3.226562 4.578125 -2.785156 4.578125 -2.265625 L 4.578125 -2.109375 L 1.125 -2.109375 C 1.132812 -1.773438 1.195312 -1.488281 1.3125 -1.25 C 1.4375 -1.019531 1.601562 -0.84375 1.8125 -0.71875 C 2.019531 -0.59375 2.253906 -0.53125 2.515625 -0.53125 Z M 2.46875 -4.078125 C 2.238281 -4.078125 2.03125 -4.019531 1.84375 -3.90625 C 1.65625 -3.800781 1.5 -3.648438 1.375 -3.453125 C 1.257812 -3.253906 1.179688 -3.019531 1.140625 -2.75 L 3.75 -2.75 C 3.695312 -3.175781 3.5625 -3.503906 3.34375 -3.734375 C 3.125 -3.960938 2.832031 -4.078125 2.46875 -4.078125 Z M 2.46875 -4.078125 "/></g></g></g><g fill="#ffffff" fill-opacity="1"><g transform="translate(17.04161, 26.941393)"><g><path d="M 1.390625 -4.609375 L 1.390625 -1.28125 L 3.53125 -4.609375 L 4.34375 -4.609375 L 4.34375 0 L 3.5625 0 L 3.5625 -3.328125 L 1.421875 0 L 0.609375 0 L 0.609375 -4.609375 Z M 2.453125 -5.78125 C 2.691406 -5.78125 2.867188 -5.832031 2.984375 -5.9375 C 3.109375 -6.039062 3.191406 -6.207031 3.234375 -6.4375 L 3.828125 -6.4375 C 3.796875 -6.082031 3.65625 -5.804688 3.40625 -5.609375 C 3.164062 -5.410156 2.851562 -5.3125 2.46875 -5.3125 C 2.09375 -5.3125 1.78125 -5.40625 1.53125 -5.59375 C 1.28125 -5.789062 1.140625 -6.070312 1.109375 -6.4375 L 1.703125 -6.4375 C 1.734375 -6.226562 1.8125 -6.066406 1.9375 -5.953125 C 2.0625 -5.835938 2.234375 -5.78125 2.453125 -5.78125 Z M 2.453125 -5.78125 "/></g></g></g><g fill="#ffffff" fill-opacity="1"><g transform="translate(22.217499, 26.941393)"><g><path d="M 3.40625 -1.90625 C 3.1875 -1.800781 2.960938 -1.710938 2.734375 -1.640625 C 2.515625 -1.578125 2.269531 -1.546875 2 -1.546875 C 1.488281 -1.546875 1.097656 -1.675781 0.828125 -1.9375 C 0.566406 -2.207031 0.4375 -2.59375 0.4375 -3.09375 L 0.4375 -4.609375 L 1.21875 -4.609375 L 1.21875 -3.21875 C 1.21875 -2.5625 1.535156 -2.234375 2.171875 -2.234375 C 2.367188 -2.234375 2.582031 -2.257812 2.8125 -2.3125 C 3.050781 -2.375 3.25 -2.453125 3.40625 -2.546875 L 3.40625 -4.609375 L 4.1875 -4.609375 L 4.1875 0 L 3.40625 0 Z M 3.40625 -1.90625 "/></g></g></g><g fill="#ffffff" fill-opacity="1"><g transform="translate(27.236831, 26.941393)"><g><path d="M 4.3125 0 L 3.5 0 C 3.457031 -0.09375 3.425781 -0.171875 3.40625 -0.234375 C 3.382812 -0.296875 3.363281 -0.40625 3.34375 -0.5625 C 3.113281 -0.332031 2.875 -0.160156 2.625 -0.046875 C 2.375 0.0546875 2.09375 0.109375 1.78125 0.109375 C 1.488281 0.109375 1.226562 0.0546875 1 -0.046875 C 0.78125 -0.160156 0.609375 -0.316406 0.484375 -0.515625 C 0.367188 -0.722656 0.3125 -0.957031 0.3125 -1.21875 C 0.3125 -1.613281 0.441406 -1.925781 0.703125 -2.15625 C 0.960938 -2.394531 1.382812 -2.5625 1.96875 -2.65625 C 2.582031 -2.75 3.019531 -2.835938 3.28125 -2.921875 L 3.28125 -3.046875 C 3.28125 -3.304688 3.25 -3.507812 3.1875 -3.65625 C 3.125 -3.800781 3.015625 -3.90625 2.859375 -3.96875 C 2.710938 -4.039062 2.519531 -4.078125 2.28125 -4.078125 C 1.96875 -4.078125 1.71875 -4.003906 1.53125 -3.859375 C 1.351562 -3.722656 1.234375 -3.503906 1.171875 -3.203125 L 0.40625 -3.3125 C 0.5 -3.78125 0.707031 -4.128906 1.03125 -4.359375 C 1.351562 -4.597656 1.78125 -4.71875 2.3125 -4.71875 C 2.726562 -4.71875 3.0625 -4.664062 3.3125 -4.5625 C 3.570312 -4.457031 3.765625 -4.285156 3.890625 -4.046875 C 4.015625 -3.816406 4.078125 -3.507812 4.078125 -3.125 L 4.078125 -1.46875 C 4.078125 -1.175781 4.082031 -0.953125 4.09375 -0.796875 C 4.101562 -0.640625 4.125 -0.503906 4.15625 -0.390625 C 4.1875 -0.273438 4.238281 -0.144531 4.3125 0 Z M 2.015625 -2 C 1.703125 -1.945312 1.472656 -1.851562 1.328125 -1.71875 C 1.179688 -1.59375 1.109375 -1.425781 1.109375 -1.21875 C 1.109375 -1 1.179688 -0.828125 1.328125 -0.703125 C 1.472656 -0.578125 1.679688 -0.515625 1.953125 -0.515625 C 2.171875 -0.515625 2.40625 -0.582031 2.65625 -0.71875 C 2.820312 -0.820312 2.945312 -0.929688 3.03125 -1.046875 C 3.125 -1.171875 3.1875 -1.316406 3.21875 -1.484375 C 3.257812 -1.648438 3.28125 -1.867188 3.28125 -2.140625 L 3.28125 -2.3125 C 3.21875 -2.269531 3.0625 -2.21875 2.8125 -2.15625 C 2.570312 -2.101562 2.304688 -2.050781 2.015625 -2 Z M 2.015625 -2 "/></g></g></g><g fill="#ffffff" fill-opacity="1"><g transform="translate(32.117003, 26.941393)"><g><path d="M 2.53125 -4.078125 C 2.082031 -4.078125 1.734375 -3.921875 1.484375 -3.609375 C 1.234375 -3.304688 1.109375 -2.875 1.109375 -2.3125 C 1.109375 -1.96875 1.160156 -1.660156 1.265625 -1.390625 C 1.378906 -1.117188 1.539062 -0.90625 1.75 -0.75 C 1.957031 -0.601562 2.203125 -0.53125 2.484375 -0.53125 C 2.816406 -0.53125 3.09375 -0.632812 3.3125 -0.84375 C 3.53125 -1.050781 3.664062 -1.332031 3.71875 -1.6875 L 4.484375 -1.578125 C 4.429688 -1.234375 4.3125 -0.929688 4.125 -0.671875 C 3.9375 -0.421875 3.695312 -0.226562 3.40625 -0.09375 C 3.125 0.0390625 2.8125 0.109375 2.46875 0.109375 C 2.039062 0.109375 1.660156 0.0078125 1.328125 -0.1875 C 1.003906 -0.382812 0.753906 -0.660156 0.578125 -1.015625 C 0.398438 -1.378906 0.3125 -1.804688 0.3125 -2.296875 C 0.3125 -2.816406 0.398438 -3.253906 0.578125 -3.609375 C 0.753906 -3.972656 1.003906 -4.25 1.328125 -4.4375 C 1.660156 -4.625 2.050781 -4.71875 2.5 -4.71875 C 2.820312 -4.71875 3.117188 -4.660156 3.390625 -4.546875 C 3.660156 -4.429688 3.882812 -4.265625 4.0625 -4.046875 C 4.238281 -3.828125 4.351562 -3.566406 4.40625 -3.265625 L 3.65625 -3.15625 C 3.582031 -3.445312 3.445312 -3.671875 3.25 -3.828125 C 3.050781 -3.992188 2.8125 -4.078125 2.53125 -4.078125 Z M 2.53125 -4.078125 "/></g></g></g><g fill="#ffffff" fill-opacity="1"><g transform="translate(37.005873, 26.941393)"><g/></g></g><g fill="#ffffff" fill-opacity="1"><g transform="translate(39.676877, 26.941393)"><g><path d="M 2.671875 -1.90625 L 0.28125 -1.90625 L 0.28125 -2.703125 L 2.671875 -2.703125 Z M 2.671875 -1.90625 "/></g></g></g><g fill="#ffffff" fill-opacity="1"><g transform="translate(7.050781, 38.816392)"><g><path d="M 4.34375 -4.609375 L 4.34375 0 L 3.5625 0 L 3.5625 -3.96875 L 1.390625 -3.96875 L 1.390625 0 L 0.609375 0 L 0.609375 -4.609375 Z M 4.34375 -4.609375 "/></g></g><g transform="translate(12.004013, 38.816392)"><g><path d="M 4.359375 -4.609375 L 4.359375 0 L 3.578125 0 L 3.578125 -3.96875 L 1.78125 -3.96875 L 1.78125 -1.375 C 1.78125 -0.851562 1.679688 -0.476562 1.484375 -0.25 C 1.296875 -0.0195312 1.007812 0.09375 0.625 0.09375 C 0.375 0.09375 0.15625 0.0664062 -0.03125 0.015625 L 0.109375 -0.609375 C 0.234375 -0.566406 0.363281 -0.546875 0.5 -0.546875 C 0.65625 -0.546875 0.773438 -0.609375 0.859375 -0.734375 C 0.953125 -0.867188 1 -1.070312 1 -1.34375 L 1 -4.609375 Z M 4.359375 -4.609375 "/></g></g><g transform="translate(16.965942, 38.816392)"><g><path d="M 4.3125 0 L 3.5 0 C 3.457031 -0.09375 3.425781 -0.171875 3.40625 -0.234375 C 3.382812 -0.296875 3.363281 -0.40625 3.34375 -0.5625 C 3.113281 -0.332031 2.875 -0.160156 2.625 -0.046875 C 2.375 0.0546875 2.09375 0.109375 1.78125 0.109375 C 1.488281 0.109375 1.226562 0.0546875 1 -0.046875 C 0.78125 -0.160156 0.609375 -0.316406 0.484375 -0.515625 C 0.367188 -0.722656 0.3125 -0.957031 0.3125 -1.21875 C 0.3125 -1.613281 0.441406 -1.925781 0.703125 -2.15625 C 0.960938 -2.394531 1.382812 -2.5625 1.96875 -2.65625 C 2.582031 -2.75 3.019531 -2.835938 3.28125 -2.921875 L 3.28125 -3.046875 C 3.28125 -3.304688 3.25 -3.507812 3.1875 -3.65625 C 3.125 -3.800781 3.015625 -3.90625 2.859375 -3.96875 C 2.710938 -4.039062 2.519531 -4.078125 2.28125 -4.078125 C 1.96875 -4.078125 1.71875 -4.003906 1.53125 -3.859375 C 1.351562 -3.722656 1.234375 -3.503906 1.171875 -3.203125 L 0.40625 -3.3125 C 0.5 -3.78125 0.707031 -4.128906 1.03125 -4.359375 C 1.351562 -4.597656 1.78125 -4.71875 2.3125 -4.71875 C 2.726562 -4.71875 3.0625 -4.664062 3.3125 -4.5625 C 3.570312 -4.457031 3.765625 -4.285156 3.890625 -4.046875 C 4.015625 -3.816406 4.078125 -3.507812 4.078125 -3.125 L 4.078125 -1.46875 C 4.078125 -1.175781 4.082031 -0.953125 4.09375 -0.796875 C 4.101562 -0.640625 4.125 -0.503906 4.15625 -0.390625 C 4.1875 -0.273438 4.238281 -0.144531 4.3125 0 Z M 2.015625 -2 C 1.703125 -1.945312 1.472656 -1.851562 1.328125 -1.71875 C 1.179688 -1.59375 1.109375 -1.425781 1.109375 -1.21875 C 1.109375 -1 1.179688 -0.828125 1.328125 -0.703125 C 1.472656 -0.578125 1.679688 -0.515625 1.953125 -0.515625 C 2.171875 -0.515625 2.40625 -0.582031 2.65625 -0.71875 C 2.820312 -0.820312 2.945312 -0.929688 3.03125 -1.046875 C 3.125 -1.171875 3.1875 -1.316406 3.21875 -1.484375 C 3.257812 -1.648438 3.28125 -1.867188 3.28125 -2.140625 L 3.28125 -2.3125 C 3.21875 -2.269531 3.0625 -2.21875 2.8125 -2.15625 C 2.570312 -2.101562 2.304688 -2.050781 2.015625 -2 Z M 2.015625 -2 "/></g></g><g transform="translate(21.623458, 38.816392)"><g><path d="M 3.390625 -3.96875 L 2.171875 -3.96875 L 2.171875 0 L 1.390625 0 L 1.390625 -3.96875 L 0.15625 -3.96875 L 0.15625 -4.609375 L 3.390625 -4.609375 Z M 3.390625 -3.96875 "/></g></g><g transform="translate(25.172042, 38.816392)"><g><path d="M 1.390625 -4.609375 L 1.390625 -1.28125 L 3.53125 -4.609375 L 4.34375 -4.609375 L 4.34375 0 L 3.5625 0 L 3.5625 -3.328125 L 1.421875 0 L 0.609375 0 L 0.609375 -4.609375 Z M 1.390625 -4.609375 "/></g></g><g transform="translate(30.125273, 38.816392)"><g/></g><g transform="translate(32.573622, 38.816392)"><g><path d="M 4.34375 -4.609375 L 4.34375 0 L 3.5625 0 L 3.5625 -3.96875 L 1.390625 -3.96875 L 1.390625 0 L 0.609375 0 L 0.609375 -4.609375 Z M 4.34375 -4.609375 "/></g></g><g transform="translate(37.526854, 38.816392)"><g><path d="M 0.3125 -2.3125 C 0.3125 -2.8125 0.398438 -3.238281 0.578125 -3.59375 C 0.765625 -3.957031 1.019531 -4.234375 1.34375 -4.421875 C 1.664062 -4.617188 2.039062 -4.71875 2.46875 -4.71875 C 2.90625 -4.71875 3.285156 -4.625 3.609375 -4.4375 C 3.929688 -4.25 4.179688 -3.972656 4.359375 -3.609375 C 4.546875 -3.253906 4.640625 -2.820312 4.640625 -2.3125 C 4.640625 -1.800781 4.546875 -1.363281 4.359375 -1 C 4.179688 -0.644531 3.925781 -0.367188 3.59375 -0.171875 C 3.269531 0.015625 2.894531 0.109375 2.46875 0.109375 C 2.050781 0.109375 1.675781 0.0195312 1.34375 -0.15625 C 1.019531 -0.34375 0.765625 -0.617188 0.578125 -0.984375 C 0.398438 -1.347656 0.3125 -1.789062 0.3125 -2.3125 Z M 2.46875 -4.078125 C 2.207031 -4.078125 1.972656 -4.007812 1.765625 -3.875 C 1.566406 -3.738281 1.40625 -3.535156 1.28125 -3.265625 C 1.164062 -3.003906 1.109375 -2.6875 1.109375 -2.3125 C 1.109375 -1.925781 1.164062 -1.597656 1.28125 -1.328125 C 1.40625 -1.066406 1.566406 -0.867188 1.765625 -0.734375 C 1.972656 -0.597656 2.207031 -0.53125 2.46875 -0.53125 C 2.75 -0.53125 2.988281 -0.597656 3.1875 -0.734375 C 3.394531 -0.878906 3.554688 -1.082031 3.671875 -1.34375 C 3.785156 -1.613281 3.84375 -1.9375 3.84375 -2.3125 C 3.84375 -2.6875 3.78125 -3.003906 3.65625 -3.265625 C 3.539062 -3.535156 3.378906 -3.738281 3.171875 -3.875 C 2.972656 -4.007812 2.738281 -4.078125 2.46875 -4.078125 Z M 2.46875 -4.078125 "/></g></g><g transform="translate(42.480085, 38.816392)"><g><path d="M 3.390625 -3.96875 L 2.171875 -3.96875 L 2.171875 0 L 1.390625 0 L 1.390625 -3.96875 L 0.15625 -3.96875 L 0.15625 -4.609375 L 3.390625 -4.609375 Z M 3.390625 -3.96875 "/></g></g><g transform="translate(46.028669, 38.816392)"><g><path d="M 0.3125 -2.3125 C 0.3125 -2.8125 0.398438 -3.238281 0.578125 -3.59375 C 0.765625 -3.957031 1.019531 -4.234375 1.34375 -4.421875 C 1.664062 -4.617188 2.039062 -4.71875 2.46875 -4.71875 C 2.90625 -4.71875 3.285156 -4.625 3.609375 -4.4375 C 3.929688 -4.25 4.179688 -3.972656 4.359375 -3.609375 C 4.546875 -3.253906 4.640625 -2.820312 4.640625 -2.3125 C 4.640625 -1.800781 4.546875 -1.363281 4.359375 -1 C 4.179688 -0.644531 3.925781 -0.367188 3.59375 -0.171875 C 3.269531 0.015625 2.894531 0.109375 2.46875 0.109375 C 2.050781 0.109375 1.675781 0.0195312 1.34375 -0.15625 C 1.019531 -0.34375 0.765625 -0.617188 0.578125 -0.984375 C 0.398438 -1.347656 0.3125 -1.789062 0.3125 -2.3125 Z M 2.46875 -4.078125 C 2.207031 -4.078125 1.972656 -4.007812 1.765625 -3.875 C 1.566406 -3.738281 1.40625 -3.535156 1.28125 -3.265625 C 1.164062 -3.003906 1.109375 -2.6875 1.109375 -2.3125 C 1.109375 -1.925781 1.164062 -1.597656 1.28125 -1.328125 C 1.40625 -1.066406 1.566406 -0.867188 1.765625 -0.734375 C 1.972656 -0.597656 2.207031 -0.53125 2.46875 -0.53125 C 2.75 -0.53125 2.988281 -0.597656 3.1875 -0.734375 C 3.394531 -0.878906 3.554688 -1.082031 3.671875 -1.34375 C 3.785156 -1.613281 3.84375 -1.9375 3.84375 -2.3125 C 3.84375 -2.6875 3.78125 -3.003906 3.65625 -3.265625 C 3.539062 -3.535156 3.378906 -3.738281 3.171875 -3.875 C 2.972656 -4.007812 2.738281 -4.078125 2.46875 -4.078125 Z M 2.46875 -4.078125 "/></g></g><g transform="translate(50.981901, 38.816392)"><g><path d="M 2.9375 -1.15625 L 4.140625 -4.609375 L 5.28125 -4.609375 L 5.28125 0 L 4.515625 0 L 4.515625 -3.640625 L 3.28125 0 L 2.609375 0 L 1.359375 -3.640625 L 1.359375 0 L 0.609375 0 L 0.609375 -4.609375 L 1.75 -4.609375 Z M 2.9375 -1.15625 "/></g></g></g><path stroke-linecap="butt" transform="matrix(0.744407, 0, 0, 0.744407, 7.870015, 47.216316)" fill="none" stroke-linejoin="miter" d="M 0.568176 12.140663 L 0.536691 12.392542 C -0.0930051 17.482586 2.294593 20.43691 8.329181 20.43691 C 13.80229 20.43691 16.72513 17.298924 17.202649 12.518481 L 17.260371 11.888785 C 17.732643 7.113589 15.465737 3.965108 10.690542 3.965108 C 9.027094 3.965108 7.888394 4.279956 6.975334 4.878168 L 7.736217 0.569997 L 18.451547 0.569997 L 19.112728 -4.525295 L 3.5225 -4.525295 L 1.197872 8.840006 L 6.004553 10.566423 C 6.691971 9.532672 7.919878 9.0604 8.927392 9.0604 L 9.090064 9.0604 C 10.622324 9.0604 11.598353 9.84752 11.414692 12.046209 L 11.383207 12.392542 C 11.189051 14.585983 9.903421 15.346866 8.675514 15.346866 L 8.365913 15.346866 C 7.138006 15.346866 6.104255 14.659448 6.419103 12.140663 Z M 39.425676 2.390868 C 39.992402 -1.854334 37.190255 -4.960835 31.911302 -4.960835 C 26.406708 -4.960835 23.672777 -2.00651 23.074566 2.390868 L 21.662997 13.085208 C 21.09627 17.330409 23.898418 20.43691 29.177371 20.43691 C 34.681965 20.43691 37.410648 17.482586 38.014107 13.085208 Z M 32.16318 13.085208 C 31.969024 14.496776 31.124182 15.346866 29.644396 15.346866 L 29.523704 15.346866 C 28.038671 15.346866 27.319767 14.402322 27.508676 13.085208 L 28.925493 2.390868 C 29.114401 0.979299 29.959244 0.129209 31.43903 0.129209 L 31.564969 0.129209 C 33.044755 0.129209 33.768905 1.073753 33.574749 2.390868 Z M 53.693541 20.00137 L 65.767965 -2.00651 L 66.114298 -4.645987 C 65.017577 -4.299654 62.063253 -3.64372 59.103681 -3.64372 C 56.275295 -3.64372 55.015903 -3.832629 53.315724 -4.525295 C 52.565336 -4.808658 51.715246 -4.960835 50.770702 -4.960835 C 47.155196 -4.960835 44.332058 -2.798878 43.791569 1.131476 L 43.760084 1.514541 C 43.224843 5.444894 45.486501 7.612099 49.102007 7.612099 C 52.717512 7.612099 55.551145 5.444894 56.091634 1.514541 L 56.180841 0.884845 C 56.527174 0.916329 56.931229 0.947814 57.377264 0.947814 C 58.069929 0.947814 58.662893 0.884845 59.198135 0.785143 L 48.666467 20.00137 Z M 59.733377 13.966782 L 59.675655 14.3446 C 59.16665 18.274953 61.433556 20.43691 65.049062 20.43691 C 68.664567 20.43691 71.492952 18.274953 71.991462 14.3446 L 72.054432 13.966782 C 72.563436 10.036429 70.29653 7.863977 66.681024 7.863977 C 63.065519 7.863977 60.231886 10.036429 59.733377 13.966782 Z M 63.920856 14.3446 L 63.978578 13.966782 C 64.104518 12.922536 64.854906 12.140663 66.019843 12.140663 L 66.214 12.140663 C 67.37369 12.140663 67.940417 12.922536 67.80923 13.966782 L 67.74626 14.3446 C 67.625569 15.378351 66.875181 16.160224 65.704995 16.160224 L 65.516086 16.160224 C 64.356396 16.160224 63.78967 15.378351 63.920856 14.3446 Z M 51.87267 1.131476 L 51.846433 1.514541 C 51.715246 2.553539 50.933373 3.335412 49.763188 3.335412 L 49.579526 3.335412 C 48.414588 3.335412 47.884594 2.553539 48.005286 1.514541 L 48.036771 1.131476 C 48.199442 0.0977245 48.94983 -0.684148 50.109521 -0.684148 L 50.303677 -0.684148 C 51.468615 -0.684148 52.030094 0.0977245 51.87267 1.131476 Z M 51.87267 1.131476 " stroke="#ffde59" stroke-width="0.903998" stroke-opacity="1" stroke-miterlimit="4"/></svg>