<svg xmlns="http://www.w3.org/2000/svg" xmlns:xlink="http://www.w3.org/1999/xlink" width="95" zoomAndPan="magnify" viewBox="0 0 71.25 71.25" height="95" preserveAspectRatio="xMidYMid meet" version="1.0"><defs><g/><clipPath id="dcf8e0b8b7"><path d="M 0 0 L 70.507812 0 L 70.507812 70.507812 L 0 70.507812 Z M 0 0 " clip-rule="nonzero"/></clipPath><clipPath id="e97366b491"><path d="M 13.359375 0 L 57.148438 0 C 60.691406 0 64.089844 1.40625 66.59375 3.914062 C 69.101562 6.417969 70.507812 9.816406 70.507812 13.359375 L 70.507812 57.148438 C 70.507812 60.691406 69.101562 64.089844 66.59375 66.59375 C 64.089844 69.101562 60.691406 70.507812 57.148438 70.507812 L 13.359375 70.507812 C 9.816406 70.507812 6.417969 69.101562 3.914062 66.59375 C 1.40625 64.089844 0 60.691406 0 57.148438 L 0 13.359375 C 0 9.816406 1.40625 6.417969 3.914062 3.914062 C 6.417969 1.40625 9.816406 0 13.359375 0 Z M 13.359375 0 " clip-rule="nonzero"/></clipPath><clipPath id="fad087f27a"><path d="M 48 39 L 63.679688 39 L 63.679688 63 L 48 63 Z M 48 39 " clip-rule="nonzero"/></clipPath></defs><g clip-path="url(#dcf8e0b8b7)"><g clip-path="url(#e97366b491)"><path fill="#6dd3ff" d="M 0 0 L 70.507812 0 L 70.507812 70.507812 L 0 70.507812 Z M 0 0 " fill-opacity="1" fill-rule="nonzero"/></g></g><g fill="#ffffff" fill-opacity="1"><g transform="translate(9.772233, 15.051919)"><g><path d="M 5.78125 -3.21875 C 5.78125 -2.53125 5.664062 -1.945312 5.4375 -1.46875 C 5.21875 -0.988281 4.894531 -0.625 4.46875 -0.375 C 4.050781 -0.125 3.546875 0 2.953125 0 L 0.6875 0 L 0.6875 -6.359375 L 3.015625 -6.359375 C 3.597656 -6.359375 4.09375 -6.238281 4.5 -6 C 4.914062 -5.757812 5.234375 -5.40625 5.453125 -4.9375 C 5.671875 -4.46875 5.78125 -3.894531 5.78125 -3.21875 Z M 4.90625 -3.234375 C 4.90625 -4.054688 4.734375 -4.65625 4.390625 -5.03125 C 4.054688 -5.414062 3.5625 -5.609375 2.90625 -5.609375 L 1.53125 -5.609375 L 1.53125 -0.75 L 2.875 -0.75 C 3.5625 -0.75 4.070312 -0.945312 4.40625 -1.34375 C 4.738281 -1.75 4.90625 -2.378906 4.90625 -3.234375 Z M 4.90625 -3.234375 "/></g></g></g><g fill="#ffffff" fill-opacity="1"><g transform="translate(16.180261, 15.051919)"><g><path d="M 2.515625 -0.53125 C 2.804688 -0.53125 3.0625 -0.617188 3.28125 -0.796875 C 3.5 -0.972656 3.648438 -1.203125 3.734375 -1.484375 L 4.5 -1.375 C 4.363281 -0.90625 4.117188 -0.539062 3.765625 -0.28125 C 3.410156 -0.0195312 2.984375 0.109375 2.484375 0.109375 C 2.035156 0.109375 1.648438 0.015625 1.328125 -0.171875 C 1.003906 -0.367188 0.753906 -0.644531 0.578125 -1 C 0.398438 -1.363281 0.3125 -1.785156 0.3125 -2.265625 C 0.3125 -2.765625 0.394531 -3.195312 0.5625 -3.5625 C 0.738281 -3.925781 0.988281 -4.207031 1.3125 -4.40625 C 1.644531 -4.601562 2.03125 -4.703125 2.46875 -4.703125 C 2.894531 -4.703125 3.265625 -4.609375 3.578125 -4.421875 C 3.890625 -4.234375 4.128906 -3.953125 4.296875 -3.578125 C 4.472656 -3.210938 4.5625 -2.773438 4.5625 -2.265625 L 4.5625 -2.109375 L 1.125 -2.109375 C 1.132812 -1.773438 1.195312 -1.488281 1.3125 -1.25 C 1.4375 -1.019531 1.597656 -0.84375 1.796875 -0.71875 C 2.003906 -0.59375 2.242188 -0.53125 2.515625 -0.53125 Z M 2.46875 -4.078125 C 2.226562 -4.078125 2.015625 -4.019531 1.828125 -3.90625 C 1.648438 -3.789062 1.5 -3.632812 1.375 -3.4375 C 1.257812 -3.238281 1.179688 -3.007812 1.140625 -2.75 L 3.734375 -2.75 C 3.691406 -3.175781 3.5625 -3.503906 3.34375 -3.734375 C 3.125 -3.960938 2.832031 -4.078125 2.46875 -4.078125 Z M 2.46875 -4.078125 "/></g></g></g><g fill="#ffffff" fill-opacity="1"><g transform="translate(21.272998, 15.051919)"><g><path d="M 1.390625 0 L 0.609375 0 L 0.609375 -6.359375 L 1.390625 -6.359375 Z M 1.390625 0 "/></g></g></g><g fill="#ffffff" fill-opacity="1"><g transform="translate(23.48338, 15.051919)"><g><path d="M 1.390625 -5.484375 L 0.609375 -5.484375 L 0.609375 -6.359375 L 1.390625 -6.359375 Z M 1.390625 0 L 0.609375 0 L 0.609375 -4.609375 L 1.390625 -4.609375 Z M 1.390625 0 "/></g></g></g><g fill="#ffffff" fill-opacity="1"><g transform="translate(25.693763, 15.051919)"><g><path d="M 1.84375 -1.953125 C 1.957031 -1.628906 2.066406 -1.285156 2.171875 -0.921875 L 2.1875 -0.921875 C 2.238281 -1.140625 2.332031 -1.429688 2.46875 -1.796875 L 3.5 -4.609375 L 4.296875 -4.609375 L 2.546875 0 L 1.828125 0 L 0.0625 -4.609375 L 0.90625 -4.609375 Z M 1.84375 -1.953125 "/></g></g></g><g fill="#ffffff" fill-opacity="1"><g transform="translate(30.282957, 15.051919)"><g><path d="M 2.515625 -0.53125 C 2.804688 -0.53125 3.0625 -0.617188 3.28125 -0.796875 C 3.5 -0.972656 3.648438 -1.203125 3.734375 -1.484375 L 4.5 -1.375 C 4.363281 -0.90625 4.117188 -0.539062 3.765625 -0.28125 C 3.410156 -0.0195312 2.984375 0.109375 2.484375 0.109375 C 2.035156 0.109375 1.648438 0.015625 1.328125 -0.171875 C 1.003906 -0.367188 0.753906 -0.644531 0.578125 -1 C 0.398438 -1.363281 0.3125 -1.785156 0.3125 -2.265625 C 0.3125 -2.765625 0.394531 -3.195312 0.5625 -3.5625 C 0.738281 -3.925781 0.988281 -4.207031 1.3125 -4.40625 C 1.644531 -4.601562 2.03125 -4.703125 2.46875 -4.703125 C 2.894531 -4.703125 3.265625 -4.609375 3.578125 -4.421875 C 3.890625 -4.234375 4.128906 -3.953125 4.296875 -3.578125 C 4.472656 -3.210938 4.5625 -2.773438 4.5625 -2.265625 L 4.5625 -2.109375 L 1.125 -2.109375 C 1.132812 -1.773438 1.195312 -1.488281 1.3125 -1.25 C 1.4375 -1.019531 1.597656 -0.84375 1.796875 -0.71875 C 2.003906 -0.59375 2.242188 -0.53125 2.515625 -0.53125 Z M 2.46875 -4.078125 C 2.226562 -4.078125 2.015625 -4.019531 1.828125 -3.90625 C 1.648438 -3.789062 1.5 -3.632812 1.375 -3.4375 C 1.257812 -3.238281 1.179688 -3.007812 1.140625 -2.75 L 3.734375 -2.75 C 3.691406 -3.175781 3.5625 -3.503906 3.34375 -3.734375 C 3.125 -3.960938 2.832031 -4.078125 2.46875 -4.078125 Z M 2.46875 -4.078125 "/></g></g></g><g fill="#ffffff" fill-opacity="1"><g transform="translate(35.375694, 15.051919)"><g><path d="M 2.40625 -3.90625 C 2.070312 -3.90625 1.816406 -3.773438 1.640625 -3.515625 C 1.472656 -3.265625 1.390625 -2.910156 1.390625 -2.453125 L 1.390625 0 L 0.609375 0 L 0.609375 -4.609375 L 1.328125 -4.609375 L 1.328125 -3.90625 C 1.503906 -4.195312 1.679688 -4.398438 1.859375 -4.515625 C 2.035156 -4.640625 2.242188 -4.703125 2.484375 -4.703125 C 2.628906 -4.703125 2.757812 -4.6875 2.875 -4.65625 C 3 -4.625 3.125 -4.570312 3.25 -4.5 L 2.984375 -3.78125 C 2.804688 -3.863281 2.613281 -3.90625 2.40625 -3.90625 Z M 2.40625 -3.90625 "/></g></g></g><g fill="#ffffff" fill-opacity="1"><g transform="translate(38.805868, 15.051919)"><g><path d="M 1.9375 -1.953125 C 2.03125 -1.703125 2.097656 -1.507812 2.140625 -1.375 C 2.179688 -1.25 2.226562 -1.082031 2.28125 -0.875 L 2.296875 -0.875 C 2.347656 -1.132812 2.390625 -1.316406 2.421875 -1.421875 C 2.460938 -1.523438 2.546875 -1.75 2.671875 -2.09375 L 3.578125 -4.609375 L 4.375 -4.609375 L 2.515625 0.34375 C 2.359375 0.738281 2.207031 1.046875 2.0625 1.265625 C 1.925781 1.484375 1.78125 1.632812 1.625 1.71875 C 1.46875 1.8125 1.28125 1.859375 1.0625 1.859375 C 0.976562 1.859375 0.867188 1.847656 0.734375 1.828125 C 0.609375 1.816406 0.5 1.800781 0.40625 1.78125 L 0.5625 1.125 C 0.6875 1.164062 0.804688 1.1875 0.921875 1.1875 C 1.085938 1.1875 1.222656 1.144531 1.328125 1.0625 C 1.441406 0.976562 1.53125 0.863281 1.59375 0.71875 C 1.664062 0.582031 1.726562 0.4375 1.78125 0.28125 C 1.84375 0.132812 1.878906 0.046875 1.890625 0.015625 L 0.140625 -4.609375 L 0.984375 -4.609375 Z M 1.9375 -1.953125 "/></g></g></g><path fill="#f6d878" d="M 62.410156 40.816406 L 62.410156 55.378906 C 62.410156 55.625 62.34375 55.851562 62.210938 56.054688 C 62.078125 56.261719 61.898438 56.414062 61.675781 56.511719 L 49.214844 62.1875 C 49.058594 62.261719 48.890625 62.300781 48.71875 62.300781 L 48.71875 46.226562 L 62.1875 40.105469 C 62.332031 40.320312 62.410156 40.558594 62.410156 40.816406 Z M 62.410156 40.816406 " fill-opacity="1" fill-rule="nonzero"/><path fill="#f6d878" d="M 62.1875 40.105469 L 48.71875 46.226562 L 34.003906 40.105469 C 34.136719 39.90625 34.3125 39.761719 34.527344 39.667969 L 47.597656 33.992188 C 47.929688 33.851562 48.261719 33.851562 48.59375 33.992188 L 61.664062 39.667969 C 61.878906 39.765625 62.050781 39.910156 62.1875 40.105469 Z M 62.1875 40.105469 " fill-opacity="1" fill-rule="nonzero"/><path fill="#f6d878" d="M 48.71875 46.226562 L 48.71875 62.296875 C 48.542969 62.300781 48.378906 62.269531 48.21875 62.199219 L 34.539062 56.496094 C 34.308594 56.402344 34.125 56.25 33.988281 56.039062 C 33.847656 55.832031 33.78125 55.601562 33.78125 55.351562 L 33.78125 40.8125 C 33.777344 40.550781 33.851562 40.316406 34.003906 40.105469 Z M 48.71875 46.226562 " fill-opacity="1" fill-rule="nonzero"/><path stroke-linecap="round" transform="matrix(0.649414, 0, 0, 0.649414, 33.158983, 33.158985)" fill="none" stroke-linejoin="round" d="M 13.770228 4.970225 L 35.045417 15.087519 " stroke="#00303e" stroke-width="2" stroke-opacity="1" stroke-miterlimit="4"/><path fill="#ffffff" d="M 44.984375 49.277344 C 44.984375 49.007812 44.859375 48.816406 44.609375 48.707031 L 38.386719 45.980469 C 38.289062 45.9375 38.191406 45.921875 38.085938 45.929688 C 37.980469 45.9375 37.882812 45.972656 37.796875 46.03125 C 37.707031 46.085938 37.640625 46.160156 37.589844 46.253906 C 37.539062 46.347656 37.515625 46.445312 37.515625 46.550781 L 37.515625 51.414062 C 37.515625 51.6875 37.640625 51.875 37.890625 51.984375 L 44.113281 54.707031 C 44.207031 54.75 44.308594 54.765625 44.414062 54.757812 C 44.519531 54.75 44.613281 54.714844 44.703125 54.660156 C 44.789062 54.601562 44.859375 54.527344 44.910156 54.433594 C 44.957031 54.34375 44.984375 54.242188 44.984375 54.136719 Z M 44.984375 49.277344 " fill-opacity="1" fill-rule="nonzero"/><g clip-path="url(#fad087f27a)"><path stroke-linecap="round" transform="matrix(0.649414, 0, 0, 0.649414, 33.158983, 33.158985)" fill="none" stroke-linejoin="round" d="M 45.04241 11.791278 L 45.04241 34.215339 C 45.04241 34.594286 44.940154 34.943159 44.735643 35.255941 C 44.531132 35.574738 44.25444 35.809324 43.911583 35.9597 L 24.723612 44.69955 C 24.483011 44.813836 24.224364 44.873986 23.959702 44.873986 L 23.959702 20.122105 L 44.699553 10.696541 C 44.922109 11.027368 45.04241 11.394285 45.04241 11.791278 Z M 45.04241 11.791278 " stroke="#00303e" stroke-width="2" stroke-opacity="1" stroke-miterlimit="4"/></g><path stroke-linecap="round" transform="matrix(0.649414, 0, 0, 0.649414, 33.158983, 33.158985)" fill="none" stroke-linejoin="round" d="M 44.699553 10.696541 L 23.959702 20.122105 L 1.301055 10.696541 C 1.505566 10.389774 1.776243 10.167218 2.10707 10.022857 L 22.233387 1.283007 C 22.744665 1.066465 23.255943 1.066465 23.767221 1.283007 L 43.893538 10.022857 C 44.224365 10.173233 44.489027 10.395789 44.699553 10.696541 Z M 44.699553 10.696541 " stroke="#00303e" stroke-width="2" stroke-opacity="1" stroke-miterlimit="4"/><path stroke-linecap="round" transform="matrix(0.649414, 0, 0, 0.649414, 33.158983, 33.158985)" fill="none" stroke-linejoin="round" d="M 23.959702 20.122105 L 23.959702 44.867971 C 23.689026 44.873986 23.436394 44.825866 23.189778 44.717595 L 2.125115 35.93564 C 1.770228 35.791279 1.487521 35.556692 1.276995 35.23188 C 1.060453 34.913083 0.958198 34.558196 0.958198 34.173234 L 0.958198 11.785263 C 0.952183 11.382255 1.066468 11.021353 1.301055 10.696541 Z M 23.959702 20.122105 " stroke="#00303e" stroke-width="2" stroke-opacity="1" stroke-miterlimit="4"/><path stroke-linecap="round" transform="matrix(0.649414, 0, 0, 0.649414, 33.158983, 33.158985)" fill="none" stroke-linejoin="round" d="M 18.209326 24.81985 C 18.209326 24.404812 18.016845 24.110075 17.631883 23.941654 L 8.049927 19.743158 C 7.899551 19.676992 7.749175 19.652932 7.586769 19.664962 C 7.424363 19.676992 7.273988 19.731128 7.141657 19.821353 C 7.003311 19.905564 6.901055 20.01985 6.82286 20.164211 C 6.744664 20.308571 6.708574 20.458947 6.708574 20.621353 L 6.708574 28.110076 C 6.708574 28.531128 6.901055 28.81985 7.286018 28.988271 L 16.867973 33.180752 C 17.012334 33.246918 17.168725 33.270978 17.331131 33.258948 C 17.493537 33.246918 17.637898 33.192783 17.776244 33.108572 C 17.908574 33.018346 18.016845 32.904061 18.095041 32.7597 C 18.167221 32.621354 18.209326 32.464963 18.209326 32.302557 Z M 18.209326 24.81985 " stroke="#00303e" stroke-width="2" stroke-opacity="1" stroke-miterlimit="4"/></svg>
