<svg xmlns="http://www.w3.org/2000/svg" xmlns:xlink="http://www.w3.org/1999/xlink" width="95" zoomAndPan="magnify" viewBox="0 0 71.25 71.25" height="95" preserveAspectRatio="xMidYMid meet" version="1.0"><defs><g/><clipPath id="8cb1bab60a"><path d="M 0 0 L 70.507812 0 L 70.507812 70.507812 L 0 70.507812 Z M 0 0 " clip-rule="nonzero"/></clipPath><clipPath id="187b234831"><path d="M 13.359375 0 L 57.148438 0 C 60.691406 0 64.089844 1.40625 66.59375 3.914062 C 69.101562 6.417969 70.507812 9.816406 70.507812 13.359375 L 70.507812 57.148438 C 70.507812 60.691406 69.101562 64.089844 66.59375 66.59375 C 64.089844 69.101562 60.691406 70.507812 57.148438 70.507812 L 13.359375 70.507812 C 9.816406 70.507812 6.417969 69.101562 3.914062 66.59375 C 1.40625 64.089844 0 60.691406 0 57.148438 L 0 13.359375 C 0 9.816406 1.40625 6.417969 3.914062 3.914062 C 6.417969 1.40625 9.816406 0 13.359375 0 Z M 13.359375 0 " clip-rule="nonzero"/></clipPath><clipPath id="c5236325b7"><path d="M 35.253906 7.050781 L 58 7.050781 L 58 28 L 35.253906 28 Z M 35.253906 7.050781 " clip-rule="nonzero"/></clipPath></defs><g clip-path="url(#8cb1bab60a)"><g clip-path="url(#187b234831)"><path fill="#b78fd6" d="M 0 0 L 70.507812 0 L 70.507812 70.507812 L 0 70.507812 Z M 0 0 " fill-opacity="1" fill-rule="nonzero"/></g></g><g fill="#000000" fill-opacity="1"><g transform="translate(7.050781, 25.753907)"><g><path d="M 1.9375 -5.296875 L 1.9375 -3.71875 L 4.609375 -3.71875 L 4.609375 -2.640625 L 1.9375 -2.640625 L 1.9375 0 L 0.65625 0 L 0.65625 -6.375 L 4.9375 -6.375 L 4.9375 -5.296875 Z M 1.9375 -5.296875 "/></g></g><g transform="translate(12.36061, 25.753907)"><g><path d="M 4.921875 0 L 4.375 -1.4375 L 1.90625 -1.4375 L 1.390625 0 L 0.015625 0 L 2.5 -6.375 L 3.78125 -6.375 L 6.328125 0 Z M 2.828125 -3.96875 L 2.3125 -2.515625 L 3.96875 -2.515625 L 3.421875 -3.96875 C 3.359375 -4.144531 3.296875 -4.332031 3.234375 -4.53125 C 3.179688 -4.726562 3.148438 -4.882812 3.140625 -5 L 3.09375 -5 C 3.039062 -4.65625 2.953125 -4.3125 2.828125 -3.96875 Z M 2.828125 -3.96875 "/></g></g><g transform="translate(18.709792, 25.753907)"><g><path d="M 0.375 -3.15625 C 0.375 -3.820312 0.5 -4.40625 0.75 -4.90625 C 1.007812 -5.414062 1.375 -5.804688 1.84375 -6.078125 C 2.3125 -6.347656 2.859375 -6.484375 3.484375 -6.484375 C 4.117188 -6.484375 4.671875 -6.347656 5.140625 -6.078125 C 5.609375 -5.804688 5.96875 -5.421875 6.21875 -4.921875 C 6.476562 -4.421875 6.609375 -3.835938 6.609375 -3.171875 C 6.609375 -2.703125 6.535156 -2.265625 6.390625 -1.859375 C 6.253906 -1.453125 6.054688 -1.109375 5.796875 -0.828125 C 5.960938 -0.691406 6.128906 -0.578125 6.296875 -0.484375 C 6.460938 -0.398438 6.644531 -0.328125 6.84375 -0.265625 L 6.359375 0.640625 C 6.128906 0.566406 5.882812 0.453125 5.625 0.296875 C 5.375 0.148438 5.144531 -0.0078125 4.9375 -0.1875 C 4.507812 0.0078125 4.035156 0.109375 3.515625 0.109375 C 2.878906 0.109375 2.320312 -0.0234375 1.84375 -0.296875 C 1.375 -0.578125 1.007812 -0.960938 0.75 -1.453125 C 0.5 -1.953125 0.375 -2.519531 0.375 -3.15625 Z M 3.484375 -5.375 C 3.117188 -5.375 2.800781 -5.28125 2.53125 -5.09375 C 2.269531 -4.90625 2.066406 -4.644531 1.921875 -4.3125 C 1.785156 -3.988281 1.71875 -3.613281 1.71875 -3.1875 C 1.71875 -2.757812 1.785156 -2.378906 1.921875 -2.046875 C 2.054688 -1.722656 2.257812 -1.46875 2.53125 -1.28125 C 2.800781 -1.09375 3.125 -1 3.5 -1 C 3.664062 -1 3.828125 -1.019531 3.984375 -1.0625 C 3.878906 -1.125 3.753906 -1.191406 3.609375 -1.265625 C 3.472656 -1.335938 3.335938 -1.398438 3.203125 -1.453125 L 3.5625 -2.234375 C 3.957031 -2.097656 4.363281 -1.878906 4.78125 -1.578125 C 4.945312 -1.773438 5.070312 -2.007812 5.15625 -2.28125 C 5.238281 -2.5625 5.28125 -2.867188 5.28125 -3.203125 C 5.28125 -3.617188 5.207031 -3.988281 5.0625 -4.3125 C 4.925781 -4.644531 4.722656 -4.90625 4.453125 -5.09375 C 4.179688 -5.28125 3.859375 -5.375 3.484375 -5.375 Z M 3.484375 -5.375 "/></g></g></g><g fill="#000000" fill-opacity="1"><g transform="translate(25.709838, 25.753907)"><g/></g><g transform="translate(28.158187, 25.753907)"><g><path d="M 2.671875 -1.90625 L 0.28125 -1.90625 L 0.28125 -2.703125 L 2.671875 -2.703125 Z M 2.671875 -1.90625 "/></g></g></g><g fill="#000000" fill-opacity="1"><g transform="translate(7.050781, 37.628907)"><g><path d="M 4.734375 -5.625 L 1.546875 -5.625 L 1.546875 -3.640625 L 4.40625 -3.640625 L 4.40625 -2.890625 L 1.546875 -2.890625 L 1.546875 0 L 0.703125 0 L 0.703125 -6.375 L 4.734375 -6.375 Z M 4.734375 -5.625 "/></g></g><g transform="translate(12.11708, 37.628907)"><g><path d="M 2.40625 -3.921875 C 2.070312 -3.921875 1.816406 -3.789062 1.640625 -3.53125 C 1.472656 -3.28125 1.390625 -2.925781 1.390625 -2.46875 L 1.390625 0 L 0.609375 0 L 0.609375 -4.609375 L 1.328125 -4.609375 L 1.328125 -3.921875 C 1.503906 -4.210938 1.679688 -4.414062 1.859375 -4.53125 C 2.035156 -4.65625 2.25 -4.71875 2.5 -4.71875 C 2.632812 -4.71875 2.757812 -4.703125 2.875 -4.671875 C 3 -4.640625 3.125 -4.582031 3.25 -4.5 L 2.984375 -3.78125 C 2.816406 -3.875 2.625 -3.921875 2.40625 -3.921875 Z M 2.40625 -3.921875 "/></g></g><g transform="translate(15.33081, 37.628907)"><g><path d="M 2.515625 -0.53125 C 2.816406 -0.53125 3.070312 -0.617188 3.28125 -0.796875 C 3.5 -0.972656 3.648438 -1.203125 3.734375 -1.484375 L 4.5 -1.375 C 4.375 -0.90625 4.128906 -0.539062 3.765625 -0.28125 C 3.410156 -0.0195312 2.984375 0.109375 2.484375 0.109375 C 2.046875 0.109375 1.660156 0.015625 1.328125 -0.171875 C 1.003906 -0.367188 0.753906 -0.644531 0.578125 -1 C 0.398438 -1.363281 0.3125 -1.785156 0.3125 -2.265625 C 0.3125 -2.765625 0.394531 -3.195312 0.5625 -3.5625 C 0.738281 -3.9375 0.988281 -4.222656 1.3125 -4.421875 C 1.644531 -4.617188 2.03125 -4.71875 2.46875 -4.71875 C 2.894531 -4.71875 3.265625 -4.625 3.578125 -4.4375 C 3.898438 -4.25 4.144531 -3.96875 4.3125 -3.59375 C 4.488281 -3.226562 4.578125 -2.785156 4.578125 -2.265625 L 4.578125 -2.109375 L 1.125 -2.109375 C 1.132812 -1.773438 1.195312 -1.488281 1.3125 -1.25 C 1.4375 -1.019531 1.601562 -0.84375 1.8125 -0.71875 C 2.019531 -0.59375 2.253906 -0.53125 2.515625 -0.53125 Z M 2.46875 -4.078125 C 2.238281 -4.078125 2.03125 -4.019531 1.84375 -3.90625 C 1.65625 -3.800781 1.5 -3.648438 1.375 -3.453125 C 1.257812 -3.253906 1.179688 -3.019531 1.140625 -2.75 L 3.75 -2.75 C 3.695312 -3.175781 3.5625 -3.503906 3.34375 -3.734375 C 3.125 -3.960938 2.832031 -4.078125 2.46875 -4.078125 Z M 2.46875 -4.078125 "/></g></g><g transform="translate(20.210113, 37.628907)"><g><path d="M 3.75 -4.609375 L 4.484375 -4.609375 L 4.484375 1.78125 L 3.703125 1.78125 L 3.703125 -0.515625 L 3.6875 -0.515625 C 3.507812 -0.304688 3.304688 -0.148438 3.078125 -0.046875 C 2.847656 0.0546875 2.59375 0.109375 2.3125 0.109375 C 1.90625 0.109375 1.550781 0.0078125 1.25 -0.1875 C 0.945312 -0.382812 0.710938 -0.660156 0.546875 -1.015625 C 0.390625 -1.367188 0.3125 -1.773438 0.3125 -2.234375 C 0.3125 -2.753906 0.398438 -3.203125 0.578125 -3.578125 C 0.753906 -3.953125 1 -4.234375 1.3125 -4.421875 C 1.625 -4.617188 1.976562 -4.71875 2.375 -4.71875 C 2.664062 -4.71875 2.925781 -4.660156 3.15625 -4.546875 C 3.394531 -4.429688 3.585938 -4.257812 3.734375 -4.03125 L 3.75 -4.03125 Z M 2.40625 -4.078125 C 2.144531 -4.078125 1.914062 -4.003906 1.71875 -3.859375 C 1.53125 -3.722656 1.382812 -3.519531 1.28125 -3.25 C 1.175781 -2.988281 1.125 -2.671875 1.125 -2.296875 C 1.125 -1.929688 1.171875 -1.613281 1.265625 -1.34375 C 1.367188 -1.082031 1.515625 -0.878906 1.703125 -0.734375 C 1.890625 -0.597656 2.117188 -0.53125 2.390625 -0.53125 C 2.660156 -0.53125 2.898438 -0.601562 3.109375 -0.75 C 3.316406 -0.894531 3.476562 -1.097656 3.59375 -1.359375 C 3.707031 -1.617188 3.765625 -1.925781 3.765625 -2.28125 C 3.765625 -2.863281 3.648438 -3.304688 3.421875 -3.609375 C 3.191406 -3.921875 2.851562 -4.078125 2.40625 -4.078125 Z M 2.40625 -4.078125 "/></g></g><g transform="translate(25.302504, 37.628907)"><g><path d="M 1.375 -1.59375 C 1.375 -1.257812 1.457031 -1.003906 1.625 -0.828125 C 1.789062 -0.648438 2.023438 -0.5625 2.328125 -0.5625 C 2.585938 -0.5625 2.8125 -0.617188 3 -0.734375 C 3.195312 -0.859375 3.34375 -1.019531 3.4375 -1.21875 C 3.519531 -1.414062 3.5625 -1.691406 3.5625 -2.046875 L 3.5625 -4.609375 L 4.34375 -4.609375 L 4.34375 0 L 3.609375 0 L 3.609375 -0.640625 C 3.441406 -0.398438 3.238281 -0.210938 3 -0.078125 C 2.757812 0.046875 2.492188 0.109375 2.203125 0.109375 C 1.671875 0.109375 1.269531 -0.0234375 1 -0.296875 C 0.726562 -0.578125 0.59375 -0.972656 0.59375 -1.484375 L 0.59375 -4.609375 L 1.375 -4.609375 Z M 1.375 -1.59375 "/></g></g><g transform="translate(30.255736, 37.628907)"><g><path d="M 2.515625 -0.53125 C 2.816406 -0.53125 3.070312 -0.617188 3.28125 -0.796875 C 3.5 -0.972656 3.648438 -1.203125 3.734375 -1.484375 L 4.5 -1.375 C 4.375 -0.90625 4.128906 -0.539062 3.765625 -0.28125 C 3.410156 -0.0195312 2.984375 0.109375 2.484375 0.109375 C 2.046875 0.109375 1.660156 0.015625 1.328125 -0.171875 C 1.003906 -0.367188 0.753906 -0.644531 0.578125 -1 C 0.398438 -1.363281 0.3125 -1.785156 0.3125 -2.265625 C 0.3125 -2.765625 0.394531 -3.195312 0.5625 -3.5625 C 0.738281 -3.9375 0.988281 -4.222656 1.3125 -4.421875 C 1.644531 -4.617188 2.03125 -4.71875 2.46875 -4.71875 C 2.894531 -4.71875 3.265625 -4.625 3.578125 -4.4375 C 3.898438 -4.25 4.144531 -3.96875 4.3125 -3.59375 C 4.488281 -3.226562 4.578125 -2.785156 4.578125 -2.265625 L 4.578125 -2.109375 L 1.125 -2.109375 C 1.132812 -1.773438 1.195312 -1.488281 1.3125 -1.25 C 1.4375 -1.019531 1.601562 -0.84375 1.8125 -0.71875 C 2.019531 -0.59375 2.253906 -0.53125 2.515625 -0.53125 Z M 2.46875 -4.078125 C 2.238281 -4.078125 2.03125 -4.019531 1.84375 -3.90625 C 1.65625 -3.800781 1.5 -3.648438 1.375 -3.453125 C 1.257812 -3.253906 1.179688 -3.019531 1.140625 -2.75 L 3.75 -2.75 C 3.695312 -3.175781 3.5625 -3.503906 3.34375 -3.734375 C 3.125 -3.960938 2.832031 -4.078125 2.46875 -4.078125 Z M 2.46875 -4.078125 "/></g></g><g transform="translate(35.135039, 37.628907)"><g><path d="M 3.578125 0 L 3.578125 -3.015625 C 3.578125 -3.347656 3.492188 -3.601562 3.328125 -3.78125 C 3.160156 -3.957031 2.925781 -4.046875 2.625 -4.046875 C 2.226562 -4.046875 1.921875 -3.925781 1.703125 -3.6875 C 1.492188 -3.457031 1.390625 -3.082031 1.390625 -2.5625 L 1.390625 0 L 0.609375 0 L 0.609375 -4.609375 L 1.328125 -4.609375 L 1.328125 -3.96875 C 1.484375 -4.195312 1.679688 -4.378906 1.921875 -4.515625 C 2.171875 -4.648438 2.445312 -4.71875 2.75 -4.71875 C 3.28125 -4.71875 3.679688 -4.578125 3.953125 -4.296875 C 4.222656 -4.023438 4.359375 -3.632812 4.359375 -3.125 L 4.359375 0 Z M 3.578125 0 "/></g></g><g transform="translate(40.08827, 37.628907)"><g><path d="M 1.5 -4.609375 L 2.375 -4.609375 L 2.375 -4.015625 L 1.5 -4.015625 L 1.5 -1.21875 C 1.5 -1.039062 1.515625 -0.910156 1.546875 -0.828125 C 1.578125 -0.742188 1.625 -0.6875 1.6875 -0.65625 C 1.75 -0.632812 1.832031 -0.625 1.9375 -0.625 C 2.039062 -0.625 2.1875 -0.640625 2.375 -0.671875 L 2.484375 -0.03125 C 2.253906 0.0195312 2.03125 0.046875 1.8125 0.046875 C 1.53125 0.046875 1.3125 0.00390625 1.15625 -0.078125 C 1.007812 -0.160156 0.898438 -0.28125 0.828125 -0.4375 C 0.753906 -0.59375 0.71875 -0.875 0.71875 -1.28125 L 0.71875 -4.015625 L 0.0625 -4.015625 L 0.0625 -4.609375 L 0.71875 -4.609375 L 0.71875 -5.671875 L 1.5 -6.234375 Z M 1.5 -4.609375 "/></g></g><g transform="translate(42.680128, 37.628907)"><g><path d="M 1.390625 0 L 0.609375 0 L 0.609375 -6.375 L 1.390625 -6.375 Z M 1.390625 0 "/></g></g><g transform="translate(44.671858, 37.628907)"><g><path d="M 1.953125 -1.953125 C 2.035156 -1.703125 2.097656 -1.507812 2.140625 -1.375 C 2.179688 -1.25 2.226562 -1.082031 2.28125 -0.875 L 2.296875 -0.875 C 2.359375 -1.132812 2.40625 -1.316406 2.4375 -1.421875 C 2.46875 -1.535156 2.546875 -1.757812 2.671875 -2.09375 L 3.59375 -4.609375 L 4.390625 -4.609375 L 2.515625 0.34375 C 2.359375 0.738281 2.210938 1.046875 2.078125 1.265625 C 1.941406 1.484375 1.789062 1.640625 1.625 1.734375 C 1.46875 1.828125 1.28125 1.875 1.0625 1.875 C 0.976562 1.875 0.867188 1.863281 0.734375 1.84375 C 0.609375 1.820312 0.5 1.800781 0.40625 1.78125 L 0.5625 1.125 C 0.6875 1.164062 0.804688 1.1875 0.921875 1.1875 C 1.085938 1.1875 1.222656 1.144531 1.328125 1.0625 C 1.441406 0.976562 1.53125 0.863281 1.59375 0.71875 C 1.664062 0.582031 1.726562 0.4375 1.78125 0.28125 C 1.84375 0.132812 1.878906 0.046875 1.890625 0.015625 L 0.140625 -4.609375 L 0.984375 -4.609375 Z M 1.953125 -1.953125 "/></g></g></g><g fill="#000000" fill-opacity="1"><g transform="translate(7.050781, 49.503906)"><g><path d="M 5.9375 0 L 5 0 L 4.25 -1.9375 L 1.59375 -1.9375 L 0.875 0 L 0 0 L 2.4375 -6.375 L 3.34375 -6.375 Z M 2.5 -4.40625 L 1.828125 -2.609375 L 4 -2.609375 L 3.296875 -4.421875 C 3.222656 -4.609375 3.15625 -4.796875 3.09375 -4.984375 C 3.039062 -5.179688 2.972656 -5.421875 2.890625 -5.703125 L 2.875 -5.703125 C 2.789062 -5.304688 2.664062 -4.875 2.5 -4.40625 Z M 2.5 -4.40625 "/></g></g><g transform="translate(12.99118, 49.503906)"><g><path d="M 2.015625 -4.078125 C 1.742188 -4.078125 1.53125 -4.019531 1.375 -3.90625 C 1.21875 -3.800781 1.140625 -3.660156 1.140625 -3.484375 C 1.140625 -3.347656 1.171875 -3.234375 1.234375 -3.140625 C 1.304688 -3.054688 1.414062 -2.984375 1.5625 -2.921875 C 1.707031 -2.867188 1.910156 -2.820312 2.171875 -2.78125 C 2.578125 -2.71875 2.90625 -2.628906 3.15625 -2.515625 C 3.414062 -2.410156 3.609375 -2.265625 3.734375 -2.078125 C 3.867188 -1.890625 3.9375 -1.648438 3.9375 -1.359375 C 3.9375 -1.078125 3.863281 -0.820312 3.71875 -0.59375 C 3.570312 -0.375 3.363281 -0.203125 3.09375 -0.078125 C 2.820312 0.046875 2.515625 0.109375 2.171875 0.109375 C 1.066406 0.109375 0.429688 -0.382812 0.265625 -1.375 L 1.046875 -1.5 C 1.097656 -1.175781 1.210938 -0.929688 1.390625 -0.765625 C 1.578125 -0.609375 1.832031 -0.53125 2.15625 -0.53125 C 2.46875 -0.53125 2.707031 -0.597656 2.875 -0.734375 C 3.050781 -0.867188 3.140625 -1.046875 3.140625 -1.265625 C 3.140625 -1.472656 3.039062 -1.632812 2.84375 -1.75 C 2.65625 -1.875 2.390625 -1.960938 2.046875 -2.015625 C 1.492188 -2.097656 1.078125 -2.242188 0.796875 -2.453125 C 0.515625 -2.671875 0.375 -2.984375 0.375 -3.390625 C 0.375 -3.640625 0.441406 -3.863281 0.578125 -4.0625 C 0.710938 -4.269531 0.90625 -4.429688 1.15625 -4.546875 C 1.40625 -4.660156 1.691406 -4.71875 2.015625 -4.71875 C 2.523438 -4.71875 2.925781 -4.609375 3.21875 -4.390625 C 3.519531 -4.179688 3.707031 -3.863281 3.78125 -3.4375 L 3.015625 -3.328125 C 2.972656 -3.554688 2.863281 -3.738281 2.6875 -3.875 C 2.519531 -4.007812 2.296875 -4.078125 2.015625 -4.078125 Z M 2.015625 -4.078125 "/></g></g><g transform="translate(17.231216, 49.503906)"><g><path d="M 1.390625 -2.75 L 3.234375 -4.609375 L 4.25 -4.609375 L 2.546875 -2.953125 L 4.4375 0 L 3.484375 0 L 1.984375 -2.40625 L 1.390625 -1.828125 L 1.390625 0 L 0.609375 0 L 0.609375 -6.375 L 1.390625 -6.375 Z M 1.390625 -2.75 "/></g></g><g transform="translate(21.684341, 49.503906)"><g><path d="M 2.515625 -0.53125 C 2.816406 -0.53125 3.070312 -0.617188 3.28125 -0.796875 C 3.5 -0.972656 3.648438 -1.203125 3.734375 -1.484375 L 4.5 -1.375 C 4.375 -0.90625 4.128906 -0.539062 3.765625 -0.28125 C 3.410156 -0.0195312 2.984375 0.109375 2.484375 0.109375 C 2.046875 0.109375 1.660156 0.015625 1.328125 -0.171875 C 1.003906 -0.367188 0.753906 -0.644531 0.578125 -1 C 0.398438 -1.363281 0.3125 -1.785156 0.3125 -2.265625 C 0.3125 -2.765625 0.394531 -3.195312 0.5625 -3.5625 C 0.738281 -3.9375 0.988281 -4.222656 1.3125 -4.421875 C 1.644531 -4.617188 2.03125 -4.71875 2.46875 -4.71875 C 2.894531 -4.71875 3.265625 -4.625 3.578125 -4.4375 C 3.898438 -4.25 4.144531 -3.96875 4.3125 -3.59375 C 4.488281 -3.226562 4.578125 -2.785156 4.578125 -2.265625 L 4.578125 -2.109375 L 1.125 -2.109375 C 1.132812 -1.773438 1.195312 -1.488281 1.3125 -1.25 C 1.4375 -1.019531 1.601562 -0.84375 1.8125 -0.71875 C 2.019531 -0.59375 2.253906 -0.53125 2.515625 -0.53125 Z M 2.46875 -4.078125 C 2.238281 -4.078125 2.03125 -4.019531 1.84375 -3.90625 C 1.65625 -3.800781 1.5 -3.648438 1.375 -3.453125 C 1.257812 -3.253906 1.179688 -3.019531 1.140625 -2.75 L 3.75 -2.75 C 3.695312 -3.175781 3.5625 -3.503906 3.34375 -3.734375 C 3.125 -3.960938 2.832031 -4.078125 2.46875 -4.078125 Z M 2.46875 -4.078125 "/></g></g><g transform="translate(26.563643, 49.503906)"><g><path d="M 4.484375 0 L 3.75 0 L 3.75 -0.59375 L 3.734375 -0.59375 C 3.597656 -0.375 3.40625 -0.203125 3.15625 -0.078125 C 2.90625 0.046875 2.644531 0.109375 2.375 0.109375 C 1.976562 0.109375 1.617188 0.0078125 1.296875 -0.1875 C 0.984375 -0.394531 0.738281 -0.679688 0.5625 -1.046875 C 0.394531 -1.410156 0.3125 -1.832031 0.3125 -2.3125 C 0.3125 -2.800781 0.390625 -3.222656 0.546875 -3.578125 C 0.710938 -3.941406 0.945312 -4.222656 1.25 -4.421875 C 1.550781 -4.617188 1.90625 -4.71875 2.3125 -4.71875 C 2.601562 -4.71875 2.859375 -4.664062 3.078125 -4.5625 C 3.304688 -4.457031 3.507812 -4.300781 3.6875 -4.09375 L 3.703125 -4.09375 L 3.703125 -6.375 L 4.484375 -6.375 Z M 2.375 -4.078125 C 2.113281 -4.078125 1.882812 -4.003906 1.6875 -3.859375 C 1.5 -3.710938 1.351562 -3.503906 1.25 -3.234375 C 1.15625 -2.972656 1.109375 -2.660156 1.109375 -2.296875 C 1.109375 -1.921875 1.164062 -1.597656 1.28125 -1.328125 C 1.394531 -1.066406 1.550781 -0.867188 1.75 -0.734375 C 1.945312 -0.597656 2.171875 -0.53125 2.421875 -0.53125 C 2.703125 -0.53125 2.941406 -0.597656 3.140625 -0.734375 C 3.335938 -0.878906 3.488281 -1.078125 3.59375 -1.328125 C 3.695312 -1.585938 3.75 -1.890625 3.75 -2.234375 C 3.75 -2.617188 3.691406 -2.945312 3.578125 -3.21875 C 3.472656 -3.5 3.316406 -3.710938 3.109375 -3.859375 C 2.898438 -4.003906 2.65625 -4.078125 2.375 -4.078125 Z M 2.375 -4.078125 "/></g></g></g><g fill="#000000" fill-opacity="1"><g transform="translate(7.050781, 61.378906)"><g><path d="M 6.640625 -0.03125 L 6.3125 0.640625 C 6.101562 0.554688 5.90625 0.453125 5.71875 0.328125 C 5.53125 0.210938 5.269531 0.0195312 4.9375 -0.25 C 4.488281 -0.0078125 4 0.109375 3.46875 0.109375 C 2.882812 0.109375 2.359375 -0.0234375 1.890625 -0.296875 C 1.429688 -0.578125 1.066406 -0.96875 0.796875 -1.46875 C 0.535156 -1.96875 0.40625 -2.535156 0.40625 -3.171875 C 0.40625 -3.835938 0.535156 -4.421875 0.796875 -4.921875 C 1.054688 -5.421875 1.414062 -5.804688 1.875 -6.078125 C 2.34375 -6.347656 2.875 -6.484375 3.46875 -6.484375 C 4.039062 -6.484375 4.554688 -6.347656 5.015625 -6.078125 C 5.484375 -5.804688 5.847656 -5.421875 6.109375 -4.921875 C 6.378906 -4.421875 6.515625 -3.84375 6.515625 -3.1875 C 6.515625 -2.644531 6.425781 -2.160156 6.25 -1.734375 C 6.082031 -1.316406 5.847656 -0.96875 5.546875 -0.6875 C 5.773438 -0.519531 5.960938 -0.382812 6.109375 -0.28125 C 6.265625 -0.1875 6.441406 -0.101562 6.640625 -0.03125 Z M 3.46875 -1.078125 L 3.703125 -1.765625 C 3.921875 -1.710938 4.117188 -1.640625 4.296875 -1.546875 C 4.472656 -1.460938 4.671875 -1.328125 4.890625 -1.140625 C 5.128906 -1.359375 5.3125 -1.632812 5.4375 -1.96875 C 5.570312 -2.3125 5.640625 -2.710938 5.640625 -3.171875 C 5.640625 -3.703125 5.546875 -4.160156 5.359375 -4.546875 C 5.179688 -4.941406 4.925781 -5.242188 4.59375 -5.453125 C 4.257812 -5.660156 3.878906 -5.765625 3.453125 -5.765625 C 3.023438 -5.765625 2.644531 -5.660156 2.3125 -5.453125 C 1.988281 -5.242188 1.734375 -4.941406 1.546875 -4.546875 C 1.367188 -4.160156 1.28125 -3.695312 1.28125 -3.15625 C 1.28125 -2.644531 1.375 -2.195312 1.5625 -1.8125 C 1.75 -1.425781 2.003906 -1.128906 2.328125 -0.921875 C 2.660156 -0.710938 3.039062 -0.609375 3.46875 -0.609375 C 3.769531 -0.609375 4.039062 -0.65625 4.28125 -0.75 C 4.144531 -0.832031 4.015625 -0.898438 3.890625 -0.953125 C 3.765625 -1.003906 3.625 -1.046875 3.46875 -1.078125 Z M 3.46875 -1.078125 "/></g></g><g transform="translate(13.96965, 61.378906)"><g><path d="M 1.375 -1.59375 C 1.375 -1.257812 1.457031 -1.003906 1.625 -0.828125 C 1.789062 -0.648438 2.023438 -0.5625 2.328125 -0.5625 C 2.585938 -0.5625 2.8125 -0.617188 3 -0.734375 C 3.195312 -0.859375 3.34375 -1.019531 3.4375 -1.21875 C 3.519531 -1.414062 3.5625 -1.691406 3.5625 -2.046875 L 3.5625 -4.609375 L 4.34375 -4.609375 L 4.34375 0 L 3.609375 0 L 3.609375 -0.640625 C 3.441406 -0.398438 3.238281 -0.210938 3 -0.078125 C 2.757812 0.046875 2.492188 0.109375 2.203125 0.109375 C 1.671875 0.109375 1.269531 -0.0234375 1 -0.296875 C 0.726562 -0.578125 0.59375 -0.972656 0.59375 -1.484375 L 0.59375 -4.609375 L 1.375 -4.609375 Z M 1.375 -1.59375 "/></g></g><g transform="translate(18.922881, 61.378906)"><g><path d="M 2.515625 -0.53125 C 2.816406 -0.53125 3.070312 -0.617188 3.28125 -0.796875 C 3.5 -0.972656 3.648438 -1.203125 3.734375 -1.484375 L 4.5 -1.375 C 4.375 -0.90625 4.128906 -0.539062 3.765625 -0.28125 C 3.410156 -0.0195312 2.984375 0.109375 2.484375 0.109375 C 2.046875 0.109375 1.660156 0.015625 1.328125 -0.171875 C 1.003906 -0.367188 0.753906 -0.644531 0.578125 -1 C 0.398438 -1.363281 0.3125 -1.785156 0.3125 -2.265625 C 0.3125 -2.765625 0.394531 -3.195312 0.5625 -3.5625 C 0.738281 -3.9375 0.988281 -4.222656 1.3125 -4.421875 C 1.644531 -4.617188 2.03125 -4.71875 2.46875 -4.71875 C 2.894531 -4.71875 3.265625 -4.625 3.578125 -4.4375 C 3.898438 -4.25 4.144531 -3.96875 4.3125 -3.59375 C 4.488281 -3.226562 4.578125 -2.785156 4.578125 -2.265625 L 4.578125 -2.109375 L 1.125 -2.109375 C 1.132812 -1.773438 1.195312 -1.488281 1.3125 -1.25 C 1.4375 -1.019531 1.601562 -0.84375 1.8125 -0.71875 C 2.019531 -0.59375 2.253906 -0.53125 2.515625 -0.53125 Z M 2.46875 -4.078125 C 2.238281 -4.078125 2.03125 -4.019531 1.84375 -3.90625 C 1.65625 -3.800781 1.5 -3.648438 1.375 -3.453125 C 1.257812 -3.253906 1.179688 -3.019531 1.140625 -2.75 L 3.75 -2.75 C 3.695312 -3.175781 3.5625 -3.503906 3.34375 -3.734375 C 3.125 -3.960938 2.832031 -4.078125 2.46875 -4.078125 Z M 2.46875 -4.078125 "/></g></g><g transform="translate(23.802184, 61.378906)"><g><path d="M 2.015625 -4.078125 C 1.742188 -4.078125 1.53125 -4.019531 1.375 -3.90625 C 1.21875 -3.800781 1.140625 -3.660156 1.140625 -3.484375 C 1.140625 -3.347656 1.171875 -3.234375 1.234375 -3.140625 C 1.304688 -3.054688 1.414062 -2.984375 1.5625 -2.921875 C 1.707031 -2.867188 1.910156 -2.820312 2.171875 -2.78125 C 2.578125 -2.71875 2.90625 -2.628906 3.15625 -2.515625 C 3.414062 -2.410156 3.609375 -2.265625 3.734375 -2.078125 C 3.867188 -1.890625 3.9375 -1.648438 3.9375 -1.359375 C 3.9375 -1.078125 3.863281 -0.820312 3.71875 -0.59375 C 3.570312 -0.375 3.363281 -0.203125 3.09375 -0.078125 C 2.820312 0.046875 2.515625 0.109375 2.171875 0.109375 C 1.066406 0.109375 0.429688 -0.382812 0.265625 -1.375 L 1.046875 -1.5 C 1.097656 -1.175781 1.210938 -0.929688 1.390625 -0.765625 C 1.578125 -0.609375 1.832031 -0.53125 2.15625 -0.53125 C 2.46875 -0.53125 2.707031 -0.597656 2.875 -0.734375 C 3.050781 -0.867188 3.140625 -1.046875 3.140625 -1.265625 C 3.140625 -1.472656 3.039062 -1.632812 2.84375 -1.75 C 2.65625 -1.875 2.390625 -1.960938 2.046875 -2.015625 C 1.492188 -2.097656 1.078125 -2.242188 0.796875 -2.453125 C 0.515625 -2.671875 0.375 -2.984375 0.375 -3.390625 C 0.375 -3.640625 0.441406 -3.863281 0.578125 -4.0625 C 0.710938 -4.269531 0.90625 -4.429688 1.15625 -4.546875 C 1.40625 -4.660156 1.691406 -4.71875 2.015625 -4.71875 C 2.523438 -4.71875 2.925781 -4.609375 3.21875 -4.390625 C 3.519531 -4.179688 3.707031 -3.863281 3.78125 -3.4375 L 3.015625 -3.328125 C 2.972656 -3.554688 2.863281 -3.738281 2.6875 -3.875 C 2.519531 -4.007812 2.296875 -4.078125 2.015625 -4.078125 Z M 2.015625 -4.078125 "/></g></g><g transform="translate(28.04222, 61.378906)"><g><path d="M 1.5 -4.609375 L 2.375 -4.609375 L 2.375 -4.015625 L 1.5 -4.015625 L 1.5 -1.21875 C 1.5 -1.039062 1.515625 -0.910156 1.546875 -0.828125 C 1.578125 -0.742188 1.625 -0.6875 1.6875 -0.65625 C 1.75 -0.632812 1.832031 -0.625 1.9375 -0.625 C 2.039062 -0.625 2.1875 -0.640625 2.375 -0.671875 L 2.484375 -0.03125 C 2.253906 0.0195312 2.03125 0.046875 1.8125 0.046875 C 1.53125 0.046875 1.3125 0.00390625 1.15625 -0.078125 C 1.007812 -0.160156 0.898438 -0.28125 0.828125 -0.4375 C 0.753906 -0.59375 0.71875 -0.875 0.71875 -1.28125 L 0.71875 -4.015625 L 0.0625 -4.015625 L 0.0625 -4.609375 L 0.71875 -4.609375 L 0.71875 -5.671875 L 1.5 -6.234375 Z M 1.5 -4.609375 "/></g></g><g transform="translate(30.634078, 61.378906)"><g><path d="M 1.390625 -5.484375 L 0.609375 -5.484375 L 0.609375 -6.375 L 1.390625 -6.375 Z M 1.390625 0 L 0.609375 0 L 0.609375 -4.609375 L 1.390625 -4.609375 Z M 1.390625 0 "/></g></g><g transform="translate(32.625807, 61.378906)"><g><path d="M 0.3125 -2.3125 C 0.3125 -2.8125 0.398438 -3.238281 0.578125 -3.59375 C 0.765625 -3.957031 1.019531 -4.234375 1.34375 -4.421875 C 1.664062 -4.617188 2.039062 -4.71875 2.46875 -4.71875 C 2.90625 -4.71875 3.285156 -4.625 3.609375 -4.4375 C 3.929688 -4.25 4.179688 -3.972656 4.359375 -3.609375 C 4.546875 -3.253906 4.640625 -2.820312 4.640625 -2.3125 C 4.640625 -1.800781 4.546875 -1.363281 4.359375 -1 C 4.179688 -0.644531 3.925781 -0.367188 3.59375 -0.171875 C 3.269531 0.015625 2.894531 0.109375 2.46875 0.109375 C 2.050781 0.109375 1.675781 0.0195312 1.34375 -0.15625 C 1.019531 -0.34375 0.765625 -0.617188 0.578125 -0.984375 C 0.398438 -1.347656 0.3125 -1.789062 0.3125 -2.3125 Z M 2.46875 -4.078125 C 2.207031 -4.078125 1.972656 -4.007812 1.765625 -3.875 C 1.566406 -3.738281 1.40625 -3.535156 1.28125 -3.265625 C 1.164062 -3.003906 1.109375 -2.6875 1.109375 -2.3125 C 1.109375 -1.925781 1.164062 -1.597656 1.28125 -1.328125 C 1.40625 -1.066406 1.566406 -0.867188 1.765625 -0.734375 C 1.972656 -0.597656 2.207031 -0.53125 2.46875 -0.53125 C 2.75 -0.53125 2.988281 -0.597656 3.1875 -0.734375 C 3.394531 -0.878906 3.554688 -1.082031 3.671875 -1.34375 C 3.785156 -1.613281 3.84375 -1.9375 3.84375 -2.3125 C 3.84375 -2.6875 3.78125 -3.003906 3.65625 -3.265625 C 3.539062 -3.535156 3.378906 -3.738281 3.171875 -3.875 C 2.972656 -4.007812 2.738281 -4.078125 2.46875 -4.078125 Z M 2.46875 -4.078125 "/></g></g><g transform="translate(37.579039, 61.378906)"><g><path d="M 3.578125 0 L 3.578125 -3.015625 C 3.578125 -3.347656 3.492188 -3.601562 3.328125 -3.78125 C 3.160156 -3.957031 2.925781 -4.046875 2.625 -4.046875 C 2.226562 -4.046875 1.921875 -3.925781 1.703125 -3.6875 C 1.492188 -3.457031 1.390625 -3.082031 1.390625 -2.5625 L 1.390625 0 L 0.609375 0 L 0.609375 -4.609375 L 1.328125 -4.609375 L 1.328125 -3.96875 C 1.484375 -4.195312 1.679688 -4.378906 1.921875 -4.515625 C 2.171875 -4.648438 2.445312 -4.71875 2.75 -4.71875 C 3.28125 -4.71875 3.679688 -4.578125 3.953125 -4.296875 C 4.222656 -4.023438 4.359375 -3.632812 4.359375 -3.125 L 4.359375 0 Z M 3.578125 0 "/></g></g><g transform="translate(42.53227, 61.378906)"><g><path d="M 2.015625 -4.078125 C 1.742188 -4.078125 1.53125 -4.019531 1.375 -3.90625 C 1.21875 -3.800781 1.140625 -3.660156 1.140625 -3.484375 C 1.140625 -3.347656 1.171875 -3.234375 1.234375 -3.140625 C 1.304688 -3.054688 1.414062 -2.984375 1.5625 -2.921875 C 1.707031 -2.867188 1.910156 -2.820312 2.171875 -2.78125 C 2.578125 -2.71875 2.90625 -2.628906 3.15625 -2.515625 C 3.414062 -2.410156 3.609375 -2.265625 3.734375 -2.078125 C 3.867188 -1.890625 3.9375 -1.648438 3.9375 -1.359375 C 3.9375 -1.078125 3.863281 -0.820312 3.71875 -0.59375 C 3.570312 -0.375 3.363281 -0.203125 3.09375 -0.078125 C 2.820312 0.046875 2.515625 0.109375 2.171875 0.109375 C 1.066406 0.109375 0.429688 -0.382812 0.265625 -1.375 L 1.046875 -1.5 C 1.097656 -1.175781 1.210938 -0.929688 1.390625 -0.765625 C 1.578125 -0.609375 1.832031 -0.53125 2.15625 -0.53125 C 2.46875 -0.53125 2.707031 -0.597656 2.875 -0.734375 C 3.050781 -0.867188 3.140625 -1.046875 3.140625 -1.265625 C 3.140625 -1.472656 3.039062 -1.632812 2.84375 -1.75 C 2.65625 -1.875 2.390625 -1.960938 2.046875 -2.015625 C 1.492188 -2.097656 1.078125 -2.242188 0.796875 -2.453125 C 0.515625 -2.671875 0.375 -2.984375 0.375 -3.390625 C 0.375 -3.640625 0.441406 -3.863281 0.578125 -4.0625 C 0.710938 -4.269531 0.90625 -4.429688 1.15625 -4.546875 C 1.40625 -4.660156 1.691406 -4.71875 2.015625 -4.71875 C 2.523438 -4.71875 2.925781 -4.609375 3.21875 -4.390625 C 3.519531 -4.179688 3.707031 -3.863281 3.78125 -3.4375 L 3.015625 -3.328125 C 2.972656 -3.554688 2.863281 -3.738281 2.6875 -3.875 C 2.519531 -4.007812 2.296875 -4.078125 2.015625 -4.078125 Z M 2.015625 -4.078125 "/></g></g></g><path fill="#f5974e" d="M 51.609375 21.714844 C 51.234375 21.714844 50.875 21.785156 50.53125 21.929688 C 50.183594 22.074219 49.882812 22.277344 49.617188 22.539062 C 49.351562 22.804688 49.148438 23.109375 49.007812 23.453125 C 48.863281 23.796875 48.792969 24.15625 48.792969 24.53125 L 48.792969 27.910156 C 48.792969 28.28125 48.863281 28.640625 49.007812 28.988281 C 49.148438 29.332031 49.351562 29.636719 49.617188 29.898438 C 49.882812 30.164062 50.183594 30.367188 50.53125 30.511719 C 50.875 30.652344 51.234375 30.726562 51.609375 30.726562 L 54.421875 30.726562 L 57.800781 34.101562 L 57.800781 30.726562 L 59.492188 30.726562 C 59.863281 30.726562 60.222656 30.652344 60.570312 30.511719 C 60.914062 30.367188 61.21875 30.164062 61.480469 29.898438 C 61.746094 29.636719 61.949219 29.332031 62.09375 28.988281 C 62.234375 28.640625 62.304688 28.28125 62.304688 27.910156 L 62.304688 24.53125 C 62.304688 24.15625 62.234375 23.796875 62.09375 23.453125 C 61.949219 23.109375 61.746094 22.804688 61.480469 22.539062 C 61.21875 22.277344 60.914062 22.074219 60.570312 21.929688 C 60.222656 21.785156 59.863281 21.714844 59.492188 21.714844 Z M 51.609375 21.714844 " fill-opacity="1" fill-rule="nonzero"/><path fill="#f5bb4e" d="M 59.492188 21.714844 L 51.609375 21.714844 C 51.234375 21.714844 50.875 21.785156 50.53125 21.929688 C 50.183594 22.074219 49.882812 22.277344 49.617188 22.539062 C 49.351562 22.804688 49.148438 23.109375 49.007812 23.453125 C 48.863281 23.796875 48.792969 24.15625 48.792969 24.53125 L 48.792969 27.910156 C 48.792969 27.535156 48.863281 27.175781 49.007812 26.832031 C 49.148438 26.488281 49.351562 26.183594 49.617188 25.917969 C 49.882812 25.65625 50.183594 25.449219 50.53125 25.308594 C 50.875 25.164062 51.234375 25.09375 51.609375 25.09375 L 59.492188 25.09375 C 59.863281 25.09375 60.222656 25.164062 60.570312 25.308594 C 60.914062 25.449219 61.21875 25.65625 61.480469 25.917969 C 61.746094 26.183594 61.949219 26.488281 62.09375 26.832031 C 62.234375 27.175781 62.304688 27.535156 62.304688 27.910156 L 62.304688 24.53125 C 62.304688 24.15625 62.234375 23.796875 62.09375 23.453125 C 61.949219 23.109375 61.746094 22.804688 61.480469 22.539062 C 61.21875 22.277344 60.914062 22.074219 60.570312 21.929688 C 60.222656 21.785156 59.863281 21.714844 59.492188 21.714844 Z M 59.492188 21.714844 " fill-opacity="1" fill-rule="nonzero"/><path fill="#f5bb4e" d="M 52.171875 8.203125 L 40.910156 8.203125 C 40.613281 8.203125 40.320312 8.230469 40.03125 8.289062 C 39.742188 8.34375 39.457031 8.429688 39.183594 8.542969 C 38.910156 8.65625 38.652344 8.796875 38.40625 8.960938 C 38.160156 9.125 37.933594 9.3125 37.722656 9.519531 C 37.515625 9.730469 37.328125 9.957031 37.164062 10.203125 C 37 10.449219 36.859375 10.707031 36.746094 10.980469 C 36.632812 11.253906 36.546875 11.539062 36.492188 11.828125 C 36.433594 12.117188 36.40625 12.410156 36.40625 12.707031 L 36.40625 18.335938 C 36.40625 18.632812 36.433594 18.925781 36.492188 19.214844 C 36.546875 19.503906 36.632812 19.789062 36.746094 20.0625 C 36.859375 20.335938 37 20.59375 37.164062 20.839844 C 37.328125 21.085938 37.515625 21.3125 37.722656 21.523438 C 37.933594 21.730469 38.160156 21.917969 38.40625 22.082031 C 38.652344 22.246094 38.910156 22.386719 39.183594 22.5 C 39.457031 22.613281 39.742188 22.699219 40.03125 22.753906 C 40.320312 22.8125 40.613281 22.839844 40.910156 22.839844 L 42.035156 22.839844 L 42.035156 27.347656 L 47.101562 22.839844 L 52.171875 22.839844 C 52.464844 22.839844 52.757812 22.8125 53.050781 22.753906 C 53.339844 22.699219 53.621094 22.613281 53.894531 22.5 C 54.167969 22.386719 54.425781 22.246094 54.671875 22.082031 C 54.917969 21.917969 55.148438 21.730469 55.355469 21.523438 C 55.566406 21.3125 55.753906 21.085938 55.917969 20.839844 C 56.082031 20.59375 56.21875 20.335938 56.332031 20.0625 C 56.445312 19.789062 56.53125 19.503906 56.589844 19.214844 C 56.648438 18.925781 56.675781 18.632812 56.675781 18.335938 L 56.675781 12.707031 C 56.675781 12.410156 56.648438 12.117188 56.589844 11.828125 C 56.53125 11.539062 56.445312 11.253906 56.332031 10.980469 C 56.21875 10.707031 56.082031 10.449219 55.917969 10.203125 C 55.753906 9.957031 55.566406 9.730469 55.355469 9.519531 C 55.148438 9.3125 54.917969 9.125 54.671875 8.960938 C 54.425781 8.796875 54.167969 8.65625 53.894531 8.542969 C 53.621094 8.429688 53.339844 8.34375 53.050781 8.289062 C 52.757812 8.230469 52.464844 8.203125 52.171875 8.203125 Z M 52.171875 8.203125 " fill-opacity="1" fill-rule="nonzero"/><path fill="#f5974e" d="M 52.171875 8.203125 L 40.910156 8.203125 C 40.613281 8.203125 40.320312 8.230469 40.03125 8.289062 C 39.742188 8.34375 39.457031 8.429688 39.183594 8.542969 C 38.910156 8.65625 38.652344 8.796875 38.40625 8.960938 C 38.160156 9.125 37.933594 9.3125 37.722656 9.519531 C 37.515625 9.730469 37.328125 9.957031 37.164062 10.203125 C 37 10.449219 36.859375 10.707031 36.746094 10.980469 C 36.632812 11.253906 36.546875 11.539062 36.492188 11.828125 C 36.433594 12.117188 36.40625 12.410156 36.40625 12.707031 L 36.40625 16.085938 C 36.40625 15.789062 36.433594 15.496094 36.492188 15.207031 C 36.546875 14.914062 36.632812 14.632812 36.746094 14.359375 C 36.859375 14.085938 37 13.828125 37.164062 13.582031 C 37.328125 13.335938 37.515625 13.109375 37.722656 12.898438 C 37.933594 12.691406 38.160156 12.503906 38.40625 12.339844 C 38.652344 12.175781 38.910156 12.035156 39.183594 11.921875 C 39.457031 11.808594 39.742188 11.722656 40.03125 11.667969 C 40.320312 11.609375 40.613281 11.578125 40.910156 11.578125 L 52.171875 11.578125 C 52.464844 11.578125 52.757812 11.609375 53.050781 11.667969 C 53.339844 11.722656 53.621094 11.808594 53.894531 11.921875 C 54.167969 12.035156 54.425781 12.175781 54.671875 12.339844 C 54.917969 12.503906 55.148438 12.691406 55.355469 12.898438 C 55.566406 13.109375 55.753906 13.335938 55.917969 13.582031 C 56.082031 13.828125 56.21875 14.085938 56.332031 14.359375 C 56.445312 14.632812 56.53125 14.914062 56.589844 15.207031 C 56.648438 15.496094 56.675781 15.789062 56.675781 16.085938 L 56.675781 12.707031 C 56.675781 12.410156 56.648438 12.117188 56.589844 11.828125 C 56.53125 11.539062 56.445312 11.253906 56.332031 10.980469 C 56.21875 10.707031 56.082031 10.449219 55.917969 10.203125 C 55.753906 9.957031 55.566406 9.730469 55.355469 9.519531 C 55.148438 9.3125 54.917969 9.125 54.671875 8.960938 C 54.425781 8.796875 54.167969 8.65625 53.894531 8.542969 C 53.621094 8.429688 53.339844 8.34375 53.050781 8.289062 C 52.757812 8.230469 52.464844 8.203125 52.171875 8.203125 Z M 52.171875 8.203125 " fill-opacity="1" fill-rule="nonzero"/><g clip-path="url(#c5236325b7)"><path stroke-linecap="round" transform="matrix(0.587565, 0, 0, 0.587565, 35.841469, 7.638348)" fill="none" stroke-linejoin="round" d="M 27.793356 0.961217 L 8.626597 0.961217 C 8.121334 0.961217 7.622719 1.007754 7.130752 1.107477 C 6.638786 1.200552 6.153467 1.346812 5.688093 1.53961 C 5.222719 1.732408 4.783938 1.971743 4.365102 2.250967 C 3.946265 2.530192 3.560669 2.849305 3.201667 3.20166 C 2.849312 3.560662 2.530199 3.946258 2.250974 4.365095 C 1.97175 4.783931 1.732415 5.222712 1.539617 5.688086 C 1.346819 6.15346 1.200559 6.638779 1.107484 7.130745 C 1.007761 7.622712 0.961224 8.121327 0.961224 8.62659 L 0.961224 18.206645 C 0.961224 18.711909 1.007761 19.210524 1.107484 19.70249 C 1.200559 20.194457 1.346819 20.679776 1.539617 21.14515 C 1.732415 21.610523 1.97175 22.049305 2.250974 22.468141 C 2.530199 22.886978 2.849312 23.272573 3.201667 23.631576 C 3.560669 23.983931 3.946265 24.303044 4.365102 24.582269 C 4.783938 24.861493 5.222719 25.100828 5.688093 25.293626 C 6.153467 25.486424 6.638786 25.632684 7.130752 25.725759 C 7.622719 25.825482 8.121334 25.872019 8.626597 25.872019 L 10.541279 25.872019 L 10.541279 33.544041 L 19.163993 25.872019 L 27.793356 25.872019 C 28.291971 25.872019 28.790586 25.825482 29.289201 25.725759 C 29.781167 25.632684 30.259838 25.486424 30.725212 25.293626 C 31.190586 25.100828 31.629367 24.861493 32.048203 24.582269 C 32.46704 24.303044 32.859284 23.983931 33.211638 23.631576 C 33.570641 23.272573 33.889755 22.886978 34.168979 22.468141 C 34.448203 22.049305 34.68089 21.610523 34.873688 21.14515 C 35.066486 20.679776 35.212746 20.194457 35.312469 19.70249 C 35.412192 19.210524 35.45873 18.711909 35.45873 18.206645 L 35.45873 8.62659 C 35.45873 8.121327 35.412192 7.622712 35.312469 7.130745 C 35.212746 6.638779 35.066486 6.15346 34.873688 5.688086 C 34.68089 5.222712 34.448203 4.783931 34.168979 4.365095 C 33.889755 3.946258 33.570641 3.560662 33.211638 3.20166 C 32.859284 2.849305 32.46704 2.530192 32.048203 2.250967 C 31.629367 1.971743 31.190586 1.732408 30.725212 1.53961 C 30.259838 1.346812 29.781167 1.200552 29.289201 1.107477 C 28.790586 1.007754 28.291971 0.961217 27.793356 0.961217 Z M 27.793356 0.961217 " stroke="#222126" stroke-width="2" stroke-opacity="1" stroke-miterlimit="4"/></g><path stroke-linecap="round" transform="matrix(0.587565, 0, 0, 0.587565, 35.841469, 7.638348)" fill="none" stroke-linejoin="round" d="M 22.042663 31.622712 L 22.042663 34.501382 C 22.042663 35.132961 22.162331 35.744595 22.408314 36.336285 C 22.64765 36.921326 22.993356 37.439886 23.445433 37.885315 C 23.897511 38.337393 24.409422 38.683099 25.001112 38.929083 C 25.586154 39.168418 26.197788 39.294734 26.836015 39.294734 L 31.622719 39.294734 L 37.373411 45.038778 L 37.373411 39.294734 L 40.252081 39.294734 C 40.88366 39.294734 41.495294 39.168418 42.086984 38.929083 C 42.672026 38.683099 43.190585 38.337393 43.636015 37.885315 C 44.088092 37.439886 44.433799 36.921326 44.679782 36.336285 C 44.919117 35.744595 45.038785 35.132961 45.038785 34.501382 L 45.038785 28.750689 C 45.038785 28.112462 44.919117 27.500828 44.679782 26.915786 C 44.433799 26.330745 44.088092 25.812185 43.636015 25.360108 C 43.190585 24.914679 42.672026 24.568972 42.086984 24.322989 C 41.495294 24.077005 40.88366 23.957338 40.252081 23.957338 L 39.294741 23.957338 " stroke="#222126" stroke-width="2" stroke-opacity="1" stroke-miterlimit="4"/></svg>
