<svg xmlns="http://www.w3.org/2000/svg" xmlns:xlink="http://www.w3.org/1999/xlink" width="95" zoomAndPan="magnify" viewBox="0 0 71.25 71.25" height="95" preserveAspectRatio="xMidYMid meet" version="1.0"><defs><g/><clipPath id="f0a019da51"><path d="M 0 0 L 70.507812 0 L 70.507812 70.507812 L 0 70.507812 Z M 0 0 " clip-rule="nonzero"/></clipPath><clipPath id="3bd8a16b48"><path d="M 13.359375 0 L 57.148438 0 C 60.691406 0 64.089844 1.40625 66.59375 3.914062 C 69.101562 6.417969 70.507812 9.816406 70.507812 13.359375 L 70.507812 57.148438 C 70.507812 60.691406 69.101562 64.089844 66.59375 66.59375 C 64.089844 69.101562 60.691406 70.507812 57.148438 70.507812 L 13.359375 70.507812 C 9.816406 70.507812 6.417969 69.101562 3.914062 66.59375 C 1.40625 64.089844 0 60.691406 0 57.148438 L 0 13.359375 C 0 9.816406 1.40625 6.417969 3.914062 3.914062 C 6.417969 1.40625 9.816406 0 13.359375 0 Z M 13.359375 0 " clip-rule="nonzero"/></clipPath><clipPath id="ea872ef52a"><path d="M 45 32.21875 L 62 32.21875 L 62 56 L 45 56 Z M 45 32.21875 " clip-rule="nonzero"/></clipPath></defs><g clip-path="url(#f0a019da51)"><g clip-path="url(#3bd8a16b48)"><path fill="#545454" d="M 0 0 L 70.507812 0 L 70.507812 70.507812 L 0 70.507812 Z M 0 0 " fill-opacity="1" fill-rule="nonzero"/></g></g><g fill="#ffffff" fill-opacity="1"><g transform="translate(7.050781, 15.066408)"><g><path d="M 5.234375 -4.5 C 5.234375 -4.082031 5.140625 -3.722656 4.953125 -3.421875 C 4.765625 -3.128906 4.492188 -2.90625 4.140625 -2.75 C 3.785156 -2.601562 3.367188 -2.53125 2.890625 -2.53125 L 1.546875 -2.53125 L 1.546875 0 L 0.703125 0 L 0.703125 -6.375 L 2.90625 -6.375 C 3.65625 -6.375 4.226562 -6.210938 4.625 -5.890625 C 5.03125 -5.578125 5.234375 -5.113281 5.234375 -4.5 Z M 4.359375 -4.484375 C 4.359375 -4.867188 4.234375 -5.15625 3.984375 -5.34375 C 3.742188 -5.53125 3.375 -5.625 2.875 -5.625 L 1.546875 -5.625 L 1.546875 -3.28125 L 2.890625 -3.28125 C 3.378906 -3.28125 3.742188 -3.378906 3.984375 -3.578125 C 4.234375 -3.773438 4.359375 -4.078125 4.359375 -4.484375 Z M 4.359375 -4.484375 "/></g></g><g transform="translate(12.582397, 15.066408)"><g><path d="M 1.390625 -5.484375 L 0.609375 -5.484375 L 0.609375 -6.375 L 1.390625 -6.375 Z M 1.390625 0 L 0.609375 0 L 0.609375 -4.609375 L 1.390625 -4.609375 Z M 1.390625 0 "/></g></g><g transform="translate(14.574127, 15.066408)"><g><path d="M 2.53125 -4.078125 C 2.082031 -4.078125 1.734375 -3.921875 1.484375 -3.609375 C 1.234375 -3.304688 1.109375 -2.875 1.109375 -2.3125 C 1.109375 -1.96875 1.160156 -1.660156 1.265625 -1.390625 C 1.378906 -1.117188 1.539062 -0.90625 1.75 -0.75 C 1.957031 -0.601562 2.203125 -0.53125 2.484375 -0.53125 C 2.816406 -0.53125 3.09375 -0.632812 3.3125 -0.84375 C 3.53125 -1.050781 3.664062 -1.332031 3.71875 -1.6875 L 4.484375 -1.578125 C 4.429688 -1.234375 4.3125 -0.929688 4.125 -0.671875 C 3.9375 -0.421875 3.695312 -0.226562 3.40625 -0.09375 C 3.125 0.0390625 2.8125 0.109375 2.46875 0.109375 C 2.039062 0.109375 1.660156 0.0078125 1.328125 -0.1875 C 1.003906 -0.382812 0.753906 -0.660156 0.578125 -1.015625 C 0.398438 -1.378906 0.3125 -1.804688 0.3125 -2.296875 C 0.3125 -2.816406 0.398438 -3.253906 0.578125 -3.609375 C 0.753906 -3.972656 1.003906 -4.25 1.328125 -4.4375 C 1.660156 -4.625 2.050781 -4.71875 2.5 -4.71875 C 2.820312 -4.71875 3.117188 -4.660156 3.390625 -4.546875 C 3.660156 -4.429688 3.882812 -4.265625 4.0625 -4.046875 C 4.238281 -3.828125 4.351562 -3.566406 4.40625 -3.265625 L 3.65625 -3.15625 C 3.582031 -3.445312 3.445312 -3.671875 3.25 -3.828125 C 3.050781 -3.992188 2.8125 -4.078125 2.53125 -4.078125 Z M 2.53125 -4.078125 "/></g></g><g transform="translate(19.24034, 15.066408)"><g><path d="M 1.390625 -2.75 L 3.234375 -4.609375 L 4.25 -4.609375 L 2.546875 -2.953125 L 4.4375 0 L 3.484375 0 L 1.984375 -2.40625 L 1.390625 -1.828125 L 1.390625 0 L 0.609375 0 L 0.609375 -6.375 L 1.390625 -6.375 Z M 1.390625 -2.75 "/></g></g><g transform="translate(23.693465, 15.066408)"><g><path d="M 1.375 -1.59375 C 1.375 -1.257812 1.457031 -1.003906 1.625 -0.828125 C 1.789062 -0.648438 2.023438 -0.5625 2.328125 -0.5625 C 2.585938 -0.5625 2.8125 -0.617188 3 -0.734375 C 3.195312 -0.859375 3.34375 -1.019531 3.4375 -1.21875 C 3.519531 -1.414062 3.5625 -1.691406 3.5625 -2.046875 L 3.5625 -4.609375 L 4.34375 -4.609375 L 4.34375 0 L 3.609375 0 L 3.609375 -0.640625 C 3.441406 -0.398438 3.238281 -0.210938 3 -0.078125 C 2.757812 0.046875 2.492188 0.109375 2.203125 0.109375 C 1.671875 0.109375 1.269531 -0.0234375 1 -0.296875 C 0.726562 -0.578125 0.59375 -0.972656 0.59375 -1.484375 L 0.59375 -4.609375 L 1.375 -4.609375 Z M 1.375 -1.59375 "/></g></g><g transform="translate(28.646697, 15.066408)"><g><path d="M 1.40625 -0.53125 L 1.390625 -0.53125 L 1.390625 1.765625 L 0.609375 1.765625 L 0.609375 -4.609375 L 1.328125 -4.609375 L 1.328125 -4.03125 L 1.359375 -4.03125 C 1.515625 -4.25 1.707031 -4.414062 1.9375 -4.53125 C 2.164062 -4.65625 2.429688 -4.71875 2.734375 -4.71875 C 3.140625 -4.71875 3.5 -4.617188 3.8125 -4.421875 C 4.125 -4.222656 4.363281 -3.941406 4.53125 -3.578125 C 4.695312 -3.210938 4.78125 -2.789062 4.78125 -2.3125 C 4.78125 -1.820312 4.695312 -1.394531 4.53125 -1.03125 C 4.363281 -0.664062 4.128906 -0.382812 3.828125 -0.1875 C 3.535156 0.0078125 3.1875 0.109375 2.78125 0.109375 C 2.207031 0.109375 1.75 -0.101562 1.40625 -0.53125 Z M 2.65625 -4.078125 C 2.382812 -4.078125 2.148438 -4.003906 1.953125 -3.859375 C 1.753906 -3.710938 1.597656 -3.507812 1.484375 -3.25 C 1.378906 -2.988281 1.328125 -2.695312 1.328125 -2.375 C 1.328125 -1.988281 1.382812 -1.65625 1.5 -1.375 C 1.613281 -1.101562 1.769531 -0.894531 1.96875 -0.75 C 2.175781 -0.601562 2.421875 -0.53125 2.703125 -0.53125 C 2.960938 -0.53125 3.1875 -0.601562 3.375 -0.75 C 3.570312 -0.90625 3.722656 -1.113281 3.828125 -1.375 C 3.929688 -1.644531 3.984375 -1.957031 3.984375 -2.3125 C 3.984375 -2.675781 3.925781 -2.988281 3.8125 -3.25 C 3.707031 -3.519531 3.550781 -3.722656 3.34375 -3.859375 C 3.144531 -4.003906 2.914062 -4.078125 2.65625 -4.078125 Z M 2.65625 -4.078125 "/></g></g><g transform="translate(33.739088, 15.066408)"><g/></g><g transform="translate(36.187437, 15.066408)"><g><path d="M 2.140625 -5.8125 C 1.972656 -5.8125 1.84375 -5.78125 1.75 -5.71875 C 1.664062 -5.664062 1.609375 -5.585938 1.578125 -5.484375 C 1.554688 -5.390625 1.546875 -5.257812 1.546875 -5.09375 L 1.546875 -4.609375 L 2.4375 -4.609375 L 2.4375 -4.015625 L 1.546875 -4.015625 L 1.546875 0 L 0.765625 0 L 0.765625 -4.015625 L 0.0625 -4.015625 L 0.0625 -4.609375 L 0.765625 -4.609375 L 0.765625 -5.15625 C 0.765625 -5.613281 0.863281 -5.945312 1.0625 -6.15625 C 1.257812 -6.375 1.585938 -6.484375 2.046875 -6.484375 C 2.335938 -6.484375 2.628906 -6.445312 2.921875 -6.375 L 2.75 -5.703125 C 2.539062 -5.773438 2.335938 -5.8125 2.140625 -5.8125 Z M 2.140625 -5.8125 "/></g></g><g transform="translate(38.661879, 15.066408)"><g><path d="M 2.40625 -3.921875 C 2.070312 -3.921875 1.816406 -3.789062 1.640625 -3.53125 C 1.472656 -3.28125 1.390625 -2.925781 1.390625 -2.46875 L 1.390625 0 L 0.609375 0 L 0.609375 -4.609375 L 1.328125 -4.609375 L 1.328125 -3.921875 C 1.503906 -4.210938 1.679688 -4.414062 1.859375 -4.53125 C 2.035156 -4.65625 2.25 -4.71875 2.5 -4.71875 C 2.632812 -4.71875 2.757812 -4.703125 2.875 -4.671875 C 3 -4.640625 3.125 -4.582031 3.25 -4.5 L 2.984375 -3.78125 C 2.816406 -3.875 2.625 -3.921875 2.40625 -3.921875 Z M 2.40625 -3.921875 "/></g></g><g transform="translate(41.875608, 15.066408)"><g><path d="M 0.3125 -2.3125 C 0.3125 -2.8125 0.398438 -3.238281 0.578125 -3.59375 C 0.765625 -3.957031 1.019531 -4.234375 1.34375 -4.421875 C 1.664062 -4.617188 2.039062 -4.71875 2.46875 -4.71875 C 2.90625 -4.71875 3.285156 -4.625 3.609375 -4.4375 C 3.929688 -4.25 4.179688 -3.972656 4.359375 -3.609375 C 4.546875 -3.253906 4.640625 -2.820312 4.640625 -2.3125 C 4.640625 -1.800781 4.546875 -1.363281 4.359375 -1 C 4.179688 -0.644531 3.925781 -0.367188 3.59375 -0.171875 C 3.269531 0.015625 2.894531 0.109375 2.46875 0.109375 C 2.050781 0.109375 1.675781 0.0195312 1.34375 -0.15625 C 1.019531 -0.34375 0.765625 -0.617188 0.578125 -0.984375 C 0.398438 -1.347656 0.3125 -1.789062 0.3125 -2.3125 Z M 2.46875 -4.078125 C 2.207031 -4.078125 1.972656 -4.007812 1.765625 -3.875 C 1.566406 -3.738281 1.40625 -3.535156 1.28125 -3.265625 C 1.164062 -3.003906 1.109375 -2.6875 1.109375 -2.3125 C 1.109375 -1.925781 1.164062 -1.597656 1.28125 -1.328125 C 1.40625 -1.066406 1.566406 -0.867188 1.765625 -0.734375 C 1.972656 -0.597656 2.207031 -0.53125 2.46875 -0.53125 C 2.75 -0.53125 2.988281 -0.597656 3.1875 -0.734375 C 3.394531 -0.878906 3.554688 -1.082031 3.671875 -1.34375 C 3.785156 -1.613281 3.84375 -1.9375 3.84375 -2.3125 C 3.84375 -2.6875 3.78125 -3.003906 3.65625 -3.265625 C 3.539062 -3.535156 3.378906 -3.738281 3.171875 -3.875 C 2.972656 -4.007812 2.738281 -4.078125 2.46875 -4.078125 Z M 2.46875 -4.078125 "/></g></g><g transform="translate(46.82884, 15.066408)"><g><path d="M 5.375 -4.71875 C 5.863281 -4.71875 6.234375 -4.585938 6.484375 -4.328125 C 6.742188 -4.066406 6.875 -3.691406 6.875 -3.203125 L 6.875 0 L 6.09375 0 L 6.09375 -2.96875 C 6.09375 -3.351562 6.019531 -3.628906 5.875 -3.796875 C 5.738281 -3.960938 5.53125 -4.046875 5.25 -4.046875 C 5.039062 -4.046875 4.847656 -3.992188 4.671875 -3.890625 C 4.503906 -3.785156 4.367188 -3.617188 4.265625 -3.390625 C 4.171875 -3.171875 4.125 -2.898438 4.125 -2.578125 L 4.125 0 L 3.34375 0 L 3.34375 -3.03125 C 3.34375 -3.375 3.269531 -3.628906 3.125 -3.796875 C 2.988281 -3.960938 2.78125 -4.046875 2.5 -4.046875 C 2.300781 -4.046875 2.113281 -3.992188 1.9375 -3.890625 C 1.769531 -3.796875 1.632812 -3.640625 1.53125 -3.421875 C 1.4375 -3.203125 1.390625 -2.921875 1.390625 -2.578125 L 1.390625 0 L 0.609375 0 L 0.609375 -4.609375 L 1.328125 -4.609375 L 1.328125 -3.96875 C 1.660156 -4.46875 2.09375 -4.71875 2.625 -4.71875 C 3 -4.71875 3.296875 -4.648438 3.515625 -4.515625 C 3.742188 -4.378906 3.910156 -4.175781 4.015625 -3.90625 C 4.210938 -4.207031 4.414062 -4.414062 4.625 -4.53125 C 4.832031 -4.65625 5.082031 -4.71875 5.375 -4.71875 Z M 5.375 -4.71875 "/></g></g></g><g fill="#ffffff" fill-opacity="1"><g transform="translate(7.050781, 26.941407)"><g><path d="M 3.40625 -2.140625 C 3.539062 -1.742188 3.628906 -1.46875 3.671875 -1.3125 C 3.710938 -1.175781 3.738281 -1.070312 3.75 -1 L 3.78125 -1 C 3.789062 -1.050781 3.835938 -1.203125 3.921875 -1.453125 L 4.109375 -2.03125 L 5.59375 -6.375 L 6.765625 -6.375 L 6.765625 0 L 5.953125 0 L 5.953125 -5.328125 L 5.9375 -5.328125 L 4.109375 0 L 3.34375 0 L 1.515625 -5.421875 L 1.5 -5.421875 L 1.5 0 L 0.703125 0 L 0.703125 -6.375 L 1.984375 -6.375 Z M 3.40625 -2.140625 "/></g></g><g transform="translate(14.504546, 26.941407)"><g><path d="M 0.3125 -2.3125 C 0.3125 -2.8125 0.398438 -3.238281 0.578125 -3.59375 C 0.765625 -3.957031 1.019531 -4.234375 1.34375 -4.421875 C 1.664062 -4.617188 2.039062 -4.71875 2.46875 -4.71875 C 2.90625 -4.71875 3.285156 -4.625 3.609375 -4.4375 C 3.929688 -4.25 4.179688 -3.972656 4.359375 -3.609375 C 4.546875 -3.253906 4.640625 -2.820312 4.640625 -2.3125 C 4.640625 -1.800781 4.546875 -1.363281 4.359375 -1 C 4.179688 -0.644531 3.925781 -0.367188 3.59375 -0.171875 C 3.269531 0.015625 2.894531 0.109375 2.46875 0.109375 C 2.050781 0.109375 1.675781 0.0195312 1.34375 -0.15625 C 1.019531 -0.34375 0.765625 -0.617188 0.578125 -0.984375 C 0.398438 -1.347656 0.3125 -1.789062 0.3125 -2.3125 Z M 2.46875 -4.078125 C 2.207031 -4.078125 1.972656 -4.007812 1.765625 -3.875 C 1.566406 -3.738281 1.40625 -3.535156 1.28125 -3.265625 C 1.164062 -3.003906 1.109375 -2.6875 1.109375 -2.3125 C 1.109375 -1.925781 1.164062 -1.597656 1.28125 -1.328125 C 1.40625 -1.066406 1.566406 -0.867188 1.765625 -0.734375 C 1.972656 -0.597656 2.207031 -0.53125 2.46875 -0.53125 C 2.75 -0.53125 2.988281 -0.597656 3.1875 -0.734375 C 3.394531 -0.878906 3.554688 -1.082031 3.671875 -1.34375 C 3.785156 -1.613281 3.84375 -1.9375 3.84375 -2.3125 C 3.84375 -2.6875 3.78125 -3.003906 3.65625 -3.265625 C 3.539062 -3.535156 3.378906 -3.738281 3.171875 -3.875 C 2.972656 -4.007812 2.738281 -4.078125 2.46875 -4.078125 Z M 2.46875 -4.078125 "/></g></g><g transform="translate(19.457778, 26.941407)"><g><path d="M 2.015625 -4.078125 C 1.742188 -4.078125 1.53125 -4.019531 1.375 -3.90625 C 1.21875 -3.800781 1.140625 -3.660156 1.140625 -3.484375 C 1.140625 -3.347656 1.171875 -3.234375 1.234375 -3.140625 C 1.304688 -3.054688 1.414062 -2.984375 1.5625 -2.921875 C 1.707031 -2.867188 1.910156 -2.820312 2.171875 -2.78125 C 2.578125 -2.71875 2.90625 -2.628906 3.15625 -2.515625 C 3.414062 -2.410156 3.609375 -2.265625 3.734375 -2.078125 C 3.867188 -1.890625 3.9375 -1.648438 3.9375 -1.359375 C 3.9375 -1.078125 3.863281 -0.820312 3.71875 -0.59375 C 3.570312 -0.375 3.363281 -0.203125 3.09375 -0.078125 C 2.820312 0.046875 2.515625 0.109375 2.171875 0.109375 C 1.066406 0.109375 0.429688 -0.382812 0.265625 -1.375 L 1.046875 -1.5 C 1.097656 -1.175781 1.210938 -0.929688 1.390625 -0.765625 C 1.578125 -0.609375 1.832031 -0.53125 2.15625 -0.53125 C 2.46875 -0.53125 2.707031 -0.597656 2.875 -0.734375 C 3.050781 -0.867188 3.140625 -1.046875 3.140625 -1.265625 C 3.140625 -1.472656 3.039062 -1.632812 2.84375 -1.75 C 2.65625 -1.875 2.390625 -1.960938 2.046875 -2.015625 C 1.492188 -2.097656 1.078125 -2.242188 0.796875 -2.453125 C 0.515625 -2.671875 0.375 -2.984375 0.375 -3.390625 C 0.375 -3.640625 0.441406 -3.863281 0.578125 -4.0625 C 0.710938 -4.269531 0.90625 -4.429688 1.15625 -4.546875 C 1.40625 -4.660156 1.691406 -4.71875 2.015625 -4.71875 C 2.523438 -4.71875 2.925781 -4.609375 3.21875 -4.390625 C 3.519531 -4.179688 3.707031 -3.863281 3.78125 -3.4375 L 3.015625 -3.328125 C 2.972656 -3.554688 2.863281 -3.738281 2.6875 -3.875 C 2.519531 -4.007812 2.296875 -4.078125 2.015625 -4.078125 Z M 2.015625 -4.078125 "/></g></g><g transform="translate(23.697814, 26.941407)"><g><path d="M 2.53125 -4.078125 C 2.082031 -4.078125 1.734375 -3.921875 1.484375 -3.609375 C 1.234375 -3.304688 1.109375 -2.875 1.109375 -2.3125 C 1.109375 -1.96875 1.160156 -1.660156 1.265625 -1.390625 C 1.378906 -1.117188 1.539062 -0.90625 1.75 -0.75 C 1.957031 -0.601562 2.203125 -0.53125 2.484375 -0.53125 C 2.816406 -0.53125 3.09375 -0.632812 3.3125 -0.84375 C 3.53125 -1.050781 3.664062 -1.332031 3.71875 -1.6875 L 4.484375 -1.578125 C 4.429688 -1.234375 4.3125 -0.929688 4.125 -0.671875 C 3.9375 -0.421875 3.695312 -0.226562 3.40625 -0.09375 C 3.125 0.0390625 2.8125 0.109375 2.46875 0.109375 C 2.039062 0.109375 1.660156 0.0078125 1.328125 -0.1875 C 1.003906 -0.382812 0.753906 -0.660156 0.578125 -1.015625 C 0.398438 -1.378906 0.3125 -1.804688 0.3125 -2.296875 C 0.3125 -2.816406 0.398438 -3.253906 0.578125 -3.609375 C 0.753906 -3.972656 1.003906 -4.25 1.328125 -4.4375 C 1.660156 -4.625 2.050781 -4.71875 2.5 -4.71875 C 2.820312 -4.71875 3.117188 -4.660156 3.390625 -4.546875 C 3.660156 -4.429688 3.882812 -4.265625 4.0625 -4.046875 C 4.238281 -3.828125 4.351562 -3.566406 4.40625 -3.265625 L 3.65625 -3.15625 C 3.582031 -3.445312 3.445312 -3.671875 3.25 -3.828125 C 3.050781 -3.992188 2.8125 -4.078125 2.53125 -4.078125 Z M 2.53125 -4.078125 "/></g></g><g transform="translate(28.364028, 26.941407)"><g><path d="M 0.3125 -2.3125 C 0.3125 -2.8125 0.398438 -3.238281 0.578125 -3.59375 C 0.765625 -3.957031 1.019531 -4.234375 1.34375 -4.421875 C 1.664062 -4.617188 2.039062 -4.71875 2.46875 -4.71875 C 2.90625 -4.71875 3.285156 -4.625 3.609375 -4.4375 C 3.929688 -4.25 4.179688 -3.972656 4.359375 -3.609375 C 4.546875 -3.253906 4.640625 -2.820312 4.640625 -2.3125 C 4.640625 -1.800781 4.546875 -1.363281 4.359375 -1 C 4.179688 -0.644531 3.925781 -0.367188 3.59375 -0.171875 C 3.269531 0.015625 2.894531 0.109375 2.46875 0.109375 C 2.050781 0.109375 1.675781 0.0195312 1.34375 -0.15625 C 1.019531 -0.34375 0.765625 -0.617188 0.578125 -0.984375 C 0.398438 -1.347656 0.3125 -1.789062 0.3125 -2.3125 Z M 2.46875 -4.078125 C 2.207031 -4.078125 1.972656 -4.007812 1.765625 -3.875 C 1.566406 -3.738281 1.40625 -3.535156 1.28125 -3.265625 C 1.164062 -3.003906 1.109375 -2.6875 1.109375 -2.3125 C 1.109375 -1.925781 1.164062 -1.597656 1.28125 -1.328125 C 1.40625 -1.066406 1.566406 -0.867188 1.765625 -0.734375 C 1.972656 -0.597656 2.207031 -0.53125 2.46875 -0.53125 C 2.75 -0.53125 2.988281 -0.597656 3.1875 -0.734375 C 3.394531 -0.878906 3.554688 -1.082031 3.671875 -1.34375 C 3.785156 -1.613281 3.84375 -1.9375 3.84375 -2.3125 C 3.84375 -2.6875 3.78125 -3.003906 3.65625 -3.265625 C 3.539062 -3.535156 3.378906 -3.738281 3.171875 -3.875 C 2.972656 -4.007812 2.738281 -4.078125 2.46875 -4.078125 Z M 2.46875 -4.078125 "/></g></g><g transform="translate(33.317259, 26.941407)"><g><path d="M 1.609375 -1.90625 C 1.722656 -1.488281 1.804688 -1.175781 1.859375 -0.96875 C 1.867188 -1.007812 1.898438 -1.140625 1.953125 -1.359375 C 2.003906 -1.578125 2.050781 -1.765625 2.09375 -1.921875 L 2.84375 -4.609375 L 3.640625 -4.609375 L 4.328125 -1.96875 C 4.453125 -1.488281 4.523438 -1.1875 4.546875 -1.0625 L 4.578125 -1.0625 L 4.828125 -1.984375 L 5.625 -4.609375 L 6.390625 -4.609375 L 4.9375 0 L 4.125 0 L 3.40625 -2.734375 C 3.375 -2.835938 3.3125 -3.109375 3.21875 -3.546875 L 3.203125 -3.546875 C 3.171875 -3.429688 3.101562 -3.160156 3 -2.734375 L 2.28125 0 L 1.46875 0 L 0.046875 -4.609375 L 0.859375 -4.609375 Z M 1.609375 -1.90625 "/></g></g></g><path fill="#ff0000" d="M 53.445312 33.492188 C 53.9375 33.492188 54.425781 33.542969 54.90625 33.636719 C 55.386719 33.734375 55.855469 33.875 56.308594 34.0625 C 56.761719 34.25 57.195312 34.480469 57.601562 34.753906 C 58.011719 35.027344 58.390625 35.335938 58.738281 35.683594 C 59.085938 36.03125 59.394531 36.410156 59.667969 36.820312 C 59.941406 37.226562 60.171875 37.660156 60.359375 38.113281 C 60.546875 38.566406 60.6875 39.035156 60.785156 39.515625 C 60.878906 39.996094 60.929688 40.484375 60.929688 40.976562 C 60.929688 44.148438 56.523438 50.894531 54.472656 53.863281 C 54.355469 54.035156 54.207031 54.164062 54.027344 54.261719 C 53.84375 54.355469 53.652344 54.402344 53.445312 54.402344 C 53.242188 54.402344 53.046875 54.355469 52.867188 54.261719 C 52.683594 54.164062 52.535156 54.035156 52.417969 53.863281 C 50.371094 50.894531 45.964844 44.148438 45.964844 40.976562 C 45.964844 40.484375 46.011719 39.996094 46.109375 39.515625 C 46.203125 39.035156 46.34375 38.566406 46.535156 38.113281 C 46.722656 37.660156 46.953125 37.226562 47.226562 36.820312 C 47.496094 36.410156 47.808594 36.03125 48.15625 35.683594 C 48.503906 35.335938 48.878906 35.027344 49.289062 34.753906 C 49.699219 34.480469 50.128906 34.25 50.582031 34.0625 C 51.035156 33.875 51.503906 33.734375 51.988281 33.636719 C 52.46875 33.542969 52.953125 33.492188 53.445312 33.492188 Z M 53.445312 33.492188 " fill-opacity="1" fill-rule="nonzero"/><path fill="#ff0000" d="M 53.445312 54.402344 C 53.007812 54.402344 52.667969 54.222656 52.417969 53.863281 C 50.371094 50.894531 45.964844 44.148438 45.964844 40.976562 C 45.964844 40.484375 46.011719 39.996094 46.109375 39.515625 C 46.203125 39.035156 46.34375 38.566406 46.535156 38.113281 C 46.722656 37.660156 46.953125 37.226562 47.226562 36.820312 C 47.496094 36.410156 47.808594 36.03125 48.15625 35.683594 C 48.503906 35.335938 48.878906 35.027344 49.289062 34.753906 C 49.699219 34.480469 50.128906 34.25 50.582031 34.0625 C 51.035156 33.875 51.503906 33.734375 51.988281 33.636719 C 52.46875 33.542969 52.953125 33.492188 53.445312 33.492188 Z M 53.445312 54.402344 " fill-opacity="1" fill-rule="nonzero"/><path stroke-linecap="round" transform="matrix(0.650622, 0, 0, 0.650622, 32.870146, 32.87014)" fill="none" stroke-linejoin="round" d="M 2.87731 29.708612 L 2.87731 45.042495 " stroke="#222126" stroke-width="2" stroke-opacity="1" stroke-miterlimit="4"/><path stroke-linecap="round" transform="matrix(0.650622, 0, 0, 0.650622, 32.870146, 32.87014)" fill-opacity="1" fill="#ff0000" fill-rule="nonzero" stroke-linejoin="round" d="M 31.623838 43.127261 C 31.623838 42.364769 31.479745 41.626293 31.185556 40.923841 C 30.89737 40.221388 30.477099 39.596985 29.942755 39.056637 C 29.402406 38.522293 28.778004 38.102022 28.075551 37.813836 C 27.373099 37.519646 26.634623 37.375554 25.872131 37.375554 L 18.685499 37.375554 C 18.685499 36.613062 18.541406 35.88059 18.247217 35.172133 C 17.959031 34.469681 17.544764 33.851282 17.004416 33.310934 C 16.464067 32.770586 15.839665 32.356319 15.137212 32.062129 C 14.434759 31.767939 13.702287 31.623846 12.939796 31.623846 L 2.87731 31.623846 L 2.87731 43.127261 Z M 31.623838 43.127261 " stroke="#222126" stroke-width="2" stroke-opacity="1" stroke-miterlimit="4"/><path stroke-linecap="round" transform="matrix(0.650622, 0, 0, 0.650622, 32.870146, 32.87014)" fill="none" stroke-linejoin="round" d="M 12.939796 37.375554 L 20.126428 37.375554 " stroke="#222126" stroke-width="2" stroke-opacity="1" stroke-miterlimit="4"/><g clip-path="url(#ea872ef52a)"><path stroke-linecap="round" transform="matrix(0.650622, 0, 0, 0.650622, 32.870146, 32.87014)" fill="none" stroke-linejoin="round" d="M 31.623838 0.95608 C 32.380326 0.95608 33.130809 1.034131 33.869285 1.178224 C 34.607761 1.32832 35.328226 1.54446 36.024675 1.832645 C 36.721124 2.120831 37.387553 2.475059 38.011956 2.89533 C 38.642362 3.315601 39.224737 3.789907 39.759082 4.324251 C 40.293426 4.858596 40.767732 5.440971 41.188003 6.071377 C 41.608273 6.69578 41.962502 7.362209 42.250687 8.058658 C 42.538873 8.755107 42.755013 9.475571 42.905109 10.214047 C 43.049202 10.952523 43.127252 11.703007 43.127252 12.459495 C 43.127252 17.334637 36.354887 27.70332 33.202856 32.266261 C 33.02274 32.530431 32.794593 32.728559 32.518415 32.878655 C 32.236233 33.022748 31.942043 33.094795 31.623838 33.094795 C 31.311637 33.094795 31.011444 33.022748 30.735266 32.878655 C 30.453084 32.728559 30.224937 32.530431 30.044821 32.266261 C 26.898793 27.70332 20.126428 17.334637 20.126428 12.459495 C 20.126428 11.703007 20.198474 10.952523 20.348571 10.214047 C 20.492664 9.475571 20.708803 8.755107 21.002993 8.058658 C 21.291179 7.362209 21.645407 6.69578 22.065678 6.071377 C 22.479945 5.440971 22.960254 4.858596 23.494599 4.324251 C 24.028943 3.789907 24.605315 3.315601 25.235721 2.89533 C 25.866127 2.475059 26.526553 2.120831 27.223002 1.832645 C 27.919451 1.54446 28.639915 1.32832 29.384395 1.178224 C 30.122871 1.034131 30.867351 0.95608 31.623838 0.95608 Z M 31.623838 0.95608 " stroke="#222126" stroke-width="2" stroke-opacity="1" stroke-miterlimit="4"/></g><path stroke-linecap="round" transform="matrix(0.650622, 0, 0, 0.650622, 32.870146, 32.87014)" fill-opacity="1" fill="#545454" fill-rule="nonzero" stroke-linejoin="round" d="M 27.793369 12.459495 C 27.793369 12.96382 27.889431 13.456137 28.081555 13.924439 C 28.279683 14.392741 28.555861 14.807008 28.916093 15.16724 C 29.276325 15.527472 29.690592 15.80365 30.158894 16.001778 C 30.627196 16.193902 31.119513 16.289963 31.623838 16.289963 C 32.134167 16.289963 32.620481 16.193902 33.094786 16.001778 C 33.563088 15.80365 33.977355 15.527472 34.337587 15.16724 C 34.697819 14.807008 34.973997 14.392741 35.166121 13.924439 C 35.358245 13.456137 35.460311 12.96382 35.460311 12.459495 C 35.460311 11.949166 35.358245 11.462852 35.166121 10.988547 C 34.973997 10.520245 34.697819 10.105978 34.337587 9.745746 C 33.977355 9.385513 33.563088 9.109335 33.094786 8.917212 C 32.620481 8.725088 32.134167 8.623022 31.623838 8.623022 C 31.119513 8.623022 30.627196 8.725088 30.158894 8.917212 C 29.690592 9.109335 29.276325 9.385513 28.916093 9.745746 C 28.555861 10.105978 28.279683 10.520245 28.081555 10.988547 C 27.889431 11.462852 27.793369 11.949166 27.793369 12.459495 " stroke="#222126" stroke-width="2" stroke-opacity="1" stroke-miterlimit="4"/></svg>
