<svg xmlns="http://www.w3.org/2000/svg" xmlns:xlink="http://www.w3.org/1999/xlink" width="95" zoomAndPan="magnify" viewBox="0 0 71.25 71.25" height="95" preserveAspectRatio="xMidYMid meet" version="1.0"><defs><g/><clipPath id="d072b63beb"><path d="M 0 0 L 70.507812 0 L 70.507812 70.507812 L 0 70.507812 Z M 0 0 " clip-rule="nonzero"/></clipPath><clipPath id="85f9024116"><path d="M 13.359375 0 L 57.148438 0 C 60.691406 0 64.089844 1.40625 66.59375 3.914062 C 69.101562 6.417969 70.507812 9.816406 70.507812 13.359375 L 70.507812 57.148438 C 70.507812 60.691406 69.101562 64.089844 66.59375 66.59375 C 64.089844 69.101562 60.691406 70.507812 57.148438 70.507812 L 13.359375 70.507812 C 9.816406 70.507812 6.417969 69.101562 3.914062 66.59375 C 1.40625 64.089844 0 60.691406 0 57.148438 L 0 13.359375 C 0 9.816406 1.40625 6.417969 3.914062 3.914062 C 6.417969 1.40625 9.816406 0 13.359375 0 Z M 13.359375 0 " clip-rule="nonzero"/></clipPath><clipPath id="f996ee4f4f"><path d="M 46 39 L 62.746094 39 L 62.746094 55 L 46 55 Z M 46 39 " clip-rule="nonzero"/></clipPath><clipPath id="ad2a6de666"><path d="M 38.253906 46 L 55 46 L 55 63 L 38.253906 63 Z M 38.253906 46 " clip-rule="nonzero"/></clipPath></defs><g clip-path="url(#d072b63beb)"><g clip-path="url(#85f9024116)"><path fill="#4c5270" d="M 0 0 L 70.507812 0 L 70.507812 70.507812 L 0 70.507812 Z M 0 0 " fill-opacity="1" fill-rule="nonzero"/></g></g><g fill="#ffffff" fill-opacity="1"><g transform="translate(7.050781, 15.066408)"><g><path d="M 4.640625 -1.890625 C 4.640625 -1.472656 4.550781 -1.113281 4.375 -0.8125 C 4.195312 -0.507812 3.945312 -0.28125 3.625 -0.125 C 3.300781 0.03125 2.914062 0.109375 2.46875 0.109375 C 2.09375 0.109375 1.75 0.0390625 1.4375 -0.09375 C 1.132812 -0.226562 0.882812 -0.429688 0.6875 -0.703125 C 0.5 -0.972656 0.378906 -1.300781 0.328125 -1.6875 L 1.546875 -1.828125 C 1.585938 -1.523438 1.6875 -1.296875 1.84375 -1.140625 C 2 -0.984375 2.207031 -0.90625 2.46875 -0.90625 C 2.644531 -0.90625 2.800781 -0.953125 2.9375 -1.046875 C 3.070312 -1.140625 3.175781 -1.265625 3.25 -1.421875 C 3.320312 -1.585938 3.359375 -1.765625 3.359375 -1.953125 C 3.359375 -2.140625 3.316406 -2.300781 3.234375 -2.4375 C 3.160156 -2.582031 3.050781 -2.695312 2.90625 -2.78125 C 2.757812 -2.863281 2.585938 -2.90625 2.390625 -2.90625 L 1.8125 -2.90625 L 1.953125 -3.828125 C 2.378906 -3.828125 2.6875 -3.894531 2.875 -4.03125 C 3.070312 -4.175781 3.171875 -4.382812 3.171875 -4.65625 C 3.171875 -4.875 3.101562 -5.046875 2.96875 -5.171875 C 2.84375 -5.296875 2.664062 -5.359375 2.4375 -5.359375 C 2.207031 -5.359375 2.015625 -5.28125 1.859375 -5.125 C 1.710938 -4.976562 1.625 -4.773438 1.59375 -4.515625 L 0.40625 -4.703125 C 0.53125 -5.265625 0.765625 -5.679688 1.109375 -5.953125 C 1.460938 -6.234375 1.914062 -6.375 2.46875 -6.375 C 2.851562 -6.375 3.191406 -6.300781 3.484375 -6.15625 C 3.785156 -6.019531 4.015625 -5.828125 4.171875 -5.578125 C 4.335938 -5.328125 4.421875 -5.046875 4.421875 -4.734375 C 4.421875 -4.441406 4.335938 -4.175781 4.171875 -3.9375 C 4.003906 -3.707031 3.75 -3.523438 3.40625 -3.390625 C 3.789062 -3.304688 4.09375 -3.128906 4.3125 -2.859375 C 4.53125 -2.597656 4.640625 -2.273438 4.640625 -1.890625 Z M 4.640625 -1.890625 "/></g></g><g transform="translate(12.108383, 15.066408)"><g/></g></g><g fill="#ffffff" fill-opacity="1"><g transform="translate(14.345092, 15.066408)"><g><path d="M 1.609375 -1.90625 C 1.722656 -1.488281 1.804688 -1.175781 1.859375 -0.96875 C 1.867188 -1.007812 1.898438 -1.140625 1.953125 -1.359375 C 2.003906 -1.578125 2.050781 -1.765625 2.09375 -1.921875 L 2.84375 -4.609375 L 3.640625 -4.609375 L 4.328125 -1.96875 C 4.453125 -1.488281 4.523438 -1.1875 4.546875 -1.0625 L 4.578125 -1.0625 L 4.828125 -1.984375 L 5.625 -4.609375 L 6.390625 -4.609375 L 4.9375 0 L 4.125 0 L 3.40625 -2.734375 C 3.375 -2.835938 3.3125 -3.109375 3.21875 -3.546875 L 3.203125 -3.546875 C 3.171875 -3.429688 3.101562 -3.160156 3 -2.734375 L 2.28125 0 L 1.46875 0 L 0.046875 -4.609375 L 0.859375 -4.609375 Z M 1.609375 -1.90625 "/></g></g><g transform="translate(20.7769, 15.066408)"><g><path d="M 4.3125 0 L 3.5 0 C 3.457031 -0.09375 3.425781 -0.171875 3.40625 -0.234375 C 3.382812 -0.296875 3.363281 -0.40625 3.34375 -0.5625 C 3.113281 -0.332031 2.875 -0.160156 2.625 -0.046875 C 2.375 0.0546875 2.09375 0.109375 1.78125 0.109375 C 1.488281 0.109375 1.226562 0.0546875 1 -0.046875 C 0.78125 -0.160156 0.609375 -0.316406 0.484375 -0.515625 C 0.367188 -0.722656 0.3125 -0.957031 0.3125 -1.21875 C 0.3125 -1.613281 0.441406 -1.925781 0.703125 -2.15625 C 0.960938 -2.394531 1.382812 -2.5625 1.96875 -2.65625 C 2.582031 -2.75 3.019531 -2.835938 3.28125 -2.921875 L 3.28125 -3.046875 C 3.28125 -3.304688 3.25 -3.507812 3.1875 -3.65625 C 3.125 -3.800781 3.015625 -3.90625 2.859375 -3.96875 C 2.710938 -4.039062 2.519531 -4.078125 2.28125 -4.078125 C 1.96875 -4.078125 1.71875 -4.003906 1.53125 -3.859375 C 1.351562 -3.722656 1.234375 -3.503906 1.171875 -3.203125 L 0.40625 -3.3125 C 0.5 -3.78125 0.707031 -4.128906 1.03125 -4.359375 C 1.351562 -4.597656 1.78125 -4.71875 2.3125 -4.71875 C 2.726562 -4.71875 3.0625 -4.664062 3.3125 -4.5625 C 3.570312 -4.457031 3.765625 -4.285156 3.890625 -4.046875 C 4.015625 -3.816406 4.078125 -3.507812 4.078125 -3.125 L 4.078125 -1.46875 C 4.078125 -1.175781 4.082031 -0.953125 4.09375 -0.796875 C 4.101562 -0.640625 4.125 -0.503906 4.15625 -0.390625 C 4.1875 -0.273438 4.238281 -0.144531 4.3125 0 Z M 2.015625 -2 C 1.703125 -1.945312 1.472656 -1.851562 1.328125 -1.71875 C 1.179688 -1.59375 1.109375 -1.425781 1.109375 -1.21875 C 1.109375 -1 1.179688 -0.828125 1.328125 -0.703125 C 1.472656 -0.578125 1.679688 -0.515625 1.953125 -0.515625 C 2.171875 -0.515625 2.40625 -0.582031 2.65625 -0.71875 C 2.820312 -0.820312 2.945312 -0.929688 3.03125 -1.046875 C 3.125 -1.171875 3.1875 -1.316406 3.21875 -1.484375 C 3.257812 -1.648438 3.28125 -1.867188 3.28125 -2.140625 L 3.28125 -2.3125 C 3.21875 -2.269531 3.0625 -2.21875 2.8125 -2.15625 C 2.570312 -2.101562 2.304688 -2.050781 2.015625 -2 Z M 2.015625 -2 "/></g></g><g transform="translate(25.434417, 15.066408)"><g><path d="M 1.953125 -1.953125 C 2.035156 -1.703125 2.097656 -1.507812 2.140625 -1.375 C 2.179688 -1.25 2.226562 -1.082031 2.28125 -0.875 L 2.296875 -0.875 C 2.359375 -1.132812 2.40625 -1.316406 2.4375 -1.421875 C 2.46875 -1.535156 2.546875 -1.757812 2.671875 -2.09375 L 3.59375 -4.609375 L 4.390625 -4.609375 L 2.515625 0.34375 C 2.359375 0.738281 2.210938 1.046875 2.078125 1.265625 C 1.941406 1.484375 1.789062 1.640625 1.625 1.734375 C 1.46875 1.828125 1.28125 1.875 1.0625 1.875 C 0.976562 1.875 0.867188 1.863281 0.734375 1.84375 C 0.609375 1.820312 0.5 1.800781 0.40625 1.78125 L 0.5625 1.125 C 0.6875 1.164062 0.804688 1.1875 0.921875 1.1875 C 1.085938 1.1875 1.222656 1.144531 1.328125 1.0625 C 1.441406 0.976562 1.53125 0.863281 1.59375 0.71875 C 1.664062 0.582031 1.726562 0.4375 1.78125 0.28125 C 1.84375 0.132812 1.878906 0.046875 1.890625 0.015625 L 0.140625 -4.609375 L 0.984375 -4.609375 Z M 1.953125 -1.953125 "/></g></g><g transform="translate(29.887542, 15.066408)"><g><path d="M 2.015625 -4.078125 C 1.742188 -4.078125 1.53125 -4.019531 1.375 -3.90625 C 1.21875 -3.800781 1.140625 -3.660156 1.140625 -3.484375 C 1.140625 -3.347656 1.171875 -3.234375 1.234375 -3.140625 C 1.304688 -3.054688 1.414062 -2.984375 1.5625 -2.921875 C 1.707031 -2.867188 1.910156 -2.820312 2.171875 -2.78125 C 2.578125 -2.71875 2.90625 -2.628906 3.15625 -2.515625 C 3.414062 -2.410156 3.609375 -2.265625 3.734375 -2.078125 C 3.867188 -1.890625 3.9375 -1.648438 3.9375 -1.359375 C 3.9375 -1.078125 3.863281 -0.820312 3.71875 -0.59375 C 3.570312 -0.375 3.363281 -0.203125 3.09375 -0.078125 C 2.820312 0.046875 2.515625 0.109375 2.171875 0.109375 C 1.066406 0.109375 0.429688 -0.382812 0.265625 -1.375 L 1.046875 -1.5 C 1.097656 -1.175781 1.210938 -0.929688 1.390625 -0.765625 C 1.578125 -0.609375 1.832031 -0.53125 2.15625 -0.53125 C 2.46875 -0.53125 2.707031 -0.597656 2.875 -0.734375 C 3.050781 -0.867188 3.140625 -1.046875 3.140625 -1.265625 C 3.140625 -1.472656 3.039062 -1.632812 2.84375 -1.75 C 2.65625 -1.875 2.390625 -1.960938 2.046875 -2.015625 C 1.492188 -2.097656 1.078125 -2.242188 0.796875 -2.453125 C 0.515625 -2.671875 0.375 -2.984375 0.375 -3.390625 C 0.375 -3.640625 0.441406 -3.863281 0.578125 -4.0625 C 0.710938 -4.269531 0.90625 -4.429688 1.15625 -4.546875 C 1.40625 -4.660156 1.691406 -4.71875 2.015625 -4.71875 C 2.523438 -4.71875 2.925781 -4.609375 3.21875 -4.390625 C 3.519531 -4.179688 3.707031 -3.863281 3.78125 -3.4375 L 3.015625 -3.328125 C 2.972656 -3.554688 2.863281 -3.738281 2.6875 -3.875 C 2.519531 -4.007812 2.296875 -4.078125 2.015625 -4.078125 Z M 2.015625 -4.078125 "/></g></g></g><g fill="#ffffff" fill-opacity="1"><g transform="translate(7.050781, 26.941407)"><g><path d="M 0.3125 -2.3125 C 0.3125 -2.8125 0.398438 -3.238281 0.578125 -3.59375 C 0.765625 -3.957031 1.019531 -4.234375 1.34375 -4.421875 C 1.664062 -4.617188 2.039062 -4.71875 2.46875 -4.71875 C 2.90625 -4.71875 3.285156 -4.625 3.609375 -4.4375 C 3.929688 -4.25 4.179688 -3.972656 4.359375 -3.609375 C 4.546875 -3.253906 4.640625 -2.820312 4.640625 -2.3125 C 4.640625 -1.800781 4.546875 -1.363281 4.359375 -1 C 4.179688 -0.644531 3.925781 -0.367188 3.59375 -0.171875 C 3.269531 0.015625 2.894531 0.109375 2.46875 0.109375 C 2.050781 0.109375 1.675781 0.0195312 1.34375 -0.15625 C 1.019531 -0.34375 0.765625 -0.617188 0.578125 -0.984375 C 0.398438 -1.347656 0.3125 -1.789062 0.3125 -2.3125 Z M 2.46875 -4.078125 C 2.207031 -4.078125 1.972656 -4.007812 1.765625 -3.875 C 1.566406 -3.738281 1.40625 -3.535156 1.28125 -3.265625 C 1.164062 -3.003906 1.109375 -2.6875 1.109375 -2.3125 C 1.109375 -1.925781 1.164062 -1.597656 1.28125 -1.328125 C 1.40625 -1.066406 1.566406 -0.867188 1.765625 -0.734375 C 1.972656 -0.597656 2.207031 -0.53125 2.46875 -0.53125 C 2.75 -0.53125 2.988281 -0.597656 3.1875 -0.734375 C 3.394531 -0.878906 3.554688 -1.082031 3.671875 -1.34375 C 3.785156 -1.613281 3.84375 -1.9375 3.84375 -2.3125 C 3.84375 -2.6875 3.78125 -3.003906 3.65625 -3.265625 C 3.539062 -3.535156 3.378906 -3.738281 3.171875 -3.875 C 2.972656 -4.007812 2.738281 -4.078125 2.46875 -4.078125 Z M 2.46875 -4.078125 "/></g></g><g transform="translate(12.004013, 26.941407)"><g><path d="M 2.40625 -3.921875 C 2.070312 -3.921875 1.816406 -3.789062 1.640625 -3.53125 C 1.472656 -3.28125 1.390625 -2.925781 1.390625 -2.46875 L 1.390625 0 L 0.609375 0 L 0.609375 -4.609375 L 1.328125 -4.609375 L 1.328125 -3.921875 C 1.503906 -4.210938 1.679688 -4.414062 1.859375 -4.53125 C 2.035156 -4.65625 2.25 -4.71875 2.5 -4.71875 C 2.632812 -4.71875 2.757812 -4.703125 2.875 -4.671875 C 3 -4.640625 3.125 -4.582031 3.25 -4.5 L 2.984375 -3.78125 C 2.816406 -3.875 2.625 -3.921875 2.40625 -3.921875 Z M 2.40625 -3.921875 "/></g></g><g transform="translate(15.217742, 26.941407)"><g><path d="M 4.484375 0 L 3.75 0 L 3.75 -0.59375 L 3.734375 -0.59375 C 3.597656 -0.375 3.40625 -0.203125 3.15625 -0.078125 C 2.90625 0.046875 2.644531 0.109375 2.375 0.109375 C 1.976562 0.109375 1.617188 0.0078125 1.296875 -0.1875 C 0.984375 -0.394531 0.738281 -0.679688 0.5625 -1.046875 C 0.394531 -1.410156 0.3125 -1.832031 0.3125 -2.3125 C 0.3125 -2.800781 0.390625 -3.222656 0.546875 -3.578125 C 0.710938 -3.941406 0.945312 -4.222656 1.25 -4.421875 C 1.550781 -4.617188 1.90625 -4.71875 2.3125 -4.71875 C 2.601562 -4.71875 2.859375 -4.664062 3.078125 -4.5625 C 3.304688 -4.457031 3.507812 -4.300781 3.6875 -4.09375 L 3.703125 -4.09375 L 3.703125 -6.375 L 4.484375 -6.375 Z M 2.375 -4.078125 C 2.113281 -4.078125 1.882812 -4.003906 1.6875 -3.859375 C 1.5 -3.710938 1.351562 -3.503906 1.25 -3.234375 C 1.15625 -2.972656 1.109375 -2.660156 1.109375 -2.296875 C 1.109375 -1.921875 1.164062 -1.597656 1.28125 -1.328125 C 1.394531 -1.066406 1.550781 -0.867188 1.75 -0.734375 C 1.945312 -0.597656 2.171875 -0.53125 2.421875 -0.53125 C 2.703125 -0.53125 2.941406 -0.597656 3.140625 -0.734375 C 3.335938 -0.878906 3.488281 -1.078125 3.59375 -1.328125 C 3.695312 -1.585938 3.75 -1.890625 3.75 -2.234375 C 3.75 -2.617188 3.691406 -2.945312 3.578125 -3.21875 C 3.472656 -3.5 3.316406 -3.710938 3.109375 -3.859375 C 2.898438 -4.003906 2.65625 -4.078125 2.375 -4.078125 Z M 2.375 -4.078125 "/></g></g><g transform="translate(20.310134, 26.941407)"><g><path d="M 2.515625 -0.53125 C 2.816406 -0.53125 3.070312 -0.617188 3.28125 -0.796875 C 3.5 -0.972656 3.648438 -1.203125 3.734375 -1.484375 L 4.5 -1.375 C 4.375 -0.90625 4.128906 -0.539062 3.765625 -0.28125 C 3.410156 -0.0195312 2.984375 0.109375 2.484375 0.109375 C 2.046875 0.109375 1.660156 0.015625 1.328125 -0.171875 C 1.003906 -0.367188 0.753906 -0.644531 0.578125 -1 C 0.398438 -1.363281 0.3125 -1.785156 0.3125 -2.265625 C 0.3125 -2.765625 0.394531 -3.195312 0.5625 -3.5625 C 0.738281 -3.9375 0.988281 -4.222656 1.3125 -4.421875 C 1.644531 -4.617188 2.03125 -4.71875 2.46875 -4.71875 C 2.894531 -4.71875 3.265625 -4.625 3.578125 -4.4375 C 3.898438 -4.25 4.144531 -3.96875 4.3125 -3.59375 C 4.488281 -3.226562 4.578125 -2.785156 4.578125 -2.265625 L 4.578125 -2.109375 L 1.125 -2.109375 C 1.132812 -1.773438 1.195312 -1.488281 1.3125 -1.25 C 1.4375 -1.019531 1.601562 -0.84375 1.8125 -0.71875 C 2.019531 -0.59375 2.253906 -0.53125 2.515625 -0.53125 Z M 2.46875 -4.078125 C 2.238281 -4.078125 2.03125 -4.019531 1.84375 -3.90625 C 1.65625 -3.800781 1.5 -3.648438 1.375 -3.453125 C 1.257812 -3.253906 1.179688 -3.019531 1.140625 -2.75 L 3.75 -2.75 C 3.695312 -3.175781 3.5625 -3.503906 3.34375 -3.734375 C 3.125 -3.960938 2.832031 -4.078125 2.46875 -4.078125 Z M 2.46875 -4.078125 "/></g></g><g transform="translate(25.189437, 26.941407)"><g><path d="M 2.40625 -3.921875 C 2.070312 -3.921875 1.816406 -3.789062 1.640625 -3.53125 C 1.472656 -3.28125 1.390625 -2.925781 1.390625 -2.46875 L 1.390625 0 L 0.609375 0 L 0.609375 -4.609375 L 1.328125 -4.609375 L 1.328125 -3.921875 C 1.503906 -4.210938 1.679688 -4.414062 1.859375 -4.53125 C 2.035156 -4.65625 2.25 -4.71875 2.5 -4.71875 C 2.632812 -4.71875 2.757812 -4.703125 2.875 -4.671875 C 3 -4.640625 3.125 -4.582031 3.25 -4.5 L 2.984375 -3.78125 C 2.816406 -3.875 2.625 -3.921875 2.40625 -3.921875 Z M 2.40625 -3.921875 "/></g></g><g transform="translate(28.403166, 26.941407)"><g><path d="M 1.390625 -5.484375 L 0.609375 -5.484375 L 0.609375 -6.375 L 1.390625 -6.375 Z M 1.390625 0 L 0.609375 0 L 0.609375 -4.609375 L 1.390625 -4.609375 Z M 1.390625 0 "/></g></g><g transform="translate(30.394896, 26.941407)"><g><path d="M 3.578125 0 L 3.578125 -3.015625 C 3.578125 -3.347656 3.492188 -3.601562 3.328125 -3.78125 C 3.160156 -3.957031 2.925781 -4.046875 2.625 -4.046875 C 2.226562 -4.046875 1.921875 -3.925781 1.703125 -3.6875 C 1.492188 -3.457031 1.390625 -3.082031 1.390625 -2.5625 L 1.390625 0 L 0.609375 0 L 0.609375 -4.609375 L 1.328125 -4.609375 L 1.328125 -3.96875 C 1.484375 -4.195312 1.679688 -4.378906 1.921875 -4.515625 C 2.171875 -4.648438 2.445312 -4.71875 2.75 -4.71875 C 3.28125 -4.71875 3.679688 -4.578125 3.953125 -4.296875 C 4.222656 -4.023438 4.359375 -3.632812 4.359375 -3.125 L 4.359375 0 Z M 3.578125 0 "/></g></g><g transform="translate(35.348128, 26.941407)"><g><path d="M 3.703125 -4.609375 L 4.4375 -4.609375 L 4.4375 -0.390625 C 4.4375 0.359375 4.269531 0.921875 3.9375 1.296875 C 3.601562 1.679688 3.078125 1.875 2.359375 1.875 C 1.796875 1.875 1.359375 1.742188 1.046875 1.484375 C 0.734375 1.222656 0.5625 0.851562 0.53125 0.375 L 1.28125 0.5 C 1.320312 0.75 1.425781 0.929688 1.59375 1.046875 C 1.769531 1.171875 2.019531 1.234375 2.34375 1.234375 C 2.789062 1.234375 3.117188 1.117188 3.328125 0.890625 C 3.546875 0.660156 3.65625 0.195312 3.65625 -0.5 L 3.65625 -0.609375 C 3.320312 -0.203125 2.878906 0 2.328125 0 C 1.929688 0 1.578125 -0.0976562 1.265625 -0.296875 C 0.960938 -0.492188 0.726562 -0.769531 0.5625 -1.125 C 0.394531 -1.476562 0.3125 -1.882812 0.3125 -2.34375 C 0.3125 -2.8125 0.390625 -3.222656 0.546875 -3.578125 C 0.703125 -3.941406 0.925781 -4.222656 1.21875 -4.421875 C 1.507812 -4.617188 1.863281 -4.71875 2.28125 -4.71875 C 2.601562 -4.71875 2.875 -4.660156 3.09375 -4.546875 C 3.320312 -4.441406 3.519531 -4.28125 3.6875 -4.0625 L 3.703125 -4.0625 Z M 2.34375 -4.078125 C 2.101562 -4.078125 1.890625 -4.007812 1.703125 -3.875 C 1.515625 -3.75 1.367188 -3.554688 1.265625 -3.296875 C 1.160156 -3.046875 1.109375 -2.742188 1.109375 -2.390625 C 1.109375 -2.023438 1.160156 -1.710938 1.265625 -1.453125 C 1.367188 -1.191406 1.515625 -0.988281 1.703125 -0.84375 C 1.898438 -0.707031 2.132812 -0.640625 2.40625 -0.640625 C 2.675781 -0.640625 2.910156 -0.707031 3.109375 -0.84375 C 3.304688 -0.988281 3.453125 -1.1875 3.546875 -1.4375 C 3.648438 -1.695312 3.703125 -2.007812 3.703125 -2.375 C 3.703125 -2.71875 3.644531 -3.019531 3.53125 -3.28125 C 3.425781 -3.539062 3.269531 -3.738281 3.0625 -3.875 C 2.863281 -4.007812 2.625 -4.078125 2.34375 -4.078125 Z M 2.34375 -4.078125 "/></g></g></g><g fill="#ffffff" fill-opacity="1"><g transform="translate(7.050781, 38.816407)"><g><path d="M 2.015625 -4.078125 C 1.742188 -4.078125 1.53125 -4.019531 1.375 -3.90625 C 1.21875 -3.800781 1.140625 -3.660156 1.140625 -3.484375 C 1.140625 -3.347656 1.171875 -3.234375 1.234375 -3.140625 C 1.304688 -3.054688 1.414062 -2.984375 1.5625 -2.921875 C 1.707031 -2.867188 1.910156 -2.820312 2.171875 -2.78125 C 2.578125 -2.71875 2.90625 -2.628906 3.15625 -2.515625 C 3.414062 -2.410156 3.609375 -2.265625 3.734375 -2.078125 C 3.867188 -1.890625 3.9375 -1.648438 3.9375 -1.359375 C 3.9375 -1.078125 3.863281 -0.820312 3.71875 -0.59375 C 3.570312 -0.375 3.363281 -0.203125 3.09375 -0.078125 C 2.820312 0.046875 2.515625 0.109375 2.171875 0.109375 C 1.066406 0.109375 0.429688 -0.382812 0.265625 -1.375 L 1.046875 -1.5 C 1.097656 -1.175781 1.210938 -0.929688 1.390625 -0.765625 C 1.578125 -0.609375 1.832031 -0.53125 2.15625 -0.53125 C 2.46875 -0.53125 2.707031 -0.597656 2.875 -0.734375 C 3.050781 -0.867188 3.140625 -1.046875 3.140625 -1.265625 C 3.140625 -1.472656 3.039062 -1.632812 2.84375 -1.75 C 2.65625 -1.875 2.390625 -1.960938 2.046875 -2.015625 C 1.492188 -2.097656 1.078125 -2.242188 0.796875 -2.453125 C 0.515625 -2.671875 0.375 -2.984375 0.375 -3.390625 C 0.375 -3.640625 0.441406 -3.863281 0.578125 -4.0625 C 0.710938 -4.269531 0.90625 -4.429688 1.15625 -4.546875 C 1.40625 -4.660156 1.691406 -4.71875 2.015625 -4.71875 C 2.523438 -4.71875 2.925781 -4.609375 3.21875 -4.390625 C 3.519531 -4.179688 3.707031 -3.863281 3.78125 -3.4375 L 3.015625 -3.328125 C 2.972656 -3.554688 2.863281 -3.738281 2.6875 -3.875 C 2.519531 -4.007812 2.296875 -4.078125 2.015625 -4.078125 Z M 2.015625 -4.078125 "/></g></g><g transform="translate(11.290817, 38.816407)"><g><path d="M 3.578125 0 L 3.578125 -3.015625 C 3.578125 -3.347656 3.492188 -3.601562 3.328125 -3.78125 C 3.160156 -3.957031 2.925781 -4.046875 2.625 -4.046875 C 2.226562 -4.046875 1.921875 -3.925781 1.703125 -3.6875 C 1.492188 -3.457031 1.390625 -3.082031 1.390625 -2.5625 L 1.390625 0 L 0.609375 0 L 0.609375 -4.609375 L 1.328125 -4.609375 L 1.328125 -3.96875 C 1.484375 -4.195312 1.679688 -4.378906 1.921875 -4.515625 C 2.171875 -4.648438 2.445312 -4.71875 2.75 -4.71875 C 3.28125 -4.71875 3.679688 -4.578125 3.953125 -4.296875 C 4.222656 -4.023438 4.359375 -3.632812 4.359375 -3.125 L 4.359375 0 Z M 3.578125 0 "/></g></g><g transform="translate(16.244048, 38.816407)"><g><path d="M 2.515625 -0.53125 C 2.816406 -0.53125 3.070312 -0.617188 3.28125 -0.796875 C 3.5 -0.972656 3.648438 -1.203125 3.734375 -1.484375 L 4.5 -1.375 C 4.375 -0.90625 4.128906 -0.539062 3.765625 -0.28125 C 3.410156 -0.0195312 2.984375 0.109375 2.484375 0.109375 C 2.046875 0.109375 1.660156 0.015625 1.328125 -0.171875 C 1.003906 -0.367188 0.753906 -0.644531 0.578125 -1 C 0.398438 -1.363281 0.3125 -1.785156 0.3125 -2.265625 C 0.3125 -2.765625 0.394531 -3.195312 0.5625 -3.5625 C 0.738281 -3.9375 0.988281 -4.222656 1.3125 -4.421875 C 1.644531 -4.617188 2.03125 -4.71875 2.46875 -4.71875 C 2.894531 -4.71875 3.265625 -4.625 3.578125 -4.4375 C 3.898438 -4.25 4.144531 -3.96875 4.3125 -3.59375 C 4.488281 -3.226562 4.578125 -2.785156 4.578125 -2.265625 L 4.578125 -2.109375 L 1.125 -2.109375 C 1.132812 -1.773438 1.195312 -1.488281 1.3125 -1.25 C 1.4375 -1.019531 1.601562 -0.84375 1.8125 -0.71875 C 2.019531 -0.59375 2.253906 -0.53125 2.515625 -0.53125 Z M 2.46875 -4.078125 C 2.238281 -4.078125 2.03125 -4.019531 1.84375 -3.90625 C 1.65625 -3.800781 1.5 -3.648438 1.375 -3.453125 C 1.257812 -3.253906 1.179688 -3.019531 1.140625 -2.75 L 3.75 -2.75 C 3.695312 -3.175781 3.5625 -3.503906 3.34375 -3.734375 C 3.125 -3.960938 2.832031 -4.078125 2.46875 -4.078125 Z M 2.46875 -4.078125 "/></g></g><g transform="translate(21.123351, 38.816407)"><g><path d="M 4.3125 0 L 3.5 0 C 3.457031 -0.09375 3.425781 -0.171875 3.40625 -0.234375 C 3.382812 -0.296875 3.363281 -0.40625 3.34375 -0.5625 C 3.113281 -0.332031 2.875 -0.160156 2.625 -0.046875 C 2.375 0.0546875 2.09375 0.109375 1.78125 0.109375 C 1.488281 0.109375 1.226562 0.0546875 1 -0.046875 C 0.78125 -0.160156 0.609375 -0.316406 0.484375 -0.515625 C 0.367188 -0.722656 0.3125 -0.957031 0.3125 -1.21875 C 0.3125 -1.613281 0.441406 -1.925781 0.703125 -2.15625 C 0.960938 -2.394531 1.382812 -2.5625 1.96875 -2.65625 C 2.582031 -2.75 3.019531 -2.835938 3.28125 -2.921875 L 3.28125 -3.046875 C 3.28125 -3.304688 3.25 -3.507812 3.1875 -3.65625 C 3.125 -3.800781 3.015625 -3.90625 2.859375 -3.96875 C 2.710938 -4.039062 2.519531 -4.078125 2.28125 -4.078125 C 1.96875 -4.078125 1.71875 -4.003906 1.53125 -3.859375 C 1.351562 -3.722656 1.234375 -3.503906 1.171875 -3.203125 L 0.40625 -3.3125 C 0.5 -3.78125 0.707031 -4.128906 1.03125 -4.359375 C 1.351562 -4.597656 1.78125 -4.71875 2.3125 -4.71875 C 2.726562 -4.71875 3.0625 -4.664062 3.3125 -4.5625 C 3.570312 -4.457031 3.765625 -4.285156 3.890625 -4.046875 C 4.015625 -3.816406 4.078125 -3.507812 4.078125 -3.125 L 4.078125 -1.46875 C 4.078125 -1.175781 4.082031 -0.953125 4.09375 -0.796875 C 4.101562 -0.640625 4.125 -0.503906 4.15625 -0.390625 C 4.1875 -0.273438 4.238281 -0.144531 4.3125 0 Z M 2.015625 -2 C 1.703125 -1.945312 1.472656 -1.851562 1.328125 -1.71875 C 1.179688 -1.59375 1.109375 -1.425781 1.109375 -1.21875 C 1.109375 -1 1.179688 -0.828125 1.328125 -0.703125 C 1.472656 -0.578125 1.679688 -0.515625 1.953125 -0.515625 C 2.171875 -0.515625 2.40625 -0.582031 2.65625 -0.71875 C 2.820312 -0.820312 2.945312 -0.929688 3.03125 -1.046875 C 3.125 -1.171875 3.1875 -1.316406 3.21875 -1.484375 C 3.257812 -1.648438 3.28125 -1.867188 3.28125 -2.140625 L 3.28125 -2.3125 C 3.21875 -2.269531 3.0625 -2.21875 2.8125 -2.15625 C 2.570312 -2.101562 2.304688 -2.050781 2.015625 -2 Z M 2.015625 -2 "/></g></g><g transform="translate(25.780867, 38.816407)"><g><path d="M 1.390625 -2.75 L 3.234375 -4.609375 L 4.25 -4.609375 L 2.546875 -2.953125 L 4.4375 0 L 3.484375 0 L 1.984375 -2.40625 L 1.390625 -1.828125 L 1.390625 0 L 0.609375 0 L 0.609375 -6.375 L 1.390625 -6.375 Z M 1.390625 -2.75 "/></g></g><g transform="translate(30.233992, 38.816407)"><g><path d="M 2.515625 -0.53125 C 2.816406 -0.53125 3.070312 -0.617188 3.28125 -0.796875 C 3.5 -0.972656 3.648438 -1.203125 3.734375 -1.484375 L 4.5 -1.375 C 4.375 -0.90625 4.128906 -0.539062 3.765625 -0.28125 C 3.410156 -0.0195312 2.984375 0.109375 2.484375 0.109375 C 2.046875 0.109375 1.660156 0.015625 1.328125 -0.171875 C 1.003906 -0.367188 0.753906 -0.644531 0.578125 -1 C 0.398438 -1.363281 0.3125 -1.785156 0.3125 -2.265625 C 0.3125 -2.765625 0.394531 -3.195312 0.5625 -3.5625 C 0.738281 -3.9375 0.988281 -4.222656 1.3125 -4.421875 C 1.644531 -4.617188 2.03125 -4.71875 2.46875 -4.71875 C 2.894531 -4.71875 3.265625 -4.625 3.578125 -4.4375 C 3.898438 -4.25 4.144531 -3.96875 4.3125 -3.59375 C 4.488281 -3.226562 4.578125 -2.785156 4.578125 -2.265625 L 4.578125 -2.109375 L 1.125 -2.109375 C 1.132812 -1.773438 1.195312 -1.488281 1.3125 -1.25 C 1.4375 -1.019531 1.601562 -0.84375 1.8125 -0.71875 C 2.019531 -0.59375 2.253906 -0.53125 2.515625 -0.53125 Z M 2.46875 -4.078125 C 2.238281 -4.078125 2.03125 -4.019531 1.84375 -3.90625 C 1.65625 -3.800781 1.5 -3.648438 1.375 -3.453125 C 1.257812 -3.253906 1.179688 -3.019531 1.140625 -2.75 L 3.75 -2.75 C 3.695312 -3.175781 3.5625 -3.503906 3.34375 -3.734375 C 3.125 -3.960938 2.832031 -4.078125 2.46875 -4.078125 Z M 2.46875 -4.078125 "/></g></g><g transform="translate(35.113295, 38.816407)"><g><path d="M 2.40625 -3.921875 C 2.070312 -3.921875 1.816406 -3.789062 1.640625 -3.53125 C 1.472656 -3.28125 1.390625 -2.925781 1.390625 -2.46875 L 1.390625 0 L 0.609375 0 L 0.609375 -4.609375 L 1.328125 -4.609375 L 1.328125 -3.921875 C 1.503906 -4.210938 1.679688 -4.414062 1.859375 -4.53125 C 2.035156 -4.65625 2.25 -4.71875 2.5 -4.71875 C 2.632812 -4.71875 2.757812 -4.703125 2.875 -4.671875 C 3 -4.640625 3.125 -4.582031 3.25 -4.5 L 2.984375 -3.78125 C 2.816406 -3.875 2.625 -3.921875 2.40625 -3.921875 Z M 2.40625 -3.921875 "/></g></g><g transform="translate(38.327025, 38.816407)"><g><path d="M 2.015625 -4.078125 C 1.742188 -4.078125 1.53125 -4.019531 1.375 -3.90625 C 1.21875 -3.800781 1.140625 -3.660156 1.140625 -3.484375 C 1.140625 -3.347656 1.171875 -3.234375 1.234375 -3.140625 C 1.304688 -3.054688 1.414062 -2.984375 1.5625 -2.921875 C 1.707031 -2.867188 1.910156 -2.820312 2.171875 -2.78125 C 2.578125 -2.71875 2.90625 -2.628906 3.15625 -2.515625 C 3.414062 -2.410156 3.609375 -2.265625 3.734375 -2.078125 C 3.867188 -1.890625 3.9375 -1.648438 3.9375 -1.359375 C 3.9375 -1.078125 3.863281 -0.820312 3.71875 -0.59375 C 3.570312 -0.375 3.363281 -0.203125 3.09375 -0.078125 C 2.820312 0.046875 2.515625 0.109375 2.171875 0.109375 C 1.066406 0.109375 0.429688 -0.382812 0.265625 -1.375 L 1.046875 -1.5 C 1.097656 -1.175781 1.210938 -0.929688 1.390625 -0.765625 C 1.578125 -0.609375 1.832031 -0.53125 2.15625 -0.53125 C 2.46875 -0.53125 2.707031 -0.597656 2.875 -0.734375 C 3.050781 -0.867188 3.140625 -1.046875 3.140625 -1.265625 C 3.140625 -1.472656 3.039062 -1.632812 2.84375 -1.75 C 2.65625 -1.875 2.390625 -1.960938 2.046875 -2.015625 C 1.492188 -2.097656 1.078125 -2.242188 0.796875 -2.453125 C 0.515625 -2.671875 0.375 -2.984375 0.375 -3.390625 C 0.375 -3.640625 0.441406 -3.863281 0.578125 -4.0625 C 0.710938 -4.269531 0.90625 -4.429688 1.15625 -4.546875 C 1.40625 -4.660156 1.691406 -4.71875 2.015625 -4.71875 C 2.523438 -4.71875 2.925781 -4.609375 3.21875 -4.390625 C 3.519531 -4.179688 3.707031 -3.863281 3.78125 -3.4375 L 3.015625 -3.328125 C 2.972656 -3.554688 2.863281 -3.738281 2.6875 -3.875 C 2.519531 -4.007812 2.296875 -4.078125 2.015625 -4.078125 Z M 2.015625 -4.078125 "/></g></g></g><path fill="#c7c5c4" d="M 61.746094 46.925781 C 61.746094 47.40625 61.699219 47.882812 61.605469 48.355469 C 61.511719 48.828125 61.371094 49.285156 61.1875 49.730469 C 61.003906 50.175781 60.777344 50.597656 60.507812 51 C 60.242188 51.398438 59.9375 51.769531 59.597656 52.109375 C 59.257812 52.453125 58.886719 52.753906 58.484375 53.023438 C 58.085938 53.289062 57.664062 53.515625 57.21875 53.703125 C 56.773438 53.886719 56.3125 54.023438 55.839844 54.117188 C 55.367188 54.210938 54.890625 54.257812 54.410156 54.257812 C 54.242188 54.257812 54.070312 54.25 53.902344 54.230469 C 53.464844 54.199219 53.035156 54.132812 52.609375 54.027344 C 52.183594 53.917969 51.773438 53.777344 51.375 53.59375 C 50.976562 53.414062 50.59375 53.199219 50.234375 52.949219 C 49.875 52.699219 49.539062 52.421875 49.230469 52.113281 C 48.921875 51.800781 48.640625 51.46875 48.390625 51.109375 C 48.140625 50.75 47.925781 50.367188 47.742188 49.96875 C 47.5625 49.570312 47.417969 49.160156 47.3125 48.734375 C 47.203125 48.3125 47.132812 47.878906 47.105469 47.441406 C 47.085938 47.269531 47.074219 47.097656 47.074219 46.925781 C 47.074219 46.441406 47.121094 45.964844 47.21875 45.492188 C 47.3125 45.023438 47.449219 44.5625 47.632812 44.117188 C 47.820312 43.671875 48.046875 43.25 48.3125 42.851562 C 48.582031 42.449219 48.882812 42.082031 49.226562 41.738281 C 49.566406 41.398438 49.9375 41.09375 50.335938 40.828125 C 50.738281 40.558594 51.160156 40.335938 51.605469 40.148438 C 52.050781 39.964844 52.507812 39.828125 52.980469 39.734375 C 53.453125 39.640625 53.929688 39.59375 54.410156 39.59375 C 54.890625 39.59375 55.367188 39.640625 55.839844 39.734375 C 56.3125 39.828125 56.773438 39.964844 57.21875 40.148438 C 57.660156 40.335938 58.085938 40.558594 58.484375 40.828125 C 58.886719 41.09375 59.253906 41.398438 59.597656 41.738281 C 59.9375 42.082031 60.242188 42.449219 60.507812 42.851562 C 60.777344 43.25 61 43.671875 61.1875 44.117188 C 61.371094 44.5625 61.511719 45.023438 61.605469 45.492188 C 61.699219 45.964844 61.746094 46.441406 61.746094 46.925781 Z M 61.746094 46.925781 " fill-opacity="1" fill-rule="nonzero"/><path fill="#c7c5c4" d="M 54.410156 39.589844 C 53.929688 39.589844 53.453125 39.636719 52.980469 39.730469 C 52.507812 39.824219 52.046875 39.964844 51.605469 40.148438 C 51.160156 40.332031 50.734375 40.558594 50.335938 40.824219 C 49.933594 41.09375 49.566406 41.398438 49.222656 41.738281 C 48.882812 42.078125 48.578125 42.449219 48.3125 42.847656 C 48.042969 43.25 47.816406 43.671875 47.632812 44.117188 C 47.449219 44.5625 47.308594 45.019531 47.214844 45.492188 C 47.121094 45.964844 47.074219 46.441406 47.074219 46.925781 C 47.074219 47.097656 47.085938 47.269531 47.105469 47.441406 C 47.164062 48.3125 47.371094 49.148438 47.730469 49.945312 C 48.089844 50.742188 48.578125 51.449219 49.191406 52.070312 L 59.558594 41.703125 C 58.871094 41.027344 58.082031 40.503906 57.191406 40.136719 C 56.300781 39.773438 55.375 39.589844 54.410156 39.589844 Z M 54.410156 39.589844 " fill-opacity="1" fill-rule="nonzero"/><path fill="#c7c5c4" d="M 53.90625 54.230469 C 53.941406 54.726562 53.925781 55.21875 53.863281 55.710938 C 53.796875 56.207031 53.6875 56.6875 53.523438 57.15625 C 53.363281 57.625 53.15625 58.074219 52.902344 58.503906 C 52.648438 58.929688 52.355469 59.328125 52.023438 59.695312 C 51.6875 60.0625 51.320312 60.394531 50.917969 60.6875 C 50.519531 60.980469 50.09375 61.230469 49.640625 61.4375 C 49.1875 61.644531 48.722656 61.804688 48.238281 61.917969 C 47.753906 62.027344 47.261719 62.089844 46.765625 62.101562 C 46.269531 62.117188 45.777344 62.078125 45.285156 61.992188 C 44.796875 61.902344 44.324219 61.765625 43.859375 61.582031 C 43.398438 61.398438 42.960938 61.167969 42.546875 60.894531 C 42.132812 60.621094 41.75 60.308594 41.398438 59.960938 C 41.046875 59.609375 40.730469 59.226562 40.457031 58.8125 C 40.183594 58.394531 39.957031 57.957031 39.769531 57.496094 C 39.585938 57.035156 39.449219 56.5625 39.359375 56.070312 C 39.273438 55.582031 39.234375 55.089844 39.246094 54.59375 C 39.257812 54.097656 39.316406 53.605469 39.429688 53.121094 C 39.539062 52.636719 39.699219 52.167969 39.90625 51.71875 C 40.113281 51.265625 40.359375 50.839844 40.652344 50.4375 C 40.945312 50.035156 41.277344 49.667969 41.644531 49.335938 C 42.011719 49 42.410156 48.707031 42.835938 48.453125 C 43.265625 48.199219 43.710938 47.992188 44.183594 47.828125 C 44.652344 47.664062 45.132812 47.550781 45.625 47.488281 C 46.117188 47.421875 46.613281 47.40625 47.109375 47.441406 C 47.136719 47.878906 47.207031 48.3125 47.3125 48.734375 C 47.421875 49.160156 47.566406 49.570312 47.746094 49.96875 C 47.929688 50.367188 48.144531 50.75 48.394531 51.109375 C 48.644531 51.46875 48.921875 51.800781 49.234375 52.113281 C 49.542969 52.421875 49.878906 52.699219 50.238281 52.949219 C 50.597656 53.199219 50.976562 53.414062 51.375 53.59375 C 51.777344 53.777344 52.1875 53.917969 52.613281 54.027344 C 53.035156 54.132812 53.46875 54.199219 53.90625 54.230469 Z M 53.90625 54.230469 " fill-opacity="1" fill-rule="nonzero"/><path fill="#c7c5c4" d="M 47.109375 47.441406 C 46.363281 47.390625 45.628906 47.449219 44.90625 47.621094 C 44.179688 47.792969 43.496094 48.066406 42.855469 48.445312 C 42.214844 48.824219 41.644531 49.289062 41.144531 49.84375 C 40.644531 50.394531 40.242188 51.011719 39.929688 51.6875 C 39.617188 52.363281 39.414062 53.070312 39.316406 53.808594 C 39.21875 54.546875 39.234375 55.285156 39.363281 56.019531 C 39.492188 56.753906 39.726562 57.449219 40.066406 58.113281 C 40.40625 58.777344 40.835938 59.371094 41.359375 59.902344 L 49.191406 52.070312 C 48.578125 51.449219 48.09375 50.742188 47.734375 49.945312 C 47.375 49.148438 47.167969 48.3125 47.109375 47.441406 Z M 47.109375 47.441406 " fill-opacity="1" fill-rule="nonzero"/><g clip-path="url(#f996ee4f4f)"><path stroke-linecap="round" transform="matrix(0.510254, 0, 0, 0.510254, 38.762701, 39.106614)" fill="none" stroke-linejoin="round" d="M 45.043053 15.324073 C 45.043053 16.2657 44.951187 17.199671 44.767455 18.125987 C 44.583723 19.052303 44.308124 19.947996 43.948316 20.820724 C 43.588507 21.693451 43.144488 22.520245 42.616258 23.308762 C 42.095684 24.089623 41.498555 24.816896 40.832526 25.482925 C 40.166497 26.156609 39.439225 26.746083 38.650708 27.274313 C 37.869847 27.794887 37.043052 28.238906 36.170325 28.60637 C 35.297598 28.966179 34.394248 29.234121 33.467933 29.417853 C 32.541617 29.601585 31.607645 29.693451 30.666019 29.693451 C 30.336832 29.693451 29.99999 29.67814 29.670803 29.639863 C 28.813387 29.578619 27.971282 29.448475 27.136832 29.241777 C 26.302382 29.027423 25.498554 28.751825 24.717693 28.392016 C 23.936832 28.039863 23.186592 27.61881 22.482286 27.128858 C 21.77798 26.638906 21.119607 26.095365 20.514822 25.49058 C 19.910037 24.87814 19.358841 24.227422 18.868889 23.523116 C 18.378937 22.81881 17.957884 22.068571 17.598075 21.287709 C 17.245922 20.506848 16.962669 19.70302 16.75597 18.868571 C 16.541616 18.041776 16.403817 17.192016 16.350229 16.334599 C 16.311951 15.997757 16.288984 15.660915 16.288984 15.324073 C 16.288984 14.374791 16.380851 13.440819 16.572238 12.514503 C 16.75597 11.595843 17.023913 10.692494 17.383721 9.819766 C 17.751186 8.947039 18.195205 8.120245 18.715779 7.339384 C 19.244009 6.550867 19.833482 5.831249 20.507166 5.157565 C 21.173195 4.491537 21.900468 3.894407 22.681329 3.373833 C 23.469846 2.845603 24.29664 2.40924 25.169368 2.041776 C 26.042095 1.681967 26.937789 1.414024 27.864105 1.230292 C 28.79042 1.04656 29.724392 0.954694 30.666019 0.954694 C 31.607645 0.954694 32.541617 1.04656 33.467933 1.230292 C 34.394248 1.414024 35.297598 1.681967 36.170325 2.041776 C 37.035397 2.40924 37.869847 2.845603 38.650708 3.373833 C 39.439225 3.894407 40.158842 4.491537 40.832526 5.157565 C 41.498555 5.831249 42.095684 6.550867 42.616258 7.339384 C 43.144488 8.120245 43.580852 8.947039 43.948316 9.819766 C 44.308124 10.692494 44.583723 11.595843 44.767455 12.514503 C 44.951187 13.440819 45.043053 14.374791 45.043053 15.324073 Z M 45.043053 15.324073 " stroke="#222126" stroke-width="2" stroke-opacity="1" stroke-miterlimit="4"/></g><g clip-path="url(#ad2a6de666)"><path stroke-linecap="round" transform="matrix(0.510254, 0, 0, 0.510254, 38.762701, 39.106614)" fill="none" stroke-linejoin="round" d="M 29.678459 29.639863 C 29.747358 30.612112 29.716736 31.576705 29.594248 32.541298 C 29.464105 33.513547 29.249751 34.455174 28.928219 35.373834 C 28.614344 36.292495 28.208602 37.172878 27.710995 38.014983 C 27.213387 38.849433 26.639224 39.630294 25.988506 40.349911 C 25.330133 41.069528 24.610516 41.720246 23.821999 42.294409 C 23.041138 42.868572 22.206688 43.358524 21.31865 43.764265 C 20.430611 44.170007 19.519607 44.483883 18.570324 44.705892 C 17.621042 44.920246 16.656449 45.042734 15.6842 45.065701 C 14.711951 45.096323 13.747358 45.019768 12.782764 44.851347 C 11.825826 44.67527 10.899511 44.407328 9.988506 44.047519 C 9.085156 43.68771 8.22774 43.236036 7.416257 42.700151 C 6.604774 42.164265 5.854534 41.551825 5.165539 40.870485 C 4.476544 40.18149 3.856448 39.431251 3.320563 38.619768 C 2.784678 37.800629 2.340659 36.943212 1.973194 36.039863 C 1.613386 35.136514 1.345443 34.210198 1.169367 33.245605 C 1.000946 32.288667 0.924391 31.324074 0.947357 30.351825 C 0.970324 29.379576 1.085156 28.414982 1.307166 27.4657 C 1.52152 26.516418 1.835395 25.597757 2.241137 24.717375 C 2.646879 23.829336 3.129175 22.994887 3.703338 22.20637 C 4.277501 21.417853 4.928218 20.698236 5.647836 20.047518 C 6.367453 19.389145 7.148314 18.814982 7.982764 18.317374 C 8.824869 17.819767 9.697597 17.414025 10.623912 17.092494 C 11.542573 16.770963 12.4842 16.548953 13.448793 16.426465 C 14.413386 16.296322 15.385635 16.2657 16.357884 16.334599 C 16.411473 17.192016 16.549272 18.041776 16.75597 18.868571 C 16.970324 19.70302 17.253578 20.506848 17.605731 21.287709 C 17.96554 22.068571 18.386592 22.81881 18.876544 23.523116 C 19.366497 24.227422 19.910037 24.87814 20.522477 25.49058 C 21.127262 26.095365 21.785635 26.638906 22.489942 27.128858 C 23.194248 27.61881 23.936832 28.039863 24.717693 28.392016 C 25.50621 28.751825 26.310038 29.027423 27.144487 29.241777 C 27.971282 29.448475 28.821042 29.578619 29.678459 29.639863 Z M 29.678459 29.639863 " stroke="#222126" stroke-width="2" stroke-opacity="1" stroke-miterlimit="4"/></g><path stroke-linecap="round" transform="matrix(0.510254, 0, 0, 0.510254, 38.762701, 39.106614)" fill="none" stroke-linejoin="round" d="M 14.39042 25.8657 L 14.39042 23.944169 " stroke="#222126" stroke-width="2" stroke-opacity="1" stroke-miterlimit="4"/><path stroke-linecap="round" transform="matrix(0.510254, 0, 0, 0.510254, 38.762701, 39.106614)" fill="none" stroke-linejoin="round" d="M 17.253578 25.8657 L 13.364582 25.8657 C 12.752142 25.8657 12.208602 26.057088 11.73396 26.455174 C 11.259319 26.845604 10.960755 27.343212 10.845922 27.947997 C 10.723434 28.552782 10.8153 29.126944 11.106209 29.662829 C 11.404774 30.20637 11.833482 30.589145 12.407645 30.81881 L 16.36554 32.403499 C 16.932047 32.633164 17.36841 33.023595 17.666975 33.55948 C 17.957884 34.103021 18.04975 34.677184 17.927262 35.281968 C 17.81243 35.886753 17.513865 36.384361 17.039224 36.774791 C 16.564583 37.165222 16.021042 37.364265 15.408602 37.364265 L 11.49664 37.364265 " stroke="#222126" stroke-width="2" stroke-opacity="1" stroke-miterlimit="4"/><path stroke-linecap="round" transform="matrix(0.510254, 0, 0, 0.510254, 38.762701, 39.106614)" fill="none" stroke-linejoin="round" d="M 14.39042 39.278141 L 14.39042 37.364265 " stroke="#222126" stroke-width="2" stroke-opacity="1" stroke-miterlimit="4"/><path stroke-linecap="round" transform="matrix(0.510254, 0, 0, 0.510254, 38.762701, 39.106614)" fill="none" stroke-linejoin="round" d="M 30.68133 9.57479 L 30.68133 7.653259 " stroke="#222126" stroke-width="2" stroke-opacity="1" stroke-miterlimit="4"/><path stroke-linecap="round" transform="matrix(0.510254, 0, 0, 0.510254, 38.762701, 39.106614)" fill="none" stroke-linejoin="round" d="M 33.544488 9.57479 L 29.655492 9.57479 C 29.043052 9.57479 28.499511 9.766178 28.02487 10.164264 C 27.550229 10.554695 27.251664 11.052302 27.136832 11.657087 C 27.014344 12.261872 27.10621 12.836034 27.404774 13.37192 C 27.695684 13.91546 28.132047 14.298235 28.698554 14.527901 L 32.656449 16.11259 C 33.230612 16.342255 33.65932 16.72503 33.957885 17.268571 C 34.248794 17.812111 34.34066 18.386274 34.218172 18.991059 C 34.103339 19.595843 33.81243 20.093451 33.330134 20.483882 C 32.855492 20.874312 32.311952 21.073355 31.699511 21.073355 L 27.795205 21.073355 " stroke="#222126" stroke-width="2" stroke-opacity="1" stroke-miterlimit="4"/><path stroke-linecap="round" transform="matrix(0.510254, 0, 0, 0.510254, 38.762701, 39.106614)" fill="none" stroke-linejoin="round" d="M 30.68133 22.987231 L 30.68133 21.073355 " stroke="#222126" stroke-width="2" stroke-opacity="1" stroke-miterlimit="4"/></svg>
