<svg xmlns="http://www.w3.org/2000/svg" xmlns:xlink="http://www.w3.org/1999/xlink" width="95" zoomAndPan="magnify" viewBox="0 0 71.25 71.25" height="95" preserveAspectRatio="xMidYMid meet" version="1.0"><defs><g/><clipPath id="7c180864e1"><path d="M 0 0 L 70.507812 0 L 70.507812 70.507812 L 0 70.507812 Z M 0 0 " clip-rule="nonzero"/></clipPath><clipPath id="203ed1d4fe"><path d="M 13.359375 0 L 57.148438 0 C 60.691406 0 64.089844 1.40625 66.59375 3.914062 C 69.101562 6.417969 70.507812 9.816406 70.507812 13.359375 L 70.507812 57.148438 C 70.507812 60.691406 69.101562 64.089844 66.59375 66.59375 C 64.089844 69.101562 60.691406 70.507812 57.148438 70.507812 L 13.359375 70.507812 C 9.816406 70.507812 6.417969 69.101562 3.914062 66.59375 C 1.40625 64.089844 0 60.691406 0 57.148438 L 0 13.359375 C 0 9.816406 1.40625 6.417969 3.914062 3.914062 C 6.417969 1.40625 9.816406 0 13.359375 0 Z M 13.359375 0 " clip-rule="nonzero"/></clipPath></defs><g clip-path="url(#7c180864e1)"><g clip-path="url(#203ed1d4fe)"><path fill="#ffb1a5" d="M 0 0 L 70.507812 0 L 70.507812 70.507812 L 0 70.507812 Z M 0 0 " fill-opacity="1" fill-rule="nonzero"/></g></g><g fill="#ffffff" fill-opacity="1"><g transform="translate(7.050781, 15.066393)"><g><path d="M 0.40625 -3.171875 C 0.40625 -3.828125 0.535156 -4.40625 0.796875 -4.90625 C 1.066406 -5.414062 1.429688 -5.804688 1.890625 -6.078125 C 2.359375 -6.347656 2.882812 -6.484375 3.46875 -6.484375 C 4.039062 -6.484375 4.554688 -6.347656 5.015625 -6.078125 C 5.484375 -5.804688 5.847656 -5.421875 6.109375 -4.921875 C 6.378906 -4.429688 6.515625 -3.851562 6.515625 -3.1875 C 6.515625 -2.53125 6.378906 -1.953125 6.109375 -1.453125 C 5.847656 -0.953125 5.484375 -0.566406 5.015625 -0.296875 C 4.554688 -0.0234375 4.039062 0.109375 3.46875 0.109375 C 2.882812 0.109375 2.359375 -0.0234375 1.890625 -0.296875 C 1.429688 -0.578125 1.066406 -0.96875 0.796875 -1.46875 C 0.535156 -1.96875 0.40625 -2.535156 0.40625 -3.171875 Z M 3.453125 -5.765625 C 3.023438 -5.765625 2.644531 -5.660156 2.3125 -5.453125 C 1.988281 -5.242188 1.734375 -4.941406 1.546875 -4.546875 C 1.367188 -4.160156 1.28125 -3.695312 1.28125 -3.15625 C 1.28125 -2.632812 1.375 -2.179688 1.5625 -1.796875 C 1.75 -1.410156 2.003906 -1.113281 2.328125 -0.90625 C 2.660156 -0.707031 3.035156 -0.609375 3.453125 -0.609375 C 3.878906 -0.609375 4.253906 -0.707031 4.578125 -0.90625 C 4.910156 -1.113281 5.171875 -1.410156 5.359375 -1.796875 C 5.546875 -2.179688 5.640625 -2.640625 5.640625 -3.171875 C 5.640625 -3.703125 5.546875 -4.160156 5.359375 -4.546875 C 5.179688 -4.941406 4.925781 -5.242188 4.59375 -5.453125 C 4.257812 -5.660156 3.878906 -5.765625 3.453125 -5.765625 Z M 3.453125 -5.765625 "/></g></g><g transform="translate(13.96965, 15.066393)"><g><path d="M 2.40625 -3.921875 C 2.070312 -3.921875 1.816406 -3.789062 1.640625 -3.53125 C 1.472656 -3.28125 1.390625 -2.925781 1.390625 -2.46875 L 1.390625 0 L 0.609375 0 L 0.609375 -4.609375 L 1.328125 -4.609375 L 1.328125 -3.921875 C 1.503906 -4.210938 1.679688 -4.414062 1.859375 -4.53125 C 2.035156 -4.65625 2.25 -4.71875 2.5 -4.71875 C 2.632812 -4.71875 2.757812 -4.703125 2.875 -4.671875 C 3 -4.640625 3.125 -4.582031 3.25 -4.5 L 2.984375 -3.78125 C 2.816406 -3.875 2.625 -3.921875 2.40625 -3.921875 Z M 2.40625 -3.921875 "/></g></g><g transform="translate(17.183379, 15.066393)"><g><path d="M 4.484375 0 L 3.75 0 L 3.75 -0.59375 L 3.734375 -0.59375 C 3.597656 -0.375 3.40625 -0.203125 3.15625 -0.078125 C 2.90625 0.046875 2.644531 0.109375 2.375 0.109375 C 1.976562 0.109375 1.617188 0.0078125 1.296875 -0.1875 C 0.984375 -0.394531 0.738281 -0.679688 0.5625 -1.046875 C 0.394531 -1.410156 0.3125 -1.832031 0.3125 -2.3125 C 0.3125 -2.800781 0.390625 -3.222656 0.546875 -3.578125 C 0.710938 -3.941406 0.945312 -4.222656 1.25 -4.421875 C 1.550781 -4.617188 1.90625 -4.71875 2.3125 -4.71875 C 2.601562 -4.71875 2.859375 -4.664062 3.078125 -4.5625 C 3.304688 -4.457031 3.507812 -4.300781 3.6875 -4.09375 L 3.703125 -4.09375 L 3.703125 -6.375 L 4.484375 -6.375 Z M 2.375 -4.078125 C 2.113281 -4.078125 1.882812 -4.003906 1.6875 -3.859375 C 1.5 -3.710938 1.351562 -3.503906 1.25 -3.234375 C 1.15625 -2.972656 1.109375 -2.660156 1.109375 -2.296875 C 1.109375 -1.921875 1.164062 -1.597656 1.28125 -1.328125 C 1.394531 -1.066406 1.550781 -0.867188 1.75 -0.734375 C 1.945312 -0.597656 2.171875 -0.53125 2.421875 -0.53125 C 2.703125 -0.53125 2.941406 -0.597656 3.140625 -0.734375 C 3.335938 -0.878906 3.488281 -1.078125 3.59375 -1.328125 C 3.695312 -1.585938 3.75 -1.890625 3.75 -2.234375 C 3.75 -2.617188 3.691406 -2.945312 3.578125 -3.21875 C 3.472656 -3.5 3.316406 -3.710938 3.109375 -3.859375 C 2.898438 -4.003906 2.65625 -4.078125 2.375 -4.078125 Z M 2.375 -4.078125 "/></g></g><g transform="translate(22.275771, 15.066393)"><g><path d="M 2.515625 -0.53125 C 2.816406 -0.53125 3.070312 -0.617188 3.28125 -0.796875 C 3.5 -0.972656 3.648438 -1.203125 3.734375 -1.484375 L 4.5 -1.375 C 4.375 -0.90625 4.128906 -0.539062 3.765625 -0.28125 C 3.410156 -0.0195312 2.984375 0.109375 2.484375 0.109375 C 2.046875 0.109375 1.660156 0.015625 1.328125 -0.171875 C 1.003906 -0.367188 0.753906 -0.644531 0.578125 -1 C 0.398438 -1.363281 0.3125 -1.785156 0.3125 -2.265625 C 0.3125 -2.765625 0.394531 -3.195312 0.5625 -3.5625 C 0.738281 -3.9375 0.988281 -4.222656 1.3125 -4.421875 C 1.644531 -4.617188 2.03125 -4.71875 2.46875 -4.71875 C 2.894531 -4.71875 3.265625 -4.625 3.578125 -4.4375 C 3.898438 -4.25 4.144531 -3.96875 4.3125 -3.59375 C 4.488281 -3.226562 4.578125 -2.785156 4.578125 -2.265625 L 4.578125 -2.109375 L 1.125 -2.109375 C 1.132812 -1.773438 1.195312 -1.488281 1.3125 -1.25 C 1.4375 -1.019531 1.601562 -0.84375 1.8125 -0.71875 C 2.019531 -0.59375 2.253906 -0.53125 2.515625 -0.53125 Z M 2.46875 -4.078125 C 2.238281 -4.078125 2.03125 -4.019531 1.84375 -3.90625 C 1.65625 -3.800781 1.5 -3.648438 1.375 -3.453125 C 1.257812 -3.253906 1.179688 -3.019531 1.140625 -2.75 L 3.75 -2.75 C 3.695312 -3.175781 3.5625 -3.503906 3.34375 -3.734375 C 3.125 -3.960938 2.832031 -4.078125 2.46875 -4.078125 Z M 2.46875 -4.078125 "/></g></g><g transform="translate(27.155074, 15.066393)"><g><path d="M 2.40625 -3.921875 C 2.070312 -3.921875 1.816406 -3.789062 1.640625 -3.53125 C 1.472656 -3.28125 1.390625 -2.925781 1.390625 -2.46875 L 1.390625 0 L 0.609375 0 L 0.609375 -4.609375 L 1.328125 -4.609375 L 1.328125 -3.921875 C 1.503906 -4.210938 1.679688 -4.414062 1.859375 -4.53125 C 2.035156 -4.65625 2.25 -4.71875 2.5 -4.71875 C 2.632812 -4.71875 2.757812 -4.703125 2.875 -4.671875 C 3 -4.640625 3.125 -4.582031 3.25 -4.5 L 2.984375 -3.78125 C 2.816406 -3.875 2.625 -3.921875 2.40625 -3.921875 Z M 2.40625 -3.921875 "/></g></g><g transform="translate(30.368804, 15.066393)"><g/></g><g transform="translate(32.817152, 15.066393)"><g><path d="M 3.578125 0 L 3.578125 -3.015625 C 3.578125 -3.347656 3.492188 -3.601562 3.328125 -3.78125 C 3.160156 -3.957031 2.925781 -4.046875 2.625 -4.046875 C 2.226562 -4.046875 1.921875 -3.925781 1.703125 -3.6875 C 1.492188 -3.457031 1.390625 -3.082031 1.390625 -2.5625 L 1.390625 0 L 0.609375 0 L 0.609375 -4.609375 L 1.328125 -4.609375 L 1.328125 -3.96875 C 1.484375 -4.195312 1.679688 -4.378906 1.921875 -4.515625 C 2.171875 -4.648438 2.445312 -4.71875 2.75 -4.71875 C 3.28125 -4.71875 3.679688 -4.578125 3.953125 -4.296875 C 4.222656 -4.023438 4.359375 -3.632812 4.359375 -3.125 L 4.359375 0 Z M 3.578125 0 "/></g></g><g transform="translate(37.770384, 15.066393)"><g><path d="M 0.3125 -2.3125 C 0.3125 -2.8125 0.398438 -3.238281 0.578125 -3.59375 C 0.765625 -3.957031 1.019531 -4.234375 1.34375 -4.421875 C 1.664062 -4.617188 2.039062 -4.71875 2.46875 -4.71875 C 2.90625 -4.71875 3.285156 -4.625 3.609375 -4.4375 C 3.929688 -4.25 4.179688 -3.972656 4.359375 -3.609375 C 4.546875 -3.253906 4.640625 -2.820312 4.640625 -2.3125 C 4.640625 -1.800781 4.546875 -1.363281 4.359375 -1 C 4.179688 -0.644531 3.925781 -0.367188 3.59375 -0.171875 C 3.269531 0.015625 2.894531 0.109375 2.46875 0.109375 C 2.050781 0.109375 1.675781 0.0195312 1.34375 -0.15625 C 1.019531 -0.34375 0.765625 -0.617188 0.578125 -0.984375 C 0.398438 -1.347656 0.3125 -1.789062 0.3125 -2.3125 Z M 2.46875 -4.078125 C 2.207031 -4.078125 1.972656 -4.007812 1.765625 -3.875 C 1.566406 -3.738281 1.40625 -3.535156 1.28125 -3.265625 C 1.164062 -3.003906 1.109375 -2.6875 1.109375 -2.3125 C 1.109375 -1.925781 1.164062 -1.597656 1.28125 -1.328125 C 1.40625 -1.066406 1.566406 -0.867188 1.765625 -0.734375 C 1.972656 -0.597656 2.207031 -0.53125 2.46875 -0.53125 C 2.75 -0.53125 2.988281 -0.597656 3.1875 -0.734375 C 3.394531 -0.878906 3.554688 -1.082031 3.671875 -1.34375 C 3.785156 -1.613281 3.84375 -1.9375 3.84375 -2.3125 C 3.84375 -2.6875 3.78125 -3.003906 3.65625 -3.265625 C 3.539062 -3.535156 3.378906 -3.738281 3.171875 -3.875 C 2.972656 -4.007812 2.738281 -4.078125 2.46875 -4.078125 Z M 2.46875 -4.078125 "/></g></g><g transform="translate(42.723616, 15.066393)"><g><path d="M 1.609375 -1.90625 C 1.722656 -1.488281 1.804688 -1.175781 1.859375 -0.96875 C 1.867188 -1.007812 1.898438 -1.140625 1.953125 -1.359375 C 2.003906 -1.578125 2.050781 -1.765625 2.09375 -1.921875 L 2.84375 -4.609375 L 3.640625 -4.609375 L 4.328125 -1.96875 C 4.453125 -1.488281 4.523438 -1.1875 4.546875 -1.0625 L 4.578125 -1.0625 L 4.828125 -1.984375 L 5.625 -4.609375 L 6.390625 -4.609375 L 4.9375 0 L 4.125 0 L 3.40625 -2.734375 C 3.375 -2.835938 3.3125 -3.109375 3.21875 -3.546875 L 3.203125 -3.546875 C 3.171875 -3.429688 3.101562 -3.160156 3 -2.734375 L 2.28125 0 L 1.46875 0 L 0.046875 -4.609375 L 0.859375 -4.609375 Z M 1.609375 -1.90625 "/></g></g><g transform="translate(49.155424, 15.066393)"><g/></g><g transform="translate(51.603773, 15.066393)"><g><path d="M 2.671875 -1.90625 L 0.28125 -1.90625 L 0.28125 -2.703125 L 2.671875 -2.703125 Z M 2.671875 -1.90625 "/></g></g></g><g fill="#ffffff" fill-opacity="1"><g transform="translate(7.050781, 26.941393)"><g><path d="M 1.40625 -0.53125 L 1.390625 -0.53125 L 1.390625 1.765625 L 0.609375 1.765625 L 0.609375 -4.609375 L 1.328125 -4.609375 L 1.328125 -4.03125 L 1.359375 -4.03125 C 1.515625 -4.25 1.707031 -4.414062 1.9375 -4.53125 C 2.164062 -4.65625 2.429688 -4.71875 2.734375 -4.71875 C 3.140625 -4.71875 3.5 -4.617188 3.8125 -4.421875 C 4.125 -4.222656 4.363281 -3.941406 4.53125 -3.578125 C 4.695312 -3.210938 4.78125 -2.789062 4.78125 -2.3125 C 4.78125 -1.820312 4.695312 -1.394531 4.53125 -1.03125 C 4.363281 -0.664062 4.128906 -0.382812 3.828125 -0.1875 C 3.535156 0.0078125 3.1875 0.109375 2.78125 0.109375 C 2.207031 0.109375 1.75 -0.101562 1.40625 -0.53125 Z M 2.65625 -4.078125 C 2.382812 -4.078125 2.148438 -4.003906 1.953125 -3.859375 C 1.753906 -3.710938 1.597656 -3.507812 1.484375 -3.25 C 1.378906 -2.988281 1.328125 -2.695312 1.328125 -2.375 C 1.328125 -1.988281 1.382812 -1.65625 1.5 -1.375 C 1.613281 -1.101562 1.769531 -0.894531 1.96875 -0.75 C 2.175781 -0.601562 2.421875 -0.53125 2.703125 -0.53125 C 2.960938 -0.53125 3.1875 -0.601562 3.375 -0.75 C 3.570312 -0.90625 3.722656 -1.113281 3.828125 -1.375 C 3.929688 -1.644531 3.984375 -1.957031 3.984375 -2.3125 C 3.984375 -2.675781 3.925781 -2.988281 3.8125 -3.25 C 3.707031 -3.519531 3.550781 -3.722656 3.34375 -3.859375 C 3.144531 -4.003906 2.914062 -4.078125 2.65625 -4.078125 Z M 2.65625 -4.078125 "/></g></g><g transform="translate(12.143173, 26.941393)"><g><path d="M 4.3125 0 L 3.5 0 C 3.457031 -0.09375 3.425781 -0.171875 3.40625 -0.234375 C 3.382812 -0.296875 3.363281 -0.40625 3.34375 -0.5625 C 3.113281 -0.332031 2.875 -0.160156 2.625 -0.046875 C 2.375 0.0546875 2.09375 0.109375 1.78125 0.109375 C 1.488281 0.109375 1.226562 0.0546875 1 -0.046875 C 0.78125 -0.160156 0.609375 -0.316406 0.484375 -0.515625 C 0.367188 -0.722656 0.3125 -0.957031 0.3125 -1.21875 C 0.3125 -1.613281 0.441406 -1.925781 0.703125 -2.15625 C 0.960938 -2.394531 1.382812 -2.5625 1.96875 -2.65625 C 2.582031 -2.75 3.019531 -2.835938 3.28125 -2.921875 L 3.28125 -3.046875 C 3.28125 -3.304688 3.25 -3.507812 3.1875 -3.65625 C 3.125 -3.800781 3.015625 -3.90625 2.859375 -3.96875 C 2.710938 -4.039062 2.519531 -4.078125 2.28125 -4.078125 C 1.96875 -4.078125 1.71875 -4.003906 1.53125 -3.859375 C 1.351562 -3.722656 1.234375 -3.503906 1.171875 -3.203125 L 0.40625 -3.3125 C 0.5 -3.78125 0.707031 -4.128906 1.03125 -4.359375 C 1.351562 -4.597656 1.78125 -4.71875 2.3125 -4.71875 C 2.726562 -4.71875 3.0625 -4.664062 3.3125 -4.5625 C 3.570312 -4.457031 3.765625 -4.285156 3.890625 -4.046875 C 4.015625 -3.816406 4.078125 -3.507812 4.078125 -3.125 L 4.078125 -1.46875 C 4.078125 -1.175781 4.082031 -0.953125 4.09375 -0.796875 C 4.101562 -0.640625 4.125 -0.503906 4.15625 -0.390625 C 4.1875 -0.273438 4.238281 -0.144531 4.3125 0 Z M 2.015625 -2 C 1.703125 -1.945312 1.472656 -1.851562 1.328125 -1.71875 C 1.179688 -1.59375 1.109375 -1.425781 1.109375 -1.21875 C 1.109375 -1 1.179688 -0.828125 1.328125 -0.703125 C 1.472656 -0.578125 1.679688 -0.515625 1.953125 -0.515625 C 2.171875 -0.515625 2.40625 -0.582031 2.65625 -0.71875 C 2.820312 -0.820312 2.945312 -0.929688 3.03125 -1.046875 C 3.125 -1.171875 3.1875 -1.316406 3.21875 -1.484375 C 3.257812 -1.648438 3.28125 -1.867188 3.28125 -2.140625 L 3.28125 -2.3125 C 3.21875 -2.269531 3.0625 -2.21875 2.8125 -2.15625 C 2.570312 -2.101562 2.304688 -2.050781 2.015625 -2 Z M 2.015625 -2 "/></g></g><g transform="translate(16.800689, 26.941393)"><g><path d="M 1.953125 -1.953125 C 2.035156 -1.703125 2.097656 -1.507812 2.140625 -1.375 C 2.179688 -1.25 2.226562 -1.082031 2.28125 -0.875 L 2.296875 -0.875 C 2.359375 -1.132812 2.40625 -1.316406 2.4375 -1.421875 C 2.46875 -1.535156 2.546875 -1.757812 2.671875 -2.09375 L 3.59375 -4.609375 L 4.390625 -4.609375 L 2.515625 0.34375 C 2.359375 0.738281 2.210938 1.046875 2.078125 1.265625 C 1.941406 1.484375 1.789062 1.640625 1.625 1.734375 C 1.46875 1.828125 1.28125 1.875 1.0625 1.875 C 0.976562 1.875 0.867188 1.863281 0.734375 1.84375 C 0.609375 1.820312 0.5 1.800781 0.40625 1.78125 L 0.5625 1.125 C 0.6875 1.164062 0.804688 1.1875 0.921875 1.1875 C 1.085938 1.1875 1.222656 1.144531 1.328125 1.0625 C 1.441406 0.976562 1.53125 0.863281 1.59375 0.71875 C 1.664062 0.582031 1.726562 0.4375 1.78125 0.28125 C 1.84375 0.132812 1.878906 0.046875 1.890625 0.015625 L 0.140625 -4.609375 L 0.984375 -4.609375 Z M 1.953125 -1.953125 "/></g></g><g transform="translate(21.253814, 26.941393)"><g/></g><g transform="translate(23.702163, 26.941393)"><g><path d="M 1.390625 0 L 0.609375 0 L 0.609375 -6.375 L 1.390625 -6.375 Z M 1.390625 0 "/></g></g><g transform="translate(25.693892, 26.941393)"><g><path d="M 4.3125 0 L 3.5 0 C 3.457031 -0.09375 3.425781 -0.171875 3.40625 -0.234375 C 3.382812 -0.296875 3.363281 -0.40625 3.34375 -0.5625 C 3.113281 -0.332031 2.875 -0.160156 2.625 -0.046875 C 2.375 0.0546875 2.09375 0.109375 1.78125 0.109375 C 1.488281 0.109375 1.226562 0.0546875 1 -0.046875 C 0.78125 -0.160156 0.609375 -0.316406 0.484375 -0.515625 C 0.367188 -0.722656 0.3125 -0.957031 0.3125 -1.21875 C 0.3125 -1.613281 0.441406 -1.925781 0.703125 -2.15625 C 0.960938 -2.394531 1.382812 -2.5625 1.96875 -2.65625 C 2.582031 -2.75 3.019531 -2.835938 3.28125 -2.921875 L 3.28125 -3.046875 C 3.28125 -3.304688 3.25 -3.507812 3.1875 -3.65625 C 3.125 -3.800781 3.015625 -3.90625 2.859375 -3.96875 C 2.710938 -4.039062 2.519531 -4.078125 2.28125 -4.078125 C 1.96875 -4.078125 1.71875 -4.003906 1.53125 -3.859375 C 1.351562 -3.722656 1.234375 -3.503906 1.171875 -3.203125 L 0.40625 -3.3125 C 0.5 -3.78125 0.707031 -4.128906 1.03125 -4.359375 C 1.351562 -4.597656 1.78125 -4.71875 2.3125 -4.71875 C 2.726562 -4.71875 3.0625 -4.664062 3.3125 -4.5625 C 3.570312 -4.457031 3.765625 -4.285156 3.890625 -4.046875 C 4.015625 -3.816406 4.078125 -3.507812 4.078125 -3.125 L 4.078125 -1.46875 C 4.078125 -1.175781 4.082031 -0.953125 4.09375 -0.796875 C 4.101562 -0.640625 4.125 -0.503906 4.15625 -0.390625 C 4.1875 -0.273438 4.238281 -0.144531 4.3125 0 Z M 2.015625 -2 C 1.703125 -1.945312 1.472656 -1.851562 1.328125 -1.71875 C 1.179688 -1.59375 1.109375 -1.425781 1.109375 -1.21875 C 1.109375 -1 1.179688 -0.828125 1.328125 -0.703125 C 1.472656 -0.578125 1.679688 -0.515625 1.953125 -0.515625 C 2.171875 -0.515625 2.40625 -0.582031 2.65625 -0.71875 C 2.820312 -0.820312 2.945312 -0.929688 3.03125 -1.046875 C 3.125 -1.171875 3.1875 -1.316406 3.21875 -1.484375 C 3.257812 -1.648438 3.28125 -1.867188 3.28125 -2.140625 L 3.28125 -2.3125 C 3.21875 -2.269531 3.0625 -2.21875 2.8125 -2.15625 C 2.570312 -2.101562 2.304688 -2.050781 2.015625 -2 Z M 2.015625 -2 "/></g></g><g transform="translate(30.351409, 26.941393)"><g><path d="M 1.5 -4.609375 L 2.375 -4.609375 L 2.375 -4.015625 L 1.5 -4.015625 L 1.5 -1.21875 C 1.5 -1.039062 1.515625 -0.910156 1.546875 -0.828125 C 1.578125 -0.742188 1.625 -0.6875 1.6875 -0.65625 C 1.75 -0.632812 1.832031 -0.625 1.9375 -0.625 C 2.039062 -0.625 2.1875 -0.640625 2.375 -0.671875 L 2.484375 -0.03125 C 2.253906 0.0195312 2.03125 0.046875 1.8125 0.046875 C 1.53125 0.046875 1.3125 0.00390625 1.15625 -0.078125 C 1.007812 -0.160156 0.898438 -0.28125 0.828125 -0.4375 C 0.753906 -0.59375 0.71875 -0.875 0.71875 -1.28125 L 0.71875 -4.015625 L 0.0625 -4.015625 L 0.0625 -4.609375 L 0.71875 -4.609375 L 0.71875 -5.671875 L 1.5 -6.234375 Z M 1.5 -4.609375 "/></g></g><g transform="translate(32.943266, 26.941393)"><g><path d="M 2.515625 -0.53125 C 2.816406 -0.53125 3.070312 -0.617188 3.28125 -0.796875 C 3.5 -0.972656 3.648438 -1.203125 3.734375 -1.484375 L 4.5 -1.375 C 4.375 -0.90625 4.128906 -0.539062 3.765625 -0.28125 C 3.410156 -0.0195312 2.984375 0.109375 2.484375 0.109375 C 2.046875 0.109375 1.660156 0.015625 1.328125 -0.171875 C 1.003906 -0.367188 0.753906 -0.644531 0.578125 -1 C 0.398438 -1.363281 0.3125 -1.785156 0.3125 -2.265625 C 0.3125 -2.765625 0.394531 -3.195312 0.5625 -3.5625 C 0.738281 -3.9375 0.988281 -4.222656 1.3125 -4.421875 C 1.644531 -4.617188 2.03125 -4.71875 2.46875 -4.71875 C 2.894531 -4.71875 3.265625 -4.625 3.578125 -4.4375 C 3.898438 -4.25 4.144531 -3.96875 4.3125 -3.59375 C 4.488281 -3.226562 4.578125 -2.785156 4.578125 -2.265625 L 4.578125 -2.109375 L 1.125 -2.109375 C 1.132812 -1.773438 1.195312 -1.488281 1.3125 -1.25 C 1.4375 -1.019531 1.601562 -0.84375 1.8125 -0.71875 C 2.019531 -0.59375 2.253906 -0.53125 2.515625 -0.53125 Z M 2.46875 -4.078125 C 2.238281 -4.078125 2.03125 -4.019531 1.84375 -3.90625 C 1.65625 -3.800781 1.5 -3.648438 1.375 -3.453125 C 1.257812 -3.253906 1.179688 -3.019531 1.140625 -2.75 L 3.75 -2.75 C 3.695312 -3.175781 3.5625 -3.503906 3.34375 -3.734375 C 3.125 -3.960938 2.832031 -4.078125 2.46875 -4.078125 Z M 2.46875 -4.078125 "/></g></g><g transform="translate(37.822569, 26.941393)"><g><path d="M 2.40625 -3.921875 C 2.070312 -3.921875 1.816406 -3.789062 1.640625 -3.53125 C 1.472656 -3.28125 1.390625 -2.925781 1.390625 -2.46875 L 1.390625 0 L 0.609375 0 L 0.609375 -4.609375 L 1.328125 -4.609375 L 1.328125 -3.921875 C 1.503906 -4.210938 1.679688 -4.414062 1.859375 -4.53125 C 2.035156 -4.65625 2.25 -4.71875 2.5 -4.71875 C 2.632812 -4.71875 2.757812 -4.703125 2.875 -4.671875 C 3 -4.640625 3.125 -4.582031 3.25 -4.5 L 2.984375 -3.78125 C 2.816406 -3.875 2.625 -3.921875 2.40625 -3.921875 Z M 2.40625 -3.921875 "/></g></g></g><path stroke-linecap="butt" transform="matrix(0.744407, 0, 0, 0.744407, 7.870015, 47.216316)" fill="none" stroke-linejoin="miter" d="M 0.568176 12.140663 L 0.536691 12.392542 C -0.0930051 17.482586 2.294593 20.43691 8.329181 20.43691 C 13.80229 20.43691 16.72513 17.298924 17.202649 12.518481 L 17.260371 11.888785 C 17.732643 7.113589 15.465737 3.965108 10.690542 3.965108 C 9.027094 3.965108 7.888394 4.279956 6.975334 4.878168 L 7.736217 0.569997 L 18.451547 0.569997 L 19.112728 -4.525295 L 3.5225 -4.525295 L 1.197872 8.840006 L 6.004553 10.566423 C 6.691971 9.532672 7.919878 9.0604 8.927392 9.0604 L 9.090064 9.0604 C 10.622324 9.0604 11.598353 9.84752 11.414692 12.046209 L 11.383207 12.392542 C 11.189051 14.585983 9.903421 15.346866 8.675514 15.346866 L 8.365913 15.346866 C 7.138006 15.346866 6.104255 14.659448 6.419103 12.140663 Z M 39.425676 2.390868 C 39.992402 -1.854334 37.190255 -4.960835 31.911302 -4.960835 C 26.406708 -4.960835 23.672777 -2.00651 23.074566 2.390868 L 21.662997 13.085208 C 21.09627 17.330409 23.898418 20.43691 29.177371 20.43691 C 34.681965 20.43691 37.410648 17.482586 38.014107 13.085208 Z M 32.16318 13.085208 C 31.969024 14.496776 31.124182 15.346866 29.644396 15.346866 L 29.523704 15.346866 C 28.038671 15.346866 27.319767 14.402322 27.508676 13.085208 L 28.925493 2.390868 C 29.114401 0.979299 29.959244 0.129209 31.43903 0.129209 L 31.564969 0.129209 C 33.044755 0.129209 33.768905 1.073753 33.574749 2.390868 Z M 53.693541 20.00137 L 65.767965 -2.00651 L 66.114298 -4.645987 C 65.017577 -4.299654 62.063253 -3.64372 59.103681 -3.64372 C 56.275295 -3.64372 55.015903 -3.832629 53.315724 -4.525295 C 52.565336 -4.808658 51.715246 -4.960835 50.770702 -4.960835 C 47.155196 -4.960835 44.332058 -2.798878 43.791569 1.131476 L 43.760084 1.514541 C 43.224843 5.444894 45.486501 7.612099 49.102007 7.612099 C 52.717512 7.612099 55.551145 5.444894 56.091634 1.514541 L 56.180841 0.884845 C 56.527174 0.916329 56.931229 0.947814 57.377264 0.947814 C 58.069929 0.947814 58.662893 0.884845 59.198135 0.785143 L 48.666467 20.00137 Z M 59.733377 13.966782 L 59.675655 14.3446 C 59.16665 18.274953 61.433556 20.43691 65.049062 20.43691 C 68.664567 20.43691 71.492952 18.274953 71.991462 14.3446 L 72.054432 13.966782 C 72.563436 10.036429 70.29653 7.863977 66.681024 7.863977 C 63.065519 7.863977 60.231886 10.036429 59.733377 13.966782 Z M 63.920856 14.3446 L 63.978578 13.966782 C 64.104518 12.922536 64.854906 12.140663 66.019843 12.140663 L 66.214 12.140663 C 67.37369 12.140663 67.940417 12.922536 67.80923 13.966782 L 67.74626 14.3446 C 67.625569 15.378351 66.875181 16.160224 65.704995 16.160224 L 65.516086 16.160224 C 64.356396 16.160224 63.78967 15.378351 63.920856 14.3446 Z M 51.87267 1.131476 L 51.846433 1.514541 C 51.715246 2.553539 50.933373 3.335412 49.763188 3.335412 L 49.579526 3.335412 C 48.414588 3.335412 47.884594 2.553539 48.005286 1.514541 L 48.036771 1.131476 C 48.199442 0.0977245 48.94983 -0.684148 50.109521 -0.684148 L 50.303677 -0.684148 C 51.468615 -0.684148 52.030094 0.0977245 51.87267 1.131476 Z M 51.87267 1.131476 " stroke="#ffde59" stroke-width="0.903998" stroke-opacity="1" stroke-miterlimit="4"/></svg>
