<svg xmlns="http://www.w3.org/2000/svg" xmlns:xlink="http://www.w3.org/1999/xlink" width="95" zoomAndPan="magnify" viewBox="0 0 71.25 71.25" height="95" preserveAspectRatio="xMidYMid meet" version="1.0"><defs><g/><clipPath id="71a1101ebc"><path d="M 0 0 L 70.507812 0 L 70.507812 70.507812 L 0 70.507812 Z M 0 0 " clip-rule="nonzero"/></clipPath><clipPath id="91ab7c7078"><path d="M 13.359375 0 L 57.148438 0 C 60.691406 0 64.089844 1.40625 66.59375 3.914062 C 69.101562 6.417969 70.507812 9.816406 70.507812 13.359375 L 70.507812 57.148438 C 70.507812 60.691406 69.101562 64.089844 66.59375 66.59375 C 64.089844 69.101562 60.691406 70.507812 57.148438 70.507812 L 13.359375 70.507812 C 9.816406 70.507812 6.417969 69.101562 3.914062 66.59375 C 1.40625 64.089844 0 60.691406 0 57.148438 L 0 13.359375 C 0 9.816406 1.40625 6.417969 3.914062 3.914062 C 6.417969 1.40625 9.816406 0 13.359375 0 Z M 13.359375 0 " clip-rule="nonzero"/></clipPath><clipPath id="e37f95a3a1"><path d="M 7.050781 43 L 11 43 L 11 51 L 7.050781 51 Z M 7.050781 43 " clip-rule="nonzero"/></clipPath><clipPath id="c1f9ff3fa8"><path d="M 7.050781 42 L 12 42 L 12 51 L 7.050781 51 Z M 7.050781 42 " clip-rule="nonzero"/></clipPath></defs><g clip-path="url(#71a1101ebc)"><g clip-path="url(#91ab7c7078)"><path fill="#ffffff" d="M 0 0 L 70.507812 0 L 70.507812 70.507812 L 0 70.507812 Z M 0 0 " fill-opacity="1" fill-rule="nonzero"/></g></g><g fill="#000000" fill-opacity="1"><g transform="translate(7.050781, 15.066408)"><g><path d="M 1.546875 -3.75 L 4.671875 -3.75 L 4.671875 -6.375 L 5.515625 -6.375 L 5.515625 0 L 4.671875 0 L 4.671875 -3 L 1.546875 -3 L 1.546875 0 L 0.703125 0 L 0.703125 -6.375 L 1.546875 -6.375 Z M 1.546875 -3.75 "/></g></g><g transform="translate(13.2695, 15.066408)"><g><path d="M 0.3125 -2.3125 C 0.3125 -2.8125 0.398438 -3.238281 0.578125 -3.59375 C 0.765625 -3.957031 1.019531 -4.234375 1.34375 -4.421875 C 1.664062 -4.617188 2.039062 -4.71875 2.46875 -4.71875 C 2.90625 -4.71875 3.285156 -4.625 3.609375 -4.4375 C 3.929688 -4.25 4.179688 -3.972656 4.359375 -3.609375 C 4.546875 -3.253906 4.640625 -2.820312 4.640625 -2.3125 C 4.640625 -1.800781 4.546875 -1.363281 4.359375 -1 C 4.179688 -0.644531 3.925781 -0.367188 3.59375 -0.171875 C 3.269531 0.015625 2.894531 0.109375 2.46875 0.109375 C 2.050781 0.109375 1.675781 0.0195312 1.34375 -0.15625 C 1.019531 -0.34375 0.765625 -0.617188 0.578125 -0.984375 C 0.398438 -1.347656 0.3125 -1.789062 0.3125 -2.3125 Z M 2.46875 -4.078125 C 2.207031 -4.078125 1.972656 -4.007812 1.765625 -3.875 C 1.566406 -3.738281 1.40625 -3.535156 1.28125 -3.265625 C 1.164062 -3.003906 1.109375 -2.6875 1.109375 -2.3125 C 1.109375 -1.925781 1.164062 -1.597656 1.28125 -1.328125 C 1.40625 -1.066406 1.566406 -0.867188 1.765625 -0.734375 C 1.972656 -0.597656 2.207031 -0.53125 2.46875 -0.53125 C 2.75 -0.53125 2.988281 -0.597656 3.1875 -0.734375 C 3.394531 -0.878906 3.554688 -1.082031 3.671875 -1.34375 C 3.785156 -1.613281 3.84375 -1.9375 3.84375 -2.3125 C 3.84375 -2.6875 3.78125 -3.003906 3.65625 -3.265625 C 3.539062 -3.535156 3.378906 -3.738281 3.171875 -3.875 C 2.972656 -4.007812 2.738281 -4.078125 2.46875 -4.078125 Z M 2.46875 -4.078125 "/></g></g><g transform="translate(18.222732, 15.066408)"><g><path d="M 1.609375 -1.90625 C 1.722656 -1.488281 1.804688 -1.175781 1.859375 -0.96875 C 1.867188 -1.007812 1.898438 -1.140625 1.953125 -1.359375 C 2.003906 -1.578125 2.050781 -1.765625 2.09375 -1.921875 L 2.84375 -4.609375 L 3.640625 -4.609375 L 4.328125 -1.96875 C 4.453125 -1.488281 4.523438 -1.1875 4.546875 -1.0625 L 4.578125 -1.0625 L 4.828125 -1.984375 L 5.625 -4.609375 L 6.390625 -4.609375 L 4.9375 0 L 4.125 0 L 3.40625 -2.734375 C 3.375 -2.835938 3.3125 -3.109375 3.21875 -3.546875 L 3.203125 -3.546875 C 3.171875 -3.429688 3.101562 -3.160156 3 -2.734375 L 2.28125 0 L 1.46875 0 L 0.046875 -4.609375 L 0.859375 -4.609375 Z M 1.609375 -1.90625 "/></g></g><g transform="translate(24.65454, 15.066408)"><g/></g><g transform="translate(27.102889, 15.066408)"><g><path d="M 1.5 -4.609375 L 2.375 -4.609375 L 2.375 -4.015625 L 1.5 -4.015625 L 1.5 -1.21875 C 1.5 -1.039062 1.515625 -0.910156 1.546875 -0.828125 C 1.578125 -0.742188 1.625 -0.6875 1.6875 -0.65625 C 1.75 -0.632812 1.832031 -0.625 1.9375 -0.625 C 2.039062 -0.625 2.1875 -0.640625 2.375 -0.671875 L 2.484375 -0.03125 C 2.253906 0.0195312 2.03125 0.046875 1.8125 0.046875 C 1.53125 0.046875 1.3125 0.00390625 1.15625 -0.078125 C 1.007812 -0.160156 0.898438 -0.28125 0.828125 -0.4375 C 0.753906 -0.59375 0.71875 -0.875 0.71875 -1.28125 L 0.71875 -4.015625 L 0.0625 -4.015625 L 0.0625 -4.609375 L 0.71875 -4.609375 L 0.71875 -5.671875 L 1.5 -6.234375 Z M 1.5 -4.609375 "/></g></g><g transform="translate(29.694747, 15.066408)"><g><path d="M 0.3125 -2.3125 C 0.3125 -2.8125 0.398438 -3.238281 0.578125 -3.59375 C 0.765625 -3.957031 1.019531 -4.234375 1.34375 -4.421875 C 1.664062 -4.617188 2.039062 -4.71875 2.46875 -4.71875 C 2.90625 -4.71875 3.285156 -4.625 3.609375 -4.4375 C 3.929688 -4.25 4.179688 -3.972656 4.359375 -3.609375 C 4.546875 -3.253906 4.640625 -2.820312 4.640625 -2.3125 C 4.640625 -1.800781 4.546875 -1.363281 4.359375 -1 C 4.179688 -0.644531 3.925781 -0.367188 3.59375 -0.171875 C 3.269531 0.015625 2.894531 0.109375 2.46875 0.109375 C 2.050781 0.109375 1.675781 0.0195312 1.34375 -0.15625 C 1.019531 -0.34375 0.765625 -0.617188 0.578125 -0.984375 C 0.398438 -1.347656 0.3125 -1.789062 0.3125 -2.3125 Z M 2.46875 -4.078125 C 2.207031 -4.078125 1.972656 -4.007812 1.765625 -3.875 C 1.566406 -3.738281 1.40625 -3.535156 1.28125 -3.265625 C 1.164062 -3.003906 1.109375 -2.6875 1.109375 -2.3125 C 1.109375 -1.925781 1.164062 -1.597656 1.28125 -1.328125 C 1.40625 -1.066406 1.566406 -0.867188 1.765625 -0.734375 C 1.972656 -0.597656 2.207031 -0.53125 2.46875 -0.53125 C 2.75 -0.53125 2.988281 -0.597656 3.1875 -0.734375 C 3.394531 -0.878906 3.554688 -1.082031 3.671875 -1.34375 C 3.785156 -1.613281 3.84375 -1.9375 3.84375 -2.3125 C 3.84375 -2.6875 3.78125 -3.003906 3.65625 -3.265625 C 3.539062 -3.535156 3.378906 -3.738281 3.171875 -3.875 C 2.972656 -4.007812 2.738281 -4.078125 2.46875 -4.078125 Z M 2.46875 -4.078125 "/></g></g></g><g fill="#000000" fill-opacity="1"><g transform="translate(7.050781, 26.941407)"><g><path d="M 2.53125 -4.078125 C 2.082031 -4.078125 1.734375 -3.921875 1.484375 -3.609375 C 1.234375 -3.304688 1.109375 -2.875 1.109375 -2.3125 C 1.109375 -1.96875 1.160156 -1.660156 1.265625 -1.390625 C 1.378906 -1.117188 1.539062 -0.90625 1.75 -0.75 C 1.957031 -0.601562 2.203125 -0.53125 2.484375 -0.53125 C 2.816406 -0.53125 3.09375 -0.632812 3.3125 -0.84375 C 3.53125 -1.050781 3.664062 -1.332031 3.71875 -1.6875 L 4.484375 -1.578125 C 4.429688 -1.234375 4.3125 -0.929688 4.125 -0.671875 C 3.9375 -0.421875 3.695312 -0.226562 3.40625 -0.09375 C 3.125 0.0390625 2.8125 0.109375 2.46875 0.109375 C 2.039062 0.109375 1.660156 0.0078125 1.328125 -0.1875 C 1.003906 -0.382812 0.753906 -0.660156 0.578125 -1.015625 C 0.398438 -1.378906 0.3125 -1.804688 0.3125 -2.296875 C 0.3125 -2.816406 0.398438 -3.253906 0.578125 -3.609375 C 0.753906 -3.972656 1.003906 -4.25 1.328125 -4.4375 C 1.660156 -4.625 2.050781 -4.71875 2.5 -4.71875 C 2.820312 -4.71875 3.117188 -4.660156 3.390625 -4.546875 C 3.660156 -4.429688 3.882812 -4.265625 4.0625 -4.046875 C 4.238281 -3.828125 4.351562 -3.566406 4.40625 -3.265625 L 3.65625 -3.15625 C 3.582031 -3.445312 3.445312 -3.671875 3.25 -3.828125 C 3.050781 -3.992188 2.8125 -4.078125 2.53125 -4.078125 Z M 2.53125 -4.078125 "/></g></g><g transform="translate(11.716995, 26.941407)"><g><path d="M 1.390625 -4.046875 C 1.523438 -4.253906 1.71875 -4.414062 1.96875 -4.53125 C 2.21875 -4.65625 2.476562 -4.71875 2.75 -4.71875 C 3.28125 -4.71875 3.679688 -4.578125 3.953125 -4.296875 C 4.222656 -4.023438 4.359375 -3.632812 4.359375 -3.125 L 4.359375 0 L 3.578125 0 L 3.578125 -3.015625 C 3.578125 -3.347656 3.492188 -3.601562 3.328125 -3.78125 C 3.160156 -3.957031 2.925781 -4.046875 2.625 -4.046875 C 2.25 -4.046875 1.945312 -3.929688 1.71875 -3.703125 C 1.5 -3.472656 1.390625 -3.09375 1.390625 -2.5625 L 1.390625 0 L 0.609375 0 L 0.609375 -6.375 L 1.390625 -6.375 Z M 1.390625 -4.046875 "/></g></g><g transform="translate(16.670226, 26.941407)"><g><path d="M 0.3125 -2.3125 C 0.3125 -2.8125 0.398438 -3.238281 0.578125 -3.59375 C 0.765625 -3.957031 1.019531 -4.234375 1.34375 -4.421875 C 1.664062 -4.617188 2.039062 -4.71875 2.46875 -4.71875 C 2.90625 -4.71875 3.285156 -4.625 3.609375 -4.4375 C 3.929688 -4.25 4.179688 -3.972656 4.359375 -3.609375 C 4.546875 -3.253906 4.640625 -2.820312 4.640625 -2.3125 C 4.640625 -1.800781 4.546875 -1.363281 4.359375 -1 C 4.179688 -0.644531 3.925781 -0.367188 3.59375 -0.171875 C 3.269531 0.015625 2.894531 0.109375 2.46875 0.109375 C 2.050781 0.109375 1.675781 0.0195312 1.34375 -0.15625 C 1.019531 -0.34375 0.765625 -0.617188 0.578125 -0.984375 C 0.398438 -1.347656 0.3125 -1.789062 0.3125 -2.3125 Z M 2.46875 -4.078125 C 2.207031 -4.078125 1.972656 -4.007812 1.765625 -3.875 C 1.566406 -3.738281 1.40625 -3.535156 1.28125 -3.265625 C 1.164062 -3.003906 1.109375 -2.6875 1.109375 -2.3125 C 1.109375 -1.925781 1.164062 -1.597656 1.28125 -1.328125 C 1.40625 -1.066406 1.566406 -0.867188 1.765625 -0.734375 C 1.972656 -0.597656 2.207031 -0.53125 2.46875 -0.53125 C 2.75 -0.53125 2.988281 -0.597656 3.1875 -0.734375 C 3.394531 -0.878906 3.554688 -1.082031 3.671875 -1.34375 C 3.785156 -1.613281 3.84375 -1.9375 3.84375 -2.3125 C 3.84375 -2.6875 3.78125 -3.003906 3.65625 -3.265625 C 3.539062 -3.535156 3.378906 -3.738281 3.171875 -3.875 C 2.972656 -4.007812 2.738281 -4.078125 2.46875 -4.078125 Z M 2.46875 -4.078125 "/></g></g><g transform="translate(21.623458, 26.941407)"><g><path d="M 0.3125 -2.3125 C 0.3125 -2.8125 0.398438 -3.238281 0.578125 -3.59375 C 0.765625 -3.957031 1.019531 -4.234375 1.34375 -4.421875 C 1.664062 -4.617188 2.039062 -4.71875 2.46875 -4.71875 C 2.90625 -4.71875 3.285156 -4.625 3.609375 -4.4375 C 3.929688 -4.25 4.179688 -3.972656 4.359375 -3.609375 C 4.546875 -3.253906 4.640625 -2.820312 4.640625 -2.3125 C 4.640625 -1.800781 4.546875 -1.363281 4.359375 -1 C 4.179688 -0.644531 3.925781 -0.367188 3.59375 -0.171875 C 3.269531 0.015625 2.894531 0.109375 2.46875 0.109375 C 2.050781 0.109375 1.675781 0.0195312 1.34375 -0.15625 C 1.019531 -0.34375 0.765625 -0.617188 0.578125 -0.984375 C 0.398438 -1.347656 0.3125 -1.789062 0.3125 -2.3125 Z M 2.46875 -4.078125 C 2.207031 -4.078125 1.972656 -4.007812 1.765625 -3.875 C 1.566406 -3.738281 1.40625 -3.535156 1.28125 -3.265625 C 1.164062 -3.003906 1.109375 -2.6875 1.109375 -2.3125 C 1.109375 -1.925781 1.164062 -1.597656 1.28125 -1.328125 C 1.40625 -1.066406 1.566406 -0.867188 1.765625 -0.734375 C 1.972656 -0.597656 2.207031 -0.53125 2.46875 -0.53125 C 2.75 -0.53125 2.988281 -0.597656 3.1875 -0.734375 C 3.394531 -0.878906 3.554688 -1.082031 3.671875 -1.34375 C 3.785156 -1.613281 3.84375 -1.9375 3.84375 -2.3125 C 3.84375 -2.6875 3.78125 -3.003906 3.65625 -3.265625 C 3.539062 -3.535156 3.378906 -3.738281 3.171875 -3.875 C 2.972656 -4.007812 2.738281 -4.078125 2.46875 -4.078125 Z M 2.46875 -4.078125 "/></g></g><g transform="translate(26.576689, 26.941407)"><g><path d="M 2.015625 -4.078125 C 1.742188 -4.078125 1.53125 -4.019531 1.375 -3.90625 C 1.21875 -3.800781 1.140625 -3.660156 1.140625 -3.484375 C 1.140625 -3.347656 1.171875 -3.234375 1.234375 -3.140625 C 1.304688 -3.054688 1.414062 -2.984375 1.5625 -2.921875 C 1.707031 -2.867188 1.910156 -2.820312 2.171875 -2.78125 C 2.578125 -2.71875 2.90625 -2.628906 3.15625 -2.515625 C 3.414062 -2.410156 3.609375 -2.265625 3.734375 -2.078125 C 3.867188 -1.890625 3.9375 -1.648438 3.9375 -1.359375 C 3.9375 -1.078125 3.863281 -0.820312 3.71875 -0.59375 C 3.570312 -0.375 3.363281 -0.203125 3.09375 -0.078125 C 2.820312 0.046875 2.515625 0.109375 2.171875 0.109375 C 1.066406 0.109375 0.429688 -0.382812 0.265625 -1.375 L 1.046875 -1.5 C 1.097656 -1.175781 1.210938 -0.929688 1.390625 -0.765625 C 1.578125 -0.609375 1.832031 -0.53125 2.15625 -0.53125 C 2.46875 -0.53125 2.707031 -0.597656 2.875 -0.734375 C 3.050781 -0.867188 3.140625 -1.046875 3.140625 -1.265625 C 3.140625 -1.472656 3.039062 -1.632812 2.84375 -1.75 C 2.65625 -1.875 2.390625 -1.960938 2.046875 -2.015625 C 1.492188 -2.097656 1.078125 -2.242188 0.796875 -2.453125 C 0.515625 -2.671875 0.375 -2.984375 0.375 -3.390625 C 0.375 -3.640625 0.441406 -3.863281 0.578125 -4.0625 C 0.710938 -4.269531 0.90625 -4.429688 1.15625 -4.546875 C 1.40625 -4.660156 1.691406 -4.71875 2.015625 -4.71875 C 2.523438 -4.71875 2.925781 -4.609375 3.21875 -4.390625 C 3.519531 -4.179688 3.707031 -3.863281 3.78125 -3.4375 L 3.015625 -3.328125 C 2.972656 -3.554688 2.863281 -3.738281 2.6875 -3.875 C 2.519531 -4.007812 2.296875 -4.078125 2.015625 -4.078125 Z M 2.015625 -4.078125 "/></g></g><g transform="translate(30.816725, 26.941407)"><g><path d="M 2.515625 -0.53125 C 2.816406 -0.53125 3.070312 -0.617188 3.28125 -0.796875 C 3.5 -0.972656 3.648438 -1.203125 3.734375 -1.484375 L 4.5 -1.375 C 4.375 -0.90625 4.128906 -0.539062 3.765625 -0.28125 C 3.410156 -0.0195312 2.984375 0.109375 2.484375 0.109375 C 2.046875 0.109375 1.660156 0.015625 1.328125 -0.171875 C 1.003906 -0.367188 0.753906 -0.644531 0.578125 -1 C 0.398438 -1.363281 0.3125 -1.785156 0.3125 -2.265625 C 0.3125 -2.765625 0.394531 -3.195312 0.5625 -3.5625 C 0.738281 -3.9375 0.988281 -4.222656 1.3125 -4.421875 C 1.644531 -4.617188 2.03125 -4.71875 2.46875 -4.71875 C 2.894531 -4.71875 3.265625 -4.625 3.578125 -4.4375 C 3.898438 -4.25 4.144531 -3.96875 4.3125 -3.59375 C 4.488281 -3.226562 4.578125 -2.785156 4.578125 -2.265625 L 4.578125 -2.109375 L 1.125 -2.109375 C 1.132812 -1.773438 1.195312 -1.488281 1.3125 -1.25 C 1.4375 -1.019531 1.601562 -0.84375 1.8125 -0.71875 C 2.019531 -0.59375 2.253906 -0.53125 2.515625 -0.53125 Z M 2.46875 -4.078125 C 2.238281 -4.078125 2.03125 -4.019531 1.84375 -3.90625 C 1.65625 -3.800781 1.5 -3.648438 1.375 -3.453125 C 1.257812 -3.253906 1.179688 -3.019531 1.140625 -2.75 L 3.75 -2.75 C 3.695312 -3.175781 3.5625 -3.503906 3.34375 -3.734375 C 3.125 -3.960938 2.832031 -4.078125 2.46875 -4.078125 Z M 2.46875 -4.078125 "/></g></g><g transform="translate(35.696028, 26.941407)"><g/></g><g transform="translate(38.144377, 26.941407)"><g><path d="M 1.5 -4.609375 L 2.375 -4.609375 L 2.375 -4.015625 L 1.5 -4.015625 L 1.5 -1.21875 C 1.5 -1.039062 1.515625 -0.910156 1.546875 -0.828125 C 1.578125 -0.742188 1.625 -0.6875 1.6875 -0.65625 C 1.75 -0.632812 1.832031 -0.625 1.9375 -0.625 C 2.039062 -0.625 2.1875 -0.640625 2.375 -0.671875 L 2.484375 -0.03125 C 2.253906 0.0195312 2.03125 0.046875 1.8125 0.046875 C 1.53125 0.046875 1.3125 0.00390625 1.15625 -0.078125 C 1.007812 -0.160156 0.898438 -0.28125 0.828125 -0.4375 C 0.753906 -0.59375 0.71875 -0.875 0.71875 -1.28125 L 0.71875 -4.015625 L 0.0625 -4.015625 L 0.0625 -4.609375 L 0.71875 -4.609375 L 0.71875 -5.671875 L 1.5 -6.234375 Z M 1.5 -4.609375 "/></g></g><g transform="translate(40.736235, 26.941407)"><g><path d="M 1.390625 -4.046875 C 1.523438 -4.253906 1.71875 -4.414062 1.96875 -4.53125 C 2.21875 -4.65625 2.476562 -4.71875 2.75 -4.71875 C 3.28125 -4.71875 3.679688 -4.578125 3.953125 -4.296875 C 4.222656 -4.023438 4.359375 -3.632812 4.359375 -3.125 L 4.359375 0 L 3.578125 0 L 3.578125 -3.015625 C 3.578125 -3.347656 3.492188 -3.601562 3.328125 -3.78125 C 3.160156 -3.957031 2.925781 -4.046875 2.625 -4.046875 C 2.25 -4.046875 1.945312 -3.929688 1.71875 -3.703125 C 1.5 -3.472656 1.390625 -3.09375 1.390625 -2.5625 L 1.390625 0 L 0.609375 0 L 0.609375 -6.375 L 1.390625 -6.375 Z M 1.390625 -4.046875 "/></g></g><g transform="translate(45.689466, 26.941407)"><g><path d="M 2.515625 -0.53125 C 2.816406 -0.53125 3.070312 -0.617188 3.28125 -0.796875 C 3.5 -0.972656 3.648438 -1.203125 3.734375 -1.484375 L 4.5 -1.375 C 4.375 -0.90625 4.128906 -0.539062 3.765625 -0.28125 C 3.410156 -0.0195312 2.984375 0.109375 2.484375 0.109375 C 2.046875 0.109375 1.660156 0.015625 1.328125 -0.171875 C 1.003906 -0.367188 0.753906 -0.644531 0.578125 -1 C 0.398438 -1.363281 0.3125 -1.785156 0.3125 -2.265625 C 0.3125 -2.765625 0.394531 -3.195312 0.5625 -3.5625 C 0.738281 -3.9375 0.988281 -4.222656 1.3125 -4.421875 C 1.644531 -4.617188 2.03125 -4.71875 2.46875 -4.71875 C 2.894531 -4.71875 3.265625 -4.625 3.578125 -4.4375 C 3.898438 -4.25 4.144531 -3.96875 4.3125 -3.59375 C 4.488281 -3.226562 4.578125 -2.785156 4.578125 -2.265625 L 4.578125 -2.109375 L 1.125 -2.109375 C 1.132812 -1.773438 1.195312 -1.488281 1.3125 -1.25 C 1.4375 -1.019531 1.601562 -0.84375 1.8125 -0.71875 C 2.019531 -0.59375 2.253906 -0.53125 2.515625 -0.53125 Z M 2.46875 -4.078125 C 2.238281 -4.078125 2.03125 -4.019531 1.84375 -3.90625 C 1.65625 -3.800781 1.5 -3.648438 1.375 -3.453125 C 1.257812 -3.253906 1.179688 -3.019531 1.140625 -2.75 L 3.75 -2.75 C 3.695312 -3.175781 3.5625 -3.503906 3.34375 -3.734375 C 3.125 -3.960938 2.832031 -4.078125 2.46875 -4.078125 Z M 2.46875 -4.078125 "/></g></g></g><g fill="#000000" fill-opacity="1"><g transform="translate(7.050781, 38.816407)"><g><path d="M 2.40625 -3.921875 C 2.070312 -3.921875 1.816406 -3.789062 1.640625 -3.53125 C 1.472656 -3.28125 1.390625 -2.925781 1.390625 -2.46875 L 1.390625 0 L 0.609375 0 L 0.609375 -4.609375 L 1.328125 -4.609375 L 1.328125 -3.921875 C 1.503906 -4.210938 1.679688 -4.414062 1.859375 -4.53125 C 2.035156 -4.65625 2.25 -4.71875 2.5 -4.71875 C 2.632812 -4.71875 2.757812 -4.703125 2.875 -4.671875 C 3 -4.640625 3.125 -4.582031 3.25 -4.5 L 2.984375 -3.78125 C 2.816406 -3.875 2.625 -3.921875 2.40625 -3.921875 Z M 2.40625 -3.921875 "/></g></g><g transform="translate(10.264511, 38.816407)"><g><path d="M 1.390625 -5.484375 L 0.609375 -5.484375 L 0.609375 -6.375 L 1.390625 -6.375 Z M 1.390625 0 L 0.609375 0 L 0.609375 -4.609375 L 1.390625 -4.609375 Z M 1.390625 0 "/></g></g><g transform="translate(12.25624, 38.816407)"><g><path d="M 3.703125 -4.609375 L 4.4375 -4.609375 L 4.4375 -0.390625 C 4.4375 0.359375 4.269531 0.921875 3.9375 1.296875 C 3.601562 1.679688 3.078125 1.875 2.359375 1.875 C 1.796875 1.875 1.359375 1.742188 1.046875 1.484375 C 0.734375 1.222656 0.5625 0.851562 0.53125 0.375 L 1.28125 0.5 C 1.320312 0.75 1.425781 0.929688 1.59375 1.046875 C 1.769531 1.171875 2.019531 1.234375 2.34375 1.234375 C 2.789062 1.234375 3.117188 1.117188 3.328125 0.890625 C 3.546875 0.660156 3.65625 0.195312 3.65625 -0.5 L 3.65625 -0.609375 C 3.320312 -0.203125 2.878906 0 2.328125 0 C 1.929688 0 1.578125 -0.0976562 1.265625 -0.296875 C 0.960938 -0.492188 0.726562 -0.769531 0.5625 -1.125 C 0.394531 -1.476562 0.3125 -1.882812 0.3125 -2.34375 C 0.3125 -2.8125 0.390625 -3.222656 0.546875 -3.578125 C 0.703125 -3.941406 0.925781 -4.222656 1.21875 -4.421875 C 1.507812 -4.617188 1.863281 -4.71875 2.28125 -4.71875 C 2.601562 -4.71875 2.875 -4.660156 3.09375 -4.546875 C 3.320312 -4.441406 3.519531 -4.28125 3.6875 -4.0625 L 3.703125 -4.0625 Z M 2.34375 -4.078125 C 2.101562 -4.078125 1.890625 -4.007812 1.703125 -3.875 C 1.515625 -3.75 1.367188 -3.554688 1.265625 -3.296875 C 1.160156 -3.046875 1.109375 -2.742188 1.109375 -2.390625 C 1.109375 -2.023438 1.160156 -1.710938 1.265625 -1.453125 C 1.367188 -1.191406 1.515625 -0.988281 1.703125 -0.84375 C 1.898438 -0.707031 2.132812 -0.640625 2.40625 -0.640625 C 2.675781 -0.640625 2.910156 -0.707031 3.109375 -0.84375 C 3.304688 -0.988281 3.453125 -1.1875 3.546875 -1.4375 C 3.648438 -1.695312 3.703125 -2.007812 3.703125 -2.375 C 3.703125 -2.71875 3.644531 -3.019531 3.53125 -3.28125 C 3.425781 -3.539062 3.269531 -3.738281 3.0625 -3.875 C 2.863281 -4.007812 2.625 -4.078125 2.34375 -4.078125 Z M 2.34375 -4.078125 "/></g></g><g transform="translate(17.296447, 38.816407)"><g><path d="M 1.390625 -4.046875 C 1.523438 -4.253906 1.71875 -4.414062 1.96875 -4.53125 C 2.21875 -4.65625 2.476562 -4.71875 2.75 -4.71875 C 3.28125 -4.71875 3.679688 -4.578125 3.953125 -4.296875 C 4.222656 -4.023438 4.359375 -3.632812 4.359375 -3.125 L 4.359375 0 L 3.578125 0 L 3.578125 -3.015625 C 3.578125 -3.347656 3.492188 -3.601562 3.328125 -3.78125 C 3.160156 -3.957031 2.925781 -4.046875 2.625 -4.046875 C 2.25 -4.046875 1.945312 -3.929688 1.71875 -3.703125 C 1.5 -3.472656 1.390625 -3.09375 1.390625 -2.5625 L 1.390625 0 L 0.609375 0 L 0.609375 -6.375 L 1.390625 -6.375 Z M 1.390625 -4.046875 "/></g></g><g transform="translate(22.249679, 38.816407)"><g><path d="M 1.5 -4.609375 L 2.375 -4.609375 L 2.375 -4.015625 L 1.5 -4.015625 L 1.5 -1.21875 C 1.5 -1.039062 1.515625 -0.910156 1.546875 -0.828125 C 1.578125 -0.742188 1.625 -0.6875 1.6875 -0.65625 C 1.75 -0.632812 1.832031 -0.625 1.9375 -0.625 C 2.039062 -0.625 2.1875 -0.640625 2.375 -0.671875 L 2.484375 -0.03125 C 2.253906 0.0195312 2.03125 0.046875 1.8125 0.046875 C 1.53125 0.046875 1.3125 0.00390625 1.15625 -0.078125 C 1.007812 -0.160156 0.898438 -0.28125 0.828125 -0.4375 C 0.753906 -0.59375 0.71875 -0.875 0.71875 -1.28125 L 0.71875 -4.015625 L 0.0625 -4.015625 L 0.0625 -4.609375 L 0.71875 -4.609375 L 0.71875 -5.671875 L 1.5 -6.234375 Z M 1.5 -4.609375 "/></g></g><g transform="translate(24.841536, 38.816407)"><g/></g><g transform="translate(27.289885, 38.816407)"><g><path d="M 2.015625 -4.078125 C 1.742188 -4.078125 1.53125 -4.019531 1.375 -3.90625 C 1.21875 -3.800781 1.140625 -3.660156 1.140625 -3.484375 C 1.140625 -3.347656 1.171875 -3.234375 1.234375 -3.140625 C 1.304688 -3.054688 1.414062 -2.984375 1.5625 -2.921875 C 1.707031 -2.867188 1.910156 -2.820312 2.171875 -2.78125 C 2.578125 -2.71875 2.90625 -2.628906 3.15625 -2.515625 C 3.414062 -2.410156 3.609375 -2.265625 3.734375 -2.078125 C 3.867188 -1.890625 3.9375 -1.648438 3.9375 -1.359375 C 3.9375 -1.078125 3.863281 -0.820312 3.71875 -0.59375 C 3.570312 -0.375 3.363281 -0.203125 3.09375 -0.078125 C 2.820312 0.046875 2.515625 0.109375 2.171875 0.109375 C 1.066406 0.109375 0.429688 -0.382812 0.265625 -1.375 L 1.046875 -1.5 C 1.097656 -1.175781 1.210938 -0.929688 1.390625 -0.765625 C 1.578125 -0.609375 1.832031 -0.53125 2.15625 -0.53125 C 2.46875 -0.53125 2.707031 -0.597656 2.875 -0.734375 C 3.050781 -0.867188 3.140625 -1.046875 3.140625 -1.265625 C 3.140625 -1.472656 3.039062 -1.632812 2.84375 -1.75 C 2.65625 -1.875 2.390625 -1.960938 2.046875 -2.015625 C 1.492188 -2.097656 1.078125 -2.242188 0.796875 -2.453125 C 0.515625 -2.671875 0.375 -2.984375 0.375 -3.390625 C 0.375 -3.640625 0.441406 -3.863281 0.578125 -4.0625 C 0.710938 -4.269531 0.90625 -4.429688 1.15625 -4.546875 C 1.40625 -4.660156 1.691406 -4.71875 2.015625 -4.71875 C 2.523438 -4.71875 2.925781 -4.609375 3.21875 -4.390625 C 3.519531 -4.179688 3.707031 -3.863281 3.78125 -3.4375 L 3.015625 -3.328125 C 2.972656 -3.554688 2.863281 -3.738281 2.6875 -3.875 C 2.519531 -4.007812 2.296875 -4.078125 2.015625 -4.078125 Z M 2.015625 -4.078125 "/></g></g><g transform="translate(31.529921, 38.816407)"><g><path d="M 1.390625 -5.484375 L 0.609375 -5.484375 L 0.609375 -6.375 L 1.390625 -6.375 Z M 1.390625 0 L 0.609375 0 L 0.609375 -4.609375 L 1.390625 -4.609375 Z M 1.390625 0 "/></g></g><g transform="translate(33.521651, 38.816407)"><g><path d="M 3.828125 -4.109375 L 1.171875 -0.671875 L 3.921875 -0.671875 L 3.921875 0 L 0.171875 0 L 0.171875 -0.625 L 2.75 -3.96875 L 0.328125 -3.96875 L 0.328125 -4.609375 L 3.828125 -4.609375 Z M 3.828125 -4.109375 "/></g></g><g transform="translate(37.626875, 38.816407)"><g><path d="M 2.515625 -0.53125 C 2.816406 -0.53125 3.070312 -0.617188 3.28125 -0.796875 C 3.5 -0.972656 3.648438 -1.203125 3.734375 -1.484375 L 4.5 -1.375 C 4.375 -0.90625 4.128906 -0.539062 3.765625 -0.28125 C 3.410156 -0.0195312 2.984375 0.109375 2.484375 0.109375 C 2.046875 0.109375 1.660156 0.015625 1.328125 -0.171875 C 1.003906 -0.367188 0.753906 -0.644531 0.578125 -1 C 0.398438 -1.363281 0.3125 -1.785156 0.3125 -2.265625 C 0.3125 -2.765625 0.394531 -3.195312 0.5625 -3.5625 C 0.738281 -3.9375 0.988281 -4.222656 1.3125 -4.421875 C 1.644531 -4.617188 2.03125 -4.71875 2.46875 -4.71875 C 2.894531 -4.71875 3.265625 -4.625 3.578125 -4.4375 C 3.898438 -4.25 4.144531 -3.96875 4.3125 -3.59375 C 4.488281 -3.226562 4.578125 -2.785156 4.578125 -2.265625 L 4.578125 -2.109375 L 1.125 -2.109375 C 1.132812 -1.773438 1.195312 -1.488281 1.3125 -1.25 C 1.4375 -1.019531 1.601562 -0.84375 1.8125 -0.71875 C 2.019531 -0.59375 2.253906 -0.53125 2.515625 -0.53125 Z M 2.46875 -4.078125 C 2.238281 -4.078125 2.03125 -4.019531 1.84375 -3.90625 C 1.65625 -3.800781 1.5 -3.648438 1.375 -3.453125 C 1.257812 -3.253906 1.179688 -3.019531 1.140625 -2.75 L 3.75 -2.75 C 3.695312 -3.175781 3.5625 -3.503906 3.34375 -3.734375 C 3.125 -3.960938 2.832031 -4.078125 2.46875 -4.078125 Z M 2.46875 -4.078125 "/></g></g></g><path fill="#ffffff" d="M 15.960938 54.910156 L 27.519531 54.910156 C 27.765625 54.910156 27.972656 54.996094 28.148438 55.167969 C 28.320312 55.34375 28.40625 55.550781 28.40625 55.796875 L 28.40625 61.132812 C 28.40625 61.378906 28.320312 61.585938 28.148438 61.761719 C 27.972656 61.933594 27.765625 62.019531 27.519531 62.019531 L 16.851562 62.019531 C 16.605469 62.019531 16.394531 61.933594 16.222656 61.761719 C 16.046875 61.585938 15.960938 61.378906 15.960938 61.132812 Z M 15.960938 54.910156 " fill-opacity="1" fill-rule="nonzero"/><path fill="#ffffff" d="M 15.960938 54.910156 L 15.960938 61.132812 C 15.960938 61.378906 16.046875 61.585938 16.222656 61.761719 C 16.394531 61.933594 16.605469 62.019531 16.851562 62.019531 L 18.367188 62.019531 L 25.480469 54.910156 Z M 15.960938 54.910156 " fill-opacity="1" fill-rule="nonzero"/><path fill="#ffffff" d="M 27.519531 44.238281 L 27.519531 50.464844 L 10.625 50.464844 L 10.625 43.351562 L 26.628906 43.351562 C 26.875 43.351562 27.085938 43.4375 27.257812 43.613281 C 27.433594 43.785156 27.519531 43.996094 27.519531 44.238281 Z M 27.519531 44.238281 " fill-opacity="1" fill-rule="nonzero"/><path fill="#ffffff" d="M 10.625 43.351562 L 10.625 50.464844 L 14.308594 50.464844 L 21.421875 43.351562 Z M 10.625 43.351562 " fill-opacity="1" fill-rule="nonzero"/><g clip-path="url(#e37f95a3a1)"><path fill="#ffffff" d="M 10.625 43.351562 L 10.625 50.464844 L 8.847656 50.464844 C 8.601562 50.464844 8.394531 50.375 8.21875 50.203125 C 8.046875 50.03125 7.960938 49.820312 7.960938 49.574219 L 7.960938 44.238281 C 7.960938 43.996094 8.046875 43.785156 8.21875 43.613281 C 8.394531 43.4375 8.601562 43.351562 8.847656 43.351562 Z M 10.625 43.351562 " fill-opacity="1" fill-rule="nonzero"/></g><g clip-path="url(#c1f9ff3fa8)"><path stroke-linecap="round" transform="matrix(0.463867, 0, 0, 0.463867, 7.514648, 42.026369)" fill="none" stroke-linejoin="round" d="M 6.705264 2.856839 L 6.705264 18.191577 L 2.873685 18.191577 C 2.343159 18.191577 1.896843 17.997892 1.517895 17.627366 C 1.147369 17.25684 0.962106 16.802103 0.962106 16.271577 L 0.962106 4.768418 C 0.962106 4.246313 1.147369 3.791576 1.517895 3.42105 C 1.896843 3.042102 2.343159 2.856839 2.873685 2.856839 Z M 6.705264 2.856839 " stroke="#222126" stroke-width="2" stroke-opacity="1" stroke-miterlimit="4"/></g><path stroke-linecap="round" transform="matrix(0.463867, 0, 0, 0.463867, 7.514648, 42.026369)" fill="none" stroke-linejoin="round" d="M 43.126318 4.768418 L 43.126318 18.191577 L 6.705264 18.191577 L 6.705264 2.856839 L 41.206318 2.856839 C 41.736845 2.856839 42.191581 3.042102 42.562108 3.42105 C 42.941055 3.791576 43.126318 4.246313 43.126318 4.768418 Z M 43.126318 4.768418 " stroke="#222126" stroke-width="2" stroke-opacity="1" stroke-miterlimit="4"/><path stroke-linecap="round" transform="matrix(0.463867, 0, 0, 0.463867, 7.514648, 42.026369)" fill="none" stroke-linejoin="round" d="M 18.208422 27.774735 L 43.126318 27.774735 C 43.656845 27.774735 44.10316 27.959998 44.482108 28.330524 C 44.852634 28.709472 45.037897 29.155788 45.037897 29.686314 L 45.037897 41.189472 C 45.037897 41.719999 44.852634 42.166314 44.482108 42.545262 C 44.10316 42.915788 43.656845 43.101051 43.126318 43.101051 L 20.128423 43.101051 C 19.597896 43.101051 19.143159 42.915788 18.772633 42.545262 C 18.393686 42.166314 18.208422 41.719999 18.208422 41.189472 Z M 18.208422 27.774735 " stroke="#222126" stroke-width="2" stroke-opacity="1" stroke-miterlimit="4"/><path stroke-linecap="round" transform="matrix(0.463867, 0, 0, 0.463867, 7.514648, 42.026369)" fill="none" stroke-linejoin="round" d="M 14.376843 2.856839 L 14.376843 8.599997 " stroke="#222126" stroke-width="2" stroke-opacity="1" stroke-miterlimit="4"/><path stroke-linecap="round" transform="matrix(0.463867, 0, 0, 0.463867, 7.514648, 42.026369)" fill="none" stroke-linejoin="round" d="M 22.040002 2.856839 L 22.040002 8.599997 " stroke="#222126" stroke-width="2" stroke-opacity="1" stroke-miterlimit="4"/><path stroke-linecap="round" transform="matrix(0.463867, 0, 0, 0.463867, 7.514648, 42.026369)" fill="none" stroke-linejoin="round" d="M 29.70316 2.856839 L 29.70316 8.599997 " stroke="#222126" stroke-width="2" stroke-opacity="1" stroke-miterlimit="4"/><path stroke-linecap="round" transform="matrix(0.463867, 0, 0, 0.463867, 7.514648, 42.026369)" fill="none" stroke-linejoin="round" d="M 24.911581 27.774735 L 24.911581 33.517893 " stroke="#222126" stroke-width="2" stroke-opacity="1" stroke-miterlimit="4"/><path stroke-linecap="round" transform="matrix(0.463867, 0, 0, 0.463867, 7.514648, 42.026369)" fill="none" stroke-linejoin="round" d="M 32.58316 27.774735 L 32.58316 33.517893 " stroke="#222126" stroke-width="2" stroke-opacity="1" stroke-miterlimit="4"/><path stroke-linecap="round" transform="matrix(0.463867, 0, 0, 0.463867, 7.514648, 42.026369)" fill="none" stroke-linejoin="round" d="M 40.246318 27.774735 L 40.246318 33.517893 " stroke="#222126" stroke-width="2" stroke-opacity="1" stroke-miterlimit="4"/><path stroke-linecap="round" transform="matrix(0.463867, 0, 0, 0.463867, 7.514648, 42.026369)" fill="none" stroke-linejoin="round" d="M 37.374739 2.856839 L 37.374739 8.599997 " stroke="#222126" stroke-width="2" stroke-opacity="1" stroke-miterlimit="4"/><path stroke-linecap="round" transform="matrix(0.463867, 0, 0, 0.463867, 7.514648, 42.026369)" fill-opacity="1" fill="#ffffff" fill-rule="nonzero" stroke-linejoin="round" d="M 33.54316 27.774735 L 43.126318 18.183156 L 27.791581 18.183156 L 18.208422 27.774735 Z M 33.54316 27.774735 " stroke="#222126" stroke-width="2" stroke-opacity="1" stroke-miterlimit="4"/></svg>
