<svg xmlns="http://www.w3.org/2000/svg" xmlns:xlink="http://www.w3.org/1999/xlink" width="95" zoomAndPan="magnify" viewBox="0 0 71.25 71.25" height="95" preserveAspectRatio="xMidYMid meet" version="1.0"><defs><g/><clipPath id="55fda5d965"><path d="M 0 0 L 70.507812 0 L 70.507812 70.507812 L 0 70.507812 Z M 0 0 " clip-rule="nonzero"/></clipPath><clipPath id="df6c5949bb"><path d="M 13.359375 0 L 57.148438 0 C 60.691406 0 64.089844 1.40625 66.59375 3.914062 C 69.101562 6.417969 70.507812 9.816406 70.507812 13.359375 L 70.507812 57.148438 C 70.507812 60.691406 69.101562 64.089844 66.59375 66.59375 C 64.089844 69.101562 60.691406 70.507812 57.148438 70.507812 L 13.359375 70.507812 C 9.816406 70.507812 6.417969 69.101562 3.914062 66.59375 C 1.40625 64.089844 0 60.691406 0 57.148438 L 0 13.359375 C 0 9.816406 1.40625 6.417969 3.914062 3.914062 C 6.417969 1.40625 9.816406 0 13.359375 0 Z M 13.359375 0 " clip-rule="nonzero"/></clipPath><clipPath id="d8f86b0fc3"><path d="M 33 33 L 63.707031 33 L 63.707031 63.707031 L 33 63.707031 Z M 33 33 " clip-rule="nonzero"/></clipPath></defs><g clip-path="url(#55fda5d965)"><g clip-path="url(#df6c5949bb)"><path fill="#ffcb65" d="M 0 0 L 70.507812 0 L 70.507812 70.507812 L 0 70.507812 Z M 0 0 " fill-opacity="1" fill-rule="nonzero"/></g></g><g fill="#ffffff" fill-opacity="1"><g transform="translate(7.050781, 15.066408)"><g><path d="M 3.359375 -5.765625 C 2.921875 -5.765625 2.546875 -5.65625 2.234375 -5.4375 C 1.921875 -5.226562 1.679688 -4.929688 1.515625 -4.546875 C 1.359375 -4.160156 1.28125 -3.710938 1.28125 -3.203125 C 1.28125 -2.660156 1.363281 -2.195312 1.53125 -1.8125 C 1.707031 -1.425781 1.957031 -1.128906 2.28125 -0.921875 C 2.613281 -0.710938 3.015625 -0.609375 3.484375 -0.609375 C 3.785156 -0.609375 4.097656 -0.660156 4.421875 -0.765625 C 4.742188 -0.878906 5.003906 -1.019531 5.203125 -1.1875 L 5.203125 -2.484375 L 3.4375 -2.484375 L 3.4375 -3.25 L 6.03125 -3.25 L 6.03125 -0.828125 C 5.695312 -0.535156 5.304688 -0.304688 4.859375 -0.140625 C 4.410156 0.0234375 3.957031 0.109375 3.5 0.109375 C 2.851562 0.109375 2.296875 -0.0195312 1.828125 -0.28125 C 1.367188 -0.539062 1.015625 -0.921875 0.765625 -1.421875 C 0.523438 -1.921875 0.40625 -2.519531 0.40625 -3.21875 C 0.40625 -3.863281 0.53125 -4.429688 0.78125 -4.921875 C 1.03125 -5.421875 1.378906 -5.804688 1.828125 -6.078125 C 2.273438 -6.347656 2.789062 -6.484375 3.375 -6.484375 C 4.039062 -6.484375 4.585938 -6.320312 5.015625 -6 C 5.453125 -5.6875 5.757812 -5.226562 5.9375 -4.625 L 5.109375 -4.421875 C 4.984375 -4.859375 4.769531 -5.191406 4.46875 -5.421875 C 4.164062 -5.648438 3.796875 -5.765625 3.359375 -5.765625 Z M 3.359375 -5.765625 "/></g></g><g transform="translate(13.652191, 15.066408)"><g><path d="M 1.375 -1.59375 C 1.375 -1.257812 1.457031 -1.003906 1.625 -0.828125 C 1.789062 -0.648438 2.023438 -0.5625 2.328125 -0.5625 C 2.585938 -0.5625 2.8125 -0.617188 3 -0.734375 C 3.195312 -0.859375 3.34375 -1.019531 3.4375 -1.21875 C 3.519531 -1.414062 3.5625 -1.691406 3.5625 -2.046875 L 3.5625 -4.609375 L 4.34375 -4.609375 L 4.34375 0 L 3.609375 0 L 3.609375 -0.640625 C 3.441406 -0.398438 3.238281 -0.210938 3 -0.078125 C 2.757812 0.046875 2.492188 0.109375 2.203125 0.109375 C 1.671875 0.109375 1.269531 -0.0234375 1 -0.296875 C 0.726562 -0.578125 0.59375 -0.972656 0.59375 -1.484375 L 0.59375 -4.609375 L 1.375 -4.609375 Z M 1.375 -1.59375 "/></g></g><g transform="translate(18.605422, 15.066408)"><g><path d="M 4.3125 0 L 3.5 0 C 3.457031 -0.09375 3.425781 -0.171875 3.40625 -0.234375 C 3.382812 -0.296875 3.363281 -0.40625 3.34375 -0.5625 C 3.113281 -0.332031 2.875 -0.160156 2.625 -0.046875 C 2.375 0.0546875 2.09375 0.109375 1.78125 0.109375 C 1.488281 0.109375 1.226562 0.0546875 1 -0.046875 C 0.78125 -0.160156 0.609375 -0.316406 0.484375 -0.515625 C 0.367188 -0.722656 0.3125 -0.957031 0.3125 -1.21875 C 0.3125 -1.613281 0.441406 -1.925781 0.703125 -2.15625 C 0.960938 -2.394531 1.382812 -2.5625 1.96875 -2.65625 C 2.582031 -2.75 3.019531 -2.835938 3.28125 -2.921875 L 3.28125 -3.046875 C 3.28125 -3.304688 3.25 -3.507812 3.1875 -3.65625 C 3.125 -3.800781 3.015625 -3.90625 2.859375 -3.96875 C 2.710938 -4.039062 2.519531 -4.078125 2.28125 -4.078125 C 1.96875 -4.078125 1.71875 -4.003906 1.53125 -3.859375 C 1.351562 -3.722656 1.234375 -3.503906 1.171875 -3.203125 L 0.40625 -3.3125 C 0.5 -3.78125 0.707031 -4.128906 1.03125 -4.359375 C 1.351562 -4.597656 1.78125 -4.71875 2.3125 -4.71875 C 2.726562 -4.71875 3.0625 -4.664062 3.3125 -4.5625 C 3.570312 -4.457031 3.765625 -4.285156 3.890625 -4.046875 C 4.015625 -3.816406 4.078125 -3.507812 4.078125 -3.125 L 4.078125 -1.46875 C 4.078125 -1.175781 4.082031 -0.953125 4.09375 -0.796875 C 4.101562 -0.640625 4.125 -0.503906 4.15625 -0.390625 C 4.1875 -0.273438 4.238281 -0.144531 4.3125 0 Z M 2.015625 -2 C 1.703125 -1.945312 1.472656 -1.851562 1.328125 -1.71875 C 1.179688 -1.59375 1.109375 -1.425781 1.109375 -1.21875 C 1.109375 -1 1.179688 -0.828125 1.328125 -0.703125 C 1.472656 -0.578125 1.679688 -0.515625 1.953125 -0.515625 C 2.171875 -0.515625 2.40625 -0.582031 2.65625 -0.71875 C 2.820312 -0.820312 2.945312 -0.929688 3.03125 -1.046875 C 3.125 -1.171875 3.1875 -1.316406 3.21875 -1.484375 C 3.257812 -1.648438 3.28125 -1.867188 3.28125 -2.140625 L 3.28125 -2.3125 C 3.21875 -2.269531 3.0625 -2.21875 2.8125 -2.15625 C 2.570312 -2.101562 2.304688 -2.050781 2.015625 -2 Z M 2.015625 -2 "/></g></g><g transform="translate(23.262938, 15.066408)"><g><path d="M 2.40625 -3.921875 C 2.070312 -3.921875 1.816406 -3.789062 1.640625 -3.53125 C 1.472656 -3.28125 1.390625 -2.925781 1.390625 -2.46875 L 1.390625 0 L 0.609375 0 L 0.609375 -4.609375 L 1.328125 -4.609375 L 1.328125 -3.921875 C 1.503906 -4.210938 1.679688 -4.414062 1.859375 -4.53125 C 2.035156 -4.65625 2.25 -4.71875 2.5 -4.71875 C 2.632812 -4.71875 2.757812 -4.703125 2.875 -4.671875 C 3 -4.640625 3.125 -4.582031 3.25 -4.5 L 2.984375 -3.78125 C 2.816406 -3.875 2.625 -3.921875 2.40625 -3.921875 Z M 2.40625 -3.921875 "/></g></g><g transform="translate(26.476668, 15.066408)"><g><path d="M 4.3125 0 L 3.5 0 C 3.457031 -0.09375 3.425781 -0.171875 3.40625 -0.234375 C 3.382812 -0.296875 3.363281 -0.40625 3.34375 -0.5625 C 3.113281 -0.332031 2.875 -0.160156 2.625 -0.046875 C 2.375 0.0546875 2.09375 0.109375 1.78125 0.109375 C 1.488281 0.109375 1.226562 0.0546875 1 -0.046875 C 0.78125 -0.160156 0.609375 -0.316406 0.484375 -0.515625 C 0.367188 -0.722656 0.3125 -0.957031 0.3125 -1.21875 C 0.3125 -1.613281 0.441406 -1.925781 0.703125 -2.15625 C 0.960938 -2.394531 1.382812 -2.5625 1.96875 -2.65625 C 2.582031 -2.75 3.019531 -2.835938 3.28125 -2.921875 L 3.28125 -3.046875 C 3.28125 -3.304688 3.25 -3.507812 3.1875 -3.65625 C 3.125 -3.800781 3.015625 -3.90625 2.859375 -3.96875 C 2.710938 -4.039062 2.519531 -4.078125 2.28125 -4.078125 C 1.96875 -4.078125 1.71875 -4.003906 1.53125 -3.859375 C 1.351562 -3.722656 1.234375 -3.503906 1.171875 -3.203125 L 0.40625 -3.3125 C 0.5 -3.78125 0.707031 -4.128906 1.03125 -4.359375 C 1.351562 -4.597656 1.78125 -4.71875 2.3125 -4.71875 C 2.726562 -4.71875 3.0625 -4.664062 3.3125 -4.5625 C 3.570312 -4.457031 3.765625 -4.285156 3.890625 -4.046875 C 4.015625 -3.816406 4.078125 -3.507812 4.078125 -3.125 L 4.078125 -1.46875 C 4.078125 -1.175781 4.082031 -0.953125 4.09375 -0.796875 C 4.101562 -0.640625 4.125 -0.503906 4.15625 -0.390625 C 4.1875 -0.273438 4.238281 -0.144531 4.3125 0 Z M 2.015625 -2 C 1.703125 -1.945312 1.472656 -1.851562 1.328125 -1.71875 C 1.179688 -1.59375 1.109375 -1.425781 1.109375 -1.21875 C 1.109375 -1 1.179688 -0.828125 1.328125 -0.703125 C 1.472656 -0.578125 1.679688 -0.515625 1.953125 -0.515625 C 2.171875 -0.515625 2.40625 -0.582031 2.65625 -0.71875 C 2.820312 -0.820312 2.945312 -0.929688 3.03125 -1.046875 C 3.125 -1.171875 3.1875 -1.316406 3.21875 -1.484375 C 3.257812 -1.648438 3.28125 -1.867188 3.28125 -2.140625 L 3.28125 -2.3125 C 3.21875 -2.269531 3.0625 -2.21875 2.8125 -2.15625 C 2.570312 -2.101562 2.304688 -2.050781 2.015625 -2 Z M 2.015625 -2 "/></g></g><g transform="translate(31.134184, 15.066408)"><g><path d="M 3.578125 0 L 3.578125 -3.015625 C 3.578125 -3.347656 3.492188 -3.601562 3.328125 -3.78125 C 3.160156 -3.957031 2.925781 -4.046875 2.625 -4.046875 C 2.226562 -4.046875 1.921875 -3.925781 1.703125 -3.6875 C 1.492188 -3.457031 1.390625 -3.082031 1.390625 -2.5625 L 1.390625 0 L 0.609375 0 L 0.609375 -4.609375 L 1.328125 -4.609375 L 1.328125 -3.96875 C 1.484375 -4.195312 1.679688 -4.378906 1.921875 -4.515625 C 2.171875 -4.648438 2.445312 -4.71875 2.75 -4.71875 C 3.28125 -4.71875 3.679688 -4.578125 3.953125 -4.296875 C 4.222656 -4.023438 4.359375 -3.632812 4.359375 -3.125 L 4.359375 0 Z M 3.578125 0 "/></g></g><g transform="translate(36.087416, 15.066408)"><g><path d="M 1.5 -4.609375 L 2.375 -4.609375 L 2.375 -4.015625 L 1.5 -4.015625 L 1.5 -1.21875 C 1.5 -1.039062 1.515625 -0.910156 1.546875 -0.828125 C 1.578125 -0.742188 1.625 -0.6875 1.6875 -0.65625 C 1.75 -0.632812 1.832031 -0.625 1.9375 -0.625 C 2.039062 -0.625 2.1875 -0.640625 2.375 -0.671875 L 2.484375 -0.03125 C 2.253906 0.0195312 2.03125 0.046875 1.8125 0.046875 C 1.53125 0.046875 1.3125 0.00390625 1.15625 -0.078125 C 1.007812 -0.160156 0.898438 -0.28125 0.828125 -0.4375 C 0.753906 -0.59375 0.71875 -0.875 0.71875 -1.28125 L 0.71875 -4.015625 L 0.0625 -4.015625 L 0.0625 -4.609375 L 0.71875 -4.609375 L 0.71875 -5.671875 L 1.5 -6.234375 Z M 1.5 -4.609375 "/></g></g><g transform="translate(38.679274, 15.066408)"><g><path d="M 2.515625 -0.53125 C 2.816406 -0.53125 3.070312 -0.617188 3.28125 -0.796875 C 3.5 -0.972656 3.648438 -1.203125 3.734375 -1.484375 L 4.5 -1.375 C 4.375 -0.90625 4.128906 -0.539062 3.765625 -0.28125 C 3.410156 -0.0195312 2.984375 0.109375 2.484375 0.109375 C 2.046875 0.109375 1.660156 0.015625 1.328125 -0.171875 C 1.003906 -0.367188 0.753906 -0.644531 0.578125 -1 C 0.398438 -1.363281 0.3125 -1.785156 0.3125 -2.265625 C 0.3125 -2.765625 0.394531 -3.195312 0.5625 -3.5625 C 0.738281 -3.9375 0.988281 -4.222656 1.3125 -4.421875 C 1.644531 -4.617188 2.03125 -4.71875 2.46875 -4.71875 C 2.894531 -4.71875 3.265625 -4.625 3.578125 -4.4375 C 3.898438 -4.25 4.144531 -3.96875 4.3125 -3.59375 C 4.488281 -3.226562 4.578125 -2.785156 4.578125 -2.265625 L 4.578125 -2.109375 L 1.125 -2.109375 C 1.132812 -1.773438 1.195312 -1.488281 1.3125 -1.25 C 1.4375 -1.019531 1.601562 -0.84375 1.8125 -0.71875 C 2.019531 -0.59375 2.253906 -0.53125 2.515625 -0.53125 Z M 2.46875 -4.078125 C 2.238281 -4.078125 2.03125 -4.019531 1.84375 -3.90625 C 1.65625 -3.800781 1.5 -3.648438 1.375 -3.453125 C 1.257812 -3.253906 1.179688 -3.019531 1.140625 -2.75 L 3.75 -2.75 C 3.695312 -3.175781 3.5625 -3.503906 3.34375 -3.734375 C 3.125 -3.960938 2.832031 -4.078125 2.46875 -4.078125 Z M 2.46875 -4.078125 "/></g></g><g transform="translate(43.558577, 15.066408)"><g><path d="M 2.515625 -0.53125 C 2.816406 -0.53125 3.070312 -0.617188 3.28125 -0.796875 C 3.5 -0.972656 3.648438 -1.203125 3.734375 -1.484375 L 4.5 -1.375 C 4.375 -0.90625 4.128906 -0.539062 3.765625 -0.28125 C 3.410156 -0.0195312 2.984375 0.109375 2.484375 0.109375 C 2.046875 0.109375 1.660156 0.015625 1.328125 -0.171875 C 1.003906 -0.367188 0.753906 -0.644531 0.578125 -1 C 0.398438 -1.363281 0.3125 -1.785156 0.3125 -2.265625 C 0.3125 -2.765625 0.394531 -3.195312 0.5625 -3.5625 C 0.738281 -3.9375 0.988281 -4.222656 1.3125 -4.421875 C 1.644531 -4.617188 2.03125 -4.71875 2.46875 -4.71875 C 2.894531 -4.71875 3.265625 -4.625 3.578125 -4.4375 C 3.898438 -4.25 4.144531 -3.96875 4.3125 -3.59375 C 4.488281 -3.226562 4.578125 -2.785156 4.578125 -2.265625 L 4.578125 -2.109375 L 1.125 -2.109375 C 1.132812 -1.773438 1.195312 -1.488281 1.3125 -1.25 C 1.4375 -1.019531 1.601562 -0.84375 1.8125 -0.71875 C 2.019531 -0.59375 2.253906 -0.53125 2.515625 -0.53125 Z M 2.46875 -4.078125 C 2.238281 -4.078125 2.03125 -4.019531 1.84375 -3.90625 C 1.65625 -3.800781 1.5 -3.648438 1.375 -3.453125 C 1.257812 -3.253906 1.179688 -3.019531 1.140625 -2.75 L 3.75 -2.75 C 3.695312 -3.175781 3.5625 -3.503906 3.34375 -3.734375 C 3.125 -3.960938 2.832031 -4.078125 2.46875 -4.078125 Z M 2.46875 -4.078125 "/></g></g><g transform="translate(48.437879, 15.066408)"><g><path d="M 2.015625 -4.078125 C 1.742188 -4.078125 1.53125 -4.019531 1.375 -3.90625 C 1.21875 -3.800781 1.140625 -3.660156 1.140625 -3.484375 C 1.140625 -3.347656 1.171875 -3.234375 1.234375 -3.140625 C 1.304688 -3.054688 1.414062 -2.984375 1.5625 -2.921875 C 1.707031 -2.867188 1.910156 -2.820312 2.171875 -2.78125 C 2.578125 -2.71875 2.90625 -2.628906 3.15625 -2.515625 C 3.414062 -2.410156 3.609375 -2.265625 3.734375 -2.078125 C 3.867188 -1.890625 3.9375 -1.648438 3.9375 -1.359375 C 3.9375 -1.078125 3.863281 -0.820312 3.71875 -0.59375 C 3.570312 -0.375 3.363281 -0.203125 3.09375 -0.078125 C 2.820312 0.046875 2.515625 0.109375 2.171875 0.109375 C 1.066406 0.109375 0.429688 -0.382812 0.265625 -1.375 L 1.046875 -1.5 C 1.097656 -1.175781 1.210938 -0.929688 1.390625 -0.765625 C 1.578125 -0.609375 1.832031 -0.53125 2.15625 -0.53125 C 2.46875 -0.53125 2.707031 -0.597656 2.875 -0.734375 C 3.050781 -0.867188 3.140625 -1.046875 3.140625 -1.265625 C 3.140625 -1.472656 3.039062 -1.632812 2.84375 -1.75 C 2.65625 -1.875 2.390625 -1.960938 2.046875 -2.015625 C 1.492188 -2.097656 1.078125 -2.242188 0.796875 -2.453125 C 0.515625 -2.671875 0.375 -2.984375 0.375 -3.390625 C 0.375 -3.640625 0.441406 -3.863281 0.578125 -4.0625 C 0.710938 -4.269531 0.90625 -4.429688 1.15625 -4.546875 C 1.40625 -4.660156 1.691406 -4.71875 2.015625 -4.71875 C 2.523438 -4.71875 2.925781 -4.609375 3.21875 -4.390625 C 3.519531 -4.179688 3.707031 -3.863281 3.78125 -3.4375 L 3.015625 -3.328125 C 2.972656 -3.554688 2.863281 -3.738281 2.6875 -3.875 C 2.519531 -4.007812 2.296875 -4.078125 2.015625 -4.078125 Z M 2.015625 -4.078125 "/></g></g></g><g fill="#ffffff" fill-opacity="1"><g transform="translate(7.050781, 26.941407)"><g><path d="M 4.3125 0 L 3.5 0 C 3.457031 -0.09375 3.425781 -0.171875 3.40625 -0.234375 C 3.382812 -0.296875 3.363281 -0.40625 3.34375 -0.5625 C 3.113281 -0.332031 2.875 -0.160156 2.625 -0.046875 C 2.375 0.0546875 2.09375 0.109375 1.78125 0.109375 C 1.488281 0.109375 1.226562 0.0546875 1 -0.046875 C 0.78125 -0.160156 0.609375 -0.316406 0.484375 -0.515625 C 0.367188 -0.722656 0.3125 -0.957031 0.3125 -1.21875 C 0.3125 -1.613281 0.441406 -1.925781 0.703125 -2.15625 C 0.960938 -2.394531 1.382812 -2.5625 1.96875 -2.65625 C 2.582031 -2.75 3.019531 -2.835938 3.28125 -2.921875 L 3.28125 -3.046875 C 3.28125 -3.304688 3.25 -3.507812 3.1875 -3.65625 C 3.125 -3.800781 3.015625 -3.90625 2.859375 -3.96875 C 2.710938 -4.039062 2.519531 -4.078125 2.28125 -4.078125 C 1.96875 -4.078125 1.71875 -4.003906 1.53125 -3.859375 C 1.351562 -3.722656 1.234375 -3.503906 1.171875 -3.203125 L 0.40625 -3.3125 C 0.5 -3.78125 0.707031 -4.128906 1.03125 -4.359375 C 1.351562 -4.597656 1.78125 -4.71875 2.3125 -4.71875 C 2.726562 -4.71875 3.0625 -4.664062 3.3125 -4.5625 C 3.570312 -4.457031 3.765625 -4.285156 3.890625 -4.046875 C 4.015625 -3.816406 4.078125 -3.507812 4.078125 -3.125 L 4.078125 -1.46875 C 4.078125 -1.175781 4.082031 -0.953125 4.09375 -0.796875 C 4.101562 -0.640625 4.125 -0.503906 4.15625 -0.390625 C 4.1875 -0.273438 4.238281 -0.144531 4.3125 0 Z M 2.015625 -2 C 1.703125 -1.945312 1.472656 -1.851562 1.328125 -1.71875 C 1.179688 -1.59375 1.109375 -1.425781 1.109375 -1.21875 C 1.109375 -1 1.179688 -0.828125 1.328125 -0.703125 C 1.472656 -0.578125 1.679688 -0.515625 1.953125 -0.515625 C 2.171875 -0.515625 2.40625 -0.582031 2.65625 -0.71875 C 2.820312 -0.820312 2.945312 -0.929688 3.03125 -1.046875 C 3.125 -1.171875 3.1875 -1.316406 3.21875 -1.484375 C 3.257812 -1.648438 3.28125 -1.867188 3.28125 -2.140625 L 3.28125 -2.3125 C 3.21875 -2.269531 3.0625 -2.21875 2.8125 -2.15625 C 2.570312 -2.101562 2.304688 -2.050781 2.015625 -2 Z M 2.015625 -2 "/></g></g><g transform="translate(11.708297, 26.941407)"><g><path d="M 3.578125 0 L 3.578125 -3.015625 C 3.578125 -3.347656 3.492188 -3.601562 3.328125 -3.78125 C 3.160156 -3.957031 2.925781 -4.046875 2.625 -4.046875 C 2.226562 -4.046875 1.921875 -3.925781 1.703125 -3.6875 C 1.492188 -3.457031 1.390625 -3.082031 1.390625 -2.5625 L 1.390625 0 L 0.609375 0 L 0.609375 -4.609375 L 1.328125 -4.609375 L 1.328125 -3.96875 C 1.484375 -4.195312 1.679688 -4.378906 1.921875 -4.515625 C 2.171875 -4.648438 2.445312 -4.71875 2.75 -4.71875 C 3.28125 -4.71875 3.679688 -4.578125 3.953125 -4.296875 C 4.222656 -4.023438 4.359375 -3.632812 4.359375 -3.125 L 4.359375 0 Z M 3.578125 0 "/></g></g><g transform="translate(16.661529, 26.941407)"><g><path d="M 4.484375 0 L 3.75 0 L 3.75 -0.59375 L 3.734375 -0.59375 C 3.597656 -0.375 3.40625 -0.203125 3.15625 -0.078125 C 2.90625 0.046875 2.644531 0.109375 2.375 0.109375 C 1.976562 0.109375 1.617188 0.0078125 1.296875 -0.1875 C 0.984375 -0.394531 0.738281 -0.679688 0.5625 -1.046875 C 0.394531 -1.410156 0.3125 -1.832031 0.3125 -2.3125 C 0.3125 -2.800781 0.390625 -3.222656 0.546875 -3.578125 C 0.710938 -3.941406 0.945312 -4.222656 1.25 -4.421875 C 1.550781 -4.617188 1.90625 -4.71875 2.3125 -4.71875 C 2.601562 -4.71875 2.859375 -4.664062 3.078125 -4.5625 C 3.304688 -4.457031 3.507812 -4.300781 3.6875 -4.09375 L 3.703125 -4.09375 L 3.703125 -6.375 L 4.484375 -6.375 Z M 2.375 -4.078125 C 2.113281 -4.078125 1.882812 -4.003906 1.6875 -3.859375 C 1.5 -3.710938 1.351562 -3.503906 1.25 -3.234375 C 1.15625 -2.972656 1.109375 -2.660156 1.109375 -2.296875 C 1.109375 -1.921875 1.164062 -1.597656 1.28125 -1.328125 C 1.394531 -1.066406 1.550781 -0.867188 1.75 -0.734375 C 1.945312 -0.597656 2.171875 -0.53125 2.421875 -0.53125 C 2.703125 -0.53125 2.941406 -0.597656 3.140625 -0.734375 C 3.335938 -0.878906 3.488281 -1.078125 3.59375 -1.328125 C 3.695312 -1.585938 3.75 -1.890625 3.75 -2.234375 C 3.75 -2.617188 3.691406 -2.945312 3.578125 -3.21875 C 3.472656 -3.5 3.316406 -3.710938 3.109375 -3.859375 C 2.898438 -4.003906 2.65625 -4.078125 2.375 -4.078125 Z M 2.375 -4.078125 "/></g></g><g transform="translate(21.753921, 26.941407)"><g/></g><g transform="translate(24.202269, 26.941407)"><g><path d="M 2.015625 -4.078125 C 1.742188 -4.078125 1.53125 -4.019531 1.375 -3.90625 C 1.21875 -3.800781 1.140625 -3.660156 1.140625 -3.484375 C 1.140625 -3.347656 1.171875 -3.234375 1.234375 -3.140625 C 1.304688 -3.054688 1.414062 -2.984375 1.5625 -2.921875 C 1.707031 -2.867188 1.910156 -2.820312 2.171875 -2.78125 C 2.578125 -2.71875 2.90625 -2.628906 3.15625 -2.515625 C 3.414062 -2.410156 3.609375 -2.265625 3.734375 -2.078125 C 3.867188 -1.890625 3.9375 -1.648438 3.9375 -1.359375 C 3.9375 -1.078125 3.863281 -0.820312 3.71875 -0.59375 C 3.570312 -0.375 3.363281 -0.203125 3.09375 -0.078125 C 2.820312 0.046875 2.515625 0.109375 2.171875 0.109375 C 1.066406 0.109375 0.429688 -0.382812 0.265625 -1.375 L 1.046875 -1.5 C 1.097656 -1.175781 1.210938 -0.929688 1.390625 -0.765625 C 1.578125 -0.609375 1.832031 -0.53125 2.15625 -0.53125 C 2.46875 -0.53125 2.707031 -0.597656 2.875 -0.734375 C 3.050781 -0.867188 3.140625 -1.046875 3.140625 -1.265625 C 3.140625 -1.472656 3.039062 -1.632812 2.84375 -1.75 C 2.65625 -1.875 2.390625 -1.960938 2.046875 -2.015625 C 1.492188 -2.097656 1.078125 -2.242188 0.796875 -2.453125 C 0.515625 -2.671875 0.375 -2.984375 0.375 -3.390625 C 0.375 -3.640625 0.441406 -3.863281 0.578125 -4.0625 C 0.710938 -4.269531 0.90625 -4.429688 1.15625 -4.546875 C 1.40625 -4.660156 1.691406 -4.71875 2.015625 -4.71875 C 2.523438 -4.71875 2.925781 -4.609375 3.21875 -4.390625 C 3.519531 -4.179688 3.707031 -3.863281 3.78125 -3.4375 L 3.015625 -3.328125 C 2.972656 -3.554688 2.863281 -3.738281 2.6875 -3.875 C 2.519531 -4.007812 2.296875 -4.078125 2.015625 -4.078125 Z M 2.015625 -4.078125 "/></g></g><g transform="translate(28.442305, 26.941407)"><g><path d="M 2.515625 -0.53125 C 2.816406 -0.53125 3.070312 -0.617188 3.28125 -0.796875 C 3.5 -0.972656 3.648438 -1.203125 3.734375 -1.484375 L 4.5 -1.375 C 4.375 -0.90625 4.128906 -0.539062 3.765625 -0.28125 C 3.410156 -0.0195312 2.984375 0.109375 2.484375 0.109375 C 2.046875 0.109375 1.660156 0.015625 1.328125 -0.171875 C 1.003906 -0.367188 0.753906 -0.644531 0.578125 -1 C 0.398438 -1.363281 0.3125 -1.785156 0.3125 -2.265625 C 0.3125 -2.765625 0.394531 -3.195312 0.5625 -3.5625 C 0.738281 -3.9375 0.988281 -4.222656 1.3125 -4.421875 C 1.644531 -4.617188 2.03125 -4.71875 2.46875 -4.71875 C 2.894531 -4.71875 3.265625 -4.625 3.578125 -4.4375 C 3.898438 -4.25 4.144531 -3.96875 4.3125 -3.59375 C 4.488281 -3.226562 4.578125 -2.785156 4.578125 -2.265625 L 4.578125 -2.109375 L 1.125 -2.109375 C 1.132812 -1.773438 1.195312 -1.488281 1.3125 -1.25 C 1.4375 -1.019531 1.601562 -0.84375 1.8125 -0.71875 C 2.019531 -0.59375 2.253906 -0.53125 2.515625 -0.53125 Z M 2.46875 -4.078125 C 2.238281 -4.078125 2.03125 -4.019531 1.84375 -3.90625 C 1.65625 -3.800781 1.5 -3.648438 1.375 -3.453125 C 1.257812 -3.253906 1.179688 -3.019531 1.140625 -2.75 L 3.75 -2.75 C 3.695312 -3.175781 3.5625 -3.503906 3.34375 -3.734375 C 3.125 -3.960938 2.832031 -4.078125 2.46875 -4.078125 Z M 2.46875 -4.078125 "/></g></g><g transform="translate(33.321608, 26.941407)"><g><path d="M 2.53125 -4.078125 C 2.082031 -4.078125 1.734375 -3.921875 1.484375 -3.609375 C 1.234375 -3.304688 1.109375 -2.875 1.109375 -2.3125 C 1.109375 -1.96875 1.160156 -1.660156 1.265625 -1.390625 C 1.378906 -1.117188 1.539062 -0.90625 1.75 -0.75 C 1.957031 -0.601562 2.203125 -0.53125 2.484375 -0.53125 C 2.816406 -0.53125 3.09375 -0.632812 3.3125 -0.84375 C 3.53125 -1.050781 3.664062 -1.332031 3.71875 -1.6875 L 4.484375 -1.578125 C 4.429688 -1.234375 4.3125 -0.929688 4.125 -0.671875 C 3.9375 -0.421875 3.695312 -0.226562 3.40625 -0.09375 C 3.125 0.0390625 2.8125 0.109375 2.46875 0.109375 C 2.039062 0.109375 1.660156 0.0078125 1.328125 -0.1875 C 1.003906 -0.382812 0.753906 -0.660156 0.578125 -1.015625 C 0.398438 -1.378906 0.3125 -1.804688 0.3125 -2.296875 C 0.3125 -2.816406 0.398438 -3.253906 0.578125 -3.609375 C 0.753906 -3.972656 1.003906 -4.25 1.328125 -4.4375 C 1.660156 -4.625 2.050781 -4.71875 2.5 -4.71875 C 2.820312 -4.71875 3.117188 -4.660156 3.390625 -4.546875 C 3.660156 -4.429688 3.882812 -4.265625 4.0625 -4.046875 C 4.238281 -3.828125 4.351562 -3.566406 4.40625 -3.265625 L 3.65625 -3.15625 C 3.582031 -3.445312 3.445312 -3.671875 3.25 -3.828125 C 3.050781 -3.992188 2.8125 -4.078125 2.53125 -4.078125 Z M 2.53125 -4.078125 "/></g></g><g transform="translate(37.987822, 26.941407)"><g><path d="M 1.375 -1.59375 C 1.375 -1.257812 1.457031 -1.003906 1.625 -0.828125 C 1.789062 -0.648438 2.023438 -0.5625 2.328125 -0.5625 C 2.585938 -0.5625 2.8125 -0.617188 3 -0.734375 C 3.195312 -0.859375 3.34375 -1.019531 3.4375 -1.21875 C 3.519531 -1.414062 3.5625 -1.691406 3.5625 -2.046875 L 3.5625 -4.609375 L 4.34375 -4.609375 L 4.34375 0 L 3.609375 0 L 3.609375 -0.640625 C 3.441406 -0.398438 3.238281 -0.210938 3 -0.078125 C 2.757812 0.046875 2.492188 0.109375 2.203125 0.109375 C 1.671875 0.109375 1.269531 -0.0234375 1 -0.296875 C 0.726562 -0.578125 0.59375 -0.972656 0.59375 -1.484375 L 0.59375 -4.609375 L 1.375 -4.609375 Z M 1.375 -1.59375 "/></g></g><g transform="translate(42.941053, 26.941407)"><g><path d="M 2.40625 -3.921875 C 2.070312 -3.921875 1.816406 -3.789062 1.640625 -3.53125 C 1.472656 -3.28125 1.390625 -2.925781 1.390625 -2.46875 L 1.390625 0 L 0.609375 0 L 0.609375 -4.609375 L 1.328125 -4.609375 L 1.328125 -3.921875 C 1.503906 -4.210938 1.679688 -4.414062 1.859375 -4.53125 C 2.035156 -4.65625 2.25 -4.71875 2.5 -4.71875 C 2.632812 -4.71875 2.757812 -4.703125 2.875 -4.671875 C 3 -4.640625 3.125 -4.582031 3.25 -4.5 L 2.984375 -3.78125 C 2.816406 -3.875 2.625 -3.921875 2.40625 -3.921875 Z M 2.40625 -3.921875 "/></g></g><g transform="translate(46.154783, 26.941407)"><g><path d="M 1.390625 -5.484375 L 0.609375 -5.484375 L 0.609375 -6.375 L 1.390625 -6.375 Z M 1.390625 0 L 0.609375 0 L 0.609375 -4.609375 L 1.390625 -4.609375 Z M 1.390625 0 "/></g></g><g transform="translate(48.146513, 26.941407)"><g><path d="M 1.5 -4.609375 L 2.375 -4.609375 L 2.375 -4.015625 L 1.5 -4.015625 L 1.5 -1.21875 C 1.5 -1.039062 1.515625 -0.910156 1.546875 -0.828125 C 1.578125 -0.742188 1.625 -0.6875 1.6875 -0.65625 C 1.75 -0.632812 1.832031 -0.625 1.9375 -0.625 C 2.039062 -0.625 2.1875 -0.640625 2.375 -0.671875 L 2.484375 -0.03125 C 2.253906 0.0195312 2.03125 0.046875 1.8125 0.046875 C 1.53125 0.046875 1.3125 0.00390625 1.15625 -0.078125 C 1.007812 -0.160156 0.898438 -0.28125 0.828125 -0.4375 C 0.753906 -0.59375 0.71875 -0.875 0.71875 -1.28125 L 0.71875 -4.015625 L 0.0625 -4.015625 L 0.0625 -4.609375 L 0.71875 -4.609375 L 0.71875 -5.671875 L 1.5 -6.234375 Z M 1.5 -4.609375 "/></g></g><g transform="translate(50.738371, 26.941407)"><g><path d="M 1.953125 -1.953125 C 2.035156 -1.703125 2.097656 -1.507812 2.140625 -1.375 C 2.179688 -1.25 2.226562 -1.082031 2.28125 -0.875 L 2.296875 -0.875 C 2.359375 -1.132812 2.40625 -1.316406 2.4375 -1.421875 C 2.46875 -1.535156 2.546875 -1.757812 2.671875 -2.09375 L 3.59375 -4.609375 L 4.390625 -4.609375 L 2.515625 0.34375 C 2.359375 0.738281 2.210938 1.046875 2.078125 1.265625 C 1.941406 1.484375 1.789062 1.640625 1.625 1.734375 C 1.46875 1.828125 1.28125 1.875 1.0625 1.875 C 0.976562 1.875 0.867188 1.863281 0.734375 1.84375 C 0.609375 1.820312 0.5 1.800781 0.40625 1.78125 L 0.5625 1.125 C 0.6875 1.164062 0.804688 1.1875 0.921875 1.1875 C 1.085938 1.1875 1.222656 1.144531 1.328125 1.0625 C 1.441406 0.976562 1.53125 0.863281 1.59375 0.71875 C 1.664062 0.582031 1.726562 0.4375 1.78125 0.28125 C 1.84375 0.132812 1.878906 0.046875 1.890625 0.015625 L 0.140625 -4.609375 L 0.984375 -4.609375 Z M 1.953125 -1.953125 "/></g></g></g><path fill="#67b2fc" d="M 46.503906 34.582031 C 46.703125 34.335938 46.941406 34.144531 47.226562 34.007812 C 47.507812 33.871094 47.808594 33.804688 48.121094 33.804688 C 48.4375 33.804688 48.738281 33.871094 49.019531 34.007812 C 49.304688 34.144531 49.542969 34.335938 49.742188 34.582031 L 51.664062 36.976562 C 51.886719 37.25 52.160156 37.457031 52.488281 37.59375 C 52.8125 37.726562 53.152344 37.777344 53.503906 37.738281 L 56.558594 37.40625 C 56.867188 37.371094 57.171875 37.40625 57.46875 37.511719 C 57.765625 37.617188 58.023438 37.78125 58.246094 38 C 58.46875 38.222656 58.628906 38.484375 58.734375 38.777344 C 58.839844 39.074219 58.875 39.378906 58.839844 39.691406 L 58.507812 42.742188 C 58.46875 43.09375 58.519531 43.433594 58.652344 43.761719 C 58.789062 44.085938 58.996094 44.359375 59.269531 44.582031 L 61.664062 46.503906 C 61.910156 46.703125 62.097656 46.941406 62.234375 47.226562 C 62.371094 47.507812 62.441406 47.808594 62.441406 48.121094 C 62.441406 48.4375 62.371094 48.738281 62.234375 49.019531 C 62.097656 49.304688 61.910156 49.542969 61.664062 49.742188 L 59.269531 51.664062 C 58.996094 51.886719 58.789062 52.160156 58.652344 52.484375 C 58.519531 52.8125 58.46875 53.152344 58.507812 53.503906 L 58.839844 56.554688 C 58.875 56.867188 58.839844 57.171875 58.734375 57.46875 C 58.628906 57.765625 58.46875 58.023438 58.246094 58.246094 C 58.023438 58.46875 57.765625 58.632812 57.46875 58.734375 C 57.171875 58.839844 56.867188 58.875 56.554688 58.839844 L 53.503906 58.507812 C 53.152344 58.46875 52.8125 58.519531 52.484375 58.65625 C 52.15625 58.789062 51.882812 58.996094 51.660156 59.273438 L 49.742188 61.660156 C 49.542969 61.90625 49.304688 62.097656 49.019531 62.234375 C 48.738281 62.371094 48.4375 62.4375 48.121094 62.4375 C 47.808594 62.4375 47.507812 62.371094 47.226562 62.234375 C 46.941406 62.097656 46.703125 61.90625 46.503906 61.660156 L 44.585938 59.269531 C 44.363281 58.992188 44.089844 58.789062 43.761719 58.652344 C 43.433594 58.515625 43.09375 58.46875 42.742188 58.507812 L 39.691406 58.839844 C 39.378906 58.871094 39.074219 58.835938 38.777344 58.734375 C 38.480469 58.628906 38.222656 58.464844 38 58.242188 C 37.777344 58.023438 37.617188 57.761719 37.511719 57.464844 C 37.40625 57.167969 37.371094 56.867188 37.40625 56.554688 L 37.738281 53.5 C 37.777344 53.148438 37.726562 52.808594 37.59375 52.484375 C 37.457031 52.15625 37.25 51.882812 36.976562 51.660156 L 34.582031 49.742188 C 34.335938 49.542969 34.148438 49.304688 34.011719 49.019531 C 33.875 48.738281 33.804688 48.4375 33.804688 48.121094 C 33.804688 47.808594 33.875 47.507812 34.011719 47.226562 C 34.148438 46.941406 34.335938 46.703125 34.582031 46.503906 L 36.976562 44.582031 C 37.25 44.359375 37.457031 44.085938 37.59375 43.761719 C 37.726562 43.433594 37.777344 43.09375 37.738281 42.742188 L 37.40625 39.691406 C 37.371094 39.378906 37.40625 39.074219 37.511719 38.777344 C 37.617188 38.480469 37.777344 38.222656 38 38 C 38.222656 37.777344 38.480469 37.617188 38.777344 37.511719 C 39.074219 37.40625 39.378906 37.371094 39.691406 37.40625 L 42.742188 37.738281 C 43.09375 37.777344 43.433594 37.726562 43.761719 37.59375 C 44.089844 37.457031 44.363281 37.25 44.585938 36.976562 Z M 46.503906 34.582031 " fill-opacity="1" fill-rule="nonzero"/><path fill="#67b2fc" d="M 38 58.242188 C 37.53125 57.773438 37.335938 57.210938 37.40625 56.554688 L 37.738281 53.5 C 37.777344 53.148438 37.726562 52.808594 37.59375 52.484375 C 37.457031 52.15625 37.25 51.882812 36.976562 51.660156 L 34.582031 49.742188 C 34.335938 49.542969 34.148438 49.304688 34.011719 49.019531 C 33.875 48.738281 33.804688 48.4375 33.804688 48.121094 C 33.804688 47.808594 33.875 47.507812 34.011719 47.226562 C 34.148438 46.941406 34.335938 46.703125 34.582031 46.503906 L 36.976562 44.582031 C 37.25 44.359375 37.457031 44.085938 37.59375 43.761719 C 37.726562 43.433594 37.777344 43.09375 37.738281 42.742188 L 37.40625 39.691406 C 37.371094 39.378906 37.40625 39.074219 37.511719 38.777344 C 37.617188 38.480469 37.777344 38.222656 38 38 C 38.222656 37.777344 38.480469 37.617188 38.777344 37.511719 C 39.074219 37.40625 39.378906 37.371094 39.691406 37.40625 L 42.742188 37.738281 C 43.09375 37.777344 43.433594 37.726562 43.761719 37.59375 C 44.089844 37.457031 44.363281 37.25 44.585938 36.976562 L 46.503906 34.582031 C 46.703125 34.335938 46.941406 34.144531 47.226562 34.007812 C 47.507812 33.871094 47.808594 33.804688 48.121094 33.804688 C 48.4375 33.804688 48.738281 33.871094 49.019531 34.007812 C 49.304688 34.144531 49.542969 34.335938 49.742188 34.582031 L 51.664062 36.976562 C 51.886719 37.25 52.160156 37.457031 52.488281 37.59375 C 52.8125 37.726562 53.152344 37.777344 53.503906 37.738281 L 56.558594 37.40625 C 57.214844 37.332031 57.777344 37.53125 58.246094 38 Z M 38 58.242188 " fill-opacity="1" fill-rule="nonzero"/><g clip-path="url(#d8f86b0fc3)"><path stroke-linecap="round" transform="matrix(0.649414, 0, 0, 0.649414, 33.1863, 33.186299)" fill="none" stroke-linejoin="round" d="M 20.507113 2.149219 C 20.81388 1.770271 21.180797 1.475534 21.619895 1.265008 C 22.052978 1.054482 22.516136 0.952226 22.997339 0.952226 C 23.484557 0.952226 23.947715 1.054482 24.380798 1.265008 C 24.819896 1.475534 25.186813 1.770271 25.49358 2.149219 L 28.452979 5.836437 C 28.795836 6.25749 29.216889 6.576287 29.722152 6.786813 C 30.2214 6.991324 30.744708 7.06952 31.286062 7.00937 L 35.989822 6.498091 C 36.46501 6.443956 36.934183 6.498091 37.391326 6.660497 C 37.848468 6.822903 38.245461 7.075535 38.588318 7.412377 C 38.931175 7.755234 39.177792 8.158242 39.340198 8.60937 C 39.502604 9.066513 39.556739 9.535686 39.502604 10.016889 L 38.991326 14.714634 C 38.931175 15.255987 39.009371 15.779295 39.213882 16.284559 C 39.424408 16.783807 39.743206 17.204859 40.164258 17.547717 L 43.851477 20.507116 C 44.230424 20.813882 44.519146 21.1808 44.729672 21.619898 C 44.940199 22.05298 45.048469 22.516138 45.048469 22.997341 C 45.048469 23.484559 44.940199 23.947717 44.729672 24.3808 C 44.519146 24.819898 44.230424 25.186815 43.851477 25.493582 L 40.164258 28.452981 C 39.743206 28.795838 39.424408 29.216891 39.213882 29.716139 C 39.009371 30.221402 38.931175 30.744711 38.991326 31.286064 L 39.502604 35.983809 C 39.556739 36.465012 39.502604 36.934185 39.340198 37.391328 C 39.177792 37.848471 38.931175 38.245463 38.588318 38.588321 C 38.245461 38.931178 37.848468 39.183809 37.391326 39.3402 C 36.934183 39.502606 36.46501 39.556742 35.983807 39.502606 L 31.286062 38.991328 C 30.744708 38.931178 30.2214 39.009373 29.716137 39.2199 C 29.210873 39.424411 28.789821 39.743208 28.446964 40.170276 L 25.49358 43.845464 C 25.186813 44.224411 24.819896 44.519148 24.380798 44.729675 C 23.947715 44.940201 23.484557 45.042457 22.997339 45.042457 C 22.516136 45.042457 22.052978 44.940201 21.619895 44.729675 C 21.180797 44.519148 20.81388 44.224411 20.507113 43.845464 L 17.553729 40.164261 C 17.210872 39.737193 16.789819 39.424411 16.284556 39.213885 C 15.779293 39.003358 15.255985 38.931178 14.714631 38.991328 L 10.016886 39.502606 C 9.535683 39.550727 9.06651 39.496591 8.609367 39.3402 C 8.152224 39.177794 7.755232 38.925163 7.412375 38.582306 C 7.069518 38.245463 6.822901 37.842456 6.660495 37.385313 C 6.498089 36.92817 6.443954 36.465012 6.498089 35.983809 L 7.009367 31.280049 C 7.069518 30.738696 6.991322 30.215387 6.786811 29.716139 C 6.576284 29.210876 6.257487 28.789823 5.836435 28.446966 L 2.149216 25.493582 C 1.770269 25.186815 1.481547 24.819898 1.271021 24.3808 C 1.060494 23.947717 0.952224 23.484559 0.952224 22.997341 C 0.952224 22.516138 1.060494 22.05298 1.271021 21.619898 C 1.481547 21.1808 1.770269 20.813882 2.149216 20.507116 L 5.836435 17.547717 C 6.257487 17.204859 6.576284 16.783807 6.786811 16.284559 C 6.991322 15.779295 7.069518 15.255987 7.009367 14.714634 L 6.498089 10.016889 C 6.443954 9.535686 6.498089 9.066513 6.660495 8.60937 C 6.822901 8.152227 7.069518 7.755234 7.412375 7.412377 C 7.755232 7.06952 8.152224 6.822903 8.609367 6.660497 C 9.06651 6.498091 9.535683 6.443956 10.016886 6.498091 L 14.714631 7.00937 C 15.255985 7.06952 15.779293 6.991324 16.284556 6.786813 C 16.789819 6.576287 17.210872 6.25749 17.553729 5.836437 Z M 20.507113 2.149219 " stroke="#ffffff" stroke-width="2" stroke-opacity="1" stroke-miterlimit="4"/></g><path stroke-linecap="round" transform="matrix(0.649414, 0, 0, 0.649414, 33.1863, 33.186299)" fill="none" stroke-linejoin="round" d="M 30.666513 18.209371 L 22.865008 28.609372 C 22.738692 28.777793 22.582301 28.916139 22.395835 29.018395 C 22.209369 29.12065 22.004858 29.174786 21.794331 29.192831 C 21.583805 29.204861 21.379294 29.180801 21.174782 29.102605 C 20.976286 29.030425 20.80185 28.916139 20.651474 28.765763 L 15.971774 24.086063 " stroke="#ffffff" stroke-width="2" stroke-opacity="1" stroke-miterlimit="4"/></svg>
