<?xml version="1.0" encoding="utf-8"?>

<!-- Uploaded to: SVG Repo, www.svgrepo.com, Generator: SVG Repo Mixer Tools -->
<svg version="1.1" id="Uploaded to svgrepo.com" xmlns="http://www.w3.org/2000/svg" xmlns:xlink="http://www.w3.org/1999/xlink"
	 width="50px" height="50px" viewBox="0 0 32 32" xml:space="preserve">
<style type="text/css">
	.isometric_vijf{fill:#F29227;}
	.isometric_zeven{fill:#FF7344;}
	.isometric_acht{fill:#F05A28;}
	.isometric_negen{fill:#BE1E2D;}
	.isometric_tien{fill:#7BD6C4;}
	.isometric_elf{fill:#72C0AB;}
	.isometric_twaalf{fill:#569080;}
	.st0{fill:#225B49;}
	.st1{fill:#F28103;}
	.st2{fill:#F8F7C5;}
	.st3{fill:#AD9A74;}
	.st4{fill:#F2D76C;}
	.st5{fill:#F5DF89;}
	.st6{fill:#7BD6C4;}
	.st7{fill:#80CCBE;}
</style>
<g>
	<path class="isometric_vijf" d="M11.825,10.394L3,15.432l13,7.641l9.117-5.042L11.825,10.394z M18.64,14.969v0.011v-0.009v0.009
		v0.569l-2.548,1.469l-2.564-1.469v-0.58l2.58-1.467L18.64,14.969z M9.638,12.53l2.58-1.467l2.532,1.467l0,0l0,0l0,0v0.58
		l-2.548,1.469L9.638,13.11V12.53z M5.581,15.422v-0.58l2.58-1.467l2.532,1.467l0,0l0,0l0,0v0.58l-2.548,1.469L5.581,15.422z
		 M9.471,17.862v-0.58l2.58-1.467l2.532,1.467l0,0l0,0l0,0v0.58l-2.548,1.469L9.471,17.862z M16.137,21.799l-2.564-1.469v-0.58
		l7.101-4.033l2.532,1.467l0,0h0.016h-0.016v0.58L16.137,21.799z"/>
	<path class="isometric_tien" d="M27.147,13.038l-2.37,3.31L13.686,9.991l2.37-3.31L27.147,13.038z M9.471,17.281v0.58l2.564,1.469
		v-0.59L9.471,17.281z M13.528,14.969v0.58l2.564,1.469v-0.59L13.528,14.969z M5.581,14.842v0.58l2.564,1.469v-0.59L5.581,14.842z
		 M12.202,13.999L9.638,12.53v0.58l2.564,1.469V13.999z"/>
	<path class="isometric_elf" d="M12.034,18.741l-2.564-1.459l2.58-1.467l2.532,1.467L12.034,18.741L12.034,18.741z M16.092,16.428
		L16.092,16.428l2.548-1.459l-2.532-1.467l-2.58,1.467L16.092,16.428z M8.145,16.301l2.548-1.459l-2.532-1.467l-2.58,1.467
		L8.145,16.301L8.145,16.301z M12.202,13.989l2.548-1.459l-2.532-1.467l-2.58,1.467l2.564,1.469V13.989z"/>
	<path class="isometric_twaalf" d="M15.687,5l-3.861,5.394l13.291,7.638L29,12.566L15.687,5z M24.777,16.348L13.686,9.991l2.37-3.31
		l11.091,6.357L24.777,16.348z M14.582,17.862l-2.548,1.469v-0.59l2.548-1.459V17.862z M17.275,15.756l1.364-0.787v0.011
		L17.275,15.756z M18.64,14.981v0.569l-2.548,1.469v-0.59L18.64,14.981z M10.692,14.842L10.692,14.842L9.326,15.63L10.692,14.842z
		 M10.692,15.422l-2.548,1.469v-0.59l2.548-1.459V15.422z M14.75,12.53v0.58l-2.548,1.469v-0.58L14.75,12.53z"/>
	<polygon class="isometric_acht" points="13.573,19.749 13.573,20.329 16.137,21.799 16.137,21.219 	"/>
	<path class="isometric_zeven" d="M16,26L3,18.365v-2.933l13,7.641L16,26z M16.137,21.209l7.069-4.025l-2.532-1.467l-7.101,4.033
		l2.564,1.469V21.209z"/>
	<path class="isometric_negen" d="M23.205,17.184v0.58l-7.069,4.035v-0.58L23.205,17.184z M25.117,18.032L16,23.074L16,26
		l9.026-5.026L29,15.499v-2.933L25.117,18.032z"/>
</g>
</svg>
