<svg fill="none" height="60" width="60" xmlns="http://www.w3.org/2000/svg">
  <g clip-path="url(#logo-telegram_svg__a)">
    <path
      d="M30 0A29.996 29.996 0 0 0 8.79 8.787 30.009 30.009 0 0 0 0 30a30.01 30.01 0 0 0 8.79 21.213 29.997 29.997 0 0 0 42.42 0A30.01 30.01 0 0 0 60 30c0-7.953-3.164-15.59-8.79-21.213A29.996 29.996 0 0 0 30 0Z"
      fill="url(#logo-telegram_svg__b)"></path>
    <path
      d="M13.58 29.683c8.746-3.81 14.578-6.322 17.493-7.535 8.335-3.466 10.064-4.068 11.194-4.088.248-.004.802.057 1.163.349.3.246.384.579.426.813.038.233.09.765.047 1.18-.45 4.744-2.405 16.256-3.398 21.569-.418 2.248-1.247 3.002-2.049 3.075-1.744.16-3.066-1.15-4.753-2.257-2.639-1.73-4.13-2.808-6.694-4.497-2.962-1.952-1.04-3.025.647-4.778.44-.459 8.119-7.44 8.264-8.074.019-.08.038-.375-.14-.53-.174-.156-.432-.103-.62-.06-.266.06-4.48 2.848-12.655 8.363-1.196.822-2.278 1.223-3.253 1.202-1.07-.023-3.132-.605-4.665-1.103-1.875-.611-3.37-.934-3.239-1.971.066-.54.811-1.093 2.232-1.658Z"
      fill="#fff"></path>
  </g>
  <defs>
    <linearGradient gradientUnits="userSpaceOnUse" id="logo-telegram_svg__b" x1="3000" x2="3000" y1="0" y2="6000">
      <stop></stop>
      <stop offset="1" stop-color="#229ED9"></stop>
    </linearGradient>
    <clipPath id="logo-telegram_svg__a">
      <path d="M0 0h60v60H0z" fill="#fff"></path>
    </clipPath>
  </defs>
</svg>
