<?xml version="1.0" encoding="iso-8859-1"?>
<!-- Uploaded to: SVG Repo, www.svgrepo.com, Generator: SVG Repo Mixer Tools -->
<svg height="800px" width="800px" version="1.1" id="Layer_1" xmlns="http://www.w3.org/2000/svg" xmlns:xlink="http://www.w3.org/1999/xlink" 
	 viewBox="0 0 512 512" xml:space="preserve">
<circle style="fill:#FF314F;" cx="256" cy="256" r="256"/>
<path style="fill:#A30F44;" d="M509.393,292.533L344.617,127.757l-156.694,216.65l-45.701,53.815L256,512l0,0
	C384.979,512,491.661,416.609,509.393,292.533z"/>
<path style="fill:#FFFFFF;" d="M369.778,398.222l-56.889-28.444L256,398.222l-56.889-28.444l-56.889,28.444V199.111
	c0-62.838,50.94-113.778,113.778-113.778l0,0c62.838,0,113.778,50.94,113.778,113.778V398.222z"/>
<path style="fill:#D0D1D3;" d="M256,85.333L256,85.333c-0.193,0-0.383,0.014-0.574,0.014v312.587l0.574,0.288l56.889-28.444
	l56.889,28.444V199.111C369.778,136.273,318.838,85.333,256,85.333z"/>
<g>
	<path style="fill:#272525;" d="M241.778,199.111h-56.889C184.889,199.111,211.609,252.264,241.778,199.111z"/>
	<path style="fill:#272525;" d="M327.111,199.111h-56.889C270.222,199.111,296.943,252.264,327.111,199.111z"/>
</g>
</svg>