<svg width="76" height="60" fill="none" xmlns="http://www.w3.org/2000/svg">
  <g clip-path="url(#catalog_svg__a)">
    <path
      d="M74.172 51.032c3.22 2.83-.616 6.597-3.41 7.692-4.691 1.841-10.52 1.37-15.395.578-5.088-.826-10.084-1.797-15.086-3.127-4.698-1.251-8.868-2.32-13.787-2.386-5.21-.07-10.877-.579-15.986-1.496-2.573-.462-9.607-2.322-6.446-5.927 2.524-2.877 7.616-4.032 11.085-5.136 4.87-1.549 9.711-3.1 14.713-4.194 9.525-2.082 18.094-2.037 27.478.848L74.17 51.032h.001Z"
      fill="url(#catalog_svg__b)"></path>
    <path
      d="M75.045 48.113c-.392-1.63-1.084-2.488-1.68-3.212-.862-1.44-3.424-4.274-5.211-5.925a.635.635 0 0 0-.238-.307 65.561 65.561 0 0 1-2.62-2.89.747.747 0 0 0 .064-.308c0-.47-1.29-2.668-2.346-2.668-.02 0-.047.003-.078.006l-.155-.215-.183-.255c.055-.11.088-.208.105-.301a.633.633 0 0 0-.034-.348c-.045-.117-1.138-2.855-2.348-2.855-.036 0-.102.005-.137.01-.008.003-.015.003-.023.005l-.179-.263c.03-.196.047-.369.053-.53.073-1.953.107-3.546-.103-4.89a.652.652 0 0 0-.025-.436c-.52-2.75-2.593-4.704-5.727-5.4a1.092 1.092 0 0 0-.378-.28.633.633 0 0 0 .008-.484l-1.23-3.121a.64.64 0 0 0-.622-.403c-1.343-3.515-2.404-5.484-3.899-5.802-.835-.178-1.907.311-3.15.91-1.407.678-3.003 1.447-4.708 1.447-.497 0-.983-.069-1.446-.203-3.43-.997-7.784-4.015-10.386-5.82-.347-.24-.661-.458-.936-.646C25.2 1.407 22.859 0 20.862 0l-.145.002c-1.493.051-2.707.553-3.7 1.535a.817.817 0 0 0-.72.68c-.01.06-.02.127-.028.2-.8 1.109-1.394 2.5-2.023 3.97l-.292.69a.823.823 0 0 0-.435.681c-.005.098 0 .214.009.337-.887 2.138-1.644 4.088-2.147 5.527-.216.2-.567.601-.823 1.266-.134.192-.588.864-1.003 1.79a.612.612 0 0 0-.058.119l-.033.092a9.413 9.413 0 0 0-.33.901l-.096.263a.635.635 0 0 0-.03.178 6.72 6.72 0 0 0-.225 1.83c.052 2.06 2.018 4.153 5.006 6.616-1.132 1.016-2.82 2.048-5.13 3.135a.894.894 0 0 0-.192-.027.83.83 0 0 0-.747.474c0 .003-.002.005-.003.006C4.225 32.01 1.185 35.063.29 37.742c-.428 1.283-.383 2.44.133 3.439 1.79 3.464 5.06 6.396 8.982 8.056 1.665 1.524 3.44 2.468 5.217 2.792.966.274 2.012.356 3.183.036.618-.095 1.159-.23 1.593-.338l.11-.028c.788-.195 2.394-.723 4.256-1.334 2.577-.845 5.785-1.898 7.925-2.43 1.292-.322 2.721-.656 4.032-.952 1.508 1.408 2.777 2.486 3.772 3.206 3.03 2.192 14.202 8.45 25.412 8.45l.502-.003c4.453-.075 7.495-1.43 9.042-4.031 1.556-2.617 1-5.604.596-6.49v-.002Z"
      fill="#000"></path>
    <path
      d="M23.826 31.006c-2.399.368-11.442 2.113-12.733 6.428-1.293 4.316.276 11.845 3.23 12.672 2.952.826 9.503-.643 16.886-3.674 7.38-3.03 17.716-4.5 17.992-4.59.277-.093 9.965-9.275 10.15-14.234.184-4.959.184-7.898-4.152-9.275-4.338-1.377-31.372 12.672-31.372 12.672l-.001.001Z"
      fill="url(#catalog_svg__c)"></path>
    <path
      d="M15.43 25.313c-.83 1.194-2.4 2.756-7.013 4.866C3.804 32.292-.718 37.251.943 40.465c1.66 3.214 4.798 6.152 8.766 7.805-1.108-9 5.536-15.887 5.536-15.887l8.211-2.938-8.027-4.132Z"
      fill="#000"></path>
    <path
      d="M19.213 28.987s-8.858 2.387-10.519 6.06c-1.66 3.672-3.137 9.367 1.015 13.223 4.152 3.857 7.751 2.846 9.596 2.388 1.846-.46 8.49-2.847 12.18-3.764 3.691-.919 8.488-1.93 8.488-1.93l-3.599-.55s-4.705 1.469-7.012 2.204c-2.307.735-7.75 3.122-10.611 3.397-2.86.276-6.828-1.01-7.197-6.61-.368-5.602 3.229-9.276 6.736-10.195 3.507-.916 11.442-2.02 11.442-2.02l21.53-11.508s.892-.428 1.814-.796c.922-.367 5.26-.46 6.18 3.674-.829-4.958-6.733-5.877-9.87-4.958-3.138.917-30.173 11.386-30.173 11.386v-.001Z"
      fill="#DFE0DB"></path>
    <path
      d="M9.21 41.186c.23-2.261 1.085-4.261 1.678-5.413 2.051-3.989 8.625-5.207 9.922-5.411l-.058-.363c-1.327.209-8.06 1.459-10.192 5.607-.597 1.16-1.455 3.16-1.707 5.433.125.034.246.083.359.146l-.001.001ZM11.777 48.69a9.208 9.208 0 0 1-1.18-1.437c-.101.074-.212.132-.33.174a9.682 9.682 0 0 0 1.25 1.523c1.886 1.877 3.506 2.257 4.837 2.257 1.18 0 2.583-.642 2.583-.642-.031.015-3.783 1.485-7.159-1.875Z"
      fill="#000"></path>
    <path
      d="M11.22 47.444h-.312c-1.296 0-2.213-.18-2.251-.188l-.099-.019-.036-.093c-.203-.508-1.948-4.999-.994-6.328l.064-.09 2.41.313-.02.179c-.003.033-.343 3.372 1.087 5.952l.15.273.001.001Zm-2.392-.53c.24.04.903.14 1.773.16-1.157-2.309-1.052-4.998-.999-5.716l-1.829-.236c-.57 1.076.526 4.432 1.055 5.79v.001Z"
      fill="#000"></path>
    <path
      d="M3.893 44.2a.185.185 0 0 1 .245.09c.064.136-.338-.047-.245-.09ZM3.542 43.49a.182.182 0 0 1-.174-.125c-.105-.302-.199-.615-.279-.927a.184.184 0 0 1 .133-.224c.1-.026.199.034.224.132.078.304.17.606.27.9a.183.183 0 0 1-.114.233.19.19 0 0 1-.06.01Zm-.505-2.036a.184.184 0 0 1-.181-.157c-.05-.317-.088-.64-.112-.961a.185.185 0 0 1 .369-.028c.024.312.06.625.107.933a.184.184 0 0 1-.154.21c-.011 0-.02.003-.029.003Zm-.14-2.092h-.004a.185.185 0 0 1-.18-.188c.007-.324.026-.65.059-.967.01-.1.1-.172.202-.164a.185.185 0 0 1 .165.202c-.032.308-.05.623-.057.938a.185.185 0 0 1-.184.178v.001Zm.235-2.082a.176.176 0 0 1-.039-.005.183.183 0 0 1-.142-.217c.07-.329.155-.645.252-.94a.186.186 0 0 1 .233-.119c.097.032.15.136.119.232a8.785 8.785 0 0 0-.243.903.186.186 0 0 1-.18.146Zm.697-1.974a.184.184 0 0 1-.162-.273c.054-.096.11-.188.167-.272.112-.169.25-.349.405-.535a.185.185 0 0 1 .26-.023.182.182 0 0 1 .023.258 6.024 6.024 0 0 0-.382.504c-.05.075-.101.157-.15.246a.188.188 0 0 1-.161.094v.001Zm1.336-1.617a.186.186 0 0 1-.131-.055.182.182 0 0 1 0-.259c.199-.194.422-.405.702-.661a.184.184 0 1 1 .25.27c-.277.254-.497.462-.69.653a.189.189 0 0 1-.131.052Zm1.545-1.43c-.05 0-.1-.02-.136-.058a.184.184 0 0 1 .01-.26c.2-.182.458-.42.694-.651a.184.184 0 0 1 .26.262c-.241.234-.502.476-.704.66a.187.187 0 0 1-.125.047h.001ZM8.177 30.755a.192.192 0 0 1-.11-.036.183.183 0 0 1-.039-.256c.096-.13.17-.253.22-.36a.185.185 0 0 1 .336.154c-.06.131-.145.27-.258.423a.184.184 0 0 1-.149.075Z"
      fill="#fff"></path>
    <path
      d="M7.034 41.566c-.013 0-.027 0-.039-.004-.004 0-.382-.08-.908-.209a.185.185 0 0 1-.135-.224.184.184 0 0 1 .224-.133c.52.128.892.206.897.207a.184.184 0 0 1-.038.363h-.001Zm-1.975-.491a.18.18 0 0 1-.05-.008 19.477 19.477 0 0 1-.892-.275.184.184 0 1 1 .12-.347c.258.087.55.177.873.27.098.027.155.129.126.226a.185.185 0 0 1-.177.134Zm-1.907-.692a.184.184 0 0 1-.087-.022 2.562 2.562 0 0 1-.19-.109.183.183 0 1 1 .198-.309c.05.032.105.063.165.094.09.048.125.16.077.249a.187.187 0 0 1-.162.098l-.001-.001ZM7.864 45.974a.222.222 0 0 1-.05-.007l-.889-.244a.183.183 0 1 1 .098-.353l.89.242a.184.184 0 0 1-.05.361v.001Zm-1.958-.535a.167.167 0 0 1-.049-.008l-.89-.243a.184.184 0 1 1 .098-.354l.89.243a.183.183 0 0 1-.049.361Z"
      fill="#fff"></path>
    <path
      d="M16.306 43.035a.185.185 0 0 1-.118-.042l-2.86-2.388a.184.184 0 0 1-.027-.253l1.107-1.423a.185.185 0 0 1 .126-.071c.05-.004.1.01.14.042l2.859 2.387a.184.184 0 0 1 .027.254l-1.107 1.422a.183.183 0 0 1-.126.071h-.02v.001ZM13.7 40.438l2.578 2.15.881-1.132-2.577-2.152-.882 1.133Z"
      fill="#370A00"></path>
    <path
      d="M18.52 42.484a.181.181 0 0 1-.118-.043l-2.86-2.387a.183.183 0 0 1-.027-.254l1.107-1.422a.185.185 0 0 1 .264-.029l2.86 2.387a.183.183 0 0 1 .027.254l-1.107 1.424a.188.188 0 0 1-.126.07h-.02Zm-2.605-2.597 2.577 2.15.88-1.133-2.577-2.15-.88 1.133Z"
      fill="#370A00"></path>
    <path
      d="M20.69 41.933a.183.183 0 0 1-.119-.042l-2.86-2.388a.184.184 0 0 1-.028-.253l1.107-1.423a.186.186 0 0 1 .126-.07c.05-.006.1.01.14.043l2.86 2.387a.182.182 0 0 1 .026.253l-1.107 1.422a.184.184 0 0 1-.126.071h-.02Zm-2.607-2.597 2.578 2.15.881-1.132-2.577-2.15-.882 1.132Z"
      fill="#370A00"></path>
    <path
      d="M22.672 41.429a.185.185 0 0 1-.118-.042l-2.86-2.388a.184.184 0 0 1-.028-.253l1.107-1.423a.187.187 0 0 1 .126-.072c.05-.005.1.011.138.043l2.86 2.387a.184.184 0 0 1 .029.253l-1.108 1.423a.182.182 0 0 1-.126.07h-.02v.002Zm-2.605-2.598 2.578 2.151.88-1.132-2.577-2.152-.88 1.133Z"
      fill="#370A00"></path>
    <path
      d="M24.841 40.832a.197.197 0 0 1-.119-.042l-2.86-2.389a.184.184 0 0 1-.027-.254l1.108-1.423a.186.186 0 0 1 .126-.07c.05-.004.1.011.139.043l2.86 2.387a.182.182 0 0 1 .027.253l-1.108 1.423a.182.182 0 0 1-.126.071h-.02v.001Zm-2.606-2.598 2.578 2.15.882-1.132-2.578-2.15-.88 1.132h-.002Z"
      fill="#370A00"></path>
    <path
      d="M26.778 40.465a.181.181 0 0 1-.118-.043l-2.86-2.388a.183.183 0 0 1-.027-.253l1.107-1.424a.184.184 0 0 1 .126-.07c.05-.005.1.01.14.042l2.859 2.387a.184.184 0 0 1 .027.253l-1.107 1.423a.18.18 0 0 1-.126.07c-.007 0-.014.003-.02.003Zm-2.605-2.6 2.577 2.152.881-1.133-2.578-2.151-.88 1.132Z"
      fill="#370A00"></path>
    <path
      d="M28.994 39.867a.191.191 0 0 1-.12-.043l-2.86-2.388a.183.183 0 0 1-.027-.254l1.108-1.423a.185.185 0 0 1 .264-.028l2.86 2.388a.183.183 0 0 1 .027.253l-1.107 1.423a.181.181 0 0 1-.127.07l-.02.001.002.001Zm-2.607-2.598 2.578 2.15.88-1.132-2.577-2.152-.88 1.134ZM16.63 48.882c.144.002.295.013.432.058l1.005-1.293a.183.183 0 0 0-.027-.253l-2.86-2.386a.174.174 0 0 0-.138-.043.185.185 0 0 0-.126.07l-1.09 1.401c.064.136.123.275.177.416l2.448 2.043a1.2 1.2 0 0 1 .18-.013h-.001Zm-1.54-3.471 2.577 2.151-.88 1.133-2.578-2.152.88-1.132Z"
      fill="#370A00"></path>
    <path
      d="m16.447 42.784-1.46-1.09a.179.179 0 0 0-.147-.032.178.178 0 0 0-.122.087L13 44.696c.042.076.078.155.108.239.022.06.049.12.074.182l1.752-3.005 1.161.866-1.87 3.053-.923-.65c.107.224.229.456.35.698l.52.366a.182.182 0 0 0 .107.033c.012 0 .025 0 .037-.003a.19.19 0 0 0 .12-.084l2.06-3.365a.181.181 0 0 0-.047-.242h-.002Z"
      fill="#370A00"></path>
    <path
      d="M16.167 46.203a.18.18 0 0 1-.127-.051l-1.107-1.056a.183.183 0 0 1-.029-.23l2.122-3.398a.187.187 0 0 1 .27-.048l1.32.997a.182.182 0 0 1 .042.248l-2.337 3.457a.18.18 0 0 1-.133.08h-.02Zm-.87-1.269.84.803 2.118-3.133-1.023-.77-1.935 3.1Z"
      fill="#370A00"></path>
    <path
      d="M18.336 45.653a.19.19 0 0 1-.128-.05l-1.106-1.057a.183.183 0 0 1-.03-.23l2.261-3.582a.187.187 0 0 1 .269-.048l1.322.997a.182.182 0 0 1 .041.248l-2.476 3.64a.19.19 0 0 1-.133.081h-.019v.001Zm-.871-1.269.84.803 2.256-3.317-1.023-.77-2.074 3.284Z"
      fill="#370A00"></path>
    <path
      d="M20.459 44.964a.189.189 0 0 1-.124-.048l-.969-.872a.183.183 0 0 1-.033-.233l2.26-3.582a.187.187 0 0 1 .262-.053l1.184.812c.084.058.105.171.048.254l-2.476 3.64a.182.182 0 0 1-.13.08h-.024l.002.002Zm-.73-1.089.697.627 2.254-3.314-.875-.601-2.076 3.288Z"
      fill="#370A00"></path>
    <path
      d="M22.534 44.322a.185.185 0 0 1-.12-.046l-.97-.826a.183.183 0 0 1-.036-.236l2.262-3.581a.18.18 0 0 1 .116-.083.182.182 0 0 1 .14.026l1.184.768c.042.027.07.069.08.117.01.048 0 .1-.028.14l-2.476 3.64a.188.188 0 0 1-.128.08l-.026.002.002-.002Zm-.727-1.048.692.59 2.254-3.315-.87-.563-2.076 3.288Z"
      fill="#370A00"></path>
    <path
      d="M24.841 43.633a.186.186 0 0 1-.128-.052l-1.108-1.055a.182.182 0 0 1-.028-.231l1.938-3.075a.184.184 0 0 1 .123-.083.179.179 0 0 1 .145.035l1.322.997c.078.06.097.168.042.249l-2.154 3.135a.179.179 0 0 1-.133.079c-.006.002-.013.002-.019.002v-.002Zm-.871-1.27.842.803 1.93-2.812-1.02-.77-1.751 2.78h-.001Z"
      fill="#370A00"></path>
    <path
      d="M26.824 43.035a.186.186 0 0 1-.127-.05l-.923-.873a.183.183 0 0 1-.03-.23l1.94-3.077a.183.183 0 0 1 .12-.083.193.193 0 0 1 .144.032l1.137.812c.082.059.102.17.046.253l-2.153 3.136a.18.18 0 0 1-.133.078h-.02v.002Zm-.686-1.085.656.619 1.928-2.809-.83-.595-1.754 2.784Z"
      fill="#370A00"></path>
    <path
      d="M28.733 42.314a.185.185 0 0 1-.134-.056l-.846-.885a.182.182 0 0 1-.022-.225l1.937-3.075a.177.177 0 0 1 .125-.084.182.182 0 0 1 .145.037l1.061.826a.181.181 0 0 1 .039.247l-2.154 3.134a.19.19 0 0 1-.137.08h-.014Zm-.614-1.092.59.616 1.927-2.805-.764-.594-1.753 2.783ZM15.94 36.585l-.714-.534c-.005.006-.008.013-.014.019-.075.087-.15.176-.224.265l.597.444-1.871 3.055-.365-.258c-.041.12-.085.24-.128.36l.442.31a.189.189 0 0 0 .144.03.18.18 0 0 0 .12-.084l2.06-3.364a.184.184 0 0 0-.046-.243Z"
      fill="#370A00"></path>
    <path
      d="M15.66 40.005a.184.184 0 0 1-.127-.051l-1.108-1.056a.185.185 0 0 1-.03-.23l2.123-3.398a.18.18 0 0 1 .122-.084.187.187 0 0 1 .145.035l1.323.997a.183.183 0 0 1 .042.248l-2.337 3.457a.189.189 0 0 1-.133.08h-.02v.002Zm-.871-1.27.84.802 2.118-3.13-1.023-.772-1.935 3.1Z"
      fill="#370A00"></path>
    <path
      d="M17.828 39.454a.186.186 0 0 1-.127-.05l-1.108-1.056a.183.183 0 0 1-.027-.23l2.26-3.582a.184.184 0 0 1 .267-.048l1.323.996a.183.183 0 0 1 .041.25l-2.476 3.639a.185.185 0 0 1-.133.08h-.02v.001Zm-.871-1.268.84.801 2.256-3.315-1.022-.771-2.074 3.285Z"
      fill="#370A00"></path>
    <path
      d="M19.952 38.765a.19.19 0 0 1-.125-.046l-.969-.874a.182.182 0 0 1-.032-.234l2.26-3.58a.18.18 0 0 1 .119-.082c.05-.01.1 0 .143.029l1.183.813c.083.057.105.17.049.254l-2.476 3.64a.187.187 0 0 1-.132.08h-.021Zm-.73-1.088.695.627 2.255-3.314-.875-.601-2.076 3.288Z"
      fill="#370A00"></path>
    <path
      d="M21.888 38.306a.183.183 0 0 1-.119-.045l-.97-.825a.183.183 0 0 1-.035-.238l2.4-3.765a.187.187 0 0 1 .116-.082c.049-.011.098 0 .14.025l1.184.768a.186.186 0 0 1 .052.258l-2.614 3.824a.186.186 0 0 1-.128.078l-.025.002Zm-.726-1.045.69.59 2.393-3.5-.87-.565-2.213 3.474v.001Z"
      fill="#370A00"></path>
    <path
      d="M24.011 37.847a.189.189 0 0 1-.128-.051l-1.106-1.055a.183.183 0 0 1-.028-.233l2.261-3.489a.185.185 0 0 1 .267-.047l1.323.996c.078.06.095.17.04.251l-2.476 3.547a.18.18 0 0 1-.133.079h-.018l-.002.002Zm-.87-1.267.842.803 2.25-3.228-1.022-.771-2.07 3.196Z"
      fill="#370A00"></path>
    <path
      d="M26.318 36.837a.188.188 0 0 1-.128-.05l-.923-.874a.184.184 0 0 1-.028-.23l1.936-3.077a.191.191 0 0 1 .122-.082c.049-.011.101 0 .143.03l1.138.813c.08.06.101.171.045.253l-2.154 3.135a.183.183 0 0 1-.133.078c-.007 0-.012.003-.018.003v.001Zm-.687-1.086.657.62 1.929-2.808-.832-.595-1.754 2.783Z"
      fill="#370A00"></path>
    <path
      d="M28.224 36.115a.182.182 0 0 1-.133-.057l-.846-.885a.183.183 0 0 1-.023-.224l1.938-3.076a.186.186 0 0 1 .27-.048l1.062.826c.076.06.093.168.038.25l-2.152 3.133a.19.19 0 0 1-.139.08h-.014l-.001.001Zm-.614-1.092.59.617 1.928-2.806-.764-.593-1.754 2.782ZM19.028 48.591a.183.183 0 0 1-.119-.042l-2.86-2.388a.183.183 0 0 1-.027-.254l1.108-1.422a.183.183 0 0 1 .126-.07c.05-.006.1.009.139.041l2.86 2.388a.185.185 0 0 1 .028.253l-1.107 1.423a.182.182 0 0 1-.127.07l-.02.001h-.001Zm-2.606-2.598 2.577 2.15.882-1.132-2.577-2.152-.881 1.134h-.001Z"
      fill="#370A00"></path>
    <path
      d="M21.196 48.04a.185.185 0 0 1-.118-.041l-2.86-2.389a.182.182 0 0 1-.027-.252l1.106-1.424a.19.19 0 0 1 .127-.07c.05-.006.1.008.138.042l2.86 2.387a.182.182 0 0 1 .027.252l-1.107 1.424a.186.186 0 0 1-.126.07h-.02v.002Zm-2.606-2.598 2.576 2.151.882-1.132-2.577-2.151-.882 1.132h.001Z"
      fill="#370A00"></path>
    <path
      d="M23.318 47.306a.183.183 0 0 1-.118-.044l-2.86-2.387a.183.183 0 0 1-.027-.253l1.108-1.423a.187.187 0 0 1 .126-.07c.05-.007.1.01.14.041l2.859 2.388a.183.183 0 0 1 .027.253l-1.108 1.423a.184.184 0 0 1-.125.07h-.02l-.002.002Zm-2.605-2.598 2.578 2.15.881-1.132-2.578-2.151-.881 1.133Z"
      fill="#370A00"></path>
    <path
      d="M25.487 46.526a.18.18 0 0 1-.118-.043l-2.86-2.388a.184.184 0 0 1-.027-.254l1.106-1.423a.188.188 0 0 1 .126-.07c.05-.004.1.01.14.043l2.86 2.387a.184.184 0 0 1 .027.253l-1.107 1.423a.185.185 0 0 1-.127.07h-.019v.002Zm-2.606-2.6 2.578 2.152.881-1.133-2.577-2.15-.882 1.131Z"
      fill="#370A00"></path>
    <path
      d="M27.563 46.112a.182.182 0 0 1-.118-.044l-2.861-2.387a.184.184 0 0 1-.027-.254l1.108-1.422a.177.177 0 0 1 .126-.07c.05-.006.1.009.138.041l2.86 2.388a.184.184 0 0 1 .027.253L27.71 46.04a.188.188 0 0 1-.127.07l-.02.002Zm-2.605-2.6 2.577 2.152.88-1.133-2.577-2.152-.88 1.134Z"
      fill="#370A00"></path>
    <path
      d="M29.547 45.423a.189.189 0 0 1-.12-.042l-2.859-2.388a.184.184 0 0 1-.027-.253l1.107-1.423a.186.186 0 0 1 .264-.03l2.86 2.389a.183.183 0 0 1 .027.253l-1.106 1.423a.183.183 0 0 1-.126.07h-.02Zm-2.606-2.598 2.577 2.15.882-1.131-2.578-2.152-.881 1.133Z"
      fill="#370A00"></path>
    <path
      d="M31.392 44.78a.181.181 0 0 1-.119-.043l-2.859-2.387a.183.183 0 0 1-.028-.253l1.108-1.423a.187.187 0 0 1 .126-.072c.05-.005.1.011.139.044l2.86 2.387a.183.183 0 0 1 .027.253L31.54 44.71a.185.185 0 0 1-.127.07h-.02Zm-2.605-2.598 2.577 2.151.88-1.133-2.577-2.151-.88 1.133Z"
      fill="#370A00"></path>
    <path
      d="M33.422 44.322a.18.18 0 0 1-.118-.044l-2.86-2.388a.183.183 0 0 1-.027-.253l1.106-1.423a.188.188 0 0 1 .127-.07.176.176 0 0 1 .137.043l2.86 2.386a.183.183 0 0 1 .027.253l-1.106 1.424a.188.188 0 0 1-.126.07l-.02.002Zm-2.606-2.6 2.577 2.152.882-1.133-2.578-2.151-.881 1.132ZM18.982 34.817a.174.174 0 0 1-.117-.042l-.554-.46a.184.184 0 0 1-.024-.258.187.187 0 0 1 .26-.023l.554.459a.183.183 0 0 1-.118.324ZM21.196 34.542a.184.184 0 0 1-.117-.042l-.784-.643a.181.181 0 0 1-.025-.258c.064-.08.18-.09.26-.026l.784.644c.078.064.091.18.025.258a.179.179 0 0 1-.142.067Z"
      fill="#370A00"></path>
    <path
      d="M17.075 49.098h-.08c-2.275-.048-4.137-2.688-4.333-6.142-.179-3.144.974-5.912 3.162-7.594 2.125-1.634 6.504-2.269 7.796-2.425l.044.365c-1.268.153-5.564.775-7.614 2.35-2.09 1.608-3.191 4.262-3.02 7.283.182 3.208 1.926 5.752 3.972 5.796 2.097.045 7.711-1.819 10.724-2.82l.333-.11c2.849-.944 7.521-2.304 7.717-2.304v.367c-.244.038-4.653 1.31-7.6 2.287l-.333.11c-3.207 1.065-8.547 2.839-10.767 2.839v-.002Z"
      fill="#370A00"></path>
    <path
      d="M14.968 25.956c-.765 1.563-2.539 1.969-3.746 3.121 1.459.52 3.018.439 4.485 1.124 1.311.611 2.466 1.554 3.713 2.255 1.255.704 1.636 2.353 2.1 3.693.543 1.57 1.066 3.096 1.479 4.684.349 1.345.562 2.65.648 4.035.078 1.251.245 3.087-.154 4.238 1.29-.437 2.656-.954 3.954-1.273.731-.179 7.554-2.017 9.114-2.477 1.18-.348 2.4-.555 3.596-.869 1.223-.322 2.613-.315 2.126-1.809-1.336-4.114-3.455-7.999-6.733-10.913-2.03-1.805-4.218-3.362-6.722-4.428-1.067-.454-2.182-.804-3.236-1.285-.555-.253-1.554-.549-1.857-1.103l-8.766 1.01v-.003Z"
      fill="url(#catalog_svg__d)"></path>
    <path
      d="M55.69 50.046c.123-1.042.86-3.062 4.12-6.428 3.261-3.367 5.476-6 7.322-5.081 1.783 1.53 4.798 4.836 5.658 6.306.86 1.469 1.97 4.04-.43 5.386-2.398 1.346-7.38 1.714-11.197.918a278.612 278.612 0 0 0-5.473-1.101Z"
      fill="#C9C9C7"></path>
    <path
      d="M20.69.215c-3.383.115-4.492 2.693-5.906 5.999-1.415 3.305-2.952 7.223-3.383 8.876-.43 1.653.245 4.286 6.52 9.489 6.275 5.205 16.67 15.55 27.436 21.366 10.765 5.815 10.457 3.796 10.457 3.796s.985-3 5.783-7.653c4.799-4.653 5.905-3.305 5.905-3.305s-3.014-3.061-5.29-6.244c-2.277-3.184-7.69-10.836-9.473-15.795-1.784-4.958-3.137-8.938-4.86-9.305-1.722-.368-5.35 3.305-9.35 2.143-3.998-1.162-9.165-4.959-11.502-6.55-2.34-1.594-4.554-2.879-6.338-2.817Z"
      fill="#000"></path>
    <path
      d="M27.948 14.479s3.014-1.286 4.798-1.164c.985-.919 2.583-2.143 3.628-2.449 1.047-.306 3.383-1.04 3.383-1.04s-4.736-.429-7.996-2.816C28.5 4.622 23.826 1.072 21.61.827c-2.215-.246-4.06.673-3.322 4.408.738 3.734 1.968 7.347 4.49 8.693 2.523 1.346 4.799.612 5.168.55Z"
      fill="url(#catalog_svg__e)"></path>
    <path
      d="M17.86 2.05c-.403 1.3-.37 5.204 1.845 9.183 2.215 3.978 5.906 4.53 8.243 3.244-1.968.184-5.66.183-7.505-3.735-1.845-3.918-1.968-8.019-1.415-8.753.553-.736 2.644-1.898 4.982-.123s6.951 4.958 8.92 6.061c1.968 1.102 4.798 1.959 6.213 1.897-2.706-.856-5.044-1.285-10.642-5.386-4.013-2.94-5.597-4.04-7.628-4.04-2.032 0-2.768.856-3.015 1.652h.001Z"
      fill="#E7E8E2"></path>
    <path
      d="M33.669 13.437s.676-1.224 1.782-1.775c1.109-.55 4.307-1.837 4.307-1.837s-3.751.123-5.474 1.593c-1.723 1.469-1.538 1.897-1.538 1.897l.923.122Z"
      fill="#E7E8E2"></path>
    <path
      d="M38.613 20.952c0 .951-.775 1.722-1.73 1.722-.956 0-1.731-.77-1.731-1.722 0-.95.775-1.722 1.73-1.722.956 0 1.73.771 1.73 1.722Z"
      fill="url(#catalog_svg__f)"></path>
    <path
      d="M41.288 25.084c0 .875-.713 1.584-1.592 1.584-.878 0-1.591-.71-1.591-1.584a1.59 1.59 0 0 1 1.591-1.585c.879 0 1.592.71 1.592 1.585Z"
      fill="url(#catalog_svg__g)"></path>
    <path
      d="M44.565 29.17c0 .875-.713 1.583-1.592 1.583a1.588 1.588 0 0 1-1.591-1.584c0-.875.712-1.585 1.591-1.585s1.592.71 1.592 1.585Z"
      fill="url(#catalog_svg__h)"></path>
    <path
      d="M47.932 32.843c0 .874-.713 1.584-1.592 1.584-.878 0-1.591-.71-1.591-1.584 0-.876.713-1.584 1.591-1.584.879 0 1.592.71 1.592 1.584Z"
      fill="url(#catalog_svg__i)"></path>
    <path
      d="M51.207 36.93c0 .874-.712 1.583-1.591 1.583s-1.592-.71-1.592-1.584c0-.874.713-1.584 1.592-1.584.879 0 1.591.71 1.591 1.584Z"
      fill="url(#catalog_svg__j)"></path>
    <path
      d="M54.063 41.906a1.579 1.579 0 0 0 0-2.24 1.597 1.597 0 0 0-2.25 0 1.579 1.579 0 0 0 0 2.24c.621.619 1.629.619 2.25 0Z"
      fill="url(#catalog_svg__k)"></path>
    <path
      d="M40.735 25.038c0 .571-.465 1.034-1.039 1.034a1.035 1.035 0 0 1-1.038-1.034c0-.57.464-1.033 1.038-1.033.574 0 1.039.462 1.039 1.033ZM37.92 20.952c0 .57-.464 1.033-1.037 1.033a1.036 1.036 0 0 1-1.038-1.033c0-.571.464-1.035 1.038-1.035.574 0 1.037.464 1.037 1.035Z"
      fill="#111"></path>
    <path
      d="M35.614 17.094c0 .952-.775 1.723-1.73 1.723-.956 0-1.73-.77-1.73-1.723 0-.952.774-1.72 1.73-1.72.955 0 1.73.77 1.73 1.72Z"
      fill="url(#catalog_svg__l)"></path>
    <path
      d="M34.922 17.094c0 .572-.465 1.035-1.038 1.035a1.034 1.034 0 1 1 0-2.067c.572 0 1.038.462 1.038 1.032ZM44.15 29.078c0 .57-.465 1.033-1.039 1.033a1.035 1.035 0 0 1-1.038-1.033c0-.57.465-1.033 1.038-1.033s1.038.463 1.038 1.033ZM47.425 32.889c0 .57-.464 1.033-1.038 1.033a1.035 1.035 0 0 1-1.039-1.033c0-.571.466-1.034 1.039-1.034s1.038.464 1.038 1.034ZM50.746 36.93c0 .57-.464 1.032-1.038 1.032a1.034 1.034 0 0 1-1.039-1.032c0-.571.465-1.033 1.039-1.033.574 0 1.038.463 1.038 1.033ZM54.206 40.786c0 .571-.465 1.034-1.038 1.034a1.036 1.036 0 0 1-1.038-1.034c0-.57.465-1.033 1.038-1.033s1.038.462 1.038 1.033Z"
      fill="#111"></path>
    <path
      d="M47.816 7.989c.853.392 2.707 4.775 3.507 6.918-.923.489-1.723.183-1.723.183s-1.722-2.326-3.199-3.856c-1.476-1.53-2.83-2.081-2.83-2.081s3.446-1.53 4.245-1.163v-.001Z"
      fill="url(#catalog_svg__m)"></path>
    <path
      d="M17.001 2.566h-.018a.183.183 0 0 1-.166-.2c.017-.165.037-.323.061-.466a.183.183 0 0 1 .212-.151c.1.017.169.112.152.21a6.165 6.165 0 0 0-.057.443.184.184 0 0 1-.184.166v-.002ZM55.386 48.136a.185.185 0 0 1-.178-.237c.09-.29.175-.588.256-.886a.184.184 0 0 1 .227-.128.182.182 0 0 1 .13.224c-.082.301-.168.602-.258.896a.184.184 0 0 1-.177.131Zm.53-1.97c-.013 0-.027-.002-.042-.004a.185.185 0 0 1-.138-.221c.071-.302.138-.605.199-.9a.184.184 0 0 1 .36.072 32.26 32.26 0 0 1-.198.911.186.186 0 0 1-.181.142Zm.394-2c-.01 0-.019 0-.028-.003a.183.183 0 0 1-.153-.21c.048-.311.088-.617.123-.912a.183.183 0 0 1 .203-.162.184.184 0 0 1 .163.204 25.8 25.8 0 0 1-.125.926.187.187 0 0 1-.184.156h.001Zm.203-2.029a.183.183 0 0 1-.183-.183 5.657 5.657 0 0 0-.075-.892.182.182 0 0 1 .152-.21.185.185 0 0 1 .213.151c.051.308.078.628.078.95a.184.184 0 0 1-.185.184Zm-.372-1.99a.186.186 0 0 1-.172-.117 5.78 5.78 0 0 0-.391-.807.181.181 0 0 1 .066-.25.185.185 0 0 1 .252.066c.165.282.307.57.418.858a.183.183 0 0 1-.172.25h-.001Zm-1.037-1.746a.185.185 0 0 1-.145-.071c-.177-.22-.373-.447-.6-.689a.181.181 0 0 1 .009-.258.184.184 0 0 1 .261.009c.233.248.435.48.618.71a.183.183 0 0 1-.144.299h.001Zm-1.395-1.492a.187.187 0 0 1-.128-.051 32.487 32.487 0 0 0-.413-.396l-.259-.247a.184.184 0 0 1-.004-.26.184.184 0 0 1 .26-.005l.258.247c.138.131.277.264.414.398a.183.183 0 0 1-.129.315l.001-.001Zm-1.46-1.428a.183.183 0 0 1-.133-.057l-.066-.068c-.173-.183-.365-.388-.572-.61a.181.181 0 0 1 .008-.26.183.183 0 0 1 .26.009l.573.61.062.066a.182.182 0 0 1-.007.26.183.183 0 0 1-.126.051Zm-1.396-1.496c-.049 0-.1-.02-.135-.06-.2-.218-.41-.448-.629-.685a.183.183 0 0 1 .012-.26.185.185 0 0 1 .26.014c.218.236.427.466.629.683a.183.183 0 0 1-.012.26.182.182 0 0 1-.126.048h.001Zm-1.378-1.51a.18.18 0 0 1-.137-.06l-.623-.69a.185.185 0 0 1 .013-.26.186.186 0 0 1 .262.015l.622.69a.184.184 0 0 1-.014.26.181.181 0 0 1-.122.045h-.001Zm-1.368-1.519a.18.18 0 0 1-.137-.061l-.618-.695a.183.183 0 0 1 .016-.26.184.184 0 0 1 .261.018c.206.233.412.466.616.693a.183.183 0 0 1-.138.306Zm-1.353-1.53a.186.186 0 0 1-.14-.063c-.204-.235-.408-.468-.61-.702a.183.183 0 0 1 .018-.259.185.185 0 0 1 .26.02l.61.698a.183.183 0 0 1-.139.305Zm-1.339-1.545a.185.185 0 0 1-.14-.066c-.205-.238-.406-.474-.603-.707a.183.183 0 0 1 .023-.26.183.183 0 0 1 .259.023c.197.233.398.47.601.706a.185.185 0 0 1-.14.304Zm-1.317-1.562a.183.183 0 0 1-.142-.068c-.203-.244-.4-.485-.59-.72a.182.182 0 0 1 .027-.258.186.186 0 0 1 .26.028c.19.234.386.473.587.718a.183.183 0 0 1-.025.258.177.177 0 0 1-.117.043v-.001Zm-1.282-1.594a.183.183 0 0 1-.147-.072 76.437 76.437 0 0 1-.565-.74.184.184 0 0 1 .296-.219c.191.253.379.498.562.736a.183.183 0 0 1-.146.295Zm-1.227-1.634a.184.184 0 0 1-.15-.076 114.51 114.51 0 0 1-.547-.753.184.184 0 0 1 .3-.214c.183.253.365.504.545.75a.184.184 0 0 1-.148.293Zm-1.195-1.658a.183.183 0 0 1-.151-.078l-.538-.757a.183.183 0 0 1 .045-.255c.083-.06.199-.04.257.044l.536.757a.183.183 0 0 1-.15.29v-.001Zm-1.18-1.67a.184.184 0 0 1-.152-.077l-.533-.76a.183.183 0 0 1 .045-.255.185.185 0 0 1 .258.045l.533.76a.183.183 0 0 1-.15.288Zm-1.176-1.67a.184.184 0 0 1-.151-.078l-.537-.757a.184.184 0 1 1 .3-.213l.539.759a.182.182 0 0 1-.046.255.177.177 0 0 1-.106.034Zm-1.19-1.663a.187.187 0 0 1-.15-.075c-.196-.27-.38-.519-.551-.743a.184.184 0 0 1 .293-.223c.173.226.358.478.556.749a.183.183 0 0 1-.148.291v.001Zm-11.441-.183a5.14 5.14 0 0 1-.394-.013.184.184 0 1 1 .025-.367c.28.018.584.016.902-.01a.184.184 0 1 1 .03.366 7.464 7.464 0 0 1-.563.024Zm1.652-.189a.184.184 0 0 1-.038-.365c.284-.059.575-.131.89-.22a.184.184 0 1 1 .102.353c-.325.09-.623.166-.916.227a.167.167 0 0 1-.039.004l.001.001Zm-3.13-.024a.195.195 0 0 1-.056-.01 4.107 4.107 0 0 1-.557-.219 15.723 15.723 0 0 1-.323-.162.184.184 0 0 1-.08-.247.184.184 0 0 1 .248-.079c.105.054.21.105.316.156.163.078.333.147.508.201a.183.183 0 0 1-.056.36Zm5.098-.537a.183.183 0 0 1-.06-.357c.297-.103.589-.208.873-.312a.184.184 0 1 1 .128.344c-.288.106-.582.212-.88.315a.177.177 0 0 1-.06.01Zm-6.922-.38a.18.18 0 0 1-.097-.03c-.27-.167-.535-.345-.783-.525a.183.183 0 0 1-.04-.257c.06-.083.176-.1.259-.04.24.175.496.348.759.51a.182.182 0 0 1 .058.253.184.184 0 0 1-.157.087l.001.001Zm13.49-.302a.185.185 0 0 1-.139-.064 4.654 4.654 0 0 0-.137-.148 1.974 1.974 0 0 0-.521-.397.184.184 0 1 1 .17-.325c.222.114.43.274.619.469l.146.16a.184.184 0 0 1-.138.306v-.001Zm-4.647-.027a.184.184 0 0 1-.172-.116.181.181 0 0 1 .105-.237c.299-.116.59-.23.874-.333a.185.185 0 0 1 .236.111.183.183 0 0 1-.11.235c-.281.102-.57.215-.866.329a.18.18 0 0 1-.067.012Zm1.935-.663a.186.186 0 0 1-.18-.14.185.185 0 0 1 .136-.223c.357-.085.67-.13.96-.136.1-.003.186.078.19.18a.185.185 0 0 1-.182.187 4.048 4.048 0 0 0-.879.127.224.224 0 0 1-.044.005h-.001Zm-12.415-.23a.19.19 0 0 1-.124-.047 10.193 10.193 0 0 1-.671-.667.181.181 0 0 1 .012-.258.186.186 0 0 1 .26.012c.202.22.42.436.647.641a.18.18 0 0 1 .013.259.183.183 0 0 1-.138.06h.001Zm-1.358-1.518a.184.184 0 0 1-.151-.077 9.107 9.107 0 0 1-.508-.8.185.185 0 0 1 .322-.18c.147.262.31.52.486.768a.184.184 0 0 1-.15.29Zm-.977-1.787a.185.185 0 0 1-.171-.115 8.846 8.846 0 0 1-.305-.895.183.183 0 0 1 .128-.226c.098-.029.2.03.228.127.083.291.18.58.292.857a.185.185 0 0 1-.172.252Zm-.555-1.958a.184.184 0 0 1-.18-.145 33.965 33.965 0 0 1-.184-.914.184.184 0 0 1 .147-.214.184.184 0 0 1 .216.147c.055.296.117.6.182.904a.184.184 0 0 1-.141.218c-.013.003-.026.003-.039.003Zm-.366-2.005a.185.185 0 0 1-.183-.157 26.03 26.03 0 0 1-.121-.925.184.184 0 0 1 .367-.042c.033.297.074.603.12.913a.185.185 0 0 1-.156.209l-.027.002ZM16.99 4.6a.185.185 0 0 1-.184-.172c-.02-.327-.031-.64-.034-.936 0-.101.082-.185.183-.185h.001c.102 0 .184.082.184.183.003.287.014.596.034.916a.184.184 0 0 1-.172.194h-.012ZM54.89 49.617a.184.184 0 0 1-.173-.25c0-.001.06-.152.154-.425a.185.185 0 0 1 .234-.114.184.184 0 0 1 .115.233c-.098.281-.158.438-.158.438a.184.184 0 0 1-.172.118ZM14.316 8.017a.185.185 0 0 1-.184-.16 2.852 2.852 0 0 1-.025-.49.186.186 0 0 1 .193-.175c.101.006.18.092.174.193-.005.117.003.26.023.425a.184.184 0 0 1-.16.206h-.023l.002.001ZM16.22 12.387a.562.562 0 0 1-.304-.08.569.569 0 0 1-.117-.099.183.183 0 0 1 .007-.259.185.185 0 0 1 .26.007c.025.026.04.036.045.04a.215.215 0 0 0 .11.024c.07 0 .195-.02.399-.114a.184.184 0 1 1 .155.333c-.215.099-.397.147-.555.147v.001Zm1.306-.659a.184.184 0 0 1-.113-.329c.205-.156.415-.337.609-.52a.185.185 0 0 1 .261.006c.07.073.067.19-.006.259a8.176 8.176 0 0 1-.636.546.186.186 0 0 1-.113.039h-.002Zm-2.1-.3a.186.186 0 0 1-.166-.103c-.11-.23-.223-.486-.335-.76a.182.182 0 0 1 .101-.238.184.184 0 0 1 .241.101c.109.267.218.515.325.737a.183.183 0 0 1-.165.264Zm-.672-1.669a.184.184 0 0 1-.174-.125c-.093-.273-.174-.54-.242-.793a.183.183 0 0 1 .131-.225c.099-.027.2.031.226.13.066.246.145.504.235.772.031.096-.02.2-.117.232a.173.173 0 0 1-.059.009ZM19.274 10.62a.185.185 0 0 1-.17-.111c-.004-.008-.028-.052-.148.008a.185.185 0 0 1-.248-.083.183.183 0 0 1 .083-.246.519.519 0 0 1 .415-.044c.162.06.227.194.238.22a.185.185 0 0 1-.17.257ZM21.428 26.966a.186.186 0 0 1-.167-.104s-.074-.153-.197-.417a.184.184 0 0 1 .334-.155c.122.26.196.413.196.413a.183.183 0 0 1-.166.263ZM20.791 25.588a.185.185 0 0 1-.169-.11c-.111-.25-.231-.523-.355-.81a.185.185 0 0 1 .098-.243.184.184 0 0 1 .242.098c.123.287.242.558.354.808a.183.183 0 0 1-.17.258v-.001Zm-.761-1.79a.184.184 0 0 1-.172-.113c-.11-.274-.219-.55-.323-.827a.185.185 0 0 1 .108-.237.184.184 0 0 1 .238.108c.102.274.21.549.32.82a.183.183 0 0 1-.172.25Zm-.676-1.82a.184.184 0 0 1-.175-.127 14.62 14.62 0 0 1-.258-.857.184.184 0 0 1 .132-.224c.1-.025.2.034.225.131.066.251.15.531.25.835a.183.183 0 0 1-.174.242Zm6.491-.586c-.064 0-.127-.002-.189-.003a.184.184 0 0 1-.18-.189.188.188 0 0 1 .191-.178c.268.008.556-.003.866-.026a.183.183 0 0 1 .198.17.185.185 0 0 1-.17.197 9.722 9.722 0 0 1-.716.029Zm-1.238-.13a.21.21 0 0 1-.041-.006 7.267 7.267 0 0 1-.87-.263.183.183 0 0 1-.11-.236.185.185 0 0 1 .237-.11c.295.11.566.19.826.251.1.023.161.12.138.22a.185.185 0 0 1-.18.143Zm2.996-.024a.184.184 0 0 1-.028-.365c.276-.045.567-.097.864-.156a.183.183 0 1 1 .073.36c-.302.06-.599.114-.88.158-.01.002-.02.002-.03.002Zm1.91-.392a.185.185 0 0 1-.178-.14.184.184 0 0 1 .135-.222c.28-.069.566-.144.851-.225.099-.028.2.03.229.126.026.098-.03.2-.128.227-.29.081-.58.158-.863.227a.176.176 0 0 1-.046.006v.001Zm-6.734-.254a.168.168 0 0 1-.078-.018c-.291-.135-.568-.273-.803-.39a.183.183 0 0 1-.08-.247.186.186 0 0 1 .248-.082c.232.117.505.253.79.387a.182.182 0 0 1 .09.243.185.185 0 0 1-.167.106v.001Zm-3.872-.5a.185.185 0 0 1-.185-.172 2.493 2.493 0 0 1-.006-.167c0-.285.057-.486.174-.62a.694.694 0 0 1 .208-.166c.089-.05.2-.016.25.073.049.089.016.2-.074.248a.363.363 0 0 0-.104.086c-.032.036-.084.133-.084.38 0 .045.002.093.005.142a.182.182 0 0 1-.172.195h-.012Zm2.125-.364a.17.17 0 0 1-.08-.02 7.647 7.647 0 0 0-.795-.342.184.184 0 1 1 .122-.346c.228.08.492.194.832.358a.184.184 0 0 1-.08.35h.002ZM31.386 20.316a.185.185 0 0 1-.057-.36c.272-.086.43-.141.432-.142a.183.183 0 1 1 .122.346s-.163.057-.442.147a.168.168 0 0 1-.056.01ZM28.206 15.042a.186.186 0 0 1-.153-.082l-.258-.38a.184.184 0 0 1 .05-.255.187.187 0 0 1 .257.05l.257.38a.184.184 0 0 1-.153.287Z"
      fill="#fff"></path>
    <path
      d="M50.288 46.157a.165.165 0 0 1-.043-.006.182.182 0 0 1-.138-.22c.082-.347.147-.65.196-.898a.182.182 0 0 1 .216-.147c.1.018.166.115.146.214-.048.256-.116.563-.198.915a.186.186 0 0 1-.18.141v.001Zm.242-2.006a.182.182 0 0 1-.178-.137 4.44 4.44 0 0 0-.324-.826.184.184 0 0 1 .086-.247.185.185 0 0 1 .247.086c.164.337.282.639.348.897a.183.183 0 0 1-.18.227h.001Zm-.881-1.83a.183.183 0 0 1-.157-.087c-.154-.244-.326-.5-.512-.762a.183.183 0 0 1 .046-.256.183.183 0 0 1 .256.044c.19.268.366.53.522.779.055.086.029.199-.058.253a.18.18 0 0 1-.097.028v.001Zm-1.184-1.662a.183.183 0 0 1-.146-.07 31.534 31.534 0 0 0-.58-.716.183.183 0 0 1 .023-.26.185.185 0 0 1 .26.024c.206.247.403.49.588.725a.184.184 0 0 1-.145.298v-.001Zm-1.313-1.564a.185.185 0 0 1-.138-.061c-.197-.221-.404-.45-.622-.685a.18.18 0 0 1 .01-.258.185.185 0 0 1 .26.01c.22.236.43.465.629.688a.183.183 0 0 1-.138.307l-.001-.001ZM45.759 37.6a.184.184 0 0 1-.133-.056 77.3 77.3 0 0 0-.645-.653.184.184 0 1 1 .256-.265l.004.004c.225.224.442.443.65.657a.183.183 0 0 1-.004.26.181.181 0 0 1-.128.052v.001Zm-1.433-1.46a.187.187 0 0 1-.133-.056c-.21-.22-.421-.449-.637-.683a.182.182 0 0 1 .013-.26.183.183 0 0 1 .26.013c.214.232.425.459.633.677.07.073.066.19-.008.259a.183.183 0 0 1-.127.05h-.001Zm-1.38-1.507a.182.182 0 0 1-.139-.063 67.56 67.56 0 0 1-.614-.7.182.182 0 0 1 .019-.259.185.185 0 0 1 .26.019c.205.236.408.469.61.697a.18.18 0 0 1-.015.258.177.177 0 0 1-.121.048Zm-1.34-1.548a.186.186 0 0 1-.14-.065c-.2-.234-.399-.473-.6-.713a.183.183 0 0 1 .026-.258.183.183 0 0 1 .259.023c.2.24.398.476.596.71a.184.184 0 0 1-.021.26.186.186 0 0 1-.119.042v.001ZM40.3 31.515a.19.19 0 0 1-.144-.068l-.588-.722a.184.184 0 1 1 .288-.23c.196.242.39.481.586.72a.183.183 0 0 1-.142.3Zm-1.286-1.592a.18.18 0 0 1-.144-.07l-.577-.728a.184.184 0 0 1 .032-.259.186.186 0 0 1 .26.032c.188.241.382.484.574.726a.184.184 0 0 1-.145.298v.001Zm-1.264-1.606a.18.18 0 0 1-.145-.07c-.192-.248-.383-.493-.57-.737a.183.183 0 0 1 .035-.258.185.185 0 0 1 .258.036l.569.734a.184.184 0 0 1-.146.296l-.001-.001Zm-1.247-1.62a.184.184 0 0 1-.147-.072c-.192-.25-.38-.498-.563-.74a.183.183 0 0 1 .036-.258.185.185 0 0 1 .258.037l.562.738a.184.184 0 0 1-.145.296h-.001Zm-1.234-1.631a.183.183 0 0 1-.148-.073l-.556-.746a.184.184 0 1 1 .297-.219c.178.241.364.49.555.744a.183.183 0 0 1-.147.294Zm-1.219-1.642a.186.186 0 0 1-.148-.075c-.196-.266-.38-.518-.55-.752a.185.185 0 0 1 .04-.258.185.185 0 0 1 .258.042l.548.75a.182.182 0 0 1-.04.256.187.187 0 0 1-.109.036l.001.001Zm-1.2-1.656a.182.182 0 0 1-.15-.077c-.133-.185-.25-.35-.35-.494l-.185-.263a.185.185 0 0 1 .044-.259.184.184 0 0 1 .256.044l.186.267c.1.143.218.307.35.491.058.083.04.197-.044.256a.181.181 0 0 1-.107.035Zm-1.175-1.673a.187.187 0 0 1-.152-.079l-.528-.764a.185.185 0 0 1 .047-.256.188.188 0 0 1 .256.047l.529.763a.182.182 0 0 1-.047.255.179.179 0 0 1-.104.034h-.001Zm-1.162-1.682a.183.183 0 0 1-.151-.08l-.527-.764a.183.183 0 0 1 .048-.256.186.186 0 0 1 .257.048l.526.765a.184.184 0 0 1-.153.287Zm-1.156-1.684a.18.18 0 0 1-.152-.082l-.525-.766a.183.183 0 0 1 .05-.255.186.186 0 0 1 .256.05l.525.766a.184.184 0 0 1-.153.287h-.001ZM49.908 47.658a.184.184 0 0 1-.177-.233s.047-.173.116-.44a.184.184 0 0 1 .357.09c-.07.271-.119.447-.119.447a.184.184 0 0 1-.177.136ZM28.945 14.796a.19.19 0 0 1-.153-.08l-.259-.38a.183.183 0 0 1 .05-.254.186.186 0 0 1 .256.049l.258.38a.183.183 0 0 1-.152.286ZM50.94 46.664c-.012 0-.024 0-.035-.003a.185.185 0 0 1-.147-.215c.054-.287.111-.59.163-.881a.187.187 0 0 1 .215-.148c.1.018.167.114.15.213-.054.293-.11.596-.165.884a.185.185 0 0 1-.182.15Zm.34-1.947c-.008 0-.017 0-.026-.003a.183.183 0 0 1-.157-.207c.019-.142.035-.262.041-.353v-.048c0-.11-.023-.248-.07-.41a.184.184 0 0 1 .355-.1c.057.195.084.366.084.51 0 .026 0 .053-.003.077a6.351 6.351 0 0 1-.043.375.186.186 0 0 1-.183.158l.001.001Zm-.451-1.878a.185.185 0 0 1-.164-.098c-.125-.24-.275-.497-.444-.764a.183.183 0 0 1 .059-.253.184.184 0 0 1 .254.057c.175.276.327.54.459.789a.183.183 0 0 1-.164.268Zm-1.056-1.668a.186.186 0 0 1-.15-.077 24.905 24.905 0 0 0-.536-.712.184.184 0 0 1 .29-.227c.192.245.374.489.545.724a.184.184 0 0 1-.15.292Zm-1.22-1.556a.183.183 0 0 1-.141-.066 43.733 43.733 0 0 0-.585-.678.184.184 0 1 1 .277-.242c.208.237.406.463.591.684a.182.182 0 0 1-.023.258.182.182 0 0 1-.118.043l-.001.001Zm-1.313-1.48a.189.189 0 0 1-.137-.057 57.71 57.71 0 0 0-.616-.652.181.181 0 0 1 .005-.259.185.185 0 0 1 .26.004c.216.225.423.443.622.655a.184.184 0 0 1-.135.31Zm-1.378-1.421a.179.179 0 0 1-.13-.054l-.014-.015c-.202-.2-.408-.411-.62-.63a.182.182 0 0 1 .007-.26.184.184 0 0 1 .26.007c.21.217.413.426.613.625l.015.015a.18.18 0 0 1 0 .259.182.182 0 0 1-.13.054v-.001Zm-1.37-1.43c-.05 0-.1-.02-.136-.061-.199-.217-.4-.44-.606-.668a.182.182 0 0 1 .016-.26.186.186 0 0 1 .261.015c.203.227.404.45.602.666a.184.184 0 0 1-.135.308h-.002Zm-1.319-1.478a.18.18 0 0 1-.139-.065 63.082 63.082 0 0 1-.59-.683.182.182 0 0 1 .022-.258.183.183 0 0 1 .26.02c.197.231.392.457.586.68a.184.184 0 0 1-.019.26.181.181 0 0 1-.12.046Zm-1.285-1.507a.186.186 0 0 1-.14-.067c-.193-.23-.384-.46-.576-.694a.183.183 0 0 1 .025-.258.185.185 0 0 1 .26.026c.19.231.383.463.574.691a.183.183 0 0 1-.023.258.181.181 0 0 1-.119.044Zm-1.258-1.53a.186.186 0 0 1-.143-.068c-.19-.234-.379-.468-.566-.703a.185.185 0 0 1 .289-.23c.187.235.377.469.565.702a.183.183 0 0 1-.144.298Zm-1.236-1.546a.182.182 0 0 1-.145-.07c-.188-.237-.374-.473-.557-.708a.183.183 0 0 1 .031-.258.184.184 0 0 1 .258.033c.185.234.37.47.558.706a.184.184 0 0 1-.145.297Zm-1.22-1.559a.187.187 0 0 1-.147-.072c-.186-.24-.37-.477-.55-.713a.183.183 0 0 1 .034-.257.185.185 0 0 1 .26.034l.549.713a.185.185 0 0 1-.146.296v-.001Zm-1.206-1.571a.182.182 0 0 1-.147-.073c-.184-.244-.367-.483-.543-.718a.183.183 0 0 1 .036-.257.186.186 0 0 1 .258.035l.544.719a.184.184 0 0 1-.148.294Zm-1.191-1.583a.184.184 0 0 1-.15-.074c-.184-.248-.364-.49-.535-.723a.182.182 0 0 1 .039-.257.185.185 0 0 1 .257.04l.537.722a.182.182 0 0 1-.148.292Zm-1.178-1.593a.184.184 0 0 1-.15-.075 124.9 124.9 0 0 1-.53-.73.183.183 0 0 1 .042-.255.185.185 0 0 1 .257.04c.164.227.34.47.53.729a.184.184 0 0 1-.15.291Zm-1.16-1.606a.181.181 0 0 1-.15-.076l-.519-.738a.183.183 0 0 1 .047-.256.184.184 0 0 1 .256.047l.517.735a.183.183 0 0 1-.15.289l-.001-.001Zm-1.135-1.622a.187.187 0 0 1-.153-.079l-.512-.74a.184.184 0 0 1 .048-.256.186.186 0 0 1 .256.047l.512.74a.182.182 0 0 1-.151.288ZM31.18 18.06a.184.184 0 0 1-.153-.08l-.509-.741a.182.182 0 0 1 .049-.256.186.186 0 0 1 .256.05l.51.74c.057.083.035.199-.049.256a.18.18 0 0 1-.103.031h-.001Zm-1.12-1.631a.185.185 0 0 1-.152-.08l-.507-.742a.185.185 0 0 1 .305-.207l.506.742c.059.084.037.199-.048.255a.184.184 0 0 1-.103.032ZM50.646 48.148a.165.165 0 0 1-.037-.005.183.183 0 0 1-.144-.216l.09-.45c.021-.098.116-.163.218-.143.1.019.164.115.145.215-.057.276-.091.45-.091.45a.184.184 0 0 1-.18.148Z"
      fill="#fff"></path>
    <path
      d="M51.842 44.172c-.01 0-.02 0-.027-.002l-.456-.064a.184.184 0 1 1 .05-.364l.457.064a.185.185 0 0 1 .158.208.184.184 0 0 1-.182.157ZM54.355 44.524c-.008 0-.018 0-.026-.002l-1.141-.16a.184.184 0 1 1 .05-.365l1.143.16c.1.014.171.108.157.208a.184.184 0 0 1-.183.158v.001ZM56.182 44.781c-.008 0-.017 0-.025-.002l-.456-.065a.183.183 0 1 1 .051-.363l.458.064c.1.014.17.107.157.206a.185.185 0 0 1-.184.16ZM51.78 45.278c-.01 0-.02 0-.03-.003l-.456-.069a.184.184 0 0 1-.155-.209c.016-.1.11-.17.21-.154l.457.069a.184.184 0 0 1-.028.366h.001ZM53.817 45.586c-.01 0-.02 0-.029-.003l-.926-.14a.184.184 0 1 1 .055-.362l.926.139a.184.184 0 0 1-.027.366ZM55.294 46.272c-.012 0-.024 0-.038-.004a.183.183 0 0 1-.143-.217c.022-.101.04-.189.053-.26l-.267-.04a.18.18 0 0 1-.154-.21.18.18 0 0 1 .21-.151l.456.068c.05.007.094.035.123.074.03.041.04.091.03.14 0 0-.03.178-.088.454a.185.185 0 0 1-.181.147l-.001-.001ZM54.873 47.993a.185.185 0 0 1-.178-.236c.068-.232.137-.49.206-.77a.184.184 0 0 1 .359.087c-.07.285-.14.55-.21.786a.185.185 0 0 1-.178.132v.001ZM54.337 49.312a.183.183 0 0 1-.152-.288c.063-.091.13-.217.198-.375a.187.187 0 0 1 .244-.096c.094.041.136.15.097.243-.081.181-.156.324-.233.435a.189.189 0 0 1-.152.08h-.002Z"
      fill="#fff"></path>
    <path
      d="M37.297 18.762c-1.148.705-1.845 1.593-.923 2.694.185-1.101.493-.978.677-.734.184.244-.614 1.102-.369 1.102.246 0 .923-.06 2.829-.918 1.907-.857 9.842-1.469 11.75-1.225 1.906.245 1.046-1.285.184-1.897-.862-.613-5.782-.796-8.55-.368-2.769.429-4.799.857-5.599 1.346h.001Z"
      fill="url(#catalog_svg__n)"></path>
    <path
      d="M51.938 13.252s-8.858 6.858-10.335 9.245c1.047-.49 5.106-1.346 6.028-1.407 1.232-1.347 5.536-4.715 5.536-4.715l-1.23-3.123h.001Z"
      fill="url(#catalog_svg__o)"></path>
    <path
      d="M38.897 24.762c.1.343.738-.123.984.245.246.367-.553.919.061.919.614 0 3.875-1.653 6.644-1.898 2.768-.245 6.58-.918 8.303-.735-.615-1.408-1.538-2.326-2.337-2.387-.8-.062-4.552-.062-7.627.672-3.077.735-6.46 1.714-6.03 3.183l.002.001Z"
      fill="url(#catalog_svg__p)"></path>
    <path
      d="M53.414 17.232c-.27.337-3.136 3.49-4.675 5.019-1.538 1.53-4.182 3.612-4.182 3.612l2.091 1.959s2.215-1.346 4.614-3.795c2.399-2.45 3.383-3.979 3.506-4.347.123-.367-1.107-2.755-1.354-2.448Z"
      fill="url(#catalog_svg__q)"></path>
    <path
      d="M43.018 29.783c.329.217 2.83-.245 5.475-1.041 2.645-.796 7.32-1.531 8.98-1.287-.983-1.774-1.475-2.265-2.46-2.326-.984-.06-5.166-.06-8.612 1.103-3.444 1.163-4.921 1.776-4.306 2.571.8 0 1.047.061 1.047.307 0 .245-.492.428-.124.674v-.001Z"
      fill="url(#catalog_svg__r)"></path>
    <path
      d="M48.063 29.966s6.644-7.958 7.32-8.388c.615-.06 1.476 1.96 1.476 2.327S53.414 28.74 52 30.026c-1.415 1.286-2.338 1.592-2.338 1.592l-1.599-1.652h.001Z"
      fill="url(#catalog_svg__s)"></path>
    <path
      d="M46.278 32.843c.248.329-.43.795.062.98.491.183 5.167-1.592 7.812-2.144 2.645-.55 5.905-.49 6.274-.427-1.6-1.837-2.583-2.755-3.2-2.878-.614-.122-3.505.245-6.397 1.225-2.891.98-5.659 1.959-5.475 2.756.185.367.738.244.923.49l.001-.002Z"
      fill="url(#catalog_svg__t)"></path>
    <path
      d="M57.597 25.007s-2.214 4.96-6.335 8.51c.861.98 2.276 2.388 2.276 2.388s3.014-3.306 4.306-5.51c1.29-2.203 1.352-3.305 1.352-3.305l-1.599-2.082Z"
      fill="url(#catalog_svg__u)"></path>
    <path
      d="M60.243 29.047s-4.86 6.611-5.66 7.529c2.523.184 4.061-1.162 4.061-1.162s3.26-3.244 3.383-3.918c-.554-1.408-1.415-2.51-1.784-2.449Z"
      fill="url(#catalog_svg__v)"></path>
    <path
      d="M49.724 36.883c.14.279-.617 1.041.245.98.86-.06 10.273-.612 12.425-1.775 2.155-1.163-.737-2.265-1.66-2.51-.923-.246-6.397.857-8.55 1.224-2.153.367-3.568 1.04-3.26 1.713.306.674.676.124.8.368Z"
      fill="url(#catalog_svg__w)"></path>
    <path
      d="M52.8 41.108c.202.479 1.537 1.162 6.334-2.144 4.8-3.305 5.538-3.672 5.538-3.918 0-.245-1.23-2.203-1.785-2.02-.553.183-4.184 2.081-6.274 3.673-2.091 1.592-4.307 3.244-3.814 4.409Z"
      fill="url(#catalog_svg__x)"></path>
    <path
      d="M11.893 13.56s-.923.612-1.046 2.325c-.124 1.715-.061 3.735 3.69 6.795 3.752 3.061 15.317 13.162 15.317 13.162l14.272 11.57 15.808 5.694 10.336-.06 3.442-1.287s1.047-2.265.677-3.856c-.37-1.591-1.045-2.388-1.599-3.06.861 1.958 1.723 4.468-2.092 5.631-3.812 1.162-11.441.428-15.807-1.04-4.368-1.47-11.996-4.591-19.377-10.897-7.382-6.306-14.456-11.999-18.269-15.366-3.814-3.367-5.783-5.694-5.844-7.225-.027-.679.102-1.103.216-1.5.14-.499.277-.887.277-.887h-.001Z"
      fill="#464742"></path>
    <path
      d="M11.063 14.785S9.309 17.17 9.37 19.62c.062 2.449 3.63 5.264 6.889 7.835 3.26 2.572 9.412 7.714 11.933 10.53 2.522 2.817 8.243 8.816 11.627 11.265 3.383 2.447 14.517 8.509 25.527 8.325 11.013-.183 9.659-8.508 9.043-9.671-.246 1.163-.37 4.408-8.98 4.162-8.612-.245-17.47-3.672-24.79-8.447-7.321-4.775-8.463-7.36-13.472-11.325-5.106-4.04-13.78-11.204-15.194-13.162-1.415-1.959-1.015-3.734-.891-4.345v-.002Z"
      fill="#C9C9C7"></path>
    <path
      d="M40.466 47.695c-3.392-1.93-7.688-6.225-11.477-10.015-1.972-1.971-3.835-3.834-5.283-5.063-.955-.811-2.067-1.735-3.247-2.714-4.017-3.336-8.571-7.117-9.582-8.651-.853-1.293-1.218-2.478-1.289-3.405l.459-1.257c-.25.87-.087 2.602 1.139 4.46.98 1.488 5.513 5.252 9.511 8.572 1.18.979 2.293 1.904 3.25 2.714 1.459 1.24 3.327 3.108 5.304 5.084 3.773 3.774 8.048 8.052 11.399 9.956l-.184.32Z"
      fill="#000"></path>
    <path
      d="M67.654 39.73c-.878-.574-4.89 2.02-7.38 5.326-2.492 3.305-1.661 4.867 2.121 5.234 3.784.367 9.873.55 10.613-2.02.736-2.572-2.675-6.795-5.353-8.54h-.001Z"
      fill="url(#catalog_svg__y)"></path>
    <path
      d="M74.39 49.556c0 1.56.092 6.245-6.46 7.254-6.55 1.01-16.147-1.285-26.02-7.07.093-1.838 1.939-3.766 1.939-3.766s9.965 6.336 20.115 6.519c10.148.183 9.963-2.112 10.426-2.938Z"
      fill="url(#catalog_svg__z)"></path>
    <path
      d="M40.342 9.999c-1.145.438-3.711 1.716-3.508 3.196.09.661.835 1.286 1.205 1.835.427.633.576 1.22 1.29 1.378 1.358.296 3.153-.08 4.52-.164.45-.028.93-.05 1.384-.02.353.024.999.252 1.29.188.76-.17 1.189-1.295 2.11-1.396.06-.914-1-1.915-1.923-2.833-2.014-2.005-3.73-3.192-6.367-2.183v-.001Z"
      fill="url(#catalog_svg__A)"></path>
    <path
      d="m63.873 36.791-5.814 4.225s-.368 3.855-.738 5.417c3.323-4.683 7.196-7.804 8.95-8.172-1.292-.919-2.398-1.469-2.398-1.469v-.001Z"
      fill="url(#catalog_svg__B)"></path>
  </g>
  <defs>
    <linearGradient id="catalog_svg__b" x1="3.262" y1="47.792" x2="75.397" y2="47.792" gradientUnits="userSpaceOnUse">
      <stop></stop>
      <stop offset="1"></stop>
    </linearGradient>
    <linearGradient id="catalog_svg__c" x1="3.555" y1="53.363" x2="59.438" y2="22.466" gradientUnits="userSpaceOnUse">
      <stop stop-color="#9E5A28"></stop>
      <stop offset="0.5" stop-color="#532F15"></stop>
      <stop offset="1" stop-color="#9E5A28"></stop>
    </linearGradient>
    <linearGradient id="catalog_svg__d" x1="14.23" y1="42.755" x2="36.214" y2="30.6" gradientUnits="userSpaceOnUse">
      <stop></stop>
      <stop offset="1"></stop>
    </linearGradient>
    <linearGradient id="catalog_svg__e" x1="24.729" y1="15.274" x2="29.551" y2="4.911" gradientUnits="userSpaceOnUse">
      <stop stop-color="#868684"></stop>
      <stop offset="0.99" stop-color="#E8E8E5"></stop>
    </linearGradient>
    <linearGradient id="catalog_svg__f" x1="35.529" y1="22.317" x2="38.79" y2="18.995" gradientUnits="userSpaceOnUse">
      <stop stop-color="#787878"></stop>
      <stop offset="0.52" stop-color="#EBEBEB"></stop>
      <stop offset="1" stop-color="#787878"></stop>
    </linearGradient>
    <linearGradient id="catalog_svg__g" x1="38.452" y1="26.34" x2="41.45" y2="23.284" gradientUnits="userSpaceOnUse">
      <stop stop-color="#787878"></stop>
      <stop offset="0.52" stop-color="#EBEBEB"></stop>
      <stop offset="1" stop-color="#787878"></stop>
    </linearGradient>
    <linearGradient id="catalog_svg__h" x1="41.728" y1="30.425" x2="44.726" y2="27.37" gradientUnits="userSpaceOnUse">
      <stop stop-color="#787878"></stop>
      <stop offset="0.52" stop-color="#EBEBEB"></stop>
      <stop offset="1" stop-color="#787878"></stop>
    </linearGradient>
    <linearGradient id="catalog_svg__i" x1="45.096" y1="34.1" x2="48.094" y2="31.043" gradientUnits="userSpaceOnUse">
      <stop stop-color="#787878"></stop>
      <stop offset="0.52" stop-color="#EBEBEB"></stop>
      <stop offset="1" stop-color="#787878"></stop>
    </linearGradient>
    <linearGradient id="catalog_svg__j" x1="48.371" y1="38.186" x2="51.37" y2="35.13" gradientUnits="userSpaceOnUse">
      <stop stop-color="#787878"></stop>
      <stop offset="0.52" stop-color="#EBEBEB"></stop>
      <stop offset="1" stop-color="#787878"></stop>
    </linearGradient>
    <linearGradient id="catalog_svg__k" x1="51.694" y1="42.042" x2="54.692" y2="38.987" gradientUnits="userSpaceOnUse">
      <stop stop-color="#787878"></stop>
      <stop offset="0.52" stop-color="#EBEBEB"></stop>
      <stop offset="1" stop-color="#787878"></stop>
    </linearGradient>
    <linearGradient id="catalog_svg__l" x1="32.531" y1="18.46" x2="35.79" y2="15.139" gradientUnits="userSpaceOnUse">
      <stop stop-color="#787878"></stop>
      <stop offset="0.52" stop-color="#EBEBEB"></stop>
      <stop offset="1" stop-color="#787878"></stop>
    </linearGradient>
    <linearGradient id="catalog_svg__m" x1="46.573" y1="13.892" x2="48.935" y2="8.815" gradientUnits="userSpaceOnUse">
      <stop stop-color="#868684"></stop>
      <stop offset="0.99" stop-color="#E8E8E5"></stop>
    </linearGradient>
    <linearGradient id="catalog_svg__n" x1="44.352" y1="21.487" x2="43.864" y2="16.834" gradientUnits="userSpaceOnUse">
      <stop stop-color="#D4D6D0"></stop>
      <stop offset="1" stop-color="#EEF1EA"></stop>
    </linearGradient>
    <linearGradient id="catalog_svg__o" x1="49.331" y1="20.201" x2="46.434" y2="17.543" gradientUnits="userSpaceOnUse">
      <stop stop-color="#D4D6D0"></stop>
      <stop offset="1" stop-color="#EEF1EA"></stop>
    </linearGradient>
    <linearGradient id="catalog_svg__p" x1="47.063" y1="24.892" x2="46.375" y2="21.388" gradientUnits="userSpaceOnUse">
      <stop stop-color="#D4D6D0"></stop>
      <stop offset="1" stop-color="#EEF1EA"></stop>
    </linearGradient>
    <linearGradient id="catalog_svg__q" x1="51.937" y1="24.014" x2="48.996" y2="21.613" gradientUnits="userSpaceOnUse">
      <stop stop-color="#D4D6D0"></stop>
      <stop offset="1" stop-color="#EEF1EA"></stop>
    </linearGradient>
    <linearGradient id="catalog_svg__r" x1="49.919" y1="28.998" x2="49.256" y2="25.625" gradientUnits="userSpaceOnUse">
      <stop stop-color="#D4D6D0"></stop>
      <stop offset="1" stop-color="#EEF1EA"></stop>
    </linearGradient>
    <linearGradient id="catalog_svg__s" x1="54.186" y1="28.085" x2="51.492" y2="25.502" gradientUnits="userSpaceOnUse">
      <stop stop-color="#D4D6D0"></stop>
      <stop offset="1" stop-color="#EEF1EA"></stop>
    </linearGradient>
    <linearGradient id="catalog_svg__t" x1="53.081" y1="32.757" x2="52.377" y2="29.17" gradientUnits="userSpaceOnUse">
      <stop stop-color="#D4D6D0"></stop>
      <stop offset="1" stop-color="#EEF1EA"></stop>
    </linearGradient>
    <linearGradient id="catalog_svg__u" x1="57.455" y1="31.786" x2="54.511" y2="29.692" gradientUnits="userSpaceOnUse">
      <stop stop-color="#D4D6D0"></stop>
      <stop offset="1" stop-color="#EEF1EA"></stop>
    </linearGradient>
    <linearGradient id="catalog_svg__v" x1="59.452" y1="34.882" x2="57.188" y2="32.422" gradientUnits="userSpaceOnUse">
      <stop stop-color="#D4D6D0"></stop>
      <stop offset="1" stop-color="#EEF1EA"></stop>
    </linearGradient>
    <linearGradient id="catalog_svg__w" x1="56.384" y1="37.553" x2="55.727" y2="34.206" gradientUnits="userSpaceOnUse">
      <stop stop-color="#D4D6D0"></stop>
      <stop offset="1" stop-color="#EEF1EA"></stop>
    </linearGradient>
    <linearGradient id="catalog_svg__x" x1="59.316" y1="39.044" x2="57.607" y2="36.038" gradientUnits="userSpaceOnUse">
      <stop stop-color="#D4D6D0"></stop>
      <stop offset="1" stop-color="#EEF1EA"></stop>
    </linearGradient>
    <linearGradient id="catalog_svg__y" x1="72.024" y1="51.757" x2="59.435" y2="40.861" gradientUnits="userSpaceOnUse">
      <stop stop-color="#E8E8E6"></stop>
      <stop offset="1" stop-color="#E8E8E6"></stop>
    </linearGradient>
    <linearGradient id="catalog_svg__z" x1="60.599" y1="60.367" x2="56.814" y2="43.637" gradientUnits="userSpaceOnUse">
      <stop stop-color="#E8E8E6"></stop>
      <stop offset="1" stop-color="#E8E8E6"></stop>
    </linearGradient>
    <linearGradient id="catalog_svg__A" x1="39.205" y1="9.85" x2="45.628" y2="17.593" gradientUnits="userSpaceOnUse">
      <stop stop-color="#3B3B38"></stop>
      <stop offset="1" stop-color="#3B3B38"></stop>
    </linearGradient>
    <linearGradient id="catalog_svg__B" x1="61.749" y1="42.263" x2="59.369" y2="37.846" gradientUnits="userSpaceOnUse">
      <stop stop-color="#3B3B38"></stop>
      <stop offset="1" stop-color="#3B3B38"></stop>
    </linearGradient>
    <clipPath id="catalog_svg__a">
      <path fill="#fff" d="M0 0h75.484v60H0z"></path>
    </clipPath>
  </defs>
</svg>
